<?xml version="1.0" encoding="utf-8"?>
<!-- Generator: Adobe Illustrator 22.0.1, SVG Export Plug-In . SVG Version: 6.00 Build 0)  -->
<svg version="1.1" id="Layer_1" xmlns="http://www.w3.org/2000/svg" xmlns:xlink="http://www.w3.org/1999/xlink" x="0px" y="0px"
	 viewBox="0 0 373.1 1505.2" style="enable-background:new 0 0 373.1 1505.2;" xml:space="preserve">
<style type="text/css">
	.st0{fill:url(#SVGID_1_);}
	.st1{fill:#D6A3B0;}
	.st2{fill:#EADAB7;}
	.st3{display:none;fill:url(#SVGID_2_);}
	.st4{fill:url(#SVGID_3_);}
	.st5{fill:url(#SVGID_4_);}
	.st6{fill:url(#SVGID_5_);}
	.st7{fill:url(#SVGID_6_);}
	.st8{fill:url(#SVGID_7_);}
	.st9{fill:url(#SVGID_8_);}
	.st10{fill:url(#SVGID_9_);}
	.st11{fill:url(#SVGID_10_);}
	.st12{fill:url(#SVGID_11_);}
	.st13{fill:url(#SVGID_12_);}
	.st14{fill:url(#SVGID_13_);}
	.st15{fill:url(#SVGID_14_);}
	.st16{fill:url(#SVGID_15_);}
	.st17{fill:url(#SVGID_16_);}
	.st18{fill:url(#SVGID_17_);}
	.st19{fill:url(#SVGID_18_);}
	.st20{fill:url(#SVGID_19_);}
	.st21{fill:url(#SVGID_20_);}
	.st22{fill:url(#SVGID_21_);}
	.st23{fill:url(#SVGID_22_);}
	.st24{fill:url(#SVGID_23_);}
	.st25{fill:url(#SVGID_24_);}
	.st26{fill:url(#SVGID_25_);}
	.st27{fill:url(#SVGID_26_);}
	.st28{fill:url(#SVGID_27_);}
	.st29{fill:url(#SVGID_28_);}
	.st30{fill:url(#SVGID_29_);}
	.st31{fill:url(#SVGID_30_);}
	.st32{display:none;fill:url(#SVGID_31_);}
	.st33{fill:url(#SVGID_32_);}
	.st34{fill:url(#SVGID_33_);}
	.st35{fill:url(#SVGID_34_);}
	.st36{fill:url(#SVGID_35_);}
	.st37{fill:url(#SVGID_36_);}
</style>
<linearGradient id="SVGID_1_" gradientUnits="userSpaceOnUse" x1="-509.2301" y1="1567.4233" x2="-414.6472" y2="1567.4233" gradientTransform="matrix(-0.6164 0.7874 -0.7874 -0.6164 1262.5745 2091.9597)">
	<stop  offset="0.1789" style="stop-color:#A2B442"/>
	<stop  offset="0.3168" style="stop-color:#9BAB40"/>
	<stop  offset="0.5137" style="stop-color:#8C963A"/>
	<stop  offset="0.7449" style="stop-color:#757831"/>
	<stop  offset="0.8449" style="stop-color:#6A692C"/>
	<stop  offset="1" style="stop-color:#706F37"/>
</linearGradient>
<path class="st0" d="M348.5,735.8c-5.3,2-5,5.3-12.5,4.1c2.4-5,4.7-9.8,7-14.6c-2.5,4.2-4.9,8.5-7.6,12.6c-0.7,1.1-2.2,2-3.6,2.2
	c-4.5,0.7-9.2,0.5-13.6,1.5c-11.6,2.8-20.9,8.4-23.6,20.8c-0.1,0.6-0.8,1-1.2,1.6c-2.8,4.1-6.3,7.8-8.1,12.3
	c-3.5,8.9-6.5,18.2,3.3,26.5c0.9,0.3,1.8,0.6,2.7,0.9c1.2-0.2,2.6-0.3,3.7-0.7c2.8-1,3.9-3.2,3.3-6c-0.3-1.4-1.6-2.6-2.5-3.9
	c-0.3,0.2-0.7,0.4-1,0.6c0.2,0.4,0.2,0.8,0.5,1.2c1.3,1.9,2.3,3.8,0.4,5.6c-2,1.8-4.4,1.9-6.8,0.3c-3.3-2.2-5.8-5.1-5.5-8.9
	c0.5-5.1,1.4-10.1,2.9-14.9c1.5-4.5,3.7-8.9,8.3-11.9c0.7,2.8,1.4,5.2,2,7.7c0.9,3.2,2.3,6.5,2.6,9.8c0.2,1.7-1.1,4.7-2.4,5.1
	c-2.6,0.8-3.3-1.9-3.8-4c-0.1-0.3-0.3-0.5-0.9-1.5c-0.9,2.9-0.6,5,1.6,6.6c2.2,1.6,4.3,1.2,5.9-0.7c2.3-2.7,1.4-5.7,0.5-8.8
	c-1.2-4.2-2.4-8.5-3.5-12.8c-0.6-2.2,0.3-3.6,2.5-4.1c4.7-0.9,9.3-2.1,14-2.5c5.3-0.4,9.8-2.2,13.2-5.8c2.5-2.7,4.8-5.7,6.7-8.8
	c1.1-1.8,2.3-2.1,4.5-2.1c5,0,8.7,3.5,9.2,3.5 M332.6,743c-3.8,7.8-9.3,13.1-17.8,15c-5.8,1.3-11.8,2.2-17.7,3.3
	C296.5,752,314.5,740.7,332.6,743z"/>
<path class="st1" d="M277.2,17.4C277.2,17.4,277.2,17.4,277.2,17.4C277.2,17.4,277.2,17.4,277.2,17.4z"/>
<path class="st2" d="M373.3-2H200.2c6.3,1.1,12.9,2.3,18.6,3.3c0.1,0,0.1,0,0.1,0c9.7,1.7,17.1,3,17.7,3.1c0.1,0,0.2,0,0.3,0
	c1,0.1,2.1,0.2,3.1,0.4c0.2,0,0.5,0.1,0.7,0.1c0.2,0,0.4,0,0.5,0.2c0.2,0.3,0.3,0.7,0.7,0.9c0.2,0.2,0.5,0.2,0.7,0.4
	c0.2,0.2,0.5,0.3,0.7,0.4c0.3,0.1,0.6,0.1,0.9,0.2c1.3,0.5,2.6,0.9,3.9,1.2c0.9,0.2,1.8,0.3,2.8,0.4c0.4,0.1,0.8,0.1,1.1,0.2
	c0.2,0,0.1,0,0.4,0c0.1,0,0.3,0,0.5,0c0.9,0,1.6,0.2,2.5,0.3c0.7,0.1,1.4,0.2,2,0.4c0.4,0.2,0.8,0.4,1.3,0.6
	c0.7,0.3,1.4,0.4,2.1,0.6c0.9,0.2,1.8,0.6,2.7,0.5c1.5-0.1,2.9,0.7,4.3,1.1c0.7,0.2,1.4,0.5,2.1,0.7c0.5,0.2,1,0.4,1.4,0.6
	c0.8,0.4,1.6,0.8,2.4,1.2c0.6,0.3,1.1,0.8,1.6,1.1c0.4,0.3,0.8,0.4,1.2,0.7c0.2,0.1,0.4,0.3,0.6,0.5c0,0,0.1,0.1,0.1,0.1
	c0,0,0.1,0,0.1,0c0.2,0.1,0.5,0.2,0.7,0.4c0.5,0.3,1,0.6,1.4,0.9c0.3,0.2,0.5,0.4,0.8,0.5c0.7,0.4,1.5,0.7,2.2,1.1
	c0.4,0.2,0.7,0.5,1.1,0.8c0.4,0.2,0.9,0.4,1.3,0.5c0.6,0.2,1.1,0.5,1.6,0.7c0.9,0.4,1.8,0.8,2.7,1.3c0.4,0.3,0.7,0.6,1.1,0.9
	c0.2,0.2,0.5,0.3,0.7,0.5c0.2,0.2,0.3,0.4,0.6,0.6c0.5,0.4,0.9,0.8,1.3,1.2c0.1,0.1,0.2,0.2,0.3,0.3c0.4,0.3,0.8,0.5,1.1,0.7
	c0.8,0.5,1.6,1,2.4,1.5c1.9,1.1,3.8,2.2,5.5,3.6c0.4,0.3,0.8,0.7,1.2,0.9c0.4,0.3,0.9,0.5,1.3,0.8c2.6,1.9,4.8,4,7.3,6
	c2.8,2.2,5.8,3.2,6.9,7c0.8,2.7,1,5.4,1.6,8.1c0.3,1.3,0.7,2.5,1.2,3.7l7.6,13.2c0,0,0,0,0,0l5.4,15.6c3.2,12.2,4.4,25,6,38.3
	c2.9,23.4,14.5,46.2,9.9,70.1c-2.2,11.1-6.9,21.7-8,33.1c-1.6,17.3,6.2,30.5,11.4,46.2c9.1,27.4-0.4,61.4-14.5,85.4
	c-1.6,2.8-3,5.9-4.4,8.8c-0.8,1.7-1.6,3.4-2.4,5.1c-0.7,1.5-1.6,2.8-2.2,4.3c-0.9,2-2,4.2-2.6,6.2c-3.6,11.3-6.4,24.2-6.1,36.1
	c0,1.7-0.3,3.4-0.5,5c-0.3,2.1-0.1,4.1-0.1,6.1c0,0.5,0,1.1,0,1.6v0.7c0,3.4-0.1,6.7,0.3,10.1c0.2,2.4,0.5,4.7,0.7,7.1
	c0.3,4.2,0.1,8.5,0.6,12.7c0.2,1.8,0.7,3.5,1.1,5.3c0.4,1.6,0.6,3.2,1,4.8c0.9,3.3,2.6,6.5,4,9.7c2.7,6.2,5.4,12.7,8.7,18.6
	c1.6,2.9,2.7,6,3.7,9.2c1,2.9,1.9,6,2.5,9c2.6,13-3,27.6-2.8,40.6c0,1.5-0.3,3.3-0.6,4.9c-0.6,3.9-1,7.9-2,11.9
	c-0.4,1.7-0.7,3.3-1.1,5c-0.4,1.9-1,3.9-1.3,5.7c-0.1,1.2-0.2,2.4-0.5,3.6c-3,10.6-6,21.9-7.3,32c0,0.4-0.1,0.9-0.1,1.3
	c-0.1,0.8-0.2,1.5-0.2,2.3c0,0.3,0.1,0.5,0.1,0.7c1,13.3,8.2,25.2,10.6,38.2c0.5,2.8,0.9,5.6,1.4,8.5c1.5,9.5,1.9,19,1.7,28.6
	c0,1.6,0.1,3.2,0.3,4.8c0,0.3,0.1,0.5,0.1,0.8c0.1,0.4,0.1,0.8,0.2,1.1c0.1,0.3,0.1,0.6,0.2,1c0.6,2.8,1.4,5.6,2.4,8.5
	c0.6,1.8,1.2,3.6,1.8,5.3c0.2,0.7,0.5,1.4,0.7,2.1c0.1,0.4,0.2,0.7,0.3,1.1c0.1,0.3,0.2,0.7,0.3,1c0.2,0.7,0.4,1.4,0.6,2.1
	c0.1,0.3,0.2,0.7,0.3,1c0.4,1.3,0.6,2.5,0.9,3.8c0.1,0.4,0.1,0.8,0.2,1.2c1.7,10.5,4.4,20.9,6.8,31.3c2.4,10.8,4.4,21.6,5.5,32.5
	c1.1,10.9,1.4,21.8,1.4,32.7c0,11-0.3,22-1.4,33c-1.1,11-3.2,22-5.4,32.9c-2.3,10.8-4.3,21.5-5.7,32.3c-1.4,11.1-2.4,22.2-3.4,33.3
	c-1,11.2-1.9,22.3-2.4,33.5c-0.5,10.9,5.7,84.7,5.8,96.6c0.1,12.1,0.5,24.3,2.5,37c1.7,11.2,4.9,22.7,6.6,33.8
	c1.8,12.1,2,23.7,2.2,35.3c0.2,12.1,0.4,24.1-0.8,35.6c-0.6,5.5-1.5,10.9-2.5,16.2c-0.8,4-1.6,8-2,12.2c-0.7,8.4,1.7,17.9,3.2,27
	c2.1,12.6,3.8,25.1,6.2,37.8c2.1,10.9,4.6,21.8,6.7,32.7c0.5,2.7,1,5.4,1.6,8.2L373.3-2z"/>
<linearGradient id="SVGID_2_" gradientUnits="userSpaceOnUse" x1="-321.4719" y1="1376.5599" x2="-302.1137" y2="1376.5599" gradientTransform="matrix(-0.9802 0.1982 -0.1982 -0.9802 289.3178 1477.0756)">
	<stop  offset="0.1789" style="stop-color:#B5AB8C"/>
	<stop  offset="0.3033" style="stop-color:#ADA283"/>
	<stop  offset="0.481" style="stop-color:#9B8E6F"/>
	<stop  offset="0.6896" style="stop-color:#817251"/>
	<stop  offset="0.8449" style="stop-color:#6A5B39"/>
	<stop  offset="1" style="stop-color:#6F603E"/>
</linearGradient>
<path class="st3" d="M313.3,71.2c0.2,0.4,2.7-1.9,2.9-2.1c1.2-1.1,2.3-2.3,3.7-3.2c1.2-0.8,2.6-1.3,4-1.8c1.4-0.4,2.9-0.7,4.3-0.9
	c0.6-0.1,1.1-0.1,1.6-0.3c0.4-0.1,0.7-0.3,1-0.6c0.2-0.2,0.3-0.4,0.3-0.7c0-0.2-0.2-0.4-0.3-0.6l-0.9-0.1c-0.9,0.1-1.8,0.1-2.7,0.3
	c-0.9,0.2-1.8,0.5-2.7,0.8c-0.9,0.3-1.7,0.7-2.5,1.1c-0.7,0.4-1.5,0.7-2.2,1.1c-0.7,0.4-1.4,0.8-2,1.3c-0.8,0.6-1.5,1.2-2.1,1.9
	c-0.6,0.7-1.2,1.4-1.8,2.2c-0.2,0.3-0.3,0.5-0.5,0.8C313.4,70.8,313.2,71.1,313.3,71.2z"/>
<g>
	
		<linearGradient id="SVGID_3_" gradientUnits="userSpaceOnUse" x1="60.8055" y1="1582.2526" x2="96.0897" y2="1582.2526" gradientTransform="matrix(0.9206 0.3904 0.3904 -0.9206 -445.4707 1465.2424)">
		<stop  offset="0.1789" style="stop-color:#A2B442"/>
		<stop  offset="0.3168" style="stop-color:#9BAB40"/>
		<stop  offset="0.5137" style="stop-color:#8C963A"/>
		<stop  offset="0.7449" style="stop-color:#757831"/>
		<stop  offset="0.8449" style="stop-color:#6A692C"/>
		<stop  offset="1" style="stop-color:#706F37"/>
	</linearGradient>
	<path class="st4" d="M260.6,46.4c-0.2,0.8-1.7,0.1-2.4,0c-0.2-0.1-0.4,0-0.5,0.2c-0.3,0.3-0.5,0.8-1.1,1.2c-1,0.6-1.6,0.4-2.2-0.3
		c-0.4-0.5-0.9-0.9-1.4-0.8c-0.2,0.1-0.5,0.3-0.6,0.7c-0.5,1.3-0.5,1.6-0.7,2c-0.1,0.3-0.7-0.7-1.4-1.3c-0.1-0.1-0.2-0.1-0.2-0.2
		c-0.8-0.5-0.6-1.6-2-0.4c-1.3,1.2-0.5,1.6-0.4,1.4c0.1-0.1-0.1,0.9-1.4-0.3c-1.3-1.2-0.9-0.7-2.4-0.4c-1.5,0.2-2.1,1.4-3.5,0.6
		c0,0,0-1.6,0.5-2.9c0.3-0.9,0.4-1.5,0.2-2.2c-0.1-0.3-0.2-0.6-0.4-0.9c-0.6-1.1-0.7-1.1-1.1-0.5c-0.1,0.2-0.3,0.5-0.5,0.8
		c0,0,0,0,0,0s0,0,0,0l0,0.1c0,0.1-0.1,0.2-0.1,0.3c-0.1,0.3-0.2,0.6-0.3,0.9c0,0,0,0.1,0,0.1c-0.1,0.2-0.1,0.4-0.2,0.7
		c0,0,0,0.1,0,0.1c0,0.2-0.1,0.4-0.1,0.6c-0.2,1.8-2.8,3.9-3.3,5.5c-0.1,0.4-0.3,0.8-0.5,1.2c-0.1,0.2-0.2,0.3-0.2,0.5
		c-0.3,0.6-0.7,1.1-1,1.7c-0.2,0.3-0.4,0.6-0.5,0.8c0,0,0,0,0,0.1c0,0.1-0.1,0.1-0.1,0.2c-0.3,0.4-0.5,0.8-0.7,1.1l0,0
		c-0.1,0.1-0.1,0.1-0.2,0.2c-0.1,0.1-0.2,0.2-0.3,0.3c-0.1,0.1-0.2,0.1-0.2,0.2c-0.1,0-0.1,0.1-0.2,0.1c-0.1,0-0.2,0.1-0.3,0.2
		c-0.1,0.1-0.2,0.1-0.4,0.2c-0.1,0.1-0.3,0.1-0.4,0.2c0,0,0,0,0,0c-0.2,0.1-0.3,0.1-0.5,0.2c-0.3,0.1-0.6,0.2-0.8,0.3
		c-0.2,0.1-0.3,0.1-0.5,0.1c-0.1,0-0.3,0.1-0.4,0.1c-0.7,0.2-1.4,0.2-1.8,0.2c-0.2,0-0.3,0-0.4-0.1c-0.8-0.4-2.1-0.2-3.6-1
		c-1.6-0.9-2.5,0.4-3.7,0.8c-0.5,0.2-0.9,0.2-1.2,0.2c0.4-0.3,0.8-0.7,1.2-1c0.4-0.3,0.8-0.7,1.2-1.1c0.4-0.3,0.8-0.7,1.1-1.1
		c0.3-0.3,0.7-0.6,1-1c0.1-0.1,0.2-0.2,0.3-0.3c0.3-0.3,0.6-0.6,0.9-0.9c0.4-0.4,0.7-0.7,1.1-1.1c0.6-0.7,1.3-1.4,1.9-2.1
		c0.2-0.3,0.4-0.5,0.6-0.8c0.2-0.3,0.4-0.5,0.7-0.8c0.2-0.3,0.4-0.6,0.7-0.9c0.1,0,0.1-0.1,0.1-0.2c0.3-0.4,0.6-0.8,0.9-1.1
		c0.3-0.4,0.6-0.8,0.9-1.2c0.3-0.4,0.6-0.8,0.8-1.2c0.8-1.2,1.6-2.5,2.2-3.8c0.2-0.3,0.3-0.6,0.5-0.9c0.2-0.5,0.5-0.9,0.7-1.4
		c0.2-0.5,0.4-0.9,0.6-1.4c0.7-1.7,1.3-3.4,1.8-5.2c0.6-2,1-4.1,1.3-6.3c0.1-0.6,0.2-1.3,0.2-1.9c0.3-0.4,0.6-0.8,1.2-1.1
		c0.8-0.5,1.3-1.7,1.7-3c0.2-0.6,0.3-1.1,0.5-1.7c0.6-2,0.6-2.1,0.6-2.7c0-0.6-0.3-1.2,0.3-2.1c0.6-0.8-1-2.8-1-2.8s1,0.3,1.9,0.7
		c0.8,0.4,0.9-0.3,3,1.9c1.7,1.8,1.4,0.8,1.7-0.1c0.1-0.2,0.2-0.4,0.3-0.6c0.3-0.3,0.4-0.5,0.6-0.6c0.3-0.4,0.3-0.4,0.8,0.2
		c0.7,0.8,1.5,0.4,2.8-0.1c0.4-0.2,1-0.3,1.6-0.2c1.1,0.1,2.2,0.6,2.7,1.7c0,0.1,0.1,0.1,0.1,0.2c0.6,1.9,3.7,2.8,4.8,4.8
		c0.3,0.5,0.4,0.9,0.5,1.2c0.2,1-0.4,1.5-0.6,2.5c0,0.3-0.2,0.6-0.3,0.9c-0.4,0.9-1.2,1.8-1.6,2.2c-0.6,0.6-1.4,0.8-2.1,1.4
		c-0.7,0.7-0.1,1.5,0.8,2c0.1,0,0.1,0.1,0.2,0.1c0.3,0.1,0.5,0.1,0.6,0c0.1,0,0.1,0,0.1,0.1c0,0.1,0,0.2-0.1,0.5c0,0,0,0,0,0
		c-0.1,1.2,2.2,2.3,2.3,2.8c0.2,0.5-0.2,1.9-0.5,3c-0.3,1,0.8,3.4,1.1,4c0.3,0.6-0.2,1-0.9,2.3c-0.1,0.1-0.1,0.2-0.2,0.3
		c-0.4,0.8,0,0,0.7,2C261.5,45.4,260.7,45.6,260.6,46.4z"/>
	
		<linearGradient id="SVGID_4_" gradientUnits="userSpaceOnUse" x1="35.1388" y1="1578.955" x2="68.0573" y2="1578.955" gradientTransform="matrix(0.9206 0.3904 0.3904 -0.9206 -445.4707 1465.2424)">
		<stop  offset="0.1789" style="stop-color:#A2B442"/>
		<stop  offset="0.3168" style="stop-color:#9BAB40"/>
		<stop  offset="0.5137" style="stop-color:#8C963A"/>
		<stop  offset="0.7449" style="stop-color:#757831"/>
		<stop  offset="0.8449" style="stop-color:#6A692C"/>
		<stop  offset="1" style="stop-color:#706F37"/>
	</linearGradient>
	<path class="st5" d="M216.8,59.3c-0.5,0-0.7-0.2-0.5-0.3c0.3-0.2,0.5-1.5,0.2-3c-0.3-1.5-1.5-1.6-0.7-2.3c0.8-0.7,0.9-0.8,0.6-1
		c-0.3-0.2-2.1-0.2-3-1c-0.9-0.8-1-1.3-0.4-2.3c0.6-0.9-0.3-0.9,0.1-2.2c0.4-1.4,1.4-1,3.3-1c0.6,0,0.9,0,1.1,0.1c0,0.2,0,0.3,0,0.3
		s0.4-0.2,0-0.3c0-0.2,0-0.5,0.1-1c0.2-0.9,0.5-0.4,1.9-1c1.5-0.6,5.9-1.7,7.6-2.3c1.7-0.6,1.7-2.8,1-3.9c-0.7-1.1-0.8-0.8-3-0.4
		c-2.2,0.4-2,2.9-2.5,4.5c-0.4,1.7-0.4,0.7-1.1,0.1c-0.6-0.5-0.9,0.4-2.4,0.4c-1.5,0-1.4,0.6-2.7,0c-1.3-0.6-0.6-0.7-0.2-2.2
		c0.4-1.5,0.1-0.9-0.8-2c-1-1.1-0.8-0.9-0.4-2.9c0.4-2-0.2-0.9-0.8-1.5c-0.6-0.6-1,0-1.9-0.9c-0.9-1-0.1-2-0.6-3.8
		c-0.5-1.7-3-0.6-2.5-1.1c0.4-0.4,0.2-0.4,0.7-2.5c0.5-2.1,0,0-1.3-1.4c-1.3-1.4-3.3-2.8-2.5-3.1c0.9-0.3,0.5-2,1.5-4.2
		c1-2.2-0.5-1-0.2-2.2c0.3-1.3,1.9-1,3-1.6c0.1-0.1,0.2-0.2,0.3-0.3c0.4-0.9-0.5-2.8,0.6-1.7c1.3,1.3,1.3,1.8,2.1,1.8
		s-0.3-1.2,1.5-0.1c1.9,1.1,1-0.3,3.3,1.3c1.3,0.9,3.9,0.6,5.8,0.1c1.2-0.3,2.1-0.6,2.1-0.6s2.6-1,4.7-1.2c0.5-0.1,0.9-0.3,1.1-0.6
		l0,0c0.1-0.1,0.2-0.2,0.2-0.3c0.7-1.1,0.8-2.6,1.4-1.5c0.3,0.5,0.7,2.2,1.1,4.1c0.1,0.3,0.1,0.6,0.2,1c0,0,0,0,0,0
		c0.6,3.4,1.2,7.1,1.2,7.1s0.4,2.2,0.6,2.1c0.1-0.1,0.3-0.5,0.6-0.9c-0.1,0.7-0.1,1.3-0.2,1.9c-0.3,2.2-0.7,4.3-1.3,6.3
		C232.9,42.6,225.8,51.6,216.8,59.3z"/>
	
		<linearGradient id="SVGID_5_" gradientUnits="userSpaceOnUse" x1="68.9916" y1="1566.5167" x2="75.5373" y2="1566.5167" gradientTransform="matrix(0.9206 0.3904 0.3904 -0.9206 -445.4707 1465.2424)">
		<stop  offset="0.1789" style="stop-color:#B5AB8C"/>
		<stop  offset="0.3033" style="stop-color:#ADA283"/>
		<stop  offset="0.481" style="stop-color:#9B8E6F"/>
		<stop  offset="0.6896" style="stop-color:#817251"/>
		<stop  offset="0.8449" style="stop-color:#6A5B39"/>
		<stop  offset="1" style="stop-color:#6F603E"/>
	</linearGradient>
	<path class="st6" d="M235,51.5c-0.1,0.4-0.3,0.8-0.5,1.2c-0.1,0.2-0.2,0.3-0.2,0.5c-0.3,0.6-0.7,1.1-1,1.7
		c-0.2,0.3-0.4,0.6-0.5,0.8c0,0,0,0,0,0.1c0,0.1-0.1,0.1-0.1,0.2c-0.3,0.4-0.5,0.8-0.7,1.1l0,0c-0.1,0.1-0.1,0.1-0.2,0.2
		c-0.1,0.1-0.2,0.2-0.3,0.3c-0.1,0.1-0.2,0.1-0.2,0.2c-0.1,0-0.1,0.1-0.2,0.1c-0.1,0-0.2,0.1-0.3,0.2c-0.1,0.1-0.2,0.1-0.4,0.2
		c-0.1,0.1-0.3,0.1-0.4,0.2c0,0,0,0,0,0c-0.2,0.1-0.3,0.1-0.5,0.2c-0.3,0.1-0.6,0.2-0.8,0.3c-0.2,0.1-0.3,0.1-0.5,0.1
		c-0.1,0-0.3,0.1-0.4,0.1c-0.7,0.2-1.4,0.2-1.8,0.2c0.3-0.4,0.8-0.8,1.6-1.1c2.3-0.7,2-0.7,1.7-1.4c-0.3-0.7-1.1-1.3-1-2.7
		c0.1-1.4,1.5-1.6,1.2-2.7c-0.2-0.6,0-0.5,0.3-0.5c0.3,0,0.7-0.2,1.2-1c1-1.7,1.9-2.2,2.1-2.4c0.2-0.1,0.1-0.1,0.5-0.3
		c0.1,0,0.2-0.1,0.3-0.2c0.2-0.1,0.4-0.2,0.7-0.4c1.6-0.9,2.7-0.9,3.5-2c0-0.1,0.1-0.1,0.1-0.2c0.4-0.6,0.8-1.1,1.1-1.4l0,0.1
		c0,0.1-0.1,0.2-0.1,0.3c-0.1,0.3-0.2,0.6-0.3,0.9c0,0,0,0.1,0,0.1c-0.1,0.2-0.1,0.4-0.2,0.7c0,0,0,0.1,0,0.1c0,0.2-0.1,0.4-0.1,0.6
		C238.1,47.8,235.6,49.8,235,51.5z"/>
	<g>
		
			<linearGradient id="SVGID_6_" gradientUnits="userSpaceOnUse" x1="280.7693" y1="1458.1521" x2="293.392" y2="1458.1521" gradientTransform="matrix(1 0 0 -1 0 1506)">
			<stop  offset="0.1789" style="stop-color:#B58B90"/>
			<stop  offset="0.3024" style="stop-color:#AD8389"/>
			<stop  offset="0.4787" style="stop-color:#9C7079"/>
			<stop  offset="0.6856" style="stop-color:#825360"/>
			<stop  offset="0.8449" style="stop-color:#6B394C"/>
			<stop  offset="1" style="stop-color:#701D3C"/>
		</linearGradient>
		<path class="st7" d="M292.2,51.2c-0.8,1-2,1.9-3.5,2.3c-0.4,0.1-0.9,0.2-1.3,0.2c-0.1,0-0.2,0-0.4,0h0c-2.8,0.1-5.3-1.6-6-4.1
			l0-0.1c0,0,0-0.1,0-0.1c-0.7-2.5,0.6-5.1,3-6.4c0.5-0.3,1-0.5,1.6-0.7c0.7-0.2,1.4-0.3,2.1-0.2c0.2,0,0.4,0,0.6,0.1
			c0.1,0,0.2,0,0.4,0.1c0.6,0.1,1.1,0.3,1.6,0.5c1.5,0.7,2.6,1.9,3,3.5C293.7,48,293.2,49.8,292.2,51.2z"/>
		
			<linearGradient id="SVGID_7_" gradientUnits="userSpaceOnUse" x1="264.1734" y1="1450.8356" x2="276.8098" y2="1450.8356" gradientTransform="matrix(1 0 0 -1 0 1506)">
			<stop  offset="0.1789" style="stop-color:#B58B90"/>
			<stop  offset="0.3024" style="stop-color:#AD8389"/>
			<stop  offset="0.4787" style="stop-color:#9C7079"/>
			<stop  offset="0.6856" style="stop-color:#825360"/>
			<stop  offset="0.8449" style="stop-color:#6B394C"/>
			<stop  offset="1" style="stop-color:#701D3C"/>
		</linearGradient>
		<path class="st8" d="M275.5,58.5c-0.2,0.2-0.4,0.5-0.6,0.7c-0.8,0.7-1.7,1.3-2.8,1.6c-1.4,0.4-2.8,0.3-4-0.2
			c-1.8-0.6-3.2-2-3.7-3.8c-0.8-2.8,0.9-5.8,3.8-6.9c0.2-0.1,0.5-0.2,0.7-0.2c2.7-0.7,5.5,0.3,7,2.4c0,0,0,0.1,0.1,0.1
			c0.3,0.4,0.5,0.9,0.7,1.5C277.1,55.3,276.7,57.1,275.5,58.5z"/>
		
			<linearGradient id="SVGID_8_" gradientUnits="userSpaceOnUse" x1="267.3139" y1="1459.2563" x2="279.9345" y2="1459.2563" gradientTransform="matrix(1 0 0 -1 0 1506)">
			<stop  offset="0.1789" style="stop-color:#B58B90"/>
			<stop  offset="0.3024" style="stop-color:#AD8389"/>
			<stop  offset="0.4787" style="stop-color:#9C7079"/>
			<stop  offset="0.6856" style="stop-color:#825360"/>
			<stop  offset="0.8449" style="stop-color:#6B394C"/>
			<stop  offset="1" style="stop-color:#701D3C"/>
		</linearGradient>
		<path class="st9" d="M278.8,49.9L278.8,49.9c-0.1,0.1-0.2,0.2-0.3,0.4c-0.7,0.8-1.6,1.4-2.6,1.8c-0.1,0-0.1,0-0.2,0.1h0
			c-0.2,0.1-0.4,0.1-0.5,0.2c-1.6,0.4-3.3,0.2-4.6-0.4c-1-0.5-1.8-1.2-2.4-2.1c-0.3-0.5-0.5-0.9-0.7-1.5c-0.8-2.9,0.9-5.9,3.9-7
			c0.2-0.1,0.4-0.1,0.6-0.2c2-0.5,4.1-0.1,5.6,1c1,0.7,1.7,1.7,2.1,2.9C280.2,46.8,279.8,48.6,278.8,49.9z"/>
		
			<linearGradient id="SVGID_9_" gradientUnits="userSpaceOnUse" x1="274.6018" y1="1450.6736" x2="287.23" y2="1450.6736" gradientTransform="matrix(1 0 0 -1 0 1506)">
			<stop  offset="0.1789" style="stop-color:#B58B90"/>
			<stop  offset="0.3024" style="stop-color:#AD8389"/>
			<stop  offset="0.4787" style="stop-color:#9C7079"/>
			<stop  offset="0.6856" style="stop-color:#825360"/>
			<stop  offset="0.8449" style="stop-color:#6B394C"/>
			<stop  offset="1" style="stop-color:#701D3C"/>
		</linearGradient>
		<path class="st10" d="M286.3,58.3c-0.3,0.4-0.6,0.8-1,1.1c-0.7,0.7-1.7,1.2-2.8,1.5c-2,0.5-4.1,0.1-5.6-1c-0.5-0.4-1-0.9-1.4-1.4
			c-0.3-0.5-0.6-1-0.7-1.6c-0.5-1.7-0.1-3.4,0.9-4.8c0-0.1,0.1-0.1,0.1-0.1c0.7-0.9,1.7-1.6,2.9-2.1l0,0c0.2-0.1,0.4-0.1,0.5-0.2
			c0.6-0.1,1.1-0.2,1.7-0.2c2.7,0,5.3,1.6,6,4.1c0,0,0,0,0,0.1c0,0.1,0.1,0.2,0.1,0.3C287.4,55.5,287.1,57,286.3,58.3z"/>
		
			<linearGradient id="SVGID_10_" gradientUnits="userSpaceOnUse" x1="286.1347" y1="1449.0603" x2="298.7544" y2="1449.0603" gradientTransform="matrix(1 0 0 -1 0 1506)">
			<stop  offset="0.1789" style="stop-color:#B58B90"/>
			<stop  offset="0.3024" style="stop-color:#AD8389"/>
			<stop  offset="0.4787" style="stop-color:#9C7079"/>
			<stop  offset="0.6856" style="stop-color:#825360"/>
			<stop  offset="0.8449" style="stop-color:#6B394C"/>
			<stop  offset="1" style="stop-color:#701D3C"/>
		</linearGradient>
		<path class="st11" d="M298.5,58.5c-0.1,0.3-0.2,0.5-0.3,0.7c-0.8,1.5-2.2,2.8-4.1,3.3c-0.4,0.1-0.8,0.2-1.3,0.2
			c-0.8,0.1-1.6,0-2.3-0.2c-1.4-0.4-2.6-1.2-3.4-2.4v0c-0.3-0.5-0.6-1-0.7-1.5c0-0.1-0.1-0.2-0.1-0.3l0,0c-0.3-1.5,0-3,0.8-4.2
			c0.1-0.2,0.2-0.3,0.3-0.4c0.8-1.1,2-1.9,3.5-2.3c0.4-0.1,0.9-0.2,1.3-0.2c2.8-0.2,5.4,1.3,6.3,3.8c0.1,0.1,0.1,0.2,0.1,0.4
			C298.9,56.4,298.8,57.5,298.5,58.5z"/>
		
			<linearGradient id="SVGID_11_" gradientUnits="userSpaceOnUse" x1="373.1002" y1="793.0896" x2="385.7334" y2="793.0896" gradientTransform="matrix(0.9594 -0.2819 0.2819 0.9594 -306.2722 -589.9503)">
			<stop  offset="0.1789" style="stop-color:#B58B90"/>
			<stop  offset="0.3024" style="stop-color:#AD8389"/>
			<stop  offset="0.4787" style="stop-color:#9C7079"/>
			<stop  offset="0.6856" style="stop-color:#825360"/>
			<stop  offset="0.8449" style="stop-color:#6B394C"/>
			<stop  offset="1" style="stop-color:#701D3C"/>
		</linearGradient>
		<path class="st12" d="M275.2,65.6c0.9,3.1,4.3,4.8,7.7,3.9c3.4-0.9,5.4-4.1,4.5-7.2c-0.9-3.1-4.3-4.8-7.7-3.9
			S274.3,62.5,275.2,65.6z"/>
		
			<linearGradient id="SVGID_12_" gradientUnits="userSpaceOnUse" x1="266.1743" y1="1441.4305" x2="278.8027" y2="1441.4305" gradientTransform="matrix(1 0 0 -1 0 1506)">
			<stop  offset="0.1789" style="stop-color:#B58B90"/>
			<stop  offset="0.3024" style="stop-color:#AD8389"/>
			<stop  offset="0.4787" style="stop-color:#9C7079"/>
			<stop  offset="0.6856" style="stop-color:#825360"/>
			<stop  offset="0.8449" style="stop-color:#6B394C"/>
			<stop  offset="1" style="stop-color:#701D3C"/>
		</linearGradient>
		<path class="st13" d="M278.7,65.6c-0.2,1.1-0.8,2.1-1.6,2.8c-0.8,0.8-1.8,1.4-2.9,1.7l-0.1,0c-0.8,0.2-1.6,0.3-2.4,0.2
			c-1.9-0.2-3.7-1.2-4.7-2.7c-0.3-0.4-0.5-0.9-0.7-1.4c-0.6-2.1,0.1-4.2,1.7-5.6c0.8-0.7,1.7-1.3,2.8-1.6c1.4-0.4,2.8-0.3,4,0.2
			c0.7,0.2,1.3,0.6,1.8,1c0.9,0.7,1.6,1.7,1.9,2.8C278.8,63.8,278.9,64.7,278.7,65.6z"/>
		
			<linearGradient id="SVGID_13_" gradientUnits="userSpaceOnUse" x1="369.6642" y1="808.2528" x2="382.2971" y2="808.2528" gradientTransform="matrix(0.9594 -0.2819 0.2819 0.9594 -306.2722 -589.9503)">
			<stop  offset="0.1789" style="stop-color:#B58B90"/>
			<stop  offset="0.3024" style="stop-color:#AD8389"/>
			<stop  offset="0.4787" style="stop-color:#9C7079"/>
			<stop  offset="0.6856" style="stop-color:#825360"/>
			<stop  offset="0.8449" style="stop-color:#6B394C"/>
			<stop  offset="1" style="stop-color:#701D3C"/>
		</linearGradient>
		<path class="st14" d="M276.2,81.1c0.9,3.1,4.3,4.8,7.7,3.9c3.4-0.9,5.4-4.1,4.5-7.2c-0.9-3.1-4.3-4.8-7.7-3.9
			C277.3,74.8,275.3,78,276.2,81.1z"/>
		
			<linearGradient id="SVGID_14_" gradientUnits="userSpaceOnUse" x1="279.7772" y1="1421.6774" x2="291.3644" y2="1421.6774" gradientTransform="matrix(1 0 0 -1 0 1506)">
			<stop  offset="0.1789" style="stop-color:#B58B90"/>
			<stop  offset="0.3024" style="stop-color:#AD8389"/>
			<stop  offset="0.4787" style="stop-color:#9C7079"/>
			<stop  offset="0.6856" style="stop-color:#825360"/>
			<stop  offset="0.8449" style="stop-color:#6B394C"/>
			<stop  offset="1" style="stop-color:#701D3C"/>
		</linearGradient>
		<path class="st15" d="M290.9,86.1c-0.7,1.4-2.1,2.6-3.9,3.1c-2,0.5-4,0.1-5.4-1c-0.5-0.3-0.8-0.8-1.1-1.2
			c-0.2-0.4-0.4-0.7-0.5-1.2c-0.1-0.3-0.1-0.6-0.2-0.9c-0.1-1.1,0.3-2.1,0.9-3c0.8-1.1,2-2,3.5-2.4c1.6-0.4,3.1-0.2,4.4,0.4h0
			c0.2,0.1,0.3,0.2,0.5,0.3c1,0.6,1.8,1.6,2.1,2.7c0.1,0.2,0.1,0.5,0.1,0.8C291.4,84.5,291.3,85.3,290.9,86.1z"/>
		
			<linearGradient id="SVGID_15_" gradientUnits="userSpaceOnUse" x1="268.2887" y1="1426.7964" x2="280.9126" y2="1426.7964" gradientTransform="matrix(1 0 0 -1 0 1506)">
			<stop  offset="0.1789" style="stop-color:#B58B90"/>
			<stop  offset="0.3024" style="stop-color:#AD8389"/>
			<stop  offset="0.4787" style="stop-color:#9C7079"/>
			<stop  offset="0.6856" style="stop-color:#825360"/>
			<stop  offset="0.8449" style="stop-color:#6B394C"/>
			<stop  offset="1" style="stop-color:#701D3C"/>
		</linearGradient>
		<path class="st16" d="M280.3,81.5c-0.5,1-1.3,1.8-2.2,2.4c-0.6,0.4-1.2,0.7-1.9,0.8c-2.3,0.6-4.7,0-6.2-1.5
			c-0.7-0.7-1.2-1.5-1.5-2.4c-0.2-0.6-0.2-1.3-0.2-1.9c0.2-2.2,1.6-4.1,3.8-5h0c0.3-0.1,0.6-0.2,0.8-0.3c0.7-0.2,1.3-0.3,2-0.2
			c1.4,0,2.7,0.5,3.8,1.3c0.6,0.5,1.1,1.1,1.5,1.8v0c0.2,0.3,0.3,0.6,0.4,1C281.1,78.9,280.9,80.3,280.3,81.5z"/>
		
			<linearGradient id="SVGID_16_" gradientUnits="userSpaceOnUse" x1="269.4306" y1="1420.248" x2="282.1125" y2="1420.248" gradientTransform="matrix(1 0 0 -1 0 1506)">
			<stop  offset="0.1789" style="stop-color:#B58B90"/>
			<stop  offset="0.3024" style="stop-color:#AD8389"/>
			<stop  offset="0.4787" style="stop-color:#9C7079"/>
			<stop  offset="0.6856" style="stop-color:#825360"/>
			<stop  offset="0.8449" style="stop-color:#6B394C"/>
			<stop  offset="1" style="stop-color:#701D3C"/>
		</linearGradient>
		<path class="st17" d="M281.6,88.2c-0.2,0.4-0.4,0.8-0.7,1.1c-0.3,0.5-0.8,0.9-1.2,1.3c-0.6,0.5-1.4,0.9-2.2,1.1
			c-0.6,0.1-1.1,0.2-1.7,0.2c-2.8,0-5.4-1.8-6.2-4.6c-0.4-1.4-0.3-2.9,0.3-4.1c0.7-1.6,2.2-3,4.1-3.5c0.6-0.2,1.3-0.2,1.9-0.2h0
			c1.7,0.1,3.2,0.8,4.3,1.9c0.1,0.1,0.2,0.2,0.3,0.4c0.6,0.7,1,1.4,1.2,2.3c0.1,0.3,0.2,0.7,0.2,1v0c0,0,0,0.1,0,0.1
			C282.2,86.3,282,87.3,281.6,88.2z"/>
		
			<linearGradient id="SVGID_17_" gradientUnits="userSpaceOnUse" x1="279.6536" y1="1415.947" x2="292.3425" y2="1415.947" gradientTransform="matrix(1 0 0 -1 0 1506)">
			<stop  offset="0.1789" style="stop-color:#B58B90"/>
			<stop  offset="0.3024" style="stop-color:#AD8389"/>
			<stop  offset="0.4787" style="stop-color:#9C7079"/>
			<stop  offset="0.6856" style="stop-color:#825360"/>
			<stop  offset="0.8449" style="stop-color:#6B394C"/>
			<stop  offset="1" style="stop-color:#701D3C"/>
		</linearGradient>
		<path class="st18" d="M291.4,93.3c-0.8,1.3-2.1,2.3-3.7,2.7c-0.7,0.2-1.3,0.2-2,0.2c-0.6,0-1.2-0.2-1.8-0.3
			c-1.9-0.7-3.5-2.2-4-4.2c-0.1-0.3-0.2-0.7-0.2-1c-0.1-0.4-0.1-0.8,0-1.2c0.1-0.9,0.3-1.7,0.8-2.4c0.4-0.6,0.9-1.2,1.4-1.7
			c0.1,0,0.1-0.1,0.2-0.1v0c0.6-0.5,1.4-0.9,2.2-1.1c0.7-0.2,1.3-0.2,2-0.2c1.8,0.1,3.5,0.9,4.6,2.3c0.6,0.7,1,1.4,1.2,2.3
			C292.6,90.2,292.3,91.9,291.4,93.3z"/>
		
			<linearGradient id="SVGID_18_" gradientUnits="userSpaceOnUse" x1="275.0472" y1="1411.4324" x2="286.0326" y2="1411.4324" gradientTransform="matrix(1 0 0 -1 0 1506)">
			<stop  offset="0.1789" style="stop-color:#B58B90"/>
			<stop  offset="0.3024" style="stop-color:#AD8389"/>
			<stop  offset="0.4787" style="stop-color:#9C7079"/>
			<stop  offset="0.6856" style="stop-color:#825360"/>
			<stop  offset="0.8449" style="stop-color:#6B394C"/>
			<stop  offset="1" style="stop-color:#701D3C"/>
		</linearGradient>
		<path class="st19" d="M285.7,96.2c-0.2,0.6-0.5,1.1-1,1.6c-0.4,0.5-0.9,0.9-1.4,1.2c-0.4,0.3-0.9,0.5-1.4,0.6
			c-2.1,0.6-4.3-0.2-5.7-1.7c-0.5-0.6-0.9-1.2-1.1-2c-0.4-1.4-0.2-2.9,0.6-4c0.7-1.1,1.9-2,3.3-2.4c0.2-0.1,0.4-0.1,0.6-0.1
			c0.4-0.1,0.9-0.1,1.3-0.1c2.3,0.1,4.3,1.6,4.9,3.8c0.1,0.2,0.1,0.4,0.1,0.6v0C286.1,94.6,286,95.5,285.7,96.2z"/>
		
			<linearGradient id="SVGID_19_" gradientUnits="userSpaceOnUse" x1="281.2012" y1="1398.671" x2="293.7513" y2="1398.671" gradientTransform="matrix(1 0 0 -1 0 1506)">
			<stop  offset="0.1789" style="stop-color:#B58B90"/>
			<stop  offset="0.3024" style="stop-color:#AD8389"/>
			<stop  offset="0.4787" style="stop-color:#9C7079"/>
			<stop  offset="0.6856" style="stop-color:#825360"/>
			<stop  offset="0.8449" style="stop-color:#6B394C"/>
			<stop  offset="1" style="stop-color:#701D3C"/>
		</linearGradient>
		<path class="st20" d="M290.6,111.7c-0.5,0.3-1.1,0.5-1.7,0.7c-0.6,0.2-1.1,0.2-1.7,0.2c-2.8,0.1-5.2-1.3-5.9-3.6
			c-0.1-0.3-0.2-0.7-0.2-1c-0.1-2.4,1.9-4.8,4.8-5.6l0,0h0l0,0c0.2-0.1,0.5-0.1,0.7-0.1c1.4-0.2,2.7-0.1,3.8,0.4
			c1.5,0.6,2.6,1.7,3,3.2C294.2,108,292.9,110.4,290.6,111.7z"/>
		
			<linearGradient id="SVGID_20_" gradientUnits="userSpaceOnUse" x1="283.2935" y1="1408.1093" x2="294.5565" y2="1408.1093" gradientTransform="matrix(1 0 0 -1 0 1506)">
			<stop  offset="0.1789" style="stop-color:#B58B90"/>
			<stop  offset="0.3024" style="stop-color:#AD8389"/>
			<stop  offset="0.4787" style="stop-color:#9C7079"/>
			<stop  offset="0.6856" style="stop-color:#825360"/>
			<stop  offset="0.8449" style="stop-color:#6B394C"/>
			<stop  offset="1" style="stop-color:#701D3C"/>
		</linearGradient>
		<path class="st21" d="M290.6,102.6c-0.1,0-0.2,0.1-0.3,0.1c-1.2,0.3-2.5,0.3-3.5-0.1c-0.2-0.1-0.4-0.2-0.7-0.3l0,0h0
			c-1.3-0.6-2.2-1.6-2.6-3c0-0.1-0.1-0.2-0.1-0.3c-0.1-0.7-0.1-1.3,0.1-2c0.1-0.4,0.3-0.8,0.5-1.1c0.5-0.8,1.2-1.6,2.1-2.1v0
			c0.5-0.3,1-0.5,1.6-0.7c1.3-0.4,2.7-0.3,3.8,0.2c1.4,0.6,2.6,1.7,3,3.1C295.1,99,293.4,101.7,290.6,102.6z"/>
		
			<linearGradient id="SVGID_21_" gradientUnits="userSpaceOnUse" x1="288.9634" y1="1427.0269" x2="301.596" y2="1427.0269" gradientTransform="matrix(1 0 0 -1 0 1506)">
			<stop  offset="0.1789" style="stop-color:#B58B90"/>
			<stop  offset="0.3024" style="stop-color:#AD8389"/>
			<stop  offset="0.4787" style="stop-color:#9C7079"/>
			<stop  offset="0.6856" style="stop-color:#825360"/>
			<stop  offset="0.8449" style="stop-color:#6B394C"/>
			<stop  offset="1" style="stop-color:#701D3C"/>
		</linearGradient>
		<path class="st22" d="M296.9,84.5c-2,0.5-4,0.1-5.5-0.9c-1-0.7-1.8-1.8-2.2-3c0-0.2-0.1-0.3-0.1-0.5c-0.1-0.2-0.1-0.4-0.1-0.7v0
			c-0.2-2.7,1.7-5.2,4.6-6l0.1,0c0.5-0.1,1-0.2,1.5-0.2c2.3-0.1,4.4,1,5.5,2.7c0.3,0.4,0.5,0.9,0.7,1.4
			C302.3,80.4,300.2,83.6,296.9,84.5z"/>
		
			<linearGradient id="SVGID_22_" gradientUnits="userSpaceOnUse" x1="262.4029" y1="1432.8391" x2="275.0287" y2="1432.8391" gradientTransform="matrix(1 0 0 -1 0 1506)">
			<stop  offset="0.1789" style="stop-color:#B58B90"/>
			<stop  offset="0.3024" style="stop-color:#AD8389"/>
			<stop  offset="0.4787" style="stop-color:#9C7079"/>
			<stop  offset="0.6856" style="stop-color:#825360"/>
			<stop  offset="0.8449" style="stop-color:#6B394C"/>
			<stop  offset="1" style="stop-color:#701D3C"/>
		</linearGradient>
		<path class="st23" d="M275,73.4c-0.1,0.9-0.4,1.8-0.9,2.6c-0.8,1.3-2.1,2.2-3.8,2.7c-0.7,0.2-1.3,0.2-2,0.2
			c-2.6-0.1-5-1.7-5.7-4.2c-0.9-3.1,1.1-6.2,4.4-7.2l0.1,0c1.9-0.5,3.9-0.2,5.4,0.8c0.7,0.4,1.2,1,1.7,1.7c0.3,0.4,0.5,0.9,0.7,1.4
			C275,72.2,275.1,72.8,275,73.4z"/>
		
			<linearGradient id="SVGID_23_" gradientUnits="userSpaceOnUse" x1="292.735" y1="1435.6239" x2="305.3651" y2="1435.6239" gradientTransform="matrix(1 0 0 -1 0 1506)">
			<stop  offset="0.1789" style="stop-color:#B58B90"/>
			<stop  offset="0.3024" style="stop-color:#AD8389"/>
			<stop  offset="0.4787" style="stop-color:#9C7079"/>
			<stop  offset="0.6856" style="stop-color:#825360"/>
			<stop  offset="0.8449" style="stop-color:#6B394C"/>
			<stop  offset="1" style="stop-color:#701D3C"/>
		</linearGradient>
		<path class="st24" d="M300.7,75.9L300.7,75.9c-2.1,0.6-4.2,0.1-5.7-1c-0.6-0.4-1-0.9-1.4-1.5c-0.3-0.4-0.5-0.9-0.7-1.4
			c-0.3-1-0.3-2,0-2.9v0c0.1-0.3,0.2-0.6,0.4-0.9c0.8-1.6,2.2-2.8,4.1-3.3c2.9-0.8,5.8,0.4,7.1,2.6c0.2,0.4,0.4,0.8,0.6,1.3
			C306,71.8,304.1,75,300.7,75.9z"/>
		
			<linearGradient id="SVGID_24_" gradientUnits="userSpaceOnUse" x1="290.3609" y1="1441.9001" x2="305.5135" y2="1441.9001" gradientTransform="matrix(1 0 0 -1 0 1506)">
			<stop  offset="0.1789" style="stop-color:#B58B90"/>
			<stop  offset="0.3024" style="stop-color:#AD8389"/>
			<stop  offset="0.4787" style="stop-color:#9C7079"/>
			<stop  offset="0.6856" style="stop-color:#825360"/>
			<stop  offset="0.8449" style="stop-color:#6B394C"/>
			<stop  offset="1" style="stop-color:#701D3C"/>
		</linearGradient>
		<path class="st25" d="M305.5,64.7c0,0.8-0.2,1.6-0.6,2.3c-0.1,0.2-0.2,0.3-0.3,0.4c-1.9,2.4-6.1,3.1-9.7,1.6
			c-0.6-0.2-1.1-0.5-1.6-0.9c0,0-0.1-0.1-0.1-0.1c0,0,0,0,0,0c-2.1-1.5-3.1-3.6-2.7-5.6c0.1-0.4,0.3-0.9,0.5-1.3
			c0,0,0.1-0.1,0.1-0.1c1.3-1.9,4-2.9,6.9-2.6c0.2,0,0.3,0,0.5,0.1c0.9,0.1,1.7,0.4,2.5,0.7C303.8,60.4,305.5,62.6,305.5,64.7z"/>
		
			<linearGradient id="SVGID_25_" gradientUnits="userSpaceOnUse" x1="297.901" y1="1447.7539" x2="311.2487" y2="1447.7539" gradientTransform="matrix(1 0 0 -1 0 1506)">
			<stop  offset="0.1789" style="stop-color:#B58B90"/>
			<stop  offset="0.3024" style="stop-color:#AD8389"/>
			<stop  offset="0.4787" style="stop-color:#9C7079"/>
			<stop  offset="0.6856" style="stop-color:#825360"/>
			<stop  offset="0.8449" style="stop-color:#6B394C"/>
			<stop  offset="1" style="stop-color:#701D3C"/>
		</linearGradient>
		<path class="st26" d="M310.6,61.7c-0.5,1-1.3,1.8-2.4,2.4c-0.9,0.4-1.8,0.6-2.8,0.6c-1.8,0-3.5-0.6-5-1.9
			c-0.6-0.5-1.1-1.1-1.5-1.8c-0.4-0.6-0.7-1.2-0.8-1.8c-0.1-0.3-0.1-0.5-0.2-0.8c-0.2-1.2,0-2.4,0.4-3.5c0.5-1.1,1.3-2,2.5-2.5
			c1.6-0.8,3.5-0.8,5.2-0.2c1,0.3,1.9,0.9,2.7,1.6c0.5,0.5,1,1,1.4,1.6C311.5,57.5,311.6,59.9,310.6,61.7z"/>
		
			<linearGradient id="SVGID_26_" gradientUnits="userSpaceOnUse" x1="367.7347" y1="799.1607" x2="380.3688" y2="799.1607" gradientTransform="matrix(0.9594 -0.2819 0.2819 0.9594 -306.2722 -589.9503)">
			<stop  offset="0.1789" style="stop-color:#B58B90"/>
			<stop  offset="0.3024" style="stop-color:#AD8389"/>
			<stop  offset="0.4787" style="stop-color:#9C7079"/>
			<stop  offset="0.6856" style="stop-color:#825360"/>
			<stop  offset="0.8449" style="stop-color:#6B394C"/>
			<stop  offset="1" style="stop-color:#701D3C"/>
		</linearGradient>
		<path class="st27" d="M271.8,72.9c0.9,3.1,4.3,4.8,7.7,3.9c3.4-0.9,5.4-4.1,4.5-7.2c-0.9-3.1-4.3-4.8-7.7-3.9
			C272.9,66.7,270.9,69.9,271.8,72.9z"/>
		
			<linearGradient id="SVGID_27_" gradientUnits="userSpaceOnUse" x1="377.6727" y1="804.5107" x2="390.3093" y2="804.5107" gradientTransform="matrix(0.9594 -0.2819 0.2819 0.9594 -306.2722 -589.9503)">
			<stop  offset="0.1789" style="stop-color:#B58B90"/>
			<stop  offset="0.3024" style="stop-color:#AD8389"/>
			<stop  offset="0.4787" style="stop-color:#9C7079"/>
			<stop  offset="0.6856" style="stop-color:#825360"/>
			<stop  offset="0.8449" style="stop-color:#6B394C"/>
			<stop  offset="1" style="stop-color:#701D3C"/>
		</linearGradient>
		<path class="st28" d="M282.8,75.3c0.9,3.1,4.3,4.8,7.7,3.9c3.4-0.9,5.4-4.1,4.5-7.2c-0.9-3.1-4.3-4.8-7.7-3.9
			C284,69,281.9,72.2,282.8,75.3z"/>
		
			<linearGradient id="SVGID_28_" gradientUnits="userSpaceOnUse" x1="378.3967" y1="796.6204" x2="391.0333" y2="796.6204" gradientTransform="matrix(0.9594 -0.2819 0.2819 0.9594 -306.2722 -589.9503)">
			<stop  offset="0.1789" style="stop-color:#B58B90"/>
			<stop  offset="0.3024" style="stop-color:#AD8389"/>
			<stop  offset="0.4787" style="stop-color:#9C7079"/>
			<stop  offset="0.6856" style="stop-color:#825360"/>
			<stop  offset="0.8449" style="stop-color:#6B394C"/>
			<stop  offset="1" style="stop-color:#701D3C"/>
		</linearGradient>
		<path class="st29" d="M281.3,67.5c0.9,3.1,4.3,4.8,7.7,3.9c3.4-0.9,5.4-4.1,4.5-7.2c-0.9-3.1-4.3-4.8-7.7-3.9
			C282.4,61.2,280.4,64.4,281.3,67.5z"/>
		
			<linearGradient id="SVGID_29_" gradientUnits="userSpaceOnUse" x1="274.1523" y1="1403.8179" x2="286.7793" y2="1403.8179" gradientTransform="matrix(1 0 0 -1 0 1506)">
			<stop  offset="0.1789" style="stop-color:#B58B90"/>
			<stop  offset="0.3024" style="stop-color:#AD8389"/>
			<stop  offset="0.4787" style="stop-color:#9C7079"/>
			<stop  offset="0.6856" style="stop-color:#825360"/>
			<stop  offset="0.8449" style="stop-color:#6B394C"/>
			<stop  offset="1" style="stop-color:#701D3C"/>
		</linearGradient>
		<path class="st30" d="M286.8,102.2c0,0.1,0,0.3,0,0.4c-0.2,2.4-2,4.5-4.7,5.2c-0.3,0.1-0.6,0.1-0.9,0.2c-3.1,0.4-6-1.3-6.8-4.1
			c-0.6-2.2,0.2-4.4,2-5.9c0.7-0.6,1.6-1.1,2.5-1.3c1.6-0.4,3.2-0.2,4.6,0.4c0.5,0.2,0.9,0.5,1.3,0.8c0.8,0.7,1.5,1.6,1.8,2.7
			C286.7,101.1,286.8,101.6,286.8,102.2z"/>
	</g>
</g>
<linearGradient id="SVGID_30_" gradientUnits="userSpaceOnUse" x1="307.5465" y1="681.4054" x2="398.7527" y2="681.4054" gradientTransform="matrix(0.9936 -0.1132 0.1132 0.9936 -113.0557 -623.4146)">
	<stop  offset="0.1789" style="stop-color:#B5AB8C"/>
	<stop  offset="0.3033" style="stop-color:#ADA283"/>
	<stop  offset="0.481" style="stop-color:#9B8E6F"/>
	<stop  offset="0.6896" style="stop-color:#817251"/>
	<stop  offset="0.8449" style="stop-color:#6A5B39"/>
	<stop  offset="1" style="stop-color:#6F603E"/>
</linearGradient>
<path class="st31" d="M341.7,3.8c-4.8-1.3-10.2-1.1-15.3-1.6c-0.7-0.1-1.4,0.1-2-0.1c-12-4.8-22.4-2.3-32.1,3c0,0,0,0-0.1,0
	c-2.9,1.6-5.3,3.8-7.9,5.7c-0.4,0.3-0.8,0.6-1.2,0.9c-0.2,0.1-0.4,0.3-0.6,0.4c-1,0.7-2.8,1.1-4.1,0.9c-0.9-0.1-1.9-0.2-2.8-0.3
	c-1.9-0.2-3.8-0.5-5.6-0.8c0,0-0.1,0-0.1,0c-0.3-0.1-0.6-0.1-1-0.1c0.1,0.1,0.3,0.3,0.4,0.4c0.1,0,0.1,0.1,0.1,0.1
	c0.3,0,0.5,0.1,0.8,0.2c3.1,0.6,6.3,1.3,9.5,2c-0.6,0.8-1.2,1.5-1.8,2.3c-0.2,0.2-0.4,0.4-0.6,0.6c0,0,0,0,0,0
	c-0.3,0.3-0.6,0.6-0.9,0.9c0.6,0.5,1.2,1,1.8,1.5c0.4-0.4,0.9-0.7,1.3-1.1c0.4-0.4,0.8-0.7,1.2-1.1c0.2-0.2,0.4-0.3,0.6-0.5
	c0.6-0.5,1.1-0.9,1.6-1.2c0.8-0.4,1.6-0.5,2.9-0.3c3.3,0.4,6.6,0.6,9.9,0.6c0.5,0,1.1,0,1.6,0c0.6,0,1.3-0.1,1.9-0.1
	c3.1-0.3,5.9-1.2,8.4-2.7c1-0.6,1.9-1.2,2.9-1.9c0.7-0.6,1.4-1.1,2.2-1.6h0c2.8-1.9,5.8-3.6,8.7-5.3c1.7-1,3.5-0.8,4.9,0.6
	c2.8,2.9,5.6,5.7,8.3,8.6c0.1,0.1,0.1,0.1,0.2,0.2c0.6,0.6,1.1,1.2,1.7,1.7l0,0c1.3,1.1,2.7,2,4.7,2.2c0.3,0,0.6,0.1,1,0.1
	c0.5,0,1,0,1.4-0.1c1.8-0.3,2.9-1.3,2.9-3c0.1-2.1-1.4-3.3-4.4-4.3c0.4,0.9,0.5,1.1,0.6,1.3c1.4,1.4,3.2,3.1,0.9,4.3
	c-0.7,0.3-2,0.2-3.2-0.1c0,0,0,0,0,0c-0.9-0.2-1.8-0.6-2.4-1c0,0,0,0,0,0s0,0,0,0c0,0,0,0,0,0c0,0,0,0,0,0c0,0-0.1,0-0.1-0.1
	c-2.5-1.9-4.3-4.4-6.4-6.6c-1.6-1.6-3.2-3.3-5-5.1c5.4-1.1,10.4-0.2,15,1.3c4.9,1.6,9.6,3.7,14.1,6c3.4,1.8,4.2,4.7,3.9,7.8
	c-0.2,2.2-1.8,3.5-4.6,3.8c-2.7,0.2-3.6-1.4-4.3-3.1c-0.1-0.3-0.4-0.6-0.7-0.9c-0.4,0.1-0.8,0.2-1.2,0.3c0.5,1.2,0.7,2.6,1.7,3.5
	c1.9,1.8,4.4,2.2,7,1.1c1.1-0.4,2-1.2,3-1.8c0.3-0.7,0.6-1.4,1-2.1C360.9,9.4,351.3,6.3,341.7,3.8z M311.1,9.7
	c-1.1,0.6-2.1,1.3-3.2,1.9c-0.6,0.3-1.2,0.7-1.9,1c-2.9,1.4-5.9,2.1-9,2.5c-1,0.1-2,0.2-3,0.2c-3.1,0.1-6.3-0.3-9.7-1
	c0.5-0.6,1-1.2,1.6-1.8c0.2-0.2,0.5-0.5,0.8-0.7c2.3-2.2,5-4.1,7.9-5.6c10-5.4,22.1-6.7,27.3-3C318.2,5.2,314.7,7.5,311.1,9.7z"/>
<linearGradient id="SVGID_31_" gradientUnits="userSpaceOnUse" x1="396.1696" y1="1607.844" x2="591.5505" y2="240.1779" gradientTransform="matrix(1 0 0 -1 0 1506)">
	<stop  offset="0" style="stop-color:#6F603E"/>
	<stop  offset="0.1551" style="stop-color:#6A5B39"/>
	<stop  offset="0.3104" style="stop-color:#817251"/>
	<stop  offset="0.519" style="stop-color:#9B8E6F"/>
	<stop  offset="0.6967" style="stop-color:#ADA283"/>
	<stop  offset="0.8211" style="stop-color:#B5AB8C"/>
</linearGradient>
<path class="st32" d="M555.2,278.4c0.2,4,0.3,8,0.1,11.7c-0.6,13.2-1.6,26.5-4.6,39.4c-3,12.9-9.4,23.8-13.6,36.2
	c-3.4,9.9-6.1,22.8-6.3,33.3c0,3.4-0.1,6.9-0.1,10.4l-0.1,6.1c0,1.9,0.4,3.9,0.5,5.7c0,2.1-0.2,4.1-0.1,6.3c0.1,0.9,0.4,1.9,0.5,2.9
	c0.1,0.9-0.1,1.7,0,2.6c0.1,1.9,0.4,3.9,0.4,5.8c0,1.9,0.5,4.3,0.8,6.4c0.9,5,1.5,10.2,2.8,15.3c0.6,2.2,1,4.3,1.5,6.4
	c0.6,2.4,1.4,5,1.8,7.3c0.2,1.6,0.3,3,0.8,4.7c4.1,13.7,8.2,28.2,10.1,41.2c0.1,0.6,0.2,1.1,0.2,1.7c0.1,1,0.3,2,0.3,3
	c0,0.3-0.1,0.6-0.1,0.9c-0.1,1.6-0.4,3.1-0.6,4.7c-0.2,1.8-0.1,3.2-0.9,4.9c-0.7,1.5-1.7,2.8-2.2,4.3c-0.7,2.2-0.2,4.5-0.9,6.7
	c-0.7,2.4-1.5,4.8-2.3,7.1c-0.8,2.2-1.9,4.2-2.8,6.4c-0.9,2.5-1.1,5-1.4,7.6c-0.4,2.8-1.2,5.5-1.6,8.3c-0.6,3.7-1.1,7.4-1.5,11
	c-1.7,12.4-2,24.8-1.5,37.2c0.6,14,1.6,28.1,3.7,42c2,13.7,5.2,27.1,8,40.6c2.9,14,5.2,28.1,6.6,42.3c1.4,14.1,1.9,28.2,2,42.3
	c0.1,14.2,0,28.5-1,42.6c-1,14.3-3.2,28.4-5.5,42.4c-2.3,13.8-4.5,27.7-5.8,41.6c-1.4,14.3-2.3,28.7-3.2,43
	c-0.9,14.4-1.8,28.9-2.2,43.3c-0.4,14.1-0.5,28.3-0.3,42.5c0.2,14.4,0.7,28.8,2.8,43c1.9,12.5,5.4,24.7,7.2,37.3
	c2,13.6,2.3,27.4,2.6,41.1c0.3,14.3,0.6,28.6-0.7,42.8c-0.6,6.9-1.5,13.7-2.5,20.5c-0.8,5.2-1.7,10.3-2,15.5
	c-0.7,10.3,1.9,20.6,3.5,30.7c2.3,14.1,4.1,28.2,6.8,42.3c2.3,12,5,23.9,7.3,35.9c1.8,9.6,3.7,19.3,6,28.8c0.1,0.2,0.1,2.9,0.2,3.1
	c-1.7,0.4-3.4,0.7-5.1,1.1c-1-4.6-2-11.7-3-16.3c-0.3-1.6-0.6-3.1-1-4.7c-0.1-0.5-0.2-1.1-0.3-1.6c-0.4-1.7-0.7-3.4-1.1-5.2
	c-0.4-2.2-0.9-4.3-1.3-6.5c-1.3-6.4-2.6-12.8-3.9-19.2c-0.3-1.6-0.7-3.2-1-4.8c-0.1-0.4-0.2-0.8-0.3-1.3c-0.9-4.4-1.8-8.8-2.6-13.3
	c-1.1-5.8-2.2-11.5-3.3-17.3c0-0.1,0-0.2-0.1-0.3c-0.3-1.5-0.6-3.1-0.8-4.6c-1.3-7.4-2.6-14.8-3.9-22.2c-0.3-2-0.7-4.1-1-6.2
	c0-0.3-0.1-0.5-0.1-0.8c-0.5-3.2-0.9-6.3-1.3-9.5c-0.2-2.2-0.4-4.5-0.4-6.8c0-0.2,0-0.4,0-0.6c-0.1-2.1-0.1-4.3,0-6.4
	c0.1-5.2,0.4-10.4,0.8-15.6c0.1-1,0.1-2.1,0.2-3.1c0.5-7.8,1.2-15.5,1.9-23.3c0.2-2,0.4-4.1,0.5-6.1c0.5-5.7,1-11.3,1.3-17
	c0.3-4.8,0.5-9.7,0.6-14.5l0-0.1c0-2.5,0-5.1-0.1-7.6c-0.2-7.3-0.8-14.5-1.8-21.8c0-0.3-0.1-0.6-0.1-0.9c-0.9-6.5-2.1-12.9-3.5-19.2
	c-0.1-0.6-0.2-1.2-0.4-1.7c-1.2-6-2.5-12.1-3.5-18.2c-0.6-3.6-1.1-7.3-1.5-10.9c0-0.1,0-0.2,0-0.2c-0.4-3.7-0.8-7.5-1.1-11.2
	c-0.6-7.8-0.8-15.7-1-23.5c0-1.6,0-3.2-0.1-4.7c0-0.5,0-1,0-1.4c0-5.4,0-10.9,0-16.3c0-6.7,0.1-13.4,0.2-20.1c0-0.8,0-1.6,0-2.4
	c0.2-7.8,0.4-15.6,0.8-23.5c0.2-4.2,0.5-8.3,0.7-12.5c0.2-3.5,0.4-7,0.7-10.5c0.5-7.4,1-14.9,1.6-22.3c0-0.1,0-0.2,0-0.3
	c0.6-7.5,1.2-15,2.1-22.5c0.3-2.7,0.7-5.4,1.1-8.1c0.7-4.9,1.4-9.7,2.3-14.5c0.4-2.3,0.8-4.6,1.2-6.9c0.9-5,1.9-10,2.7-15
	c0.9-5.1,1.7-10.2,2.3-15.4c0.1-1,0.3-2.1,0.4-3.1c0.2-1.3,0.3-2.6,0.5-3.9c0.8-7.7,1.4-15.4,1.7-23.2c0.2-4.5,0.3-9.1,0.3-13.6
	c0-0.9,0-1.8,0-2.8c0-1,0-2,0-3.1c0-1,0-2-0.1-3.1c-0.2-7.4-0.7-14.8-1.3-22.1c-0.4-4.6-0.9-9.2-1.5-13.8c-0.3-3-0.7-6-1.1-9
	c-1-7.6-2.2-15.1-3.5-22.6c-0.4-2.2-0.8-4.5-1.2-6.7c-0.9-5-1.9-10-2.9-14.9c-1.3-6.7-2.7-13.3-3.9-20c0-0.1-0.1-0.2-0.1-0.4
	c-0.1-0.5-0.2-1.1-0.3-1.6c-1.3-7.5-2.5-15-3.5-22.6c-0.6-5-1.2-10-1.6-15c-0.2-2.3-0.4-4.7-0.5-7c-0.5-7.2-0.6-14.5-0.5-21.8
	c0-1.6,0.1-3.1,0.1-4.6c0-0.4,0-0.8,0-1.2c0-1.3,0.1-2.6,0.2-4l0-0.2c0-0.8,0.1-1.6,0.1-2.4c0-0.8,0.1-1.5,0.1-2.3
	c0-0.6,0.1-1.2,0.1-1.8c0.1-0.9,0.1-1.8,0.2-2.7c0.1-0.9,0.2-1.8,0.3-2.7c0.7-6.5,1.6-13,2.9-19.4c1-4.8,2.2-9.4,3.6-14.1
	c0.1-0.4,0.3-0.9,0.4-1.3c0.8-2.8,1.6-5.7,2.5-8.6c0.7-2.4,1.3-4.8,2-7.1c0.4-1.5,0.8-3.1,1.2-4.6c0.4-1.5,0.8-3.1,1.2-4.6
	c0.4-1.6,0.8-3.3,1.2-5c0.5-2.1,1.2-4,1.2-6.2c0.3-10.9-3.5-22.9-7.2-35.3c-1.2-3.9-2.8-8.3-3.4-12c-0.6-3.7-1.4-7.4-2.2-11.2
	c-1.7-7.9-3.4-15.7-5-23.6c-2.5-12.5-4.2-24.4-4.6-35.9c-1-26.5,8.4-52.4,17.6-76.8c6.7-17.8,6.8-37.1,6.9-55.9
	c0.1-23.2-2.6-44.2-10.3-66c-1.1-3.1-2.6-6.1-3.9-9.3c-1.5-3.7-2.8-7.2-4.5-10.9c-2.5-5.4-5.9-10.2-8.7-15.5
	c-0.4-0.7-0.7-1.7-1.3-2.2c-9.2-8.6-3.5-34.2-2.3-44.8c0.7-6.1,1.3-14.1,3.5-19.9c3.3-8.6,7.1-16.3,10.1-25c1-2.8,2.1-5.6,3.4-8.3
	c1-2,2.1-3.9,3.2-5.8c0.3-0.6,0.6-1.2,0.9-1.9c0.4-1.1,0.6-2.2,0.7-3.4c0.2-1.3,0.4-2.6,0.6-3.8c0.4-1.7,1-3.1,1.4-4.7
	c0.9-3.3,2.6-5.5,4.1-8.1c0.8-1.4,1.4-2.8,2.1-4.3c0.6-1.3,1.5-2.2,2.1-3.5c0.1-0.1,0.1-0.3,0.2-0.4c0-0.3,0.1-0.7,0.3-1
	c0.5-1.2,1.2-2.4,1.3-3.7c0.1-0.8,0.1-1.5,0.2-2.3c0.2-1.5,0.4-2.9,0.7-4.4c0-0.1,0-0.2,0.1-0.3c0.2-0.9,0.3-1.9,0.5-2.8
	c0.1-0.5,0.2-0.9,0.2-1.4c0.1-0.4,0.1-0.8,0.1-1.1c0-0.2-0.1-0.5-0.2-0.7c-0.1-0.3-0.1-0.7-0.1-1c0-0.9,0-1.7,0.1-2.6
	c0-0.8,0.1-1.7-0.1-2.5c-0.2-1.2-0.5-2.3-0.6-3.5c-0.3-2.9-0.4-5.8-0.7-8.8c-0.2-2.4-0.9-4.7-1.5-7c-0.6-2.3-1.2-4.5-2-6.7l-4.6-10
	c-1.8-3.1-3.8-6.2-5.8-9.2c-1.8-2.6-3.7-5.2-5.4-7.9c-1-1.5-2-3.1-3.1-4.6c-0.5-0.7-1.1-1.3-1.7-1.9c-1.5-1.5-3.3-2.7-5.1-3.8
	c-0.4-0.2-0.9-0.5-1.4-0.7c-1.6-0.8-3.2-1.4-4.9-1.9c-1.3-0.4-2.4-0.8-3.3-1.8c-0.8-0.8-1.5-1.4-2.5-1.9c-1.2-0.6-2.7-0.9-4.1-1.1
	c-1.1-0.2-2.2-0.3-3.1-0.8c-0.7-0.3-1.2-0.7-2-0.8c-1-0.2-2.2-0.2-3.1,0.2c-1.4,0.6-1.4,2.2-1.6,3.3c-0.2,1.1-0.5,2.2-0.7,3.3
	c-0.3,1.1-0.2,2.1-0.4,3.2c-0.1,1.1-0.3,2.1-0.5,3.2c-0.3,2-0.8,4-0.7,6c0.1,1.1,0.3,2.1,0,3.3c-0.1,0.5-0.1,1-0.1,1.6
	c0,0.2,0,0.5,0,0.7c-0.1,0.7-0.3,1.3-0.7,1.9c-0.7,1.1-2,1.8-3,2.7c-0.5,0.4-1.1,0.9-1.7,1.3c-0.1,0.1-0.2,0.1-0.3,0.2
	c-0.3,0.2-0.7,0.3-1,0.4c-0.6,0.1-1.2,0-1.7-0.3c-0.1-0.1-0.2-0.1-0.3-0.2c-0.3-0.2-0.6-0.6-0.8-0.9c-0.8-1.4-0.4-2.9,0.1-4.3
	c0.6-1.6,1.7-3,2.9-4.3c0.3-0.4,0.7-0.7,1-1.1c1.3-1.5,2.2-3,2.7-4.8c0.7-2.8,1.1-5.7,1.1-8.5c0-1.2-0.2-2.4,0-3.5
	c0.1-1.1,0-2.3-0.4-3.4c-0.5-1.2-1.4-2.3-2.3-3.3c-2.1-2.1-4.5-4.3-7.3-5.6c-2.8-1.4-6.1-1.8-9.3-2.2c-2.8-0.4-5.5-1.1-8.2-1.8
	c-6.3-1.5-12.7-2.2-19.1-3.1c-1.8-0.2-3.6-0.6-5.4-0.9c-1.1-0.2-2.3-0.4-3.4-0.7c-4.8-1-9.6-1.8-14.4-2.8c-3.9-0.8-7.7-1.7-11.6-2.7
	c-2-0.5-3.9-1-5.9-1.5c-4.7-1.2-9.4-2.2-14.1-3.2c-2.4-0.5-4.7-0.9-7.1-1.5c-0.8-0.2-1.6-0.4-2.4-0.8c-0.5-0.3-1-0.7-1.6-0.9
	c-1.1-0.5-2.4-0.9-3.6-1.3c-1.2-0.4-2.3-0.7-3.5-1.2c-3.7-1.4-7.4-2.9-11.2-4.1c-6.3-1.9-12.8-3.2-19.3-4.4
	c-9.7-1.7-19.4-2.9-29.2-4.2c-9.8-1.3-19.6-2.4-29.4-4.1c-3.3-0.6-6.6-1.1-9.9-2c-0.1,0-0.1,0-0.2-0.1c-0.1,0-0.1,0-0.2,0
	c-0.1,0-0.1,0-0.2-0.1c-0.4-0.1-0.9-0.2-1.5-0.4c0,0,0,0-0.1,0c-5.5-1.4-19.4-5.1-20.1-6c0-0.1,6.4-1,9-1.3c0.1,0,0.3,0,0.5,0
	c3.6,0,16.8,2.9,17.5,2.8c5-0.2,10.1,0.2,15.1,0.8c4.3,0.5,8.5,1.1,12.8,1.5c2.8,0.3,5.6,0.6,8.4,1c4.9,0.6,9.9,1.4,14.8,2.3
	c1.2,0.2,2.4,0.4,3.6,0.7c3.4,0.6,6.7,2.2,10.1,2.3c2.7,0.1,5.8-0.8,8.4-0.1c2.5,0.7,4.8,1.8,7.2,2.6c1.6,0.5,3.2,0.9,4.9,1
	c1.3,0.1,2.6,0,3.9,0.1c2,0.1,4,0.5,5.9,0.8c0.6,0.1,1.3,0.2,2,0.2c2.8,0,4.6-2.6,6.7-4c1.2-0.8,2.7-1.1,4.2-0.8
	c2.5,0.4,4.9,1.1,7,2.4c0.9,0.6,1.7,1.1,2.6,1.6c0.7,0.3,1.5,0.6,2.2,0.9c0.4,0.1,0.8,0.3,1.2,0.5c0.9,0.4,1.7,0.8,2.5,1.3
	c1.1,0.7,2.2,1.3,3.4,1.9c1,0.5,2.3,0.9,2.8,1.8c0.5,0.9,0.4,2.1,0.5,3.1c-0.6-0.8-1-1.6-1.6-2.4c-0.8-1.1-1.8-1.9-3-2.6
	c-0.5-0.3-1-0.6-1.5-0.8c-1.5-0.8-2.9-1.6-4.5-2.3c-0.9-0.4-1.8-0.8-2.7-1.2c-1.1-0.5-2.3-0.9-3.4-1.4c-0.9-0.4-1.7-1-2.6-1.2
	c-2-0.6-4.4,0-6.4,0.6c-0.9,0.2-1.8,0.6-2.2,1.4c-1.3,2.4,0.8,4.5,2.8,5.7c0.5,0.3,1,0.6,1.5,0.8c0.4,0.1,0.8,0,1.2,0
	c0.5,0,1,0.3,1.5,0.5c0.5,0.2,1.1,0.5,1.6,0.8c0.5,0.2,0.9,0.5,1.4,0.7c1.8,1,3.5,2.1,5.3,2.8c1.1,0.5,2.3,0.9,3.5,1.2
	c0.9,0.3,1.9,0.3,2.8,0.5c0.9,0.2,1.7,0.4,2.5,0.7s1.7,0.2,2.5,0.4c0.6,0.2,1.2,0.4,1.9,0.6c0.1,0,0.1,0,0.2,0
	c1.8,0.4,3.7,0.7,5.5,1.1c4.5,0.9,9,1.7,13.5,2.5c2.2,0.4,4.5,0.7,6.6,1.3c0.7,0.2,1.1,0.5,1.8,0.8c0.9,0.3,1.9,0.5,2.9,0.8
	c0.2,0.1,0.4,0.2,0.6,0.3c0.5,0.2,1,0.5,1.6,0.8c0.8,0.3,1.5,0.5,2.4,0.7c1.4,0.3,2.8,1,4.2,1.2c3.4,0.6,7-0.4,10.4,0
	c3.8,0.4,7.7,0.9,11.4,1.8c1.6,0.4,3.3,0.9,4.9,1.5c1.7,0.7,3.2,1.5,4.7,2.4c1.2,0.7,2.6,1,3.9,1.5c1.5,0.6,3,1.3,4.5,1.9
	c3.3,1.2,6.8,1.3,10.1,2.1c1.7,0.4,3.5,0.7,5,1.5c1.3,0.7,2.4,1.6,3.7,2.3c1.4,0.8,2.9,1.5,4.3,2.4c1.8,1.1,3.6,2,5.5,2.7
	c1.7,0.6,3.4,1.4,5,2.1c0.3,0.1,0.6,0.2,0.8,0.3c0.7,0.3,1.5,0.6,2.2,0.9c0.8,0.3,1.7,1.2,2.4,1.8c1,0.8,1.9,1.6,2.8,2.4
	c2.1,1.8,4.1,3.8,6.1,5.8c0.5,0.5,1.1,1,1.4,1.6c0.3,0.6,0.2,1.2,0.6,1.8c0.3,0.5,0.9,0.6,1.3,1.1c0.9,0.9,0.9,1.7,2.3,2
	c0.1,0.8,0.3,1.3,0.8,1.9c0.9,1.3,1.1,2.4,1.3,4c0.1,1.2,0.1,1.1,1.1,1.6c0,0.1,0.1,0.2,0.2,0.3c0.2,0.1,0.4,0.1,0.6,0.1
	c0.5,0.2,0.7,0.4,1,0.8c0.4,0.4,0.9,0.9,1,1.4c0.2,0.7-0.1,1.5,0,2.2c0.3,1.8,1.1,3.3,2,4.9c0.7,1.2,1.2,1.9,1.3,3.3
	c0.1,0.9,0.4,1.7,0.8,2.6c0.4,0.8,0.6,1.7,0.8,2.5c0.2,0.6,0.1,1.2,0.5,1.7c0.5,0.7,1.3,1.1,1.9,1.9c0.6,0.8,0.9,1.7,1.2,2.7
	c0.6,2,0.8,4.1,1.2,6.1c0.1,0.4,0.1,0.8,0.2,1.2c0.2,1.8,0.3,3.5,0.4,5.3c0,0.5-0.1,1.1-0.1,1.6c0,0.4,0.2,0.8,0.2,1.1
	c0,0.4,0,0.7,0,1.1c0,0.9,0,1.8,0,2.8c0,0.7-0.1,1.4-0.1,2.1c-0.1,1.1,0,2.2-0.1,3.3c0,0.1,0,0.3,0,0.4c0,0.1,0.1,0.2,0.2,0.3
	c0.1,0.4,0.2,0.8,0.3,1.1c0.1,0.1,0.1,0.2,0.2,0.3c0.1,0.2,0,0.4,0,0.5c0,0.5,0.1,1,0,1.4c-0.1,0.5-0.1,1-0.2,1.5
	c0,0.3-0.1,0.5-0.1,0.8c0,0.5-0.1,1.1-0.1,1.6c0,0.4,0,0.8,0,1.2c0,1.1-0.3,2.1-0.7,3.1c-0.1,0.4-0.3,0.8-0.5,1.3c0,0.1,0,0.2,0,0.3
	c0,0.5-0.1,1,0,1.5c0,0.2,0,0.5,0,0.7c-0.1,0.3-0.2,0.6-0.4,0.8c-0.2,0.3-0.4,0.6-0.5,1c-0.2,0.4-0.3,0.8-0.4,1.2
	c-0.2,1-0.3,2-0.7,2.9c-0.2,0.5-0.5,1-0.7,1.5C541.1,62.3,536,88,524,110.1c-0.3,0.5-0.5,1-0.6,1.5c-0.1,0.5-0.3,1-0.4,1.5
	c-0.1,0.4,0,0.9,0,1.3c0,0.5-0.2,0.8-0.4,1.3c-0.2,0.6-0.3,1.2-0.4,1.8c-2,18.2-6.4,38.5,3.4,55.2c1,1.8,2.1,3.5,3.2,5.2
	c8.2,13.4,15.2,27.9,19.6,43c4.2,14.2,3.9,28.2,5.6,42.7C554.4,268.7,554.9,273.6,555.2,278.4z"/>
<linearGradient id="SVGID_32_" gradientUnits="userSpaceOnUse" x1="352.4168" y1="1262.108" x2="352.4897" y2="1261.4928" gradientTransform="matrix(1 0 0 -1 0 1506)">
	<stop  offset="0" style="stop-color:#6F603E"/>
	<stop  offset="0.1551" style="stop-color:#6A5B39"/>
	<stop  offset="0.3104" style="stop-color:#817251"/>
	<stop  offset="0.519" style="stop-color:#9B8E6F"/>
	<stop  offset="0.6967" style="stop-color:#ADA283"/>
	<stop  offset="0.8211" style="stop-color:#B5AB8C"/>
</linearGradient>
<path class="st33" d="M352.2,243.9c0.1,0.2,0.2,0.4,0.3,0.6c0.1,0,0.2-0.1,0.3-0.1C352.5,244.3,352.4,244.1,352.2,243.9z"/>
<linearGradient id="SVGID_33_" gradientUnits="userSpaceOnUse" x1="24.1087" y1="1531.0231" x2="189.0901" y2="139.5769" gradientTransform="matrix(1 0 0 -1 0 1506)">
	<stop  offset="0" style="stop-color:#6F603E"/>
	<stop  offset="0.1551" style="stop-color:#6A5B39"/>
	<stop  offset="0.3104" style="stop-color:#817251"/>
	<stop  offset="0.519" style="stop-color:#9B8E6F"/>
	<stop  offset="0.6967" style="stop-color:#ADA283"/>
	<stop  offset="0.8211" style="stop-color:#B5AB8C"/>
</linearGradient>
<path class="st34" d="M378.9,1390.8c-1.5-6.1-2.8-12.1-4-18.1c-0.5-2.7-1.1-5.4-1.6-8.2c-2.1-10.9-4.6-21.8-6.7-32.7
	c-2.5-12.7-4.1-25.2-6.2-37.8c-1.5-9.1-3.9-18.6-3.2-27c0.4-4.2,1.2-8.2,2-12.2c1-5.3,1.9-10.7,2.5-16.2c1.2-11.5,1.1-23.5,0.8-35.6
	c-0.2-11.6-0.4-23.2-2.2-35.3c-1.7-11.2-4.9-22.7-6.6-33.8c-2-12.7-2.4-24.9-2.5-37c-0.1-11.9-6.4-85.6-5.8-96.6
	c0.5-11.2,1.4-22.4,2.4-33.5c1-11.1,2-22.2,3.4-33.3c1.4-10.8,3.4-21.6,5.7-32.3c2.3-10.9,4.4-21.9,5.4-32.9c1.1-11,1.4-22,1.4-33
	c0-10.9-0.2-21.8-1.4-32.7c-1.1-11-3-21.8-5.5-32.5c-2.4-10.4-5.1-20.7-6.8-31.3c-0.8-5-2.7-10.4-4.5-15.8v-7.5
	c0-2.5-0.4-5.4,0.1-7.8c0.6-2.8,2.8-5.4,2.7-8.3c-0.1-2.5-0.7-5.2-0.9-7.8c0-0.6-0.1-1.2-0.1-1.8c0-0.5-0.1-0.9-0.1-1.4
	c-0.1-0.7-0.1-1.4-0.2-2.1c-0.1-0.7-0.1-1.4-0.2-2.1c-0.6-5-1.5-10-2.6-14.9c-3-12.9-9.1-25.1-10.5-38.4c-1-9.8,1.9-19.1,4.6-28.4
	c0.9-3,2-6.4,2.5-9.3c0.4-2.8,1-5.8,1.5-8.7c1.2-6.1,2.5-12.2,3.6-18.3c1.8-9.7,2.9-18.9,3-27.7c0.1-7.7-0.2-15.1-1.2-22
	c-1.3-9.6-6.1-19.1-10.2-27.8c-6-12.7-9.3-24.7-9.4-38.9c0-7.8-0.7-15.5-0.7-23.3c0-8.6,1.3-18.7,3.2-27.1c1-4.5,2.8-9.1,4.3-13.7
	c0.8-2.4,2-4.8,2.9-7.2c5.5-14.1,14-26.9,18.9-41.2c2-5.8,3.9-11.8,5-17.8c0.7-3.7,0.9-7.5,1-11.2c0.1-5.6-0.2-11.2,0.2-16.8
	c0.6-8.8-4.1-16.8-5.5-25.3c-0.8-4.7-2-10.1-4.3-14.4c-7.7-14.1-1-23.8,1.7-37.8c5.9-29.6-4.3-61.7-7.9-91.1
	c-2.2-17.7-4-35.5-11.4-52c-9.1-20-25.2-38.5-43.7-50.5c-2.9-1.9-5.8-3.5-8.8-4.9c-2.4-1.1-4.9-2.2-7.4-3.1
	c-13.3-5-26.6-12.1-40.8-14.2c-4.9-0.7-29.9-1-34.8-1.8C200-3.2,187.9-4,187.8-4c-15.6-2.6-452.4,3.9-467.9,1
	c-0.2,1.2-0.2,4.2,0,5.4c9.7,1.8,471.7-0.5,481.4,1.3c4,0.7,27.7,1,31.3,2.9c3.5,1.9,4.1,6.6,6.2,10c0.9-1.8,3.4-5.5,3.4-5.5
	s5.9-2.9,6-3c12.6,2.5,20.3,6.9,30.8,12.5c6.3,3.3,12.1,7.3,17.5,11.8c1.3,1.1,2.6,2.2,3.9,3.3c0,0,21.3,23.7,21.3,23.7
	c3.1,4.3,5.6,8.7,7.6,13.2c0,0,5.5,15.6,5.5,15.6c3.2,12.2,4.4,25,6,38.3c2.9,23.4,14.5,46.2,9.9,70.1c-2.2,11.1-6.9,21.7-8,33.1
	c-0.6,6,0,12.1,1.5,18c0.7,2.8,1.6,5.6,2.5,8.4c0.9,2.7,2.2,5.4,3,8.2c1,3.3,1.8,6.9,0.5,10.3c-0.7,1.8-2.1,3.3-3.2,4.9
	c-1,1.3-1.8,1.9-3.3,2.6c-0.6,0.3-3.2,2.1-2,2.9c1,0.7,3.2-1.7,3.7-2.3c0.8-0.9,1.5-2,2.4-2.9c1-1,2.1-2.4,3.5-3.1
	c0.8-0.4,2.2-0.1,2.8,0.4c0.9,0.8,1.2,2.2,1.5,3.3c0.5,2.4,0.8,4.8,1.2,7.2c1.1,6,1,12.4,0.6,18.4c-0.4,6.4-1.5,12.7-3,19
	c-1.5,6.1-3.4,12.2-5.8,18c-2.3,5.7-4.9,11.1-7.9,16.5c-0.4,0.6-0.7,1.3-1.1,1.9c-1.6,2.8-3,5.9-4.4,8.8c-0.8,1.7-1.6,3.4-2.4,5.1
	c-0.7,1.5-1.6,2.8-2.2,4.3c-0.9,2-2,4.2-2.6,6.2c-3.6,11.3-6.4,24.2-6.1,36.1c0,1.7-0.3,3.4-0.5,5c-0.3,2.1-0.1,4.1-0.1,6.1
	c0,0.5,0,1.1,0,1.6v0.7c0,3.4-0.1,6.7,0.3,10.1c0.2,2.4,0.5,4.7,0.7,7.1c0.3,4.2,0.1,8.5,0.6,12.7c0.2,1.8,0.7,3.5,1.1,5.3
	c0.4,1.6,0.6,3.2,1,4.8c0.9,3.3,2.6,6.5,4,9.7c2.7,6.2,5.4,12.7,8.7,18.6c1.6,2.9,2.7,6,3.7,9.2c1,2.9,1.9,6,2.5,9
	c2.6,13-3,27.6-2.8,40.6c0,1.5-0.3,3.3-0.6,4.9c-0.6,3.9-1,7.9-2,11.9c-0.4,1.7-0.7,3.3-1.1,5c-0.4,1.9-1,3.9-1.3,5.7
	c-0.1,1.2-0.2,2.4-0.5,3.6c-3,10.6-6,21.9-7.3,32c0,0.4-0.1,0.9-0.1,1.3c-0.1,0.8-0.2,1.5-0.2,2.3c0,0.3,0.1,0.5,0.1,0.7
	c1,13.3,8.2,25.2,10.6,38.2c0.5,2.8,0.9,5.6,1.4,8.5c1,6.9,1.6,13.8,1.7,20.8c0,2.3-0.5,4.1-1.3,6.3c-1,2.5-1,5-1,7.6
	c0,3-0.7,6.5,0.4,9.3c0.5,1.3,0.9,2.5,1.5,3.8c-0.4,0.5-0.7,0.9-0.7,1.2c0.3,3.9,0.8,7.7,1.3,11.6c0.8,5.8,1.8,11.6,2.9,17.4
	c0.1,0.4,0.2,0.8,0.2,1.2c0,0.1,0,0.2,0.1,0.3c1,5.1,2.2,10.3,3.3,15.4c0.8,3.8,1.7,7.7,2.5,11.5c0.4,1.7,0.7,3.5,1,5.2
	c1.1,5.8,2.1,11.6,2.9,17.4c0.3,2.3,0.7,4.6,0.9,7c0.5,3.5,0.8,7.1,1.2,10.6c0.5,5.7,0.9,11.4,1,17.1c0,0.8,0,1.6,0,2.4
	c0,0.8,0,1.6,0,2.4c0,0.7,0,1.4,0,2.1c0,3.5-0.2,7-0.4,10.6c-0.4,6-0.9,11.9-1.8,17.9c-0.1,1-0.3,2-0.4,3c-0.1,0.8-0.2,1.6-0.4,2.4
	c-0.6,4-1.4,8-2.3,12c-0.8,3.9-1.8,7.8-2.6,11.7c-0.4,1.8-0.8,3.5-1.2,5.3c-0.8,3.8-1.6,7.5-2.2,11.3c-0.4,2.1-0.7,4.2-1,6.3
	c-0.9,5.8-1.6,11.6-2.2,17.4c0,0.1,0,0.2,0,0.2c-0.6,5.8-1.1,11.5-1.7,17.3c-0.3,2.7-0.5,5.4-0.8,8.1c-0.3,3.2-0.5,6.5-0.8,9.7
	c-0.5,6.1-0.8,12.1-1,18.2c0,0.6,0,1.2-0.1,1.8c-0.2,5.2-0.3,10.4-0.4,15.6c-0.1,4.2,6.1,68.8,6.1,73.3c0,0.4,0,0.8,0,1.2
	c0,1.3,0,2.6,0,4c0.1,6.6,0.3,13.3,0.8,20c0.2,3.2,0.6,6.5,1,9.8c0,0.1,0,0.1,0,0.2c0.4,3.2,0.9,6.4,1.4,9.7
	c0.9,5.4,2.1,11,3.2,16.5c0.1,0.5,0.2,1.1,0.3,1.6c1.2,5.8,2.4,11.6,3.2,17.3c0,0.3,0.1,0.5,0.1,0.8c0.9,6.4,1.4,12.7,1.6,18.8
	c0,2.2,0.1,4.3,0,6.4l0,0.1c-0.1,4-0.3,8-0.6,11.9c-0.4,4.6-0.8,9.2-1.4,13.7c-0.2,1.6-0.4,3.3-0.5,4.9c-0.7,6.2-1.3,12.5-1.9,18.8
	c-0.1,0.8-0.1,1.7-0.2,2.5c-0.4,4.2-0.7,8.4-0.8,12.8c-0.1,1.8-0.1,3.6,0,5.4c0,0.2,0,0.4,0,0.6c0.1,1.9,0.2,3.9,0.4,5.8
	c0.3,2.8,0.7,5.6,1.2,8.4c0,0.2,0.1,0.5,0.1,0.7c0.3,1.8,0.6,3.7,0.9,5.5c1.1,6.7,2.3,13.3,3.6,20c0.2,1.4,0.5,2.8,0.8,4.2
	c0,0.1,0,0.2,0,0.2c1,5.2,2,10.4,3,15.7c0.8,4,1.6,8,2.4,12.1c0.1,0.4,0.2,0.8,0.2,1.2c0.3,1.5,0.6,2.9,0.9,4.4
	c1.2,5.8,2.4,11.6,3.6,17.5c0.4,2,0.8,3.9,1.2,5.9c0.3,1.6,0.6,3.2,1,4.7c0.1,0.5,0.2,1,0.3,1.5c0.3,1.4,0.6,2.8,0.9,4.3
	c0.9,4.2,1.8,8.5,2.7,12.7c0.1,0,0.1,0,0.2,0c1.5,0.3,3.1,0.6,4.6,0.9C379,1391.2,379,1391,378.9,1390.8z"/>
<linearGradient id="SVGID_34_" gradientUnits="userSpaceOnUse" x1="295.4821" y1="1476.0431" x2="298.0208" y2="1454.6316" gradientTransform="matrix(1 0 0 -1 0 1506)">
	<stop  offset="0" style="stop-color:#6F603E"/>
	<stop  offset="0.1551" style="stop-color:#6A5B39"/>
	<stop  offset="0.3104" style="stop-color:#817251"/>
	<stop  offset="0.519" style="stop-color:#9B8E6F"/>
	<stop  offset="0.6967" style="stop-color:#ADA283"/>
	<stop  offset="0.8211" style="stop-color:#B5AB8C"/>
</linearGradient>
<path class="st35" d="M296.4,29.6c0.4,1.5,0.3,3-0.2,4.5c-0.8,2.1-2,4-2.8,6.2c-0.4,1.1-0.7,2.2-1.1,3.3c0,0,0,0.1,0,0.1
	c-0.5,1.8-0.8,3.7-0.5,5.6c0.1,1,0.8,1.9,1.4,2.7c0.1,0.2,0.3,0.5,0.4,0.7c0.1-0.2,0.1-0.4,0-0.6c0-0.3-0.1-0.5-0.2-0.8
	c-0.1-0.5-0.3-0.9-0.3-1.4c0-0.5,0-1,0-1.5c0-0.4,0.2-0.9,0.4-1.3c0.2-0.5,0.4-1,0.6-1.4c0.2-0.5,0.3-0.9,0.6-1.3c0,0,0,0,0-0.1
	c0.2-0.4,0.4-0.9,0.6-1.3c0.1-0.3,0.2-0.6,0.3-1c0.1-0.3,0.1-0.6,0.1-0.9c0.1-0.8,0.6-1.5,1-2.3c0.5-0.8,0.9-1.7,1.7-2.3
	c0.6-0.5,1.4-0.5,2.1-0.7c0.5-0.2,0.7-0.6,1.2-0.1c0.2,0.2,0.5,0.5,0.7,0.7C300.5,34.1,297.8,32.3,296.4,29.6z"/>
<linearGradient id="SVGID_35_" gradientUnits="userSpaceOnUse" x1="-256.794" y1="1688.3997" x2="-217.7629" y2="1688.3997" gradientTransform="matrix(-0.9534 -0.3017 0.3017 -0.9534 -385.0044 2163.7646)">
	<stop  offset="0.1789" style="stop-color:#A2B442"/>
	<stop  offset="0.3168" style="stop-color:#9BAB40"/>
	<stop  offset="0.5137" style="stop-color:#8C963A"/>
	<stop  offset="0.7449" style="stop-color:#757831"/>
	<stop  offset="0.8449" style="stop-color:#6A692C"/>
	<stop  offset="1" style="stop-color:#706F37"/>
</linearGradient>
<path class="st36" d="M338.9,624.3c1.4,0,2.8,0.2,4.2,0.4c0,0.5,0,0.9,0,1.4c-2.5,2.7-7.3,3.3-6.5,9.2c0.5,3.9,3,7,4.6,10.4
	c0.2-0.5,0.5-1,0.7-1.5c1.5-0.3,3-0.7,4.7-1.1c1.3-3.2,3.1-3.4,5.2-1.4c0.7,0.7,2,0.9,2.9,0.5c1.4-0.5,2.8-1.6,3.5-2.1
	c3.2-5.4,6.8-8.3,11.3-10.2c-2.5-3.4-4.7-6.6-7.2-10c0,0,0.5-0.9,0.8-1.4c-1.9-4.8-4.7-3.7-7.7-1.6c-0.5,0.4-1.2,0.7-1.7,0.5
	c-0.9-0.3-2.2-0.7-2.3-1.6c-0.2-1.2,0.3-3.1,1-4.2c0.8-1.3,2-2.2,3.6-3.8c-1.8-1.3-3.9-1.7-4.6-3.5c-1.7-4.4-3.2-0.5-4.8,0.5
	c-0.5,0.3-1.2,0.2-1.7,0c-2.7-0.8-4.1,2.2-5.4,4.9c-1.3,2.7-1.2,5.2,0.4,7.3c0.9,1.2,1.4,2.9,2.1,4.4c-0.2,0.4-0.5,0.7-0.7,1.1
	c-1.2,0-2.3,0-3.5-0.1c-3.4-0.2-4.3-1.5-3.3-6.3c0,0,0,0,0,0c-0.7,0.4-1.3,0.9-2,1.2C333.1,622.5,334.7,624.4,338.9,624.3z"/>
<linearGradient id="SVGID_36_" gradientUnits="userSpaceOnUse" x1="-942.1115" y1="345.2274" x2="-884.6887" y2="345.2274" gradientTransform="matrix(-0.6108 0.7047 0.7049 0.6109 -475.6455 728.1246)">
	<stop  offset="0.1789" style="stop-color:#A2B442"/>
	<stop  offset="0.3168" style="stop-color:#9BAB40"/>
	<stop  offset="0.5137" style="stop-color:#8C963A"/>
	<stop  offset="0.7449" style="stop-color:#757831"/>
	<stop  offset="0.8449" style="stop-color:#6A692C"/>
	<stop  offset="1" style="stop-color:#706F37"/>
</linearGradient>
<path class="st37" d="M319.5,274c0.4,0,0.8,0,1.1,0.1c0.2,0.5,0.3,1,0.4,1.4c-2.2,1.1-4.5,2.2-6.9,3.4c0.5,0.6,0.9,1.2,1.3,1.6
	c4.7,3.9,4.7,5.1,0.1,8.6c-1.3,1-2.8,1.7-4.2,2.6c-1.5,1-3.5,1.7-4.3,3c-2.6,4.6-4.7,9.4-6.9,14c2.4,0.5,5.2,0.9,7.9,1.5
	c6.5,1.5,12.4,0.2,17.1-4c5.1-4.5,9.2-3.6,12,4c3-2.9,5.3-5.9,8.5-7.9c2.9-1.8,4.9-3.8,6-6.8c1.2-3.4-0.3-5.7-4-6.1
	c-2.1-0.3-4.3-0.1-6.5-0.3c-1.8-0.2-3.1-0.9-1.8-2.9c-2.5,1-3.2-0.3-2.8-2.4c0.2-1.3,0.9-2.5,1.4-3.8c2.2-5.2,1.5-8.4-3.1-11.8l0,0
	l-0.1-0.1c-0.5-0.4-1.1-0.8-1.8-1.2c0.1,0,0.1-0.1,0.2-0.1c-1.4-0.8-3.1-1.2-4.6-1.1c-1.7,1-3.4,1.8-5.3,2.6
	c-0.7,0.3-1.4,0.5-2.2,0.8l-1.8,2.8L319.5,274z"/>
</svg>
