<?xml version="1.0" encoding="utf-8"?>
<!-- Generator: Adobe Illustrator 16.0.0, SVG Export Plug-In . SVG Version: 6.00 Build 0)  -->
<!DOCTYPE svg PUBLIC "-//W3C//DTD SVG 1.1//EN" "http://www.w3.org/Graphics/SVG/1.1/DTD/svg11.dtd">
<svg version="1.1" id="Layer_1" xmlns="http://www.w3.org/2000/svg" xmlns:xlink="http://www.w3.org/1999/xlink" x="0px" y="0px"
	 width="316.861px" height="1242.427px" viewBox="0 46.712 316.861 1242.427" enable-background="new 0 46.712 316.861 1242.427"
	 xml:space="preserve">
<path opacity="0.4" fill="#9D1B36" d="M21.851,403.969c-0.56,0.05-1.12,0.1-1.67,0.04c-0.38-0.04-0.76-0.13-1.08-0.36
	c-0.2-0.14-0.38-0.35-0.42-0.609c-0.02-0.221,0.07-0.42,0.16-0.601l0.85-0.27c0.9-0.11,1.8-0.21,2.71-0.21
	c0.94,0,1.89,0.09,2.83,0.25c0.91,0.16,1.82,0.38,2.71,0.62c0.8,0.199,1.59,0.42,2.38,0.67c0.77,0.239,1.53,0.52,2.26,0.88
	c0.85,0.41,1.67,0.92,2.45,1.479c0.76,0.55,1.49,1.141,2.17,1.8c0.22,0.221,0.44,0.45,0.63,0.7c0.07,0.09,0.24,0.3,0.2,0.44
	c-0.13,0.479-2.99-1.37-3.22-1.521c-1.38-0.859-2.75-1.79-4.25-2.37c-1.38-0.539-2.85-0.8-4.31-0.949
	C24.781,403.818,23.321,403.858,21.851,403.969z"/>
<path opacity="0.4" fill="#9D1B36" d="M36.661,578.559c1.28-0.7,2.56-1.38,3.87-2.02c1.76-0.86,4.55,0.93,6.86,1.5
	c-1.89-0.221-3.89-0.99-5.67-0.58c-0.18,0.05-0.36,0.1-0.55,0.14c-1.49,0.39-2.94,0.91-4.36,1.57c-1.4,0.64-2.73,1.399-4.03,2.25
	c-0.82,0.54-1.63,1.09-2.42,1.7c-0.76,0.579-1.42,1.35-2.21,1.89c-0.51,0.35-1.09,0.45-1.65,0.66c-0.76,0.29-1.39,1-2.03,1.529
	c-0.4,0.32-0.84,0.61-1.2,1.011c-0.17,0.21-0.31,0.42-0.41,0.68c-0.11,0.27-0.33,0.38-0.53,0.56c-0.28,0.261-0.54,0.551-0.77,0.87
	c-0.2,0.271-0.41,0.65-0.7,0.801c-0.31,0.159-0.24-0.211-0.18-0.431c0.24-0.76,0.69-1.47,1.07-2.149
	c0.09-0.17,0.19-0.341,0.29-0.511c0.38-0.689,0.71-1.25,1.37-1.62c0.65-0.35,1.27-0.729,1.9-1.109c1.26-0.76,2.53-1.5,3.78-2.28
	c1.24-0.78,2.51-1.52,3.77-2.27C34.111,579.988,35.381,579.259,36.661,578.559z"/>
<path opacity="0.4" fill="#9D1B36" d="M71.471,401.679c-0.4,0.63,0.45,1.05,0.61,2.3c0.16,1.26-0.24,1.811-1.08,2.061
	c-0.84,0.26-1.82,0.81-0.87,1.93c0.95,1.13,1.23,1.3,1.53,1.59s-1.15,0.34-1.91,0.89c-0.77,0.551-1.66-0.119-1.12,1.721
	c0.55,1.84,1.2,1.25,1.11,1.04s0.76,0.51-0.79,1.18c-1.56,0.68-0.91,0.55-1.27,2.1c-0.35,1.561,0.45,2.681-0.77,3.69
	c0,0-1.43-0.79-2.39-1.83s-1.62-1.42-2.82-1.33c-1.19,0.09-1.2,0.18-0.86,0.8c0.34,0.63,1.23,1.96,2.78,3.011
	c1.56,1.04,2.4,4.51,3.66,5.85c1.27,1.33,2.57,3.96,3.67,5.76s0.24,6.71-0.42,7.3c-0.66,0.58-0.95,1.931-2.3,3.061
	c-1.34,1.14-0.57,2.6-0.65,4.03c-0.04,0.569-0.16,0.989-0.29,1.279c-0.2,0.42-0.44,0.54-0.48,0.311c-0.07-0.38-1.09-1.21-2.53-1.62
	c-1.43-0.41-2.04,0.72-2.32-0.41c-0.28-1.13-0.31-1.25-0.62-1.08c-0.32,0.16-0.96,1.93-1.97,2.43c-1.02,0.511-1.55,0.301-2.15-0.659
	s-0.88-0.08-1.92-1.12c-1.03-1.04-0.36-1.801,0.36-3.65c0.23-0.58,0.39-0.88,0.5-1.03c-0.18-0.1-0.44-0.27-0.8-0.6
	c-0.75-0.67-0.19-0.63-0.12-2.34c0.08-1.73,0.71-6.54,0.81-8.521c0.11-1.97-1.82-3-3.1-2.83c-1.27,0.17-1,0.42-1.44,2.73
	c-0.43,2.31,1.79,3.34,3.1,4.56c1.31,1.21,0.44,0.74-0.27,1.091c-0.7,0.329,0.03,1.079-0.57,2.51c-0.6,1.43-0.02,1.6-1.02,2.6
	c-1,1.021-0.84,0.26-2.06-0.83c-1.21-1.08-0.79-0.54-2.1-0.109c-1.3,0.43-1.07,0.34-2.7-0.99c-1.63-1.34-0.9-0.29-1.67,0.05
	c-0.78,0.33-0.33,1-1.53,1.39c-1.18,0.381-1.83-0.83-3.53-1.199c-1.7-0.37-1.69,2.6-1.88,1.97c-0.19-0.62-0.3-0.37-1.91-1.87
	s0,0-1.77,0.6c-1.76,0.591-3.72,1.9-3.65,0.931c0.06-0.96-1.55-1.41-3.14-3.46c-1.6-2.051-1.05,0.09-2.06-0.83
	c-1.01-0.92-0.12-2.351-0.27-3.69c-0.15-1.33-3.06-1.16-1.43-1.83c1.63-0.68,2.09-0.47,2.35-1.189c0.26-0.71-1.16-0.25,0.5-1.55
	c1.66-1.311,0.16-1.131,2.39-2.57c2.23-1.43,2.57-7.97,2.57-7.97s0.14-2.971,0.7-5.11c0.57-2.15-2.84-3.76-1.13-3.85
	c1.71-0.101,11.63,3.38,11.63,3.38s2.07,0.659,2.03,0.409c-0.03-0.14-0.3-0.479-0.57-0.989c-0.22-0.431-0.45-0.99-0.52-1.65
	c-0.14-1.42-1.83-2.92-3.34-4.38c-1.51-1.46-1.61-1.5-2.16-1.83c-0.56-0.34-1.2-0.29-1.72-1.25c-0.53-0.97-2.85-0.33-2.85-0.33
	s0.68-0.84,1.3-1.47c0.63-0.63,0.07-0.96,2.81-2.021c2.75-1.06,0.6-1.06,0.18-2.35c-0.41-1.3-0.83-1.17,0.13-1.47
	c0.95-0.3,0.95-1.261,0.96-2.771c0.02-1.51,1.19-3.729,3.12-3.45c1.93,0.29,3.87-2.279,6-2.409c2.13-0.141,2.19,0.989,3.21,1.83
	c1.02,0.829,1.65,2.5,2,3.34c0.36,0.83,0.15,1.72,0.49,2.72c0.33,1,1.28,0.79,2.05,0.16c0.77-0.641-0.07-1.05,0.9-0.38
	c0.96,0.66,2.85-1.021,3.32-0.98c0.48,0.04,1.62,1.12,2.43,1.87s3.31,0.82,3.91,0.82c0.59,0,0.77,0.71,1.68,1.96
	c0.89,1.25,0,0.3,2.23,0.58c2.23,0.279,2.1,1.08,2.75,1.62C73.041,399.869,71.881,401.049,71.471,401.679z"/>
<path fill="#D6A3B0" d="M161.581,46.708c-0.71,0.27-1.41,0.55-2.12,0.83c-0.07,0.11-0.16,0.22-0.25,0.32
	c-0.11-0.03-0.221-0.06-0.32-0.09c-3.63,1.45-7.23,2.94-10.91,4.37c-3.39,1.33-6.87,2.56-10.34,3.79c0,0.03-0.01,0.05-0.02,0.08
	c-3.14,9.47-8.56,11.47-15.46,5.78c-1.85,0.78-3.69,1.6-5.53,2.42c-2.25,1.01-4.5,2.03-6.75,3.05c-1.65,0.76-2.62,1.73-3.97,2.93
	c-1.36,1.2-2.91,2.11-4.51,2.83c-1.25,0.57-2.66,0.82-3.85,1.54c-1.14,0.68-2.42,1.09-3.69,1.36c-1.15,0.24-2.27,0.64-3.42,0.92
	c-1.03,0.24-1.99,0.77-3.01,1.04c-0.65,0.18-1.28,0.56-1.96,0.62c-0.62,0.06-1.25-0.02-1.87-0.01c-1.63,0.05-3.25,0.35-4.86,0.53
	c-0.68,0.08-1.34,0.26-2.02,0.31c-0.84,0.06-1.69-0.05-2.53,0.04c-1.96,0.21-3.73,1.04-5.55,1.82c-0.85,0.36-1.75,0.59-2.63,0.85
	c-0.63,0.19-1.26,0.45-1.76,0.92c-0.35,0.33-0.62,0.75-0.97,1.08c-0.3,0.28-0.64,0.5-1,0.68c0,2.41,0.02,4.61,0.15,6.74
	c0.07,1,0.83,1.85,1.26,2.76c0.87-0.64,1.96-1.11,2.59-1.98c0.7-0.96,1.27-2.34,1.37-3.52c0.4-4.99,3.4-6.35,7.05-7.17
	c6.43-1.44,10.9,1.72,15.08,5.28c0.48,0.41,0.88,1.22,0.79,1.93c-0.29,2.26-0.82,4.5-1.34,7.19c-1.18,1.74-2.78,4.12-4.56,6.79
	c-0.1-0.01-0.21-0.02-0.33-0.02c-2.02,0.02-4.03,0.07-6.03,0.12c0.11,2.62-0.67,5.86,0.49,7.53c1.86,2.65,2.86,4.63,0.31,7.85
	c-0.72,0.9-0.41,2.49-0.44,3.72c-0.04,1.63,0.05,3.22,0.07,5.09c-4.52-0.38-5.09-6.21-10.05-4.25c-2.11-3.06-4.36-5.74-4.87-10.02
	c-0.55-4.64-6.7-4.89-10.2-0.95c-0.2-0.29-0.39-0.59-0.59-0.88c-1.05,0.47-2.05,1.09-3.12,1.36c-1.4,0.38-2.83,0.48-3.88,0.65
	c-1.41-1.77-2.66-3.32-4.28-5.35c0.85-4.02,1.58-9.06,5.35-13.05c5.03-5.32,8.71-0.95,12.49,1.76c2.06-3.44,2.29-7.63,1.11-10.98
	c-0.54,0.18-1.09,0.34-1.59,0.56c-0.8,0.35-1.62,0.7-2.41,1.09c-0.88,0.43-1.6,1.17-2.48,1.58c-0.68,0.32-1.4,0.5-2.1,0.75
	c-0.73,0.25-1.43,0.59-2.17,0.8c-0.5,0.15-1.01,0.16-1.53,0.25c-0.55,0.1-1.08,0.3-1.64,0.39c-0.43,0.06-0.86,0.12-1.28,0.27
	c-0.63,0.22-1.24,0.35-1.84,0.66c-0.61,0.32-1.23,0.61-1.85,0.9c-0.49,0.24-1.05,0.4-1.51,0.69c-0.59,0.37-1.09,0.87-1.65,1.28
	c-0.47,0.33-0.99,0.27-1.48,0.57c-1.13,0.71-2.01,1.83-3.14,2.54c-1.24,0.78-2.59,1.09-3.91,1.63c-1.71,0.7-3.3,2.36-4.36,4.01
	c-1.04,1.6-2.06,3.22-3.03,4.87c-0.74,1.28-1.39,2.87-2.4,3.89c-0.92,0.92-1.4,2.46-1.89,3.71c-1.02,2.65-1.84,5.41-3.03,7.98
	c0.46,0.37,0.95,0.73,1.44,1.09c0.54,0.4,1.22,0.76,1.89,0.85c4.24,0.55,5.94,3.25,6.87,6.72c0.36,1.3,0.79,2.64,1.48,3.8
	c3.24,5.42,2.72,10.14-1.74,15.14c-1.46,1.63-3.14,3.19-4.12,5.03c-0.62,1.16-0.57,3.04,0.07,4.11c0.36,0.61,2.54,0.27,3.91,0.27
	c0.8,0,1.6-0.18,3.47-0.39c-2.25,4.17-4.13,7.67-5.92,11c-1.9-3.77,3.4-5.96,3.89-9.82c-1.29,0.18-2.36,0.37-3.44,0.48
	c-3.66,0.37-5.52-1.76-4.04-4.93c0.7-1.52,2.14-2.76,3.09-4.21c1.89-2.89,3.9-5.75,5.41-8.81c1.2-2.45,0.48-4.86-0.95-6.22
	c-1.13,0.29-2.18,0.58-3.18,0.84c0.53-1.47,0.88-2.46,1.24-3.44c-1.39,0.03-2.87-0.2-4.11,0.23c-0.54,0.19-0.61,1.71-0.89,2.63
	c1.07,0.17,2.13,0.34,3.7,0.59c-1.43,0.37-2.77,0.69-4.12,0.9c-0.19,0.03-1.25-2.6-0.91-2.86c1.77-1.36,3.87-2.35,6.13-3.63
	c-0.06-3.06-2.37-5.69-5.49-6.38c-1.11,2.11-1.9,4.23-3.3,5.93c-0.57,0.69-2.45,0.47-3.74,0.66c-0.07-0.75-0.37-1.61-0.35-2.32
	c-0.15,0.42-0.28,0.85-0.39,1.29c-0.56,2.21-0.97,5.29-1.37,7.65c-0.45,2.65-0.72,5.36-1.13,8.02c-0.14,0.92-0.18,1.87-0.2,2.8
	c-0.05,2.13,0.01,4.28,0.21,6.4c0.09,0.94,0.13,1.94,0.52,2.8c0.43,0.97,0.56,2.01,0.61,3.1c0.03,0.72-0.01,1.33,0.17,2.04
	c0.55,2.17,0.78,4.42,1.32,6.59c0.56,2.27,1.23,4.58,2.31,6.6c0.92,1.74,1.85,3.54,2.62,5.36c1.79,4.2,4.09,8.22,6.98,11.53
	c1.78,2.03,3.28,4.27,4.83,6.53c1.29,1.88,2.41,3.9,3.88,5.62c0.63,0.74,1.34,1.4,1.87,2.23c0.5,0.78,0.84,1.68,1.38,2.43
	c0.41,0.57,0.96,0.96,1.43,1.47c0.42,0.46,0.73,1.03,1.19,1.45c0.88,0.8,0.98,2.4,1.41,3.54c0.51,1.37,1.4,2.27,1.91,3.65
	c0.55,1.54,1.13,3,1.81,4.4c1.31,2.72,2.83,5.03,3.54,8.38c0.35,1.62,0.88,3.08,1.12,4.81c0.22,1.65,0.32,3.42,0.53,5.09
	c0.43,3.38,1.05,6.71,1.83,9.78c2.1,8.18,3.66,16.83,3.49,26.87c-0.08,4.82,0.11,9.47,0.04,14.28c-0.03,1.9-0.2,3.88-0.48,5.9
	c-0.99,7.26-3.51,15.1-6.32,22.76c-1.15,3.14-2.3,6.34-3.68,9.45c-1.69,3.811-3.82,7.15-5.77,10.801
	c-2.16,4.029-4.86,7.699-6.78,11.84c-1.31,2.8-2.35,5.489-3.53,8.31c-1,2.39-2.2,4.69-3.07,7.09c-1.63,4.49-3.51,9.09-4.6,13.511
	c-0.75,3.06-1.15,6.01-1.38,8.84c-0.12,1.43-0.18,2.819-0.23,4.21c-0.04,1.18-0.42,2.189-0.72,3.479
	c-0.95,4.01-1.62,8.021-1.56,11.53c0.07,3.64,0,7.37,0,11.04c0.01,3.7,0.08,7.37-0.01,11.13c-0.09,3.69,0.9,6.64,0.63,10.42
	c-0.25,3.48,0.08,6.58,0.76,9.37c0.26,1.07,0.47,2.14,0.82,3.16c0.5,1.479,0.88,3.05,1.48,4.43c0.36,0.82,0.46,1.96,0.82,2.86
	c0.36,0.899,0.86,1.63,1.25,2.5c0.35,0.8,0.7,1.6,1.02,2.46c0.29,0.8,0.45,1.83,0.72,2.68c0.32,0.97,0.88,1.75,1.28,2.601
	c0.42,0.88,0.78,1.819,1.23,2.659c0.76,1.42,1.29,3.101,1.97,4.681c0.34,0.79,0.82,1.6,1.02,2.46c0.11,0.49-0.06,1.2,0.07,1.71
	c0.12,0.5,0.25,0.979,0.37,1.49c0.5,2.109,1.42,3.75,2.15,5.59c0.45,1.13,0.75,2.55,1,3.899c0.26,1.431,0.63,2.79,0.79,4.301
	c0.73,6.88,0.87,14.329,0.52,21.97c-0.41,8.83-1.75,17.979-3.79,27.56c-1.28,6.021-2.68,12.07-4.04,18.101
	c-0.65,2.909-1.28,5.81-1.77,8.63c-0.49,2.83-1.75,6.22-2.68,9.17c-2.96,9.46-5.95,18.72-5.83,27.09c0.03,2.3-0.17,4.75,0.52,6.49
	c0.46,1.16,0.9,2.34,1.33,3.52c0.32,0.87,0.64,1.75,0.95,2.62c0.11,0.311,0.22,0.62,0.33,0.94c0.34,0.97,0.68,1.939,1.02,2.91
	c0.35,1.01,0.67,2.01,1.05,3.01c0.38,0.99,0.76,1.979,1.08,2.99c0.01,0.02,0.02,0.05,0.03,0.069c0.02,0.05,0.03,0.101,0.05,0.15
	c0.44,1.37,0.97,2.68,1.74,3.859c0,0,0,0,0.01,0.011c0.42,0.85,0.88,1.689,1.39,2.52c1.99,3.271,5.04,5.45,6.75,8.88
	c1.27,2.561,1.46,5.13,1.46,7.78h-33.98V46.708H161.581z"/>
<path opacity="0.4" fill="#9D1B36" d="M173.45,619.259c-1.34-1.18-2.56-2.57-4.039-3.49c-3.5-2.17-6.98-1.49-9.551,1.561
	c-1.3,1.55-1.52,4.13-2.229,6.25c0.53,0.18,1.07,0.38,1.609,0.569c0.311-0.52,0.721-1.01,0.891-1.569c0.93-3.11,2.26-5.9,5.91-5.311
	c3.729,0.61,5.93,3.15,6.239,7.24c0.431,5.56-0.689,10.95-5.3,13.89c-6.1,3.87-12.55,7.391-19.23,9.87
	c-6.34,2.36-13.15,3.68-20.49,1.24c2.48-3.26,4.68-6.101,6.82-8.99c2.85-3.86,5.26-8.25,8.65-11.47c1.81-1.71,6.19-2.91,7.81-1.771
	c3.13,2.2,0.64,5.311-1.24,7.71c-0.25,0.32-0.31,0.82-0.86,2.351c4.07-1.601,6.08-3.75,5.98-7.521c-0.1-3.859-2.33-5.779-5.89-5.93
	c-5.01-0.19-7.67,3.46-10.35,7.14c-3.71,5.07-7.5,10.08-11.27,15.11c-1.95,2.6-4.35,2.81-6.68,0.82
	c-5.09-4.32-10.42-8.42-14.95-13.34c-5.08-5.521-10.92-8.95-17.97-9.58c-5.2-0.471-10.51-0.261-15.71,0.31
	c-3.02,0.33-4.38-0.75-6.23-3.09c-4.34-5.53-9.26-10.561-13.94-15.8c-0.74-0.84-1.41-1.771-2.11-2.66c0.28-0.46,0.57-0.91,0.85-1.36
	c2.47,1.05,4.94,2.101,7.63,3.24c0.13-0.89,0.33-1.53,0.32-2.17c-0.16-6.55,0.82-7.45,6.95-6.12c1.71,0.37,3.36,1.04,5.06,1.52
	c1.82,0.511,3.78,1.65,5.46,1.311c5.53-1.13,10.96-2.8,16.21-4.21c-1.34-2.3-2.9-4.82-4.31-7.44
	c-3.42-6.319-8.56-10.149-15.26-11.06c-7.24-0.98-9.34-4.89-5.24-12.55c-4.41-0.41-8.57-0.15-12.33-1.33
	c-3.44-1.09-6.53-1.29-9.76-0.05c-3.62,1.399-4.45,4.22-2.19,7.52c1.3,1.92,2.95,3.56,4.3,5.45c1.14,1.6,1.48,3.16-1.14,3.49
	c2.52,1.319,1.95,2.8,0.01,3.979c-1.22,0.75-2.68,1.05-4.05,1.5c-5.77,1.89-7.88,4.64-7.38,10.74l0.02-0.01v0.159
	c0.06,0.721,0.15,1.48,0.29,2.301c-0.06-0.021-0.12-0.04-0.18-0.061c0.33,1.75,1.2,3.33,2.33,4.57c1.94,0.66,3.88,1.5,5.81,2.52
	c7.52,3.98,14.8,10.78,20.38,21.091c-7.61,1.729-14.98,3.399-22.35,5.069c6.89-0.899,13.77-1.979,20.68-2.569
	c1.83-0.16,4.22,0.689,5.6,1.989c4.64,4.38,8.53,9.771,13.47,13.67c13.21,10.431,27.5,15.811,43.79,7.91
	c0.77-0.38,1.84-0.029,2.76-0.1c6.96-0.51,14.24,0.149,20.81-1.83c13.01-3.9,26.089-8.75,26.91-26.89
	C174.331,621.809,173.891,620.519,173.45,619.259z M69.441,626.889c12-2.62,22.74-1.16,32.2,6.49c6.56,5.29,12.75,11.09,19.09,16.66
	C110.871,658.869,82.661,648.898,69.441,626.889z"/>
<g>
	<linearGradient id="SVGID_1_" gradientUnits="userSpaceOnUse" x1="18.678" y1="405.418" x2="38.0369" y2="405.418">
		<stop  offset="0.1789" style="stop-color:#B5AB8C"/>
		<stop  offset="0.3033" style="stop-color:#ADA283"/>
		<stop  offset="0.481" style="stop-color:#9B8E6F"/>
		<stop  offset="0.6896" style="stop-color:#817251"/>
		<stop  offset="0.8449" style="stop-color:#6A5B39"/>
		<stop  offset="1" style="stop-color:#6F603E"/>
	</linearGradient>
	<path fill="url(#SVGID_1_)" stroke="#B5AB8C" stroke-width="0.2603" stroke-miterlimit="10" d="M38.031,408.799
		c-0.13,0.479-2.99-1.37-3.22-1.521c-1.38-0.859-2.75-1.79-4.25-2.37c-1.38-0.539-2.85-0.8-4.31-0.949
		c-1.47-0.141-2.93-0.101-4.4,0.01c-0.56,0.05-1.12,0.1-1.67,0.04c-0.38-0.04-0.76-0.13-1.08-0.36c-0.2-0.14-0.38-0.35-0.42-0.609
		c-0.02-0.221,0.07-0.42,0.16-0.601l0.85-0.27c0.9-0.11,1.8-0.21,2.71-0.21c0.94,0,1.89,0.09,2.83,0.25
		c0.91,0.16,1.82,0.38,2.71,0.62c0.8,0.199,1.59,0.42,2.38,0.67c0.77,0.239,1.53,0.52,2.26,0.88c0.85,0.41,1.67,0.92,2.45,1.479
		c0.76,0.55,1.49,1.141,2.17,1.8c0.22,0.221,0.44,0.45,0.63,0.7C37.901,408.448,38.071,408.658,38.031,408.799z"/>
	<linearGradient id="SVGID_2_" gradientUnits="userSpaceOnUse" x1="32.9309" y1="416.9434" x2="72.5896" y2="416.9434">
		<stop  offset="0.1789" style="stop-color:#A2B442"/>
		<stop  offset="0.3168" style="stop-color:#9BAB40"/>
		<stop  offset="0.5137" style="stop-color:#8C963A"/>
		<stop  offset="0.7449" style="stop-color:#757831"/>
		<stop  offset="0.8449" style="stop-color:#6A692C"/>
		<stop  offset="1" style="stop-color:#706F37"/>
	</linearGradient>
	<path fill="url(#SVGID_2_)" stroke="#A2B442" stroke-width="0.2603" stroke-miterlimit="10" d="M72.081,403.979
		c0.16,1.26-0.24,1.811-1.08,2.061c-0.84,0.26-1.82,0.81-0.87,1.93c0.95,1.13,1.23,1.3,1.53,1.59s-1.15,0.34-1.91,0.89
		c-0.77,0.551-1.66-0.119-1.12,1.721c0.55,1.84,1.2,1.25,1.11,1.04s0.76,0.51-0.79,1.18c-1.56,0.68-0.91,0.55-1.27,2.1
		c-0.35,1.561,0.45,2.681-0.77,3.69c0,0-1.43-0.79-2.39-1.83s-1.62-1.42-2.82-1.33c-1.19,0.09-1.2,0.18-0.86,0.8
		c0.34,0.63,1.23,1.96,2.78,3.011c1.56,1.04,2.4,4.51,3.66,5.85c1.27,1.33,2.57,3.96,3.67,5.76s0.24,6.71-0.42,7.3
		c-0.66,0.58-0.95,1.931-2.3,3.061c-1.34,1.14-0.57,2.6-0.65,4.03c-0.04,0.569-0.16,0.989-0.29,1.279
		c-4.25-15.52-11.35-28.899-23.77-36.939c-0.22-0.431-0.45-0.99-0.52-1.65c-0.14-1.42-1.83-2.92-3.34-4.38
		c-1.51-1.46-1.61-1.5-2.16-1.83c-0.56-0.34-1.2-0.29-1.72-1.25c-0.53-0.97-2.85-0.33-2.85-0.33s0.68-0.84,1.3-1.47
		c0.63-0.63,0.07-0.96,2.81-2.021c2.75-1.06,0.6-1.06,0.18-2.35c-0.41-1.3-0.83-1.17,0.13-1.47c0.95-0.3,0.95-1.261,0.96-2.771
		c0.02-1.51,1.19-3.729,3.12-3.45c1.93,0.29,3.87-2.279,6-2.409c2.13-0.141,2.19,0.989,3.21,1.83c1.02,0.829,1.65,2.5,2,3.34
		c0.36,0.83,0.15,1.72,0.49,2.72c0.33,1,1.28,0.79,2.05,0.16c0.77-0.641-0.07-1.05,0.9-0.38c0.96,0.66,2.85-1.021,3.32-0.98
		c0.48,0.04,1.62,1.12,2.43,1.87s3.31,0.82,3.91,0.82c0.59,0,0.77,0.71,1.68,1.96c0.89,1.25,0,0.3,2.23,0.58
		c2.23,0.279,2.1,1.08,2.75,1.62c0.64,0.54-0.52,1.72-0.93,2.35C71.071,402.309,71.921,402.729,72.081,403.979z"/>
	<linearGradient id="SVGID_3_" gradientUnits="userSpaceOnUse" x1="22.5569" y1="428.4502" x2="67.2908" y2="428.4502">
		<stop  offset="0.1789" style="stop-color:#A2B442"/>
		<stop  offset="0.3168" style="stop-color:#9BAB40"/>
		<stop  offset="0.5137" style="stop-color:#8C963A"/>
		<stop  offset="0.7449" style="stop-color:#757831"/>
		<stop  offset="0.8449" style="stop-color:#6A692C"/>
		<stop  offset="1" style="stop-color:#706F37"/>
	</linearGradient>
	<path fill="url(#SVGID_3_)" stroke="#A2B442" stroke-width="0.2603" stroke-miterlimit="10" d="M67.291,448.108
		c-0.2,0.42-0.44,0.54-0.48,0.311c-0.07-0.38-1.09-1.21-2.53-1.62c-1.43-0.41-2.04,0.72-2.32-0.41c-0.28-1.13-0.31-1.25-0.62-1.08
		c-0.32,0.16-0.96,1.93-1.97,2.43c-1.02,0.511-1.55,0.301-2.15-0.659s-0.88-0.08-1.92-1.12c-1.03-1.04-0.36-1.801,0.36-3.65
		c0.23-0.58,0.39-0.88,0.5-1.03c0.18,0.101,0.27,0.11,0.27,0.11s-0.02-0.44-0.27-0.11c-0.18-0.1-0.44-0.27-0.8-0.6
		c-0.75-0.67-0.19-0.63-0.12-2.34c0.08-1.73,0.71-6.54,0.81-8.521c0.11-1.97-1.82-3-3.1-2.83c-1.27,0.17-1,0.42-1.44,2.73
		c-0.43,2.31,1.79,3.34,3.1,4.56c1.31,1.21,0.44,0.74-0.27,1.091c-0.7,0.329,0.03,1.079-0.57,2.51c-0.6,1.43-0.02,1.6-1.02,2.6
		c-1,1.021-0.84,0.26-2.06-0.83c-1.21-1.08-0.79-0.54-2.1-0.109c-1.3,0.43-1.07,0.34-2.7-0.99c-1.63-1.34-0.9-0.29-1.67,0.05
		c-0.78,0.33-0.33,1-1.53,1.39c-1.18,0.381-1.83-0.83-3.53-1.199c-1.7-0.37-1.69,2.6-1.88,1.97c-0.19-0.62-0.3-0.37-1.91-1.87
		s0,0-1.77,0.6c-1.76,0.591-3.72,1.9-3.65,0.931c0.06-0.96-1.55-1.41-3.14-3.46c-1.6-2.051-1.05,0.09-2.06-0.83
		c-1.01-0.92-0.12-2.351-0.27-3.69c-0.15-1.33-3.06-1.16-1.43-1.83c1.63-0.68,2.09-0.47,2.35-1.189c0.26-0.71-1.16-0.25,0.5-1.55
		c1.66-1.311,0.16-1.131,2.39-2.57c2.23-1.43,2.57-7.97,2.57-7.97s0.14-2.971,0.7-5.11c0.57-2.15-2.84-3.76-1.13-3.85
		c1.71-0.101,11.63,3.38,11.63,3.38s2.07,0.659,2.03,0.409c-0.03-0.14-0.3-0.479-0.57-0.989
		C55.941,419.209,63.041,432.589,67.291,448.108z"/>
</g>
<linearGradient id="SVGID_4_" gradientUnits="userSpaceOnUse" x1="4.3865" y1="341.6152" x2="316.6213" y2="341.6152">
	<stop  offset="0.1789" style="stop-color:#B5AB8C"/>
	<stop  offset="0.3033" style="stop-color:#ADA283"/>
	<stop  offset="0.481" style="stop-color:#9B8E6F"/>
	<stop  offset="0.6896" style="stop-color:#817251"/>
	<stop  offset="0.8449" style="stop-color:#6A5B39"/>
	<stop  offset="1" style="stop-color:#6F603E"/>
</linearGradient>
<path fill="url(#SVGID_4_)" stroke="#B5AB8C" stroke-width="0.2613" stroke-miterlimit="10" d="M316.621,4.329
	c-14.04,3.47-27.921,6.18-42.101,8.78c-14.17,2.62-27.91,5.95-41.67,9.97c-21.39,6.26-42.189,13.4-62.99,20.56
	c-2.819,0.97-5.56,2-8.279,3.07c-0.71,0.27-1.41,0.55-2.12,0.83c-0.19,0.08-0.38,0.15-0.57,0.23c-3.63,1.45-7.23,2.94-10.91,4.37
	c-3.39,1.33-6.87,2.56-10.34,3.79c-0.56,0.2-1.13,0.4-1.69,0.6c-3.87,1.38-7.72,2.76-11.45,4.28c-0.47,0.19-0.94,0.38-1.4,0.58
	c-0.32,0.13-0.63,0.26-0.94,0.4c-1.85,0.78-3.69,1.6-5.53,2.42c-2.25,1.01-4.5,2.03-6.75,3.05c-1.65,0.76-2.62,1.73-3.97,2.93
	c-1.36,1.2-2.91,2.11-4.51,2.83c-1.25,0.57-2.66,0.82-3.85,1.54c-1.14,0.68-2.42,1.09-3.69,1.36c-1.15,0.24-2.27,0.64-3.42,0.92
	c-1.03,0.24-1.99,0.77-3.01,1.04c-0.65,0.18-1.28,0.56-1.96,0.62c-0.62,0.06-1.25-0.02-1.87-0.01c-1.63,0.05-3.25,0.35-4.86,0.53
	c-0.68,0.08-1.34,0.26-2.02,0.31c-0.84,0.06-1.69-0.05-2.53,0.04c-1.96,0.21-3.73,1.04-5.55,1.82c-0.85,0.36-1.75,0.59-2.63,0.85
	c-0.63,0.19-1.26,0.45-1.76,0.92c-0.35,0.33-0.62,0.75-0.97,1.08c-0.3,0.28-0.64,0.5-1,0.68c-0.5,0.26-1.04,0.44-1.58,0.6
	c-0.54,0.18-1.09,0.34-1.59,0.56c-0.8,0.35-1.62,0.7-2.41,1.09c-0.88,0.43-1.6,1.17-2.48,1.58c-0.68,0.32-1.4,0.5-2.1,0.75
	c-0.73,0.25-1.43,0.59-2.17,0.8c-0.5,0.15-1.01,0.16-1.53,0.25c-0.55,0.1-1.08,0.3-1.64,0.39c-0.43,0.06-0.86,0.12-1.28,0.27
	c-0.63,0.22-1.24,0.35-1.84,0.66c-0.61,0.32-1.23,0.61-1.85,0.9c-0.49,0.24-1.05,0.4-1.51,0.69c-0.59,0.37-1.09,0.87-1.65,1.28
	c-0.47,0.33-0.99,0.27-1.48,0.57c-1.13,0.71-2.01,1.83-3.14,2.54c-1.24,0.78-2.59,1.09-3.91,1.63c-1.71,0.7-3.3,2.36-4.36,4.01
	c-1.04,1.6-2.06,3.22-3.03,4.87c-0.74,1.28-1.39,2.87-2.4,3.89c-0.92,0.92-1.4,2.46-1.89,3.71c-1.02,2.65-1.84,5.41-3.03,7.98
	c-0.1,0.23-0.21,0.45-0.32,0.67c-0.04,0.08-0.08,0.15-0.12,0.23c-0.83,1.63-1.91,3.28-2.75,5.09c-0.19,0.41-0.36,0.84-0.52,1.27
	c-0.15,0.42-0.28,0.85-0.39,1.29c-0.56,2.21-0.97,5.29-1.37,7.65c-0.45,2.65-0.72,5.36-1.13,8.02c-0.14,0.92-0.18,1.87-0.2,2.8
	c-0.05,2.13,0.01,4.28,0.21,6.4c0.09,0.94,0.13,1.94,0.52,2.8c0.43,0.97,0.56,2.01,0.61,3.1c0.03,0.72-0.01,1.33,0.17,2.04
	c0.55,2.17,0.78,4.42,1.32,6.59c0.56,2.27,1.23,4.58,2.31,6.6c0.92,1.74,1.85,3.54,2.62,5.36c1.79,4.2,4.09,8.22,6.98,11.53
	c1.78,2.03,3.28,4.27,4.83,6.53c1.29,1.88,2.41,3.9,3.88,5.62c0.63,0.74,1.34,1.4,1.87,2.23c0.5,0.78,0.84,1.68,1.38,2.43
	c0.41,0.57,0.96,0.96,1.43,1.47c0.42,0.46,0.73,1.03,1.19,1.45c0.88,0.8,0.98,2.4,1.41,3.54c0.51,1.37,1.4,2.27,1.91,3.65
	c0.55,1.54,1.13,3,1.81,4.4c1.31,2.72,2.83,5.03,3.54,8.38c0.35,1.62,0.88,3.08,1.12,4.81c0.22,1.65,0.32,3.42,0.53,5.09
	c0.43,3.38,1.05,6.71,1.83,9.78c2.1,8.18,3.66,16.83,3.49,26.87c-0.08,4.82,0.11,9.47,0.04,14.28c-0.03,1.9-0.2,3.88-0.48,5.9
	c-0.99,7.26-3.51,15.1-6.32,22.76c-1.15,3.14-2.3,6.34-3.68,9.45c-1.69,3.811-3.82,7.15-5.77,10.801
	c-2.16,4.029-4.86,7.699-6.78,11.84c-1.31,2.8-2.35,5.489-3.53,8.31c-1,2.39-2.2,4.69-3.07,7.09c-1.63,4.49-3.51,9.09-4.6,13.511
	c-0.75,3.06-1.15,6.01-1.38,8.84c-0.12,1.43-0.18,2.819-0.23,4.21c-0.04,1.18-0.42,2.189-0.72,3.479
	c-0.95,4.01-1.62,8.021-1.56,11.53c0.07,3.64,0,7.37,0,11.04c0.01,3.7,0.08,7.37-0.01,11.13c-0.09,3.69,0.9,6.64,0.63,10.42
	c-0.25,3.48,0.08,6.58,0.76,9.37c0.26,1.07,0.47,2.14,0.82,3.16c0.5,1.479,0.88,3.05,1.48,4.43c0.36,0.82,0.46,1.96,0.82,2.86
	c0.36,0.899,0.86,1.63,1.25,2.5c0.35,0.8,0.7,1.6,1.02,2.46c0.29,0.8,0.45,1.83,0.72,2.68c0.32,0.97,0.88,1.75,1.28,2.601
	c0.42,0.88,0.78,1.819,1.23,2.659c0.76,1.42,1.29,3.101,1.97,4.681c0.34,0.79,0.82,1.6,1.02,2.46c0.11,0.49-0.06,1.2,0.07,1.71
	c0.12,0.5,0.25,0.979,0.37,1.49c0.5,2.109,1.42,3.75,2.15,5.59c0.45,1.13,0.75,2.55,1,3.899c0.26,1.431,0.63,2.79,0.79,4.301
	c0.73,6.88,0.87,14.329,0.52,21.97c-0.41,8.83-1.75,17.979-3.79,27.56c-1.28,6.021-2.68,12.07-4.04,18.101
	c-0.65,2.909-1.28,5.81-1.77,8.63c-0.49,2.83-1.75,6.22-2.68,9.17c-2.96,9.46-5.95,18.72-5.83,27.09c0.07,4.73,1.27,8.3,2.8,12.63
	c0.11,0.311,0.22,0.62,0.33,0.94c1.06,3.02,2,6,3.15,8.91c0.01,0.02,0.02,0.05,0.03,0.069c0.54,1.351,1.12,2.69,1.79,4.01
	c0,0,0,0,0.01,0.011c0.42,0.85,0.88,1.689,1.39,2.52c1.99,3.271,5.04,5.45,6.75,8.88c1.27,2.561,1.46,5.13,1.46,7.78
	c-0.01,1.32-0.06,2.66-0.06,4.04c0.01,2.39,0,4.77,0,7.16c0,3.359,0.69,7.47-0.14,10.76c-4.37-0.41-6.34-5.62-6.86-9.35
	c-0.62-4.37,0.08-8.511-1.18-12.61c-0.2-0.68-0.46-1.35-0.79-2.03c-0.87-1.79-1.71-3.51-2.54-5.439c-0.36-0.84-1.01-1.65-1.25-2.53
	c-0.27-1.03,0.04-2.12-0.47-3.05c-0.8-1.41-2.44-2.72-3.39-4.16c-0.85-1.3-1.71-2.39-2.28-3.85c-1.15-2.95-3.17-6.19-3.6-9.311
	c-0.11-0.68-0.1-1.38-0.17-2.07c-0.13-1.43-0.28-2.84-0.35-4.27c-0.07-1.5-0.08-3-0.04-4.5c0.07-3.21,0.4-6.43,0.89-9.59
	c1.56-10.03,4.77-21.16,8.06-31.641c0.4-1.26,0.45-2.399,0.64-3.6c0.29-1.75,0.97-3.76,1.44-5.61c0.42-1.659,0.73-3.27,1.19-4.939
	c1.07-3.95,1.59-7.92,2.31-11.771c0.3-1.59,0.68-3.42,0.7-4.89c0.01-1.47,0.29-2.96,0.37-4.43c0.04-0.69-0.09-1.261-0.01-1.971
	c0.09-0.71,0.35-1.489,0.4-2.189c0.1-1.66-0.11-3.18-0.05-4.83c0.06-1.44,0.38-2.98,0.39-4.41v-4.729
	c0.01-2.671,0.01-5.33,0.01-7.99c0-3.08-0.14-5.9-0.81-8.44c-0.71-2.729-1.8-4.97-1.62-8.45c0.17-3.359-1.03-5.229-1.93-7.619
	c-0.79-2.091-1.25-5.25-2.84-6.301c-0.43-0.29-0.8-0.649-1.1-1.06c-0.29-0.36-0.54-0.771-0.76-1.2c-0.38-0.729-0.7-1.54-1.04-2.39
	c-0.68-1.67-1.9-2.75-2.48-4.48c-0.5-1.5-0.91-3.149-1.42-4.67c-0.52-1.55-0.56-3.35-0.94-5.02c-0.22-1.04-0.13-2.32-0.42-3.28
	c-0.29-0.9-0.47-1.82-0.65-2.83c-0.2-1.13-0.68-2.02-0.72-3.29c-0.03-1.15-0.28-1.95-0.36-3.06c-0.09-1.23-0.35-2.25-0.55-3.391
	c-0.59-3.26-0.16-7.569-0.17-11.26c0-2.46-0.14-4.8-0.22-7.2c-0.21-6.319,0.41-13.31,1.3-20.27c0.26-2.021,0.76-4.271,0.78-6.16
	c0.01-1.69-0.15-3.33,0.13-5.17c0.28-1.8,0.64-3.601,0.96-5.41c0.32-1.77,0.45-3.49,0.81-5.28c0.37-1.84,0.97-3.689,1.29-5.54
	c0.56-3.25,1.64-6.66,2.62-10.02c0.42-1.45,0.71-2.9,1.22-4.36c0.68-1.939,1.83-4.149,2.74-6.06c0.69-1.45,1.6-2.79,2.32-4.221
	c0.84-1.659,1.65-3.34,2.51-4.979c1.46-2.81,2.94-5.87,4.62-8.56c1.87-3,3.84-6.091,5.32-9.271c0.78-1.7,1.21-3.36,1.94-5.06
	c0.79-1.82,1.75-3.71,2.41-5.541c1.5-4.15,2.54-8.26,4.07-12.41c0.83-2.25,1.81-4.3,2.34-6.55c0.49-2.08,0.66-4.02,0.88-5.98
	c0.15-1.31,0.32-2.13,0.94-3.44c0.44-0.94,0.64-1.81,0.73-2.68c0.21-1.86-0.1-3.38-0.09-5.11c0.01-1.71,0.09-3.52-0.1-5.1
	c-0.23-1.98-0.64-3.73-0.64-5.9c0-3.85-1.05-6.82-1.39-10.4c-0.18-1.88-0.11-3.86-0.45-5.61c-0.39-2-0.29-4.21-0.43-6.39
	c-0.17-2.44-0.47-4.8-0.81-7.13c-0.25-1.69-0.51-3.37-0.75-5.04c-0.05-0.35-0.1-0.69-0.15-1.04c-0.52-3.7-1.86-6.83-2.78-10.15
	c-1.07-3.89-2.14-7.62-3.83-10.85c-1.54-2.92-3.3-5.55-4.86-8.44c-2.42-4.5-8.46-7.19-10.46-11.18c-0.75-1.49-1.96-1.87-2.58-3.55
	c-0.76-2.05-1.76-3.65-2.51-5.71c-0.79-2.2-2.12-3.42-3.05-5.37c-0.8-1.7-1.67-3.46-2.66-4.76c-1.23-1.61-1.66-4.45-2.46-6.82
	c-0.67-1.99-1.49-3.89-1.84-6.38c-0.39-2.82-1.15-4.99-1.65-7.63c-0.43-2.28-0.11-6.2-0.11-9.02c0.01-2.97-0.11-11.85-0.11-13.38
	c0-3.91,0.35-8.11,1.21-11.9c0.54-2.33,1.54-3.68,2.62-5.63c1.34-2.41,2.63-4.83,3.88-7.3c0.39-0.77,0.78-1.59,1.04-2.43
	c0.16-0.52,0.15-1.03,0.19-1.57c0.11-1.45,0.86-2.94,1.54-4.15c0.44-0.76,0.94-1.48,1.48-2.15c0.8-0.98,1.68-1.86,2.52-2.79
	c1.04-1.14,2-2.36,2.96-3.59c1.16-1.51,2.32-3.05,3.65-4.37c1.38-1.36,2.94-2.35,4.64-3.09c2.16-0.94,4.39-1.66,6.55-2.57
	c2.38-1,4.69-2.16,6.96-3.42c1.71-0.95,3.4-1.95,5.17-2.73c1.53-0.66,3.1-1.14,4.66-1.7c1.69-0.62,3.34-1.34,4.94-2.21
	c1.44-0.79,2.83-1.69,4.29-2.42c3.28-1.65,6.89-2.32,10.39-3.11c2.75-0.61,5.5-1.14,8.27-1.64c2.81-0.51,5.58-1.26,8.38-1.89
	c1.15-0.26,2.33-0.46,3.44-0.9c0.72-0.28,1.33-0.76,1.97-1.21c2.17-1.53,4.7-2.35,7.06-3.42c2.54-1.17,5.09-2.31,7.66-3.42
	c2.58-1.12,5.15-2.27,7.75-3.35c0.23-0.09,0.45-0.19,0.68-0.29c0.32-0.13,0.63-0.26,0.95-0.39c0.14-0.07,0.29-0.13,0.44-0.19
	c1.88-0.8,3.76-1.6,5.65-2.37c0.04-0.02,0.08-0.03,0.12-0.05c2.64-1.07,5.27-2.17,7.91-3.23c0.73-0.29,1.46-0.59,2.19-0.87
	c0.52-0.22,1.04-0.42,1.56-0.63c1.41-0.56,2.81-1.12,4.22-1.68c0.82-0.32,1.63-0.64,2.45-0.95c0.58-0.23,1.16-0.46,1.74-0.68
	c0.41-0.16,0.82-0.32,1.23-0.48c0.87-0.34,1.73-0.67,2.6-1.01c0.55-0.21,1.11-0.43,1.66-0.64c0.9-0.35,1.81-0.7,2.71-1.04
	c1.22-0.47,2.45-0.94,3.67-1.41c0.63-0.24,1.26-0.48,1.9-0.72c21.819-8.29,44.09-16.45,67.38-22.5c12.58-3.27,25.24-6.28,37.8-9.57
	c6.84-1.79,13.62-3.68,20.55-5.15c6.25-1.34,12.68-3.21,18.94-4.22C311.291-0.731,314.051,1.569,316.621,4.329z"/>
<linearGradient id="SVGID_5_" gradientUnits="userSpaceOnUse" x1="6.3987" y1="417.334" x2="45.4309" y2="417.334" gradientTransform="matrix(1 0 0 -1 0 664.2773)">
	<stop  offset="0.1789" style="stop-color:#A2B442"/>
	<stop  offset="0.3168" style="stop-color:#9BAB40"/>
	<stop  offset="0.5137" style="stop-color:#8C963A"/>
	<stop  offset="0.7449" style="stop-color:#757831"/>
	<stop  offset="0.8449" style="stop-color:#6A692C"/>
	<stop  offset="1" style="stop-color:#706F37"/>
</linearGradient>
<path fill="url(#SVGID_5_)" stroke="#A2B442" stroke-width="0.248" stroke-miterlimit="10" d="M37.496,244.636
	c-1.352,0.443-2.759,0.619-4.142,0.916c-0.15-0.436-0.302-0.876-0.451-1.315c1.612-3.315,5.967-5.368,3.398-10.75
	c-1.714-3.597-4.996-5.739-7.576-8.532c-0.081,0.56-0.162,1.12-0.243,1.675c-1.312,0.763-2.627,1.532-4.194,2.444
	c-0.278,3.475-1.91,4.209-4.559,2.955c-0.912-0.437-2.134-0.247-2.936,0.355c-1.204,0.901-2.163,2.415-2.692,3.046
	c-1.453,6.119-3.973,9.933-7.703,13.146c3.375,2.526,6.503,4.872,9.875,7.399c0,0.008-0.196,0.975-0.312,1.552
	c3.247,4.054,5.57,2.142,7.773-0.81c0.396-0.531,0.979-1.035,1.51-1.023c0.913,0.011,2.288,0.008,2.676,0.792
	c0.529,1.062,0.616,3.039,0.34,4.289c-0.333,1.511-1.241,2.669-2.27,4.715c2.071,0.678,4.228,0.468,5.421,1.956
	c2.944,3.688,3.195-0.483,4.471-1.897c0.395-0.437,1.045-0.521,1.599-0.532c2.83-0.07,3.223-3.314,3.625-6.317
	c0.398-2.972-0.451-5.286-2.573-6.824c-1.21-0.877-2.255-2.342-3.373-3.541c0.111-0.418,0.225-0.83,0.337-1.247
	c1.111-0.325,2.215-0.685,3.335-0.966c3.305-0.83,4.594,0.159,5.024,5.023c0.002,0.006,0.002,0.016,0.002,0.018
	c0.543-0.543,1.008-1.286,1.572-1.773C43.546,244.601,41.472,243.333,37.496,244.636z"/>
<linearGradient id="SVGID_6_" gradientUnits="userSpaceOnUse" x1="34.3801" y1="55.5752" x2="174.7708" y2="55.5752" gradientTransform="matrix(1 0 0 -1 0 664.2773)">
	<stop  offset="0.1789" style="stop-color:#A2B442"/>
	<stop  offset="0.3168" style="stop-color:#9BAB40"/>
	<stop  offset="0.5137" style="stop-color:#8C963A"/>
	<stop  offset="0.7449" style="stop-color:#757831"/>
	<stop  offset="0.8449" style="stop-color:#6A692C"/>
	<stop  offset="1" style="stop-color:#706F37"/>
</linearGradient>
<path fill="url(#SVGID_6_)" stroke="#A2B442" stroke-width="0.2603" stroke-miterlimit="10" d="M173.45,619.259
	c-1.34-1.18-2.56-2.57-4.039-3.49c-3.5-2.17-6.98-1.49-9.551,1.561c-1.3,1.55-1.52,4.13-2.229,6.25c0.53,0.18,1.07,0.38,1.609,0.569
	c0.311-0.52,0.721-1.01,0.891-1.569c0.93-3.11,2.26-5.9,5.91-5.311c3.729,0.61,5.93,3.15,6.239,7.24
	c0.431,5.56-0.689,10.95-5.3,13.89c-6.1,3.87-12.55,7.391-19.23,9.87c-6.34,2.36-13.15,3.68-20.49,1.24
	c2.48-3.26,4.68-6.101,6.82-8.99c2.85-3.86,5.26-8.25,8.65-11.47c1.81-1.71,6.19-2.91,7.81-1.771c3.13,2.2,0.64,5.311-1.24,7.71
	c-0.25,0.32-0.31,0.82-0.86,2.351c4.07-1.601,6.08-3.75,5.98-7.521c-0.1-3.859-2.33-5.779-5.89-5.93
	c-5.01-0.19-7.67,3.46-10.35,7.14c-3.71,5.07-7.5,10.08-11.27,15.11c-1.95,2.6-4.35,2.81-6.68,0.82
	c-5.09-4.32-10.42-8.42-14.95-13.34c-5.08-5.521-10.92-8.95-17.97-9.58c-5.2-0.471-10.51-0.261-15.71,0.31
	c-3.02,0.33-4.38-0.75-6.23-3.09c-4.34-5.53-9.26-10.561-13.94-15.8c-0.74-0.84-1.41-1.771-2.11-2.66c0.28-0.46,0.57-0.91,0.85-1.36
	c2.47,1.05,4.94,2.101,7.63,3.24c0.13-0.89,0.33-1.53,0.32-2.17c-0.16-6.55,0.82-7.45,6.95-6.12c1.71,0.37,3.36,1.04,5.06,1.52
	c1.82,0.511,3.78,1.65,5.46,1.311c5.53-1.13,10.96-2.8,16.21-4.21c-1.34-2.3-2.9-4.82-4.31-7.44
	c-3.42-6.319-8.56-10.149-15.26-11.06c-7.24-0.98-9.34-4.89-5.24-12.55c-4.41-0.41-8.57-0.15-12.33-1.33
	c-3.44-1.09-6.53-1.29-9.76-0.05c-3.62,1.399-4.45,4.22-2.19,7.52c1.3,1.92,2.95,3.56,4.3,5.45c1.14,1.6,1.48,3.16-1.14,3.49
	c2.52,1.319,1.95,2.8,0.01,3.979c-1.22,0.75-2.68,1.05-4.05,1.5c-5.77,1.89-7.88,4.64-7.38,10.74l0.02-0.01v0.159
	c0.06,0.721,0.15,1.48,0.29,2.301c-0.06-0.021-0.12-0.04-0.18-0.061c0.33,1.75,1.2,3.33,2.33,4.57c1.94,0.66,3.88,1.5,5.81,2.52
	c7.52,3.98,14.8,10.78,20.38,21.091c-7.61,1.729-14.98,3.399-22.35,5.069c6.89-0.899,13.77-1.979,20.68-2.569
	c1.83-0.16,4.22,0.689,5.6,1.989c4.64,4.38,8.53,9.771,13.47,13.67c13.21,10.431,27.5,15.811,43.79,7.91
	c0.77-0.38,1.84-0.029,2.76-0.1c6.96-0.51,14.24,0.149,20.81-1.83c13.01-3.9,26.089-8.75,26.91-26.89
	C174.331,621.809,173.891,620.519,173.45,619.259z M69.441,626.889c12-2.62,22.74-1.16,32.2,6.49c6.56,5.29,12.75,11.09,19.09,16.66
	C110.871,658.869,82.661,648.898,69.441,626.889z"/>
<linearGradient id="SVGID_7_" gradientUnits="userSpaceOnUse" x1="20.6287" y1="583.7334" x2="47.3909" y2="583.7334">
	<stop  offset="0.1789" style="stop-color:#B5AB8C"/>
	<stop  offset="0.3033" style="stop-color:#ADA283"/>
	<stop  offset="0.481" style="stop-color:#9B8E6F"/>
	<stop  offset="0.6896" style="stop-color:#817251"/>
	<stop  offset="0.8449" style="stop-color:#6A5B39"/>
	<stop  offset="1" style="stop-color:#6F603E"/>
</linearGradient>
<path fill="url(#SVGID_7_)" stroke="#B5AB8C" stroke-width="0.2603" stroke-miterlimit="10" d="M47.391,578.039
	c-1.89-0.221-3.89-0.99-5.67-0.58c-0.18,0.05-0.36,0.1-0.55,0.14c-1.49,0.39-2.94,0.91-4.36,1.57c-1.4,0.64-2.73,1.399-4.03,2.25
	c-0.82,0.54-1.63,1.09-2.42,1.7c-0.76,0.579-1.42,1.35-2.21,1.89c-0.51,0.35-1.09,0.45-1.65,0.66c-0.76,0.29-1.39,1-2.03,1.529
	c-0.4,0.32-0.84,0.61-1.2,1.011c-0.17,0.21-0.31,0.42-0.41,0.68c-0.11,0.27-0.33,0.38-0.53,0.56c-0.28,0.261-0.54,0.551-0.77,0.87
	c-0.2,0.271-0.41,0.65-0.7,0.801c-0.31,0.159-0.24-0.211-0.18-0.431c0.24-0.76,0.69-1.47,1.07-2.149
	c0.09-0.17,0.19-0.341,0.29-0.511c0.38-0.689,0.71-1.25,1.37-1.62c0.65-0.35,1.27-0.729,1.9-1.109c1.26-0.76,2.53-1.5,3.78-2.28
	c1.24-0.78,2.51-1.52,3.77-2.27c1.25-0.761,2.52-1.49,3.8-2.19s2.56-1.38,3.87-2.02C42.291,575.679,45.081,577.469,47.391,578.039z"
	/>
<linearGradient id="SVGID_8_" gradientUnits="userSpaceOnUse" x1="0.1272" y1="137.5337" x2="22.0144" y2="137.5337" gradientTransform="matrix(1 0 0 -1 0 664.2773)">
	<stop  offset="0.1789" style="stop-color:#B5AB8C"/>
	<stop  offset="0.3033" style="stop-color:#ADA283"/>
	<stop  offset="0.481" style="stop-color:#9B8E6F"/>
	<stop  offset="0.6896" style="stop-color:#817251"/>
	<stop  offset="0.8449" style="stop-color:#6A5B39"/>
	<stop  offset="1" style="stop-color:#6F603E"/>
</linearGradient>
<path fill="url(#SVGID_8_)" stroke="#B5AB8C" stroke-width="0.2603" stroke-miterlimit="10" d="M10.831,492.669
	c1.99,3.25,3.52,6.62,5.81,9.109c0.93,1.011,3.49,0.101,5.32,0.051c-0.1-1.73,0.37-3.921-0.39-5.11c-1.6-2.521-3.84-4.51-6.46-7.44
	c0.88-1.199,1.86-2.54,2.79-3.81c0.16-0.22,0.31-0.44,0.47-0.65c-0.4-0.18-0.82-0.37-1.23-0.55c-0.09-0.04-0.17-0.08-0.26-0.12
	c-0.92,1.601-2.11,3.141-3.35,4.66c-0.66,0.82-1.52,1.63-2.43,1.97c-5.74,2.15-7.53,7.2-8.09,13.341
	c-0.21,2.31-0.53,4.699-1.25,6.859c-3.33,10.11-1.62,17.96,5.6,25.16c2.35,2.35,5.01,4.52,6.75,7.36c1.09,1.79,1.43,4.989,0.76,7
	c-0.37,1.12-3.45,1.17-5.34,1.55c-1.1,0.22-2.26,0.16-4.88,0.32c3.99,6.439,7.32,11.829,10.5,16.97c1.82-6.92-5.96-9.141-7.45-15.54
	c1.82-0.061,3.34-0.05,4.86-0.17c5.13-0.391,7.25-4.54,4.55-9.5c-1.3-2.37-3.55-4.05-5.16-6.24c-3.22-4.37-6.6-8.65-9.32-13.4
	c-2.18-3.81-1.69-8.1-0.01-10.819c1.63,0.18,3.14,0.359,4.59,0.52c-1.04-2.33-1.75-3.91-2.45-5.479c1.93-0.33,3.92-1.141,5.73-0.771
	c0.79,0.16,1.2,2.73,1.78,4.2c-1.43,0.6-2.87,1.19-4.98,2.05c2.05,0.22,3.97,0.391,5.88,0.37c0.26,0,1.18-4.77,0.65-5.12
	c-2.73-1.8-5.84-2.89-9.22-4.399C4.031,499.829,6.671,494.719,10.831,492.669z M15.471,491.559c1.57,1.97,3.32,3.79,4.61,5.97
	c0.44,0.761-0.03,2.58-0.59,3.53c-0.23,0.38-2.33,0.1-2.71-0.54c-1.35-2.28-2.33-4.85-3.45-7.31
	C14.051,492.658,14.751,492.108,15.471,491.559z"/>
<linearGradient id="SVGID_9_" gradientUnits="userSpaceOnUse" x1="61.3787" y1="609.377" x2="161.3831" y2="609.377" gradientTransform="matrix(1 0 0 -1 0 664.2773)">
	<stop  offset="0.1789" style="stop-color:#B5AB8C"/>
	<stop  offset="0.3033" style="stop-color:#ADA283"/>
	<stop  offset="0.481" style="stop-color:#9B8E6F"/>
	<stop  offset="0.6896" style="stop-color:#817251"/>
	<stop  offset="0.8449" style="stop-color:#6A5B39"/>
	<stop  offset="1" style="stop-color:#6F603E"/>
</linearGradient>
<path fill="url(#SVGID_9_)" stroke="#B5AB8C" stroke-width="0.248" stroke-miterlimit="10" d="M161.371,41.398
	c-2.541,1.26-4.99,2.66-7.65,2.62c-1.59-0.03-3.26-0.58-5.08-2c2.48-3.54,7.32-4.92,12.18-3.71c-0.12-0.41-0.27-0.83-0.43-1.25
	c-4.74-0.83-9.21-0.37-13.21,3.93c-0.5,0.54-1.93,0.52-2.83,0.3c-6.38-1.55-12.35-0.39-17.84,3.01c-1.23,0.76-2.44,1.57-3.64,2.41
	c-2.62,1.81-5.21,3.76-7.96,5.7c-1.35-1.84-2.71-3.8-4.18-5.7c-0.14-0.19-0.28-0.38-0.43-0.56c-2.68-3.41-6.42-4.44-8.71-2.5
	c-0.91,0.77-1.42,1.85-1.54,3.06c-0.17,1.98,0.7,4.32,2.57,6.33c0.85,0.93,1.8,1.84,2.87,2.46c1.32,0.75,2.81,1.18,4.43,1.83
	c-4.21,4.97-9.39,6.06-15,4.69c-5.59-1.36-11.07-3.25-16.57-4.99c-5.73-1.83-11.14-1.75-15.97,2.41c-0.33,0.55-0.65,1.1-0.98,1.65
	c-0.43,7.79,5.32,13.69,12.42,11.55c-1.61-0.99-2.66-1.71-3.77-2.29c-1.12-0.58-2.6-0.74-3.39-1.59c-1.35-1.45-3.24-3.37-3.12-4.96
	c0.11-1.57,2.17-3.58,3.83-4.3c2.12-0.91,4.8-1.29,7.04-0.86c5.22,1.01,10.42,2.38,15.46,4.1c7.79,2.66,14.79,2.19,21.01-3.84
	c0.93-0.89,2.55-1.12,3.89-1.46c1.46-0.37,2.55,0.06,3.52,0.79c0.72,0.55,1.38,1.26,2.06,1.93c0.61,0.6,1.22,1.15,1.81,1.63
	c6.9,5.69,12.32,3.69,15.46-5.78c0.01-0.03,0.02-0.05,0.02-0.08c0.04-0.19,0.03-0.41,0.13-0.53c0.52-0.59,0.98-1.37,1.64-1.68
	c4.79-2.17,9.59-4.3,14.45-6.3c0.97-0.4,2.27-0.47,3.27-0.18c0.58,0.17,1.17,0.35,1.76,0.53c0.1,0.03,0.21,0.06,0.32,0.09
	c0.09-0.1,0.18-0.21,0.25-0.32c0.22-0.27,0.42-0.55,0.59-0.83c-0.5-0.24-1.021-0.57-1.56-0.99c0.91-0.68,1.81-1.26,2.68-1.73
	C161.351,43.148,161.411,42.279,161.371,41.398z M105.061,53.898c-2.23-1.33-3.86-4.83-3.43-7.19c0.03-0.17,0.07-0.33,0.12-0.49
	c0.75-2.27,2.6-2.71,4.26-1.69c0.97,0.6,1.86,1.36,2.7,2.18c0.8,0.78,1.56,1.62,2.32,2.43c1.14,1.22,2,2.7,3.1,4.21
	C111.601,56.139,108.981,56.229,105.061,53.898z M130.221,63.559c-2.98,0.69-5.1-0.46-7.12-2.17c-1.27-1.07-2.49-2.36-3.86-3.55
	c-0.04-0.04-0.07-0.07-0.11-0.1c0.19-0.03,0.37-0.06,0.55-0.09c5.79-0.9,11.02-1.73,16.62-2.61c-0.11,0.5-0.22,1-0.35,1.49
	C135.091,59.918,133.791,62.729,130.221,63.559z M138.391,52.099c0.1-0.28,0.19-0.56,0.29-0.84c-0.53-0.25-1.05-0.51-1.57-0.76
	c-1.44-0.71-2.88-1.41-4.38-1.9c-0.4-0.13-1.29,1.28-1.95,1.98l0.63,0.69c0.62-0.43,1.29-1.26,1.85-1.18
	c0.79,0.11,1.54,0.61,2.29,1.04c0.15,0.08,0.3,0.16,0.45,0.24c-0.43,0.77-0.75,2.1-1.3,2.21c-3.11,0.61-6.24,1.19-9.37,1.7
	c-1.91,0.31-3.84,0.59-5.76,0.83c-0.98,0.12-2.12-0.98-3.56-1.71c3.22-2.91,6.42-5.6,9.78-7.69c5.86-3.63,12.24-5.41,20.21-3.29
	c-0.57,1.12-1.07,2.24-1.6,3.29c-0.2,0.4-0.4,0.79-0.62,1.16C142.591,49.938,141.101,51.579,138.391,52.099z M144.651,49.349
	c0.32-0.83,0.6-1.55,0.87-2.16c0.07-0.17,0.14-0.33,0.21-0.48c1.32-2.96,2.21-3.09,5.28-1.65c0.38,0.18,0.8,0.38,1.26,0.61
	c-0.75,0.36-1.46,0.7-2.16,1.04C148.291,47.589,146.571,48.418,144.651,49.349z"/>
<linearGradient id="SVGID_10_" gradientUnits="userSpaceOnUse" x1="41.7507" y1="104.1104" x2="90.5837" y2="104.1104">
	<stop  offset="0.1789" style="stop-color:#A2B442"/>
	<stop  offset="0.3168" style="stop-color:#9BAB40"/>
	<stop  offset="0.5137" style="stop-color:#8C963A"/>
	<stop  offset="0.7449" style="stop-color:#757831"/>
	<stop  offset="0.8449" style="stop-color:#6A692C"/>
	<stop  offset="1" style="stop-color:#706F37"/>
</linearGradient>
<path fill="url(#SVGID_10_)" stroke="#A2B442" stroke-width="0.248" stroke-miterlimit="10" d="M90.571,88.759
	c-0.29,2.26-0.82,4.5-1.34,7.19c-1.18,1.74-2.78,4.12-4.56,6.79c-0.1-0.01-0.21-0.02-0.33-0.02c-2.02,0.02-4.03,0.07-6.03,0.12
	c0.11,2.62-0.67,5.86,0.49,7.53c1.86,2.65,2.86,4.63,0.31,7.85c-0.72,0.9-0.41,2.49-0.44,3.72c-0.04,1.63,0.05,3.22,0.07,5.09
	c-4.52-0.38-5.09-6.21-10.05-4.25c-2.11-3.06-4.36-5.74-4.87-10.02c-0.55-4.64-6.7-4.89-10.2-0.95c-0.2-0.29-0.39-0.59-0.59-0.88
	c-1.05,0.47-2.05,1.09-3.12,1.36c-1.4,0.38-2.83,0.48-3.88,0.65c-1.41-1.77-2.66-3.32-4.28-5.35c0.85-4.02,1.58-9.06,5.35-13.05
	c5.03-5.32,8.71-0.95,12.49,1.76c2.06-3.44,2.29-7.63,1.11-10.98c-0.28-0.8-0.64-1.56-1.08-2.24c0.94,0.11,1.78,0.21,2.65,0.32
	c0,0.45,0,0.89,0.01,1.32c0,2.41,0.02,4.61,0.15,6.74c0.07,1,0.83,1.85,1.26,2.76c0.87-0.64,1.96-1.11,2.59-1.98
	c0.7-0.96,1.27-2.34,1.37-3.52c0.4-4.99,3.4-6.35,7.05-7.17c6.43-1.44,10.9,1.72,15.08,5.28
	C90.261,87.239,90.661,88.049,90.571,88.759z"/>
<linearGradient id="SVGID_11_" gradientUnits="userSpaceOnUse" x1="11.7" y1="517.3281" x2="29.1707" y2="517.3281" gradientTransform="matrix(1 0 0 -1 0 664.2773)">
	<stop  offset="0.1789" style="stop-color:#B5AB8C"/>
	<stop  offset="0.3033" style="stop-color:#ADA283"/>
	<stop  offset="0.481" style="stop-color:#9B8E6F"/>
	<stop  offset="0.6896" style="stop-color:#817251"/>
	<stop  offset="0.8449" style="stop-color:#6A5B39"/>
	<stop  offset="1" style="stop-color:#6F603E"/>
</linearGradient>
<path fill="url(#SVGID_11_)" stroke="#B5AB8C" stroke-width="0.248" stroke-miterlimit="10" d="M21.301,160.479
	c-0.64-1.07-0.69-2.95-0.07-4.11c0.98-1.84,2.66-3.4,4.12-5.03c4.46-5,4.98-9.72,1.74-15.14c-0.69-1.16-1.12-2.5-1.48-3.8
	c-0.93-3.47-2.63-6.17-6.87-6.72c-0.67-0.09-1.35-0.45-1.89-0.85c-0.49-0.36-0.98-0.72-1.44-1.09c-0.48-0.39-0.93-0.79-1.33-1.2
	c-0.33,0.19-0.67,0.38-1,0.56c0.61,0.5,1.27,1.03,1.89,1.54c0.28,0.22,0.54,0.44,0.8,0.65c-1.39,1.75-2.64,3.04-3.54,4.43
	c0,0.01-0.01,0.01-0.01,0.01c-0.12,0.2-0.24,0.4-0.35,0.6c-0.11,0.2-0.16,0.42-0.17,0.67c-0.02,0.71,0.28,1.57,0.35,2.32
	c1.29-0.19,3.17,0.03,3.74-0.66c1.4-1.7,2.19-3.82,3.3-5.93c3.12,0.69,5.43,3.32,5.49,6.38c-2.26,1.28-4.36,2.27-6.13,3.63
	c-0.34,0.26,0.72,2.89,0.91,2.86c1.35-0.21,2.69-0.53,4.12-0.9c-1.57-0.25-2.63-0.42-3.7-0.59c0.28-0.92,0.35-2.44,0.89-2.63
	c1.24-0.43,2.72-0.2,4.11-0.23c-0.36,0.98-0.71,1.97-1.24,3.44c1-0.26,2.05-0.55,3.18-0.84c1.43,1.36,2.15,3.77,0.95,6.22
	c-1.51,3.06-3.52,5.92-5.41,8.81c-0.95,1.45-2.39,2.69-3.09,4.21c-1.48,3.17,0.38,5.3,4.04,4.93c1.08-0.11,2.15-0.3,3.44-0.48
	c-0.49,3.86-5.79,6.05-3.89,9.82c1.79-3.33,3.67-6.83,5.92-11c-1.87,0.21-2.67,0.39-3.47,0.39
	C23.841,160.749,21.661,161.089,21.301,160.479z M15.581,131.949c-0.21,0.41-1.67,0.82-1.86,0.63c-0.48-0.48-0.97-1.47-0.73-1.96
	c0.72-1.4,1.8-2.66,2.73-3.98c0.55,0.24,1.1,0.47,1.65,0.7C16.801,128.889,16.331,130.479,15.581,131.949z"/>
</svg>
