<?xml version="1.0" encoding="utf-8"?>
<!-- Generator: Adobe Illustrator 22.0.1, SVG Export Plug-In . SVG Version: 6.00 Build 0)  -->
<svg version="1.1" id="Layer_1" xmlns="http://www.w3.org/2000/svg" xmlns:xlink="http://www.w3.org/1999/xlink" x="0px" y="0px"
	 viewBox="0 0 374 1507.9" style="enable-background:new 0 0 374 1507.9;" xml:space="preserve">
<style type="text/css">
	.st0{display:none;}
	.st1{display:inline;fill:#B5AB8C;}
	.st2{display:inline;fill:url(#SVGID_1_);}
	.st3{opacity:0.4;fill:#9D1B36;enable-background:new    ;}
	.st4{fill:#EADAB7;}
	.st5{fill:url(#SVGID_2_);}
	.st6{fill:url(#SVGID_3_);}
	.st7{fill:url(#SVGID_4_);}
	.st8{fill:url(#SVGID_5_);}
	.st9{fill:url(#SVGID_6_);}
	.st10{fill:url(#SVGID_7_);}
	.st11{fill:url(#SVGID_8_);}
	.st12{fill:url(#SVGID_9_);}
	.st13{fill:url(#SVGID_10_);}
	.st14{fill:url(#SVGID_11_);}
	.st15{fill:url(#SVGID_12_);}
	.st16{fill:#B5AB8C;}
	.st17{fill:url(#SVGID_13_);}
</style>
<g class="st0">
	<path class="st1" d="M21.3,637.6c0,0,0.1,0.1,0.2,0.4c0.1,0.3,0.3,0.8,0.5,1.4c0.2,0.6,0.5,1.3,0.8,2.2c0.3,0.9,0.6,1.9,0.9,3.1
		c1.4,4.6,2.9,11.5,4,20.4c1,8.9,1.6,19.7,1,32.1c-0.1,3.1-0.4,6.3-0.6,9.6c-0.1,1.6-0.2,3.3-0.4,5c-0.2,1.7-0.4,3.4-0.6,5.1
		c-0.2,1.7-0.4,3.5-0.7,5.2c-0.3,1.8-0.6,3.5-0.9,5.3c-0.6,3.6-1.1,7.3-2,11c-1.6,7.4-3.2,15.1-4.9,23c-0.7,3.9-1.4,7.9-2.2,12
		c-0.4,2-0.7,4.1-1,6.2c-0.4,2.1-0.7,4.2-1.1,6.3c-0.3,2.1-0.6,4.3-0.9,6.4c-0.3,2.1-0.7,4.3-0.9,6.5c-0.2,2.2-0.5,4.4-0.7,6.6
		c-0.1,1.1-0.2,2.2-0.4,3.3c-0.1,1.1-0.2,2.2-0.3,3.4c-0.2,2.2-0.3,4.5-0.5,6.8c-0.1,2.3-0.1,4.6-0.2,6.8c0,1.1,0,2.3-0.1,3.5
		c0,1.2,0,2.3,0,3.5c0,2.3,0,4.6,0.1,7c0.2,9.3,1,18.8,2.2,28.3c0.3,2.4,0.7,4.8,1,7.2c0.4,2.4,0.8,4.8,1.2,7.2
		c0.4,2.4,0.9,4.8,1.4,7.2c0.2,1.3,0.5,2.4,0.7,3.7c0.2,1.3,0.4,2.5,0.6,3.8c2.6,19.8,3.8,39.8,4.7,60c0.8,20.1,1.1,40.3,0.3,60.1
		c-0.4,9.9-1,19.8-2.4,29.5c-0.7,4.9-1.5,9.7-2.8,14.5c-0.6,2.3-1.1,4.6-1.7,6.9c-0.1,0.6-0.3,1.2-0.4,1.7l-0.3,1.7
		c-0.2,1.1-0.4,2.3-0.6,3.4c-1.5,9.1-2.2,18.3-2.5,27.2c0,2.2-0.1,4.5-0.1,6.7c0,2.2,0.1,4.4,0.2,6.6c0.1,2.2,0.3,4.4,0.5,6.5
		c0.2,2.2,0.4,4.3,0.6,6.4c0.9,8.5,1.6,16.8,1.7,25c0.1,4.1,0.2,8.1,0.3,12.1c0.1,1,0,2,0.1,3l0,0.8v0.5l0,0.4l-0.1,1.4l-0.1,1.4
		l-0.2,1.5c-0.1,1-0.2,2-0.3,2.9c-1,7.6-2.4,14.7-3.6,21.4c-1.3,6.8-2.6,13.2-3.8,19.2c-2.4,12-4.7,22.5-6.5,31
		c-1.8,8.6-3.3,15.4-4.3,20c-1,4.6-1.6,7.1-1.6,7.1l-3.9-0.9c0,0,0.6-2.4,1.6-7c1-4.6,2.5-11.3,4.4-19.9c1.8-8.6,3.9-19,6.3-31
		c1.1-6,2.3-12.4,3.5-19.2c1.1-6.7,2.3-13.9,3.2-21.2c0.1-0.9,0.2-1.8,0.3-2.7l0.1-1.4l0.1-1.4l0.1-1.4l0-0.4c0,0.1,0-0.1,0-0.1
		l0-0.2l0-0.7c-0.1-0.9-0.1-1.8-0.2-2.8c-0.4-3.8-1-7.8-1.6-11.8c-1.2-8-1.9-16.5-1.9-25.2c0-2.2,0-4.4,0.1-6.6
		c0.1-2.2,0.1-4.4,0.2-6.7c0.1-4.5,0.2-9,0.3-13.5c0.3-9.1,1-18.5,2.6-27.9c0.2-1.2,0.4-2.4,0.7-3.6l0.3-1.8
		c0.1-0.6,0.3-1.2,0.4-1.7c0.6-2.3,1.2-4.6,1.7-7c1.2-4.5,2-9.2,2.6-13.9c1.3-9.5,1.8-19.2,2.1-29.1c0.6-19.7,0.1-39.7-0.8-59.7
		c-0.4-10-1.1-20-1.8-29.9c-0.7-9.9-1.6-19.9-2.7-29.6c-0.1-1.2-0.3-2.4-0.5-3.6c-0.1-1.1-0.4-2.4-0.6-3.6c-0.5-2.4-0.9-4.9-1.3-7.3
		c-0.4-2.4-0.8-4.9-1.1-7.3c-0.3-2.4-0.7-4.9-1-7.3c-0.6-4.9-1-9.7-1.4-14.5c-0.2-2.4-0.3-4.8-0.5-7.2c-0.1-2.4-0.2-4.8-0.3-7.1
		c-0.1-2.4-0.1-4.7-0.1-7.1c0-1.2,0-2.3,0-3.5c0-1.2,0-2.3,0.1-3.5c0-2.3,0.1-4.6,0.1-7c0.1-2.3,0.1-4.6,0.2-6.9
		c0-1.1,0.1-2.3,0.1-3.4c0.1-1.1,0.1-2.3,0.2-3.4c0.1-2.3,0.2-4.5,0.4-6.7c0.3-4.5,0.7-8.9,1.1-13.2c0.5-4.3,1.1-8.6,1.7-12.8
		c0.7-4.2,1.5-8.3,2.2-12.4c1.7-7.9,3.4-15.6,5-22.9c0.9-3.6,1.4-7.2,2-10.7c0.3-1.8,0.6-3.5,0.9-5.2c0.2-1.7,0.5-3.4,0.7-5.1
		c0.2-1.7,0.5-3.3,0.7-5c0.2-1.6,0.3-3.3,0.5-4.9c0.3-3.2,0.7-6.3,0.8-9.3c0.8-12.1,0.7-22.6,0-31.2c-0.6-8.6-1.8-15.3-2.8-19.8
		c-0.3-1.1-0.5-2.1-0.7-2.9c-0.2-0.8-0.4-1.5-0.6-2.1c-0.2-0.5-0.3-0.9-0.4-1.2c-0.1-0.3-0.2-0.4-0.2-0.4L21.3,637.6z"/>
</g>
<g class="st0">
	
		<linearGradient id="SVGID_1_" gradientUnits="userSpaceOnUse" x1="4.6943" y1="1437.5626" x2="108.1615" y2="1437.5626" gradientTransform="matrix(1 0 0 -1 0 1508.6432)">
		<stop  offset="0" style="stop-color:#6F603E"/>
		<stop  offset="0.1551" style="stop-color:#6A5B39"/>
		<stop  offset="0.3104" style="stop-color:#817251"/>
		<stop  offset="0.519" style="stop-color:#9B8E6F"/>
		<stop  offset="0.6967" style="stop-color:#ADA283"/>
		<stop  offset="0.8211" style="stop-color:#B5AB8C"/>
	</linearGradient>
	<path class="st2" d="M108.1,5.9c0,0-0.7,0.1-2.1,0.2c-1.4,0.1-3.4,0.3-6,0.6c-2.6,0.3-5.7,0.7-9.3,1.3c-3.6,0.6-7.6,1.4-11.8,2.5
		c-2.1,0.5-4.3,1.2-6.5,2c-2.2,0.8-4.4,1.7-6.6,2.7c-1.1,0.5-2.1,1.1-3.3,1.4c-0.6,0.2-1.2,0.4-1.8,0.6c-0.6,0.2-1.2,0.6-1.7,1
		c-2.2,1.4-4.4,3-6.5,4.7c-4.3,3.5-8.3,7.4-12.2,11.6c-0.5,0.5-1,1-1.6,1.4c-0.6,0.4-1.2,0.9-1.6,1.5c-0.9,1.1-1.8,2.3-2.7,3.5
		c-1.7,2.4-3.2,4.9-4.6,7.4c-3,5-5.7,10.1-7.8,15.4c-1.1,2.6-2,5.3-2.9,8c-0.9,2.7-1.4,5.4-2.1,8.1c-0.6,2.8-1.2,5.4-1.7,8
		c-0.5,2.6-1,5.2-1.4,7.7c-0.8,5-1.5,9.8-2,14.3c-1,8.9-1.2,16.3-1.2,21.5c0,5.2,0,8.2,0,8.2H5.8c0,0,0-3,0-8.3c0-5.3,0.1-12.9,1-22
		c0.4-4.5,1-9.4,1.8-14.6c0.4-2.6,0.9-5.2,1.3-7.9c0.5-2.7,1-5.5,1.6-8.2c0.6-2.7,1.2-5.7,2-8.5c0.8-2.9,1.7-5.8,2.7-8.6
		c2.1-5.7,4.8-11.4,8.2-16.6c1.7-2.6,3.6-5,5.6-7.4c1-1.2,2-2.4,2.9-3.5c1-1.2,1.6-2.7,2.6-3.8c4.1-4.5,8.7-8.4,13.3-11.9
		c2.3-1.7,4.6-3.4,7-4.9c0.6-0.4,1.1-0.7,1.7-1.2c0.6-0.5,1.1-1,1.7-1.4c1.1-0.9,2.5-1.5,3.7-2c2.6-1.1,5.1-1.7,7.6-2.3
		c2.5-0.6,4.8-1,7.1-1.4c4.6-0.8,8.7-1.3,12.4-1.6c3.7-0.3,6.9-0.5,9.6-0.6c2.7-0.1,4.7-0.1,6.2-0.1c1.4,0,2.2,0,2.2,0L108.1,5.9z"
		/>
</g>
<path class="st3" d="M24.2,402.5c-0.6,0-1.1,0.1-1.7,0c-0.4,0-0.8-0.1-1.1-0.4c-0.2-0.1-0.4-0.4-0.4-0.6c0-0.2,0.1-0.4,0.2-0.6
	l0.9-0.3c0.9-0.1,1.8-0.2,2.7-0.2c0.9,0,1.9,0.1,2.8,0.2c0.9,0.2,1.8,0.4,2.7,0.6c0.8,0.2,1.6,0.4,2.4,0.7c0.8,0.2,1.5,0.5,2.3,0.9
	c0.9,0.4,1.7,0.9,2.5,1.5c0.8,0.5,1.5,1.1,2.2,1.8c0.2,0.2,0.4,0.5,0.6,0.7c0.1,0.1,0.2,0.3,0.2,0.4c-0.1,0.5-3-1.4-3.2-1.5
	c-1.4-0.9-2.8-1.8-4.2-2.4c-1.4-0.5-2.9-0.8-4.3-0.9C27.2,402.4,25.7,402.4,24.2,402.5z"/>
<path class="st3" d="M39,577.1c1.3-0.7,2.6-1.4,3.9-2c1.8-0.9,4.5,0.9,6.9,1.5c-1.9-0.2-3.9-1-5.7-0.6c-0.2,0-0.4,0.1-0.5,0.1
	c-1.5,0.4-2.9,0.9-4.4,1.6c-1.4,0.6-2.7,1.4-4,2.2c-0.8,0.5-1.6,1.1-2.4,1.7c-0.8,0.6-1.4,1.3-2.2,1.9c-0.5,0.3-1.1,0.5-1.6,0.7
	c-0.8,0.3-1.4,1-2,1.5c-0.4,0.3-0.8,0.6-1.2,1c-0.2,0.2-0.3,0.4-0.4,0.7c-0.1,0.3-0.3,0.4-0.5,0.6c-0.3,0.3-0.5,0.6-0.8,0.9
	c-0.2,0.3-0.4,0.7-0.7,0.8c-0.3,0.2-0.2-0.2-0.2-0.4c0.2-0.8,0.7-1.5,1.1-2.1c0.1-0.2,0.2-0.3,0.3-0.5c0.4-0.7,0.7-1.2,1.4-1.6
	c0.6-0.3,1.3-0.7,1.9-1.1c1.3-0.8,2.5-1.5,3.8-2.3c1.2-0.8,2.5-1.5,3.8-2.3C36.5,578.5,37.8,577.8,39,577.1z"/>
<path class="st3" d="M73.9,400.2c-0.4,0.6,0.5,1,0.6,2.3c0.2,1.3-0.2,1.8-1.1,2.1c-0.8,0.3-1.8,0.8-0.9,1.9c0.9,1.1,1.2,1.3,1.5,1.6
	c0.3,0.3-1.1,0.3-1.9,0.9c-0.8,0.6-1.7-0.1-1.1,1.7c0.6,1.8,1.2,1.2,1.1,1s0.8,0.5-0.8,1.2c-1.6,0.7-0.9,0.5-1.3,2.1
	c-0.4,1.6,0.4,2.7-0.8,3.7c0,0-1.4-0.8-2.4-1.8c-1-1-1.6-1.4-2.8-1.3c-1.2,0.1-1.2,0.2-0.9,0.8c0.3,0.6,1.2,2,2.8,3
	c1.6,1,2.4,4.5,3.7,5.9c1.3,1.3,2.6,4,3.7,5.8s0.2,6.7-0.4,7.3c-0.7,0.6-1,1.9-2.3,3.1c-1.3,1.1-0.6,2.6-0.7,4c0,0.6-0.2,1-0.3,1.3
	c-0.2,0.4-0.4,0.5-0.5,0.3c-0.1-0.4-1.1-1.2-2.5-1.6c-1.4-0.4-2,0.7-2.3-0.4s-0.3-1.2-0.6-1.1c-0.3,0.2-1,1.9-2,2.4
	c-1,0.5-1.6,0.3-2.2-0.7s-0.9-0.1-1.9-1.1c-1-1-0.4-1.8,0.4-3.6c0.2-0.6,0.4-0.9,0.5-1c-0.2-0.1-0.4-0.3-0.8-0.6
	c-0.8-0.7-0.2-0.6-0.1-2.3c0.1-1.7,0.7-6.5,0.8-8.5c0.1-2-1.8-3-3.1-2.8c-1.3,0.2-1,0.4-1.4,2.7c-0.4,2.3,1.8,3.3,3.1,4.6
	c1.3,1.2,0.4,0.7-0.3,1.1c-0.7,0.3,0,1.1-0.6,2.5c-0.6,1.4,0,1.6-1,2.6c-1,1-0.8,0.3-2.1-0.8c-1.2-1.1-0.8-0.5-2.1-0.1
	c-1.3,0.4-1.1,0.3-2.7-1c-1.6-1.3-0.9-0.3-1.7,0c-0.8,0.3-0.3,1-1.5,1.4c-1.2,0.4-1.8-0.8-3.5-1.2c-1.7-0.4-1.7,2.6-1.9,2
	c-0.2-0.6-0.3-0.4-1.9-1.9s0,0-1.8,0.6c-1.8,0.6-3.7,1.9-3.6,0.9c0.1-1-1.6-1.4-3.1-3.5c-1.6-2.1-1,0.1-2.1-0.8
	c-1-0.9-0.1-2.4-0.3-3.7c-0.1-1.3-3.1-1.2-1.4-1.8c1.6-0.7,2.1-0.5,2.4-1.2c0.3-0.7-1.2-0.2,0.5-1.5c1.7-1.3,0.2-1.1,2.4-2.6
	c2.2-1.4,2.6-8,2.6-8s0.1-3,0.7-5.1c0.6-2.1-2.8-3.8-1.1-3.9c1.7-0.1,11.6,3.4,11.6,3.4s2.1,0.7,2,0.4c0-0.1-0.3-0.5-0.6-1
	c-0.2-0.4-0.5-1-0.5-1.6c-0.1-1.4-1.8-2.9-3.3-4.4c-1.5-1.5-1.6-1.5-2.2-1.8c-0.6-0.3-1.2-0.3-1.7-1.2c-0.5-1-2.8-0.3-2.8-0.3
	s0.7-0.8,1.3-1.5c0.6-0.6,0.1-1,2.8-2c2.8-1.1,0.6-1.1,0.2-2.4c-0.4-1.3-0.8-1.2,0.1-1.5c0.9-0.3,0.9-1.3,1-2.8
	c0-1.5,1.2-3.7,3.1-3.5c1.9,0.3,3.9-2.3,6-2.4c2.1-0.1,2.2,1,3.2,1.8c1,0.8,1.7,2.5,2,3.3c0.4,0.8,0.2,1.7,0.5,2.7
	c0.3,1,1.3,0.8,2.1,0.2c0.8-0.6-0.1-1,0.9-0.4c1,0.7,2.9-1,3.3-1c0.5,0,1.6,1.1,2.4,1.9c0.8,0.8,3.3,0.8,3.9,0.8
	c0.6,0,0.8,0.7,1.7,2c0.9,1.2,0,0.3,2.2,0.6c2.2,0.3,2.1,1.1,2.8,1.6C75.4,398.4,74.3,399.6,73.9,400.2z"/>
<path class="st4" d="M164.1-10.7c-0.1,0-0.2,10.4-0.4,12.5c0,0,0,0.1,0,0.2c-1.4,0.2-2.8,0.4-4.2,0.6c-4.2,0.7-8.5,0.8-12.8,1
	c-5,0.2-10-0.4-15-0.1c-0.3,0-0.6,0.1-0.9,0.1c-6.5,0.5-13.1,1.7-19.5,2.6c-2.4,0.2-3.9,0.3-4.1,0.3c-1.4,0.1-3.3-0.9-5.9-0.6
	c-2.6,0.3-5.7,0.7-9.3,1.3c-1.2,0.2-2.6,0.4-3.9,0.7c-2.5,0.5-5.2,1.1-7.9,1.8c-2.1,0.5-4.3,1.2-6.5,2c-2.2,0.8-4.4,1.7-6.6,2.7
	c-1.1,0.5-2.1,1.1-3.3,1.4c-0.6,0.2-1.2,0.4-1.8,0.6c-0.6,0.2-1.2,0.6-1.7,1c-2.2,1.4-4.4,3-6.5,4.7c-4.3,3.5-8.3,7.4-12.2,11.6
	c-0.5,0.5-1,1-1.6,1.4s-1.2,0.9-1.6,1.5c-0.9,1.1-1.8,2.3-2.7,3.5c-1.7,2.4-3.2,4.9-4.6,7.4c-3,5-5.7,10.1-7.8,15.4
	c-1.1,2.6-2.1,5.3-2.9,8c-0.9,2.7-1.4,5.4-2.1,8.2c-0.6,2.8-1.2,5.4-1.7,8c-0.5,2.6-1,5.2-1.4,7.7c-0.8,5-1.5,9.8-2,14.2
	c-0.4,3.6-0.6,6.9-0.8,9.9c-0.3,4.5-0.4,8.4-0.4,11.6c0,3.1,0.1,5.9,0.3,7.7c0,0,0,0.1,0,0.1c-0.1,0.6-0.2,1.3-0.3,1.9
	c-0.1,0.5-0.1,1-0.2,1.5c0,0.2-0.1,0.4-0.1,0.6c-0.1,0.8-0.2,1.6-0.3,2.4c-0.1,0.5-0.1,1-0.2,1.5c-0.1,0.9-0.2,1.9-0.2,2.8
	c-0.1,2.1,0,4.3,0.2,6.4c0.1,0.9,0.1,1.9,0.5,2.8c0.4,1,0.6,2,0.6,3.1c0,0.7,0,1.3,0.2,2c0.6,2.2,0.8,4.4,1.3,6.6
	c0.6,2.3,1.2,4.6,2.3,6.6c0.9,1.7,1.9,3.5,2.6,5.4c1.8,4.2,4.1,8.2,7,11.5c1.8,2,3.3,4.3,4.8,6.5c1.3,1.9,2.4,3.9,3.9,5.6
	c0.6,0.7,1.3,1.4,1.9,2.2c0.5,0.8,0.8,1.7,1.4,2.4c0.4,0.6,1,1,1.4,1.5c0.4,0.5,0.7,1,1.2,1.5c0.9,0.8,1,2.4,1.4,3.5
	c0.5,1.4,1.4,2.3,1.9,3.6c0.6,1.5,1.1,3,1.8,4.4c1.3,2.7,2.8,5,3.5,8.4c0.3,1.6,0.9,3.1,1.1,4.8c0.2,1.6,0.3,3.4,0.5,5.1
	c0.4,3.4,1.1,6.7,1.8,9.8c2.1,8.2,3.7,16.8,3.5,26.9c-0.1,4.8,0.1,9.5,0,14.3c0,1.9-0.2,3.9-0.5,5.9c-1,7.3-3.5,15.1-6.3,22.8
	c-1.2,3.1-2.3,6.3-3.7,9.5c-1.7,3.8-3.8,7.1-5.8,10.8c-2.2,4-4.9,7.7-6.8,11.8c-1.3,2.8-2.4,5.5-3.5,8.3c-1,2.4-2.2,4.7-3.1,7.1
	c-1.6,4.5-3.5,9.1-4.6,13.5c-0.8,3.1-1.1,6-1.4,8.8c-0.1,1.4-0.2,2.8-0.2,4.2c0,1.2-0.4,2.2-0.7,3.5c-0.9,4-1.6,8-1.6,11.5
	c0.1,3.6,0,7.4,0,11c0,3.7,0.1,7.4,0,11.1c-0.1,3.7,0.9,6.6,0.6,10.4c-0.2,3.5,0.1,6.6,0.8,9.4c0.3,1.1,0.5,2.1,0.8,3.2
	c0.5,1.5,0.9,3,1.5,4.4c0.4,0.8,0.5,2,0.8,2.9c0.4,0.9,0.9,1.6,1.2,2.5c0.4,0.8,0.7,1.6,1,2.5c0.3,0.8,0.4,1.8,0.7,2.7
	c0.3,1,0.9,1.8,1.3,2.6c0.4,0.9,0.8,1.8,1.2,2.7c0.8,1.4,1.3,3.1,2,4.7c0.3,0.8,0.8,1.6,1,2.5c0.1,0.5-0.1,1.2,0.1,1.7
	c0.1,0.5,0.2,1,0.4,1.5c0.5,2.1,1.4,3.8,2.1,5.6c0.5,1.1,0.8,2.5,1,3.9c0.3,1.4,0.6,2.8,0.8,4.3c0.7,6.9,0.9,14.3,0.5,22
	c-0.4,8.8-1.8,18-3.8,27.6c-1.3,6-2.7,12.1-4,18.1c-0.6,2.9-1.3,5.8-1.8,8.6c-0.5,2.8-1.8,6.2-2.7,9.2c-3,9.5-6,18.7-5.8,27.1
	c0,2.3-0.2,4.8,0.5,6.5c0.5,1.2,0.9,2.3,1.3,3.5c0.3,0.7,0.5,1.4,0.8,2.2c0.1,0.2,0.1,0.3,0.2,0.5c0.1,0.3,0.2,0.6,0.3,0.9
	c0.5,1.3,0.9,2.7,1.4,4c0.1,0.2,0.1,0.4,0.2,0.6c0.1,0.8,0.2,2,0.2,3c0.1,1.1,0.2,2.1,0.2,2.2c0.1,0.3,0.3,0.8,0.5,1.4
	c0.2,0.6,0.5,1.3,0.8,2.2c0.2,0.6,0.4,1.2,0.6,1.9c0.1,0.4,0.2,0.8,0.4,1.2c1.4,4.6,2.9,11.5,4,20.4c0.2,2,0.4,4.2,0.6,6.4
	c0.1,0.7,0.1,1.4,0.2,2.1c0,0.5,0.1,0.9,0.1,1.4c0,0.6,0.1,1.2,0.1,1.8c0,0.6,0.1,1.2,0.1,1.8v0.1c0.1,1,0.1,2,0.1,3
	c0,0.3,0,0.6,0,1c0.1,4.6,0,9.4-0.2,14.5c-0.1,3.1-0.4,6.3-0.6,9.6c0,0.5-0.1,1.1-0.1,1.6c-0.1,1.1-0.2,2.2-0.3,3.4
	c-0.2,1.7-0.4,3.4-0.6,5.1c-0.2,1.7-0.4,3.5-0.7,5.2c-0.3,1.8-0.6,3.5-0.9,5.3c-0.6,3.6-1.1,7.3-2,11c0,0.1,0,0.2-0.1,0.3
	c-1.5,7.3-3.1,14.9-4.8,22.7c-0.2,1.4-0.5,2.7-0.8,4.1c-0.5,2.6-1,5.2-1.5,7.9c-0.4,2-0.6,4.1-1,6.2c-0.4,2.1-0.7,4.2-1.1,6.3
	c-0.3,2.1-0.6,4.2-0.9,6.4c-0.1,0.9-0.3,1.8-0.4,2.7c-0.2,1.2-0.4,2.5-0.5,3.8c-0.2,2.2-0.5,4.4-0.7,6.6c-0.1,1.1-0.2,2.2-0.4,3.3
	c-0.1,1.1-0.2,2.2-0.3,3.4c-0.2,2.2-0.3,4.5-0.5,6.8c0,2-0.1,4.1-0.2,6.2c0,0.2,0,0.5,0,0.7c0,0.6,0,1.1,0,1.7c0,0.6,0,1.2,0,1.8
	v0.4c0,1,0,2.1,0,3.1c0,2.3,0,4.6,0.1,7c0.2,7,0.6,14.1,1.4,21.2c0.1,0.8,0.2,1.6,0.3,2.4c0.2,1.6,0.4,3.1,0.6,4.7
	c0.3,2.4,0.7,4.8,1,7.2c0.4,2.4,0.8,4.8,1.2,7.2c0.3,1.5,0.5,2.9,0.8,4.4c0.2,0.9,0.4,1.9,0.6,2.8c0.2,1.3,0.5,2.4,0.7,3.7
	c0.2,1.3,0.4,2.5,0.6,3.8c0.3,2.1,0.5,4.1,0.8,6.2c0.9,7.8,1.6,15.7,2.2,23.5c0,0.1,0,0.2,0,0.2c0.6,8.4,1.1,16.8,1.5,25.3
	c0.1,1.6,0.1,3.1,0.2,4.7c0.3,8.3,0.6,16.5,0.7,24.8c0.1,9.4,0.1,18.7-0.2,28c0,0.4,0,0.7,0,1.1c-0.1,2.1-0.1,4.1-0.2,6.2
	c-0.3,8.1-0.8,16.2-1.7,24.2c0,0.1,0,0.1,0,0.2c-0.2,1.7-0.4,3.4-0.6,5.1c-0.7,4.9-1.5,9.7-2.8,14.5c-0.2,0.9-0.4,1.8-0.7,2.8
	c-0.3,1.4-0.7,2.8-1,4.1c-0.1,0.6-0.3,1.2-0.4,1.7l-0.3,1.7c-0.2,1.1-0.4,2.3-0.6,3.4c-0.3,1.7-0.5,3.4-0.8,5.1
	c-1,7.4-1.5,14.8-1.7,22.1c0,0.4,0,0.8,0,1.1v0.1c0,1.8-0.1,3.7-0.1,5.5c0,2.2,0.1,4.4,0.2,6.6c0.1,2.2,0.3,4.4,0.5,6.5
	c0.1,1.9,0.4,3.8,0.5,5.6c0,0.3,0.1,0.6,0.1,0.8c0.9,8.3,1.5,16.3,1.7,24.2c0,0.3,0,0.5,0,0.8c0.1,4.1,0.2,8.1,0.3,12.1
	c0.1,1,0,2,0.1,3l0,0.8v0.3c0,0.2,0,0.3,0,0.5l-0.1,1.4l-0.1,1.4l-0.2,1.5c-0.1,1-0.2,2-0.3,2.9c-0.2,1.8-0.5,3.5-0.8,5.2
	c0,0.2-0.1,0.4-0.1,0.6c-0.9,5.4-1.8,10.6-2.8,15.6c-0.6,3.3-1.3,6.5-1.9,9.7c0,0.1,0,0.1,0,0.2c-0.6,3.2-1.3,6.3-1.9,9.3
	c-1,5-2,9.7-2.9,14.2c-0.1,0.3-0.1,0.6-0.2,1c-1.2,5.8-2.4,11.2-3.4,15.9c-0.6,2.7-1.1,5.2-1.6,7.5c-0.3,1.3-0.6,2.6-0.9,4
	c-0.1,0.4-0.2,0.8-0.3,1.2c-0.6,2.8-1.1,5.2-1.6,7.2c-0.6,2.5-1,4.4-1.2,5.6h-11.2L-6.3-10.4L164.1-10.7z"/>
<g>
	
		<linearGradient id="SVGID_2_" gradientUnits="userSpaceOnUse" x1="21.0609" y1="1104.6881" x2="40.4197" y2="1104.6881" gradientTransform="matrix(1 0 0 -1 0 1508.6432)">
		<stop  offset="0.1789" style="stop-color:#B5AB8C"/>
		<stop  offset="0.3033" style="stop-color:#ADA283"/>
		<stop  offset="0.481" style="stop-color:#9B8E6F"/>
		<stop  offset="0.6896" style="stop-color:#817251"/>
		<stop  offset="0.8449" style="stop-color:#6A5B39"/>
		<stop  offset="1" style="stop-color:#6F603E"/>
	</linearGradient>
	<path class="st5" d="M40.4,407.3c-0.1,0.5-3-1.4-3.2-1.5c-1.4-0.9-2.8-1.8-4.2-2.4c-1.4-0.5-2.9-0.8-4.3-0.9
		c-1.5-0.1-2.9-0.1-4.4,0c-0.6,0-1.1,0.1-1.7,0c-0.4,0-0.8-0.1-1.1-0.4c-0.2-0.1-0.4-0.4-0.4-0.6c0-0.2,0.1-0.4,0.2-0.6l0.9-0.3
		c0.9-0.1,1.8-0.2,2.7-0.2c0.9,0,1.9,0.1,2.8,0.2c0.9,0.2,1.8,0.4,2.7,0.6c0.8,0.2,1.6,0.4,2.4,0.7c0.8,0.2,1.5,0.5,2.3,0.9
		c0.9,0.4,1.7,0.9,2.5,1.5c0.8,0.5,1.5,1.1,2.2,1.8c0.2,0.2,0.4,0.5,0.6,0.7C40.3,407,40.5,407.2,40.4,407.3z"/>
	
		<linearGradient id="SVGID_3_" gradientUnits="userSpaceOnUse" x1="35.313" y1="1093.1605" x2="74.9721" y2="1093.1605" gradientTransform="matrix(1 0 0 -1 0 1508.6432)">
		<stop  offset="0.1789" style="stop-color:#A2B442"/>
		<stop  offset="0.3168" style="stop-color:#9BAB40"/>
		<stop  offset="0.5137" style="stop-color:#8C963A"/>
		<stop  offset="0.7449" style="stop-color:#757831"/>
		<stop  offset="0.8449" style="stop-color:#6A692C"/>
		<stop  offset="1" style="stop-color:#706F37"/>
	</linearGradient>
	<path class="st6" d="M74.5,402.5c0.2,1.3-0.2,1.8-1.1,2.1c-0.8,0.3-1.8,0.8-0.9,1.9c0.9,1.1,1.2,1.3,1.5,1.6
		c0.3,0.3-1.1,0.3-1.9,0.9c-0.8,0.6-1.7-0.1-1.1,1.7c0.6,1.8,1.2,1.2,1.1,1s0.8,0.5-0.8,1.2c-1.6,0.7-0.9,0.5-1.3,2.1
		c-0.4,1.6,0.4,2.7-0.8,3.7c0,0-1.4-0.8-2.4-1.8c-1-1-1.6-1.4-2.8-1.3c-1.2,0.1-1.2,0.2-0.9,0.8c0.3,0.6,1.2,2,2.8,3
		c1.6,1,2.4,4.5,3.7,5.9c1.3,1.3,2.6,4,3.7,5.8s0.2,6.7-0.4,7.3c-0.7,0.6-1,1.9-2.3,3.1c-1.3,1.1-0.6,2.6-0.7,4c0,0.6-0.2,1-0.3,1.3
		c-4.2-15.5-11.4-28.9-23.8-36.9c-0.2-0.4-0.5-1-0.5-1.6c-0.1-1.4-1.8-2.9-3.3-4.4c-1.5-1.5-1.6-1.5-2.2-1.8
		c-0.6-0.3-1.2-0.3-1.7-1.2c-0.5-1-2.8-0.3-2.8-0.3s0.7-0.8,1.3-1.5c0.6-0.6,0.1-1,2.8-2c2.8-1.1,0.6-1.1,0.2-2.4
		c-0.4-1.3-0.8-1.2,0.1-1.5c0.9-0.3,0.9-1.3,1-2.8c0-1.5,1.2-3.7,3.1-3.5c1.9,0.3,3.9-2.3,6-2.4c2.1-0.1,2.2,1,3.2,1.8
		c1,0.8,1.7,2.5,2,3.3c0.4,0.8,0.2,1.7,0.5,2.7c0.3,1,1.3,0.8,2.1,0.2c0.8-0.6-0.1-1,0.9-0.4c1,0.7,2.9-1,3.3-1
		c0.5,0,1.6,1.1,2.4,1.9c0.8,0.8,3.3,0.8,3.9,0.8c0.6,0,0.8,0.7,1.7,2c0.9,1.2,0,0.3,2.2,0.6c2.2,0.3,2.1,1.1,2.8,1.6
		c0.6,0.5-0.5,1.7-0.9,2.4C73.5,400.8,74.3,401.3,74.5,402.5z"/>
	
		<linearGradient id="SVGID_4_" gradientUnits="userSpaceOnUse" x1="24.939" y1="1081.6528" x2="69.673" y2="1081.6528" gradientTransform="matrix(1 0 0 -1 0 1508.6432)">
		<stop  offset="0.1789" style="stop-color:#A2B442"/>
		<stop  offset="0.3168" style="stop-color:#9BAB40"/>
		<stop  offset="0.5137" style="stop-color:#8C963A"/>
		<stop  offset="0.7449" style="stop-color:#757831"/>
		<stop  offset="0.8449" style="stop-color:#6A692C"/>
		<stop  offset="1" style="stop-color:#706F37"/>
	</linearGradient>
	<path class="st7" d="M69.7,446.6c-0.2,0.4-0.4,0.5-0.5,0.3c-0.1-0.4-1.1-1.2-2.5-1.6c-1.4-0.4-2,0.7-2.3-0.4s-0.3-1.2-0.6-1.1
		c-0.3,0.2-1,1.9-2,2.4c-1,0.5-1.6,0.3-2.2-0.7s-0.9-0.1-1.9-1.1c-1-1-0.4-1.8,0.4-3.6c0.2-0.6,0.4-0.9,0.5-1
		c0.2,0.1,0.3,0.1,0.3,0.1s0-0.4-0.3-0.1c-0.2-0.1-0.4-0.3-0.8-0.6c-0.8-0.7-0.2-0.6-0.1-2.3c0.1-1.7,0.7-6.5,0.8-8.5
		c0.1-2-1.8-3-3.1-2.8c-1.3,0.2-1,0.4-1.4,2.7c-0.4,2.3,1.8,3.3,3.1,4.6c1.3,1.2,0.4,0.7-0.3,1.1c-0.7,0.3,0,1.1-0.6,2.5
		c-0.6,1.4,0,1.6-1,2.6c-1,1-0.8,0.3-2.1-0.8c-1.2-1.1-0.8-0.5-2.1-0.1c-1.3,0.4-1.1,0.3-2.7-1c-1.6-1.3-0.9-0.3-1.7,0
		c-0.8,0.3-0.3,1-1.5,1.4c-1.2,0.4-1.8-0.8-3.5-1.2c-1.7-0.4-1.7,2.6-1.9,2c-0.2-0.6-0.3-0.4-1.9-1.9s0,0-1.8,0.6
		c-1.8,0.6-3.7,1.9-3.6,0.9c0.1-1-1.6-1.4-3.1-3.5c-1.6-2.1-1,0.1-2.1-0.8c-1-0.9-0.1-2.4-0.3-3.7c-0.1-1.3-3.1-1.2-1.4-1.8
		c1.6-0.7,2.1-0.5,2.4-1.2c0.3-0.7-1.2-0.2,0.5-1.5c1.7-1.3,0.2-1.1,2.4-2.6c2.2-1.4,2.6-8,2.6-8s0.1-3,0.7-5.1
		c0.6-2.1-2.8-3.8-1.1-3.9c1.7-0.1,11.6,3.4,11.6,3.4s2.1,0.7,2,0.4c0-0.1-0.3-0.5-0.6-1C58.3,417.7,65.4,431.1,69.7,446.6z"/>
</g>
<linearGradient id="SVGID_5_" gradientUnits="userSpaceOnUse" x1="8.78" y1="373.2032" x2="47.813" y2="373.2032" gradientTransform="matrix(1 0 0 1 0 -127.7227)">
	<stop  offset="0.1789" style="stop-color:#A2B442"/>
	<stop  offset="0.3168" style="stop-color:#9BAB40"/>
	<stop  offset="0.5137" style="stop-color:#8C963A"/>
	<stop  offset="0.7449" style="stop-color:#757831"/>
	<stop  offset="0.8449" style="stop-color:#6A692C"/>
	<stop  offset="1" style="stop-color:#706F37"/>
</linearGradient>
<path class="st8" d="M39.9,243.2c-1.4,0.4-2.8,0.6-4.1,0.9c-0.2-0.4-0.3-0.9-0.5-1.3c1.6-3.3,6-5.4,3.4-10.8c-1.7-3.6-5-5.7-7.6-8.5
	c-0.1,0.6-0.2,1.1-0.2,1.7c-1.3,0.8-2.6,1.5-4.2,2.4c-0.3,3.5-1.9,4.2-4.6,3c-0.9-0.4-2.1-0.2-2.9,0.4c-1.2,0.9-2.2,2.4-2.7,3
	c-1.5,6.1-4,9.9-7.7,13.1c3.4,2.5,6.5,4.9,9.9,7.4c0,0-0.2,1-0.3,1.6c3.2,4.1,5.6,2.1,7.8-0.8c0.4-0.5,1-1,1.5-1
	c0.9,0,2.3,0,2.7,0.8c0.5,1.1,0.6,3,0.3,4.3c-0.3,1.5-1.2,2.7-2.3,4.7c2.1,0.7,4.2,0.5,5.4,2c2.9,3.7,3.2-0.5,4.5-1.9
	c0.4-0.4,1-0.5,1.6-0.5c2.8-0.1,3.2-3.3,3.6-6.3c0.4-3-0.5-5.3-2.6-6.8c-1.2-0.9-2.3-2.3-3.4-3.5c0.1-0.4,0.2-0.8,0.3-1.2
	c1.1-0.3,2.2-0.7,3.3-1c3.3-0.8,4.6,0.2,5,5c0,0,0,0,0,0c0.5-0.5,1-1.3,1.6-1.8C45.9,243.1,43.9,241.9,39.9,243.2z"/>
<linearGradient id="SVGID_6_" gradientUnits="userSpaceOnUse" x1="36.7618" y1="730.4626" x2="144.152" y2="730.4626" gradientTransform="matrix(1 0 0 1 0 -127.7227)">
	<stop  offset="0.1789" style="stop-color:#A2B442"/>
	<stop  offset="0.3168" style="stop-color:#9BAB40"/>
	<stop  offset="0.5137" style="stop-color:#8C963A"/>
	<stop  offset="0.7449" style="stop-color:#757831"/>
	<stop  offset="0.8449" style="stop-color:#6A692C"/>
	<stop  offset="1" style="stop-color:#706F37"/>
</linearGradient>
<path class="st9" d="M143.1,612.3c-1-1.1-2-2.3-3.1-3.2c-2.7-2-5.3-1.3-7.3,1.4c-1,1.4-1.2,3.7-1.7,5.7c0.4,0.2,0.8,0.3,1.2,0.5
	c0.2-0.5,0.6-0.9,0.7-1.4c0.7-2.8,1.7-5.3,4.5-4.8c2.9,0.6,4.5,2.8,4.8,6.5c0.3,5-0.5,9.9-4.1,12.6c-4.7,3.5-9.6,6.7-14.7,8.9
	c-4.8,2.1-10.1,3.3-15.7,1.1c1.9-2.9,3.6-5.5,5.2-8.1c2.2-3.5,4-7.5,6.6-10.4c1.4-1.5,4.7-2.6,6-1.6c2.4,2,0.5,4.8-0.9,7
	c-0.2,0.3-0.2,0.7-0.7,2.1c3.1-1.4,4.7-3.4,4.6-6.8c-0.1-3.5-1.8-5.2-4.5-5.4c-3.8-0.2-5.9,3.1-7.9,6.5c-2.8,4.6-5.7,9.1-8.6,13.7
	c-1.5,2.4-3.3,2.5-5.1,0.7c-3.9-3.9-8-7.6-11.4-12.1c-3.9-5-8.4-8.1-13.7-8.7c-4-0.4-8-0.2-12,0.3c-2.3,0.3-3.4-0.7-4.8-2.8
	c-3.3-5-7.1-9.5-10.7-14.3c-0.6-0.8-1.1-1.6-1.6-2.4c0.2-0.4,0.4-0.8,0.7-1.2c1.9,0.9,3.8,1.9,5.8,2.9c0.1-0.8,0.3-1.4,0.2-2
	c-0.1-5.9,0.6-6.7,5.3-5.5c1.3,0.3,2.6,0.9,3.9,1.4c1.4,0.5,2.9,1.5,4.2,1.2c4.2-1,8.4-2.5,12.4-3.8c-1-2.1-2.2-4.4-3.3-6.7
	c-2.6-5.7-6.5-9.2-11.7-10c-5.5-0.9-7.1-4.4-4-11.3c-3.4-0.4-6.6-0.1-9.4-1.2c-2.6-1-5-1.2-7.5,0c-2.8,1.3-3.4,3.8-1.7,6.8
	c1,1.7,2.3,3.2,3.3,4.9c0.9,1.4,1.1,2.9-0.9,3.2c1.9,1.2,1.5,2.5,0,3.6c-0.9,0.7-2,0.9-3.1,1.4c-4.4,1.7-6,4.2-5.6,9.7l0,0v0.1
	c0,0.7,0.1,1.3,0.2,2.1c0,0-0.1,0-0.1-0.1c0.3,1.6,0.9,3,1.8,4.1c1.5,0.6,3,1.4,4.4,2.3c5.8,3.6,11.3,9.7,15.6,19.1
	c-5.8,1.6-11.5,3.1-17.1,4.6c5.3-0.8,10.5-1.8,15.8-2.3c1.4-0.1,3.2,0.6,4.3,1.8c3.6,4,6.5,8.8,10.3,12.4c10.1,9.4,21,14.3,33.5,7.2
	c0.6-0.3,1.4,0,2.1-0.1c5.3-0.5,10.9,0.1,15.9-1.7c10-3.5,20-7.9,20.6-24.3C143.8,614.6,143.5,613.4,143.1,612.3z M63.6,619.2
	c9.2-2.4,17.4-1,24.6,5.9c5,4.8,9.8,10,14.6,15.1C95.3,648.1,73.7,639.1,63.6,619.2z"/>
<linearGradient id="SVGID_7_" gradientUnits="userSpaceOnUse" x1="23.0127" y1="926.3717" x2="49.773" y2="926.3717" gradientTransform="matrix(1 0 0 -1 0 1508.6432)">
	<stop  offset="0.1789" style="stop-color:#B5AB8C"/>
	<stop  offset="0.3033" style="stop-color:#ADA283"/>
	<stop  offset="0.481" style="stop-color:#9B8E6F"/>
	<stop  offset="0.6896" style="stop-color:#817251"/>
	<stop  offset="0.8449" style="stop-color:#6A5B39"/>
	<stop  offset="1" style="stop-color:#6F603E"/>
</linearGradient>
<path class="st10" d="M49.8,576.6c-1.9-0.2-3.9-1-5.7-0.6c-0.2,0-0.4,0.1-0.5,0.1c-1.5,0.4-2.9,0.9-4.4,1.6c-1.4,0.6-2.7,1.4-4,2.2
	c-0.8,0.5-1.6,1.1-2.4,1.7c-0.8,0.6-1.4,1.3-2.2,1.9c-0.5,0.3-1.1,0.5-1.6,0.7c-0.8,0.3-1.4,1-2,1.5c-0.4,0.3-0.8,0.6-1.2,1
	c-0.2,0.2-0.3,0.4-0.4,0.7c-0.1,0.3-0.3,0.4-0.5,0.6c-0.3,0.3-0.5,0.6-0.8,0.9c-0.2,0.3-0.4,0.7-0.7,0.8c-0.3,0.2-0.2-0.2-0.2-0.4
	c0.2-0.8,0.7-1.5,1.1-2.1c0.1-0.2,0.2-0.3,0.3-0.5c0.4-0.7,0.7-1.2,1.4-1.6c0.6-0.3,1.3-0.7,1.9-1.1c1.3-0.8,2.5-1.5,3.8-2.3
	c1.2-0.8,2.5-1.5,3.8-2.3c1.2-0.8,2.5-1.5,3.8-2.2c1.3-0.7,2.6-1.4,3.9-2C44.7,574.2,47.5,576,49.8,576.6z"/>
<linearGradient id="SVGID_8_" gradientUnits="userSpaceOnUse" x1="2.5092" y1="653.0034" x2="24.3958" y2="653.0034" gradientTransform="matrix(1 0 0 1 0 -127.7227)">
	<stop  offset="0.1789" style="stop-color:#B5AB8C"/>
	<stop  offset="0.3033" style="stop-color:#ADA283"/>
	<stop  offset="0.481" style="stop-color:#9B8E6F"/>
	<stop  offset="0.6896" style="stop-color:#817251"/>
	<stop  offset="0.8449" style="stop-color:#6A5B39"/>
	<stop  offset="1" style="stop-color:#6F603E"/>
</linearGradient>
<path class="st11" d="M13.2,491.2c2,3.2,3.5,6.6,5.8,9.1c0.9,1,3.5,0.1,5.3,0.1c-0.1-1.7,0.4-3.9-0.4-5.1c-1.6-2.5-3.8-4.5-6.5-7.4
	c0.9-1.2,1.9-2.5,2.8-3.8c0.2-0.2,0.3-0.4,0.5-0.6c-0.4-0.2-0.8-0.4-1.2-0.5c-0.1,0-0.2-0.1-0.3-0.1c-0.9,1.6-2.1,3.1-3.4,4.7
	c-0.7,0.8-1.5,1.6-2.4,2c-5.7,2.1-7.5,7.2-8.1,13.3c-0.2,2.3-0.5,4.7-1.2,6.9c-3.3,10.1-1.6,18,5.6,25.2c2.4,2.3,5,4.5,6.8,7.4
	c1.1,1.8,1.4,5,0.8,7c-0.4,1.1-3.4,1.2-5.3,1.5c-1.1,0.2-2.3,0.2-4.9,0.3c4,6.4,7.3,11.8,10.5,17c1.8-6.9-6-9.1-7.4-15.5
	c1.8-0.1,3.3,0,4.9-0.2c5.1-0.4,7.2-4.5,4.6-9.5c-1.3-2.4-3.6-4-5.2-6.2c-3.2-4.4-6.6-8.7-9.3-13.4c-2.2-3.8-1.7-8.1,0-10.8
	c1.6,0.2,3.1,0.4,4.6,0.5c-1-2.3-1.8-3.9-2.4-5.5c1.9-0.3,3.9-1.1,5.7-0.8c0.8,0.2,1.2,2.7,1.8,4.2c-1.4,0.6-2.9,1.2-5,2
	c2.1,0.2,4,0.4,5.9,0.4c0.3,0,1.2-4.8,0.6-5.1c-2.7-1.8-5.8-2.9-9.2-4.4C6.4,498.4,9.1,493.3,13.2,491.2z M17.9,490.1
	c1.6,2,3.3,3.8,4.6,6c0.4,0.8,0,2.6-0.6,3.5c-0.2,0.4-2.3,0.1-2.7-0.5c-1.4-2.3-2.3-4.9-3.5-7.3C16.4,491.2,17.1,490.6,17.9,490.1z"
	/>
<linearGradient id="SVGID_9_" gradientUnits="userSpaceOnUse" x1="24.7196" y1="856.4443" x2="124.7212" y2="856.4443" gradientTransform="matrix(-0.9942 0.1076 -0.1076 -0.9942 235.3803 883.5886)">
	<stop  offset="0.1789" style="stop-color:#B5AB8C"/>
	<stop  offset="0.3033" style="stop-color:#ADA283"/>
	<stop  offset="0.481" style="stop-color:#9B8E6F"/>
	<stop  offset="0.6896" style="stop-color:#817251"/>
	<stop  offset="0.8449" style="stop-color:#6A5B39"/>
	<stop  offset="1" style="stop-color:#6F603E"/>
</linearGradient>
<path class="st12" d="M20.7,59c2.4-1.5,4.7-3.2,7.3-3.4c1.6-0.1,3.3,0.2,5.3,1.4c-2.1,3.8-6.7,5.7-11.7,5c0.2,0.4,0.4,0.8,0.6,1.2
	c4.8,0.3,9.2-0.6,12.7-5.3c0.4-0.6,1.9-0.7,2.8-0.6c6.5,0.9,12.3-0.9,17.4-4.9c1.1-0.9,2.3-1.8,3.4-2.8c2.4-2.1,4.8-4.3,7.3-6.5
	c1.5,1.7,3.1,3.5,4.8,5.2c0.2,0.2,0.3,0.3,0.5,0.5c3,3.1,6.9,3.7,8.9,1.5c0.8-0.9,1.2-2,1.2-3.2c0-2-1.2-4.2-3.2-6
	c-0.9-0.8-2-1.6-3.1-2.1c-1.4-0.6-2.9-0.9-4.6-1.3c3.7-5.4,8.7-7,14.4-6.3c5.7,0.8,11.4,2,17,3.2c5.9,1.2,11.3,0.5,15.6-4.1
	c0.3-0.6,0.5-1.2,0.8-1.7c-0.4-7.8-6.8-13-13.6-10.1c1.7,0.8,2.8,1.4,4,1.9c1.2,0.5,2.7,0.5,3.5,1.2c1.5,1.3,3.6,3,3.6,4.6
	c0.1,1.6-1.8,3.8-3.3,4.7c-2,1.1-4.6,1.8-6.9,1.6C100,32,94.7,31.2,89.5,30c-8-1.8-14.9-0.6-20.5,6.1c-0.8,1-2.4,1.4-3.7,1.9
	c-1.4,0.5-2.5,0.2-3.6-0.4c-0.8-0.5-1.5-1.1-2.3-1.7c-0.7-0.5-1.3-1-2-1.4c-7.5-4.9-12.6-2.3-14.8,7.4c0,0,0,0.1,0,0.1
	c0,0.2,0,0.4-0.1,0.5c-0.5,0.6-0.8,1.5-1.5,1.8c-4.5,2.7-9.1,5.3-13.7,7.8c-0.9,0.5-2.2,0.7-3.2,0.5c-0.6-0.1-1.2-0.2-1.8-0.3
	c-0.1,0-0.2,0-0.3-0.1c-0.1,0.1-0.2,0.2-0.2,0.3c-0.2,0.3-0.4,0.6-0.5,0.9c0.5,0.2,1.1,0.5,1.7,0.8c-0.8,0.8-1.7,1.4-2.5,2
	C20.5,57.2,20.6,58.1,20.7,59z M75.3,40.5c2.4,1.1,4.4,4.4,4.2,6.8c0,0.2,0,0.3-0.1,0.5c-0.5,2.3-2.3,3-4.1,2.1
	c-1-0.5-2-1.2-2.9-1.9c-0.9-0.7-1.7-1.4-2.6-2.2c-1.3-1.1-2.3-2.5-3.5-3.9C68.6,38.9,71.2,38.6,75.3,40.5z M49.3,33.6
	c2.9-1,5.1-0.1,7.3,1.4c1.4,0.9,2.7,2.1,4.2,3.1c0,0,0.1,0.1,0.1,0.1c-0.2,0-0.4,0.1-0.5,0.1c-5.7,1.5-10.8,2.9-16.2,4.4
	c0.1-0.5,0.1-1,0.2-1.5C44.8,37.7,45.8,34.8,49.3,33.6z M42.4,45.8c-0.1,0.3-0.1,0.6-0.2,0.9c0.6,0.2,1.1,0.4,1.6,0.6
	c1.5,0.6,3,1.1,4.6,1.4c0.4,0.1,1.1-1.4,1.7-2.2l-0.7-0.6c-0.6,0.5-1.1,1.4-1.7,1.4c-0.8,0-1.6-0.4-2.4-0.8
	c-0.2-0.1-0.3-0.1-0.5-0.2c0.3-0.8,0.5-2.2,1.1-2.3c3-0.9,6.1-1.9,9.1-2.7c1.9-0.5,3.8-1,5.6-1.4c1-0.2,2.2,0.7,3.7,1.3
	c-2.9,3.2-5.8,6.3-8.9,8.7c-5.4,4.2-11.6,6.7-19.7,5.4c0.4-1.2,0.8-2.3,1.2-3.4c0.2-0.4,0.3-0.8,0.5-1.2
	C38.4,48.4,39.8,46.7,42.4,45.8z M36.5,49.3c-0.2,0.9-0.4,1.6-0.6,2.2c-0.1,0.2-0.1,0.3-0.2,0.5c-1,3.1-1.9,3.3-5.1,2.2
	c-0.4-0.1-0.8-0.3-1.3-0.5c0.7-0.4,1.4-0.9,2-1.3C33,51.4,34.7,50.4,36.5,49.3z"/>
<linearGradient id="SVGID_10_" gradientUnits="userSpaceOnUse" x1="156.7413" y1="1412.6003" x2="205.5744" y2="1412.6003" gradientTransform="matrix(0.9214 -0.3885 -0.3885 -0.9214 423.5222 1458.0242)">
	<stop  offset="0.1789" style="stop-color:#A2B442"/>
	<stop  offset="0.3168" style="stop-color:#9BAB40"/>
	<stop  offset="0.5137" style="stop-color:#8C963A"/>
	<stop  offset="0.7449" style="stop-color:#757831"/>
	<stop  offset="0.8449" style="stop-color:#6A692C"/>
	<stop  offset="1" style="stop-color:#706F37"/>
</linearGradient>
<path class="st13" d="M58.2,62.4c0.6,2.2,1,4.5,1.6,7.1c-0.4,2.1-1,4.9-1.6,8c-0.1,0-0.2,0.1-0.3,0.1c-1.9,0.8-3.7,1.6-5.5,2.5
	c1.1,2.4,1.7,5.7,3.4,6.7c2.7,1.7,4.4,3.2,3.3,7.1c-0.3,1.1,0.6,2.5,1,3.6c0.6,1.5,1.3,2.9,2,4.7c-4.3,1.4-7.1-3.7-10.9,0
	c-3.1-2-6.2-3.6-8.4-7.3c-2.3-4.1-8.1-1.9-9.8,3.1c-0.3-0.2-0.6-0.4-0.9-0.6c-0.8,0.8-1.5,1.8-2.3,2.5c-1.1,0.9-2.4,1.5-3.3,2.1
	c-2-1.1-3.7-2-6-3.3c-0.8-4-2.1-9-0.1-14.1c2.6-6.9,7.7-4.3,12.2-3.2c0.6-4-0.9-7.9-3.2-10.6c-0.6-0.6-1.2-1.2-1.9-1.6
	c0.9-0.3,1.7-0.5,2.6-0.7c0.2,0.4,0.3,0.8,0.5,1.2c0.9,2.2,1.8,4.2,2.8,6.2c0.5,0.9,1.5,1.4,2.2,2.1c0.6-0.9,1.4-1.8,1.6-2.8
	c0.3-1.2,0.3-2.7-0.1-3.8c-1.6-4.8,0.7-7.2,3.7-9.3c5.4-3.8,10.7-2.7,15.9-1C57.3,61.2,58,61.8,58.2,62.4z"/>
<linearGradient id="SVGID_11_" gradientUnits="userSpaceOnUse" x1="-15.586" y1="273.0678" x2="7.0561" y2="273.0678" gradientTransform="matrix(0.997 7.690000e-02 -7.690000e-02 0.997 48.477 -129.7002)">
	<stop  offset="0.1789" style="stop-color:#B5AB8C"/>
	<stop  offset="0.3033" style="stop-color:#ADA283"/>
	<stop  offset="0.481" style="stop-color:#9B8E6F"/>
	<stop  offset="0.6896" style="stop-color:#817251"/>
	<stop  offset="0.8449" style="stop-color:#6A5B39"/>
	<stop  offset="1" style="stop-color:#6F603E"/>
</linearGradient>
<path class="st14" d="M23.1,158.1c-0.7-1.3-0.6-3.5,0.3-4.8c1.4-2,3.7-3.7,5.8-5.4c6.2-5.4,7.3-10.8,3.6-17.4
	c-0.8-1.4-1.2-3-1.6-4.6c-0.9-4.1-2.8-7.4-8.3-8.5c-0.9-0.2-1.7-0.7-2.4-1.2c-0.6-0.5-1.2-0.9-1.8-1.4c-0.6-0.5-1.1-1-1.6-1.5
	c-0.4,0.2-0.9,0.4-1.3,0.6c0.7,0.6,1.5,1.3,2.3,2c0.3,0.3,0.7,0.6,1,0.8c-2,1.9-3.7,3.3-5,4.8c0,0,0,0,0,0c-0.2,0.2-0.3,0.4-0.5,0.7
	c-0.2,0.2-0.2,0.5-0.3,0.8c-0.1,0.8,0.2,1.9,0.2,2.7c1.7-0.1,4.1,0.4,4.9-0.4c2-1.8,3.2-4.2,4.8-6.6c4,1.1,6.7,4.4,6.5,8
	c-3,1.3-5.8,2.2-8.2,3.6c-0.5,0.3,0.7,3.4,0.9,3.4c1.8-0.1,3.5-0.3,5.4-0.6c-2-0.4-3.4-0.8-4.7-1.1c0.4-1,0.7-2.8,1.4-3
	c1.6-0.4,3.5,0,5.3,0.1c-0.6,1.1-1.1,2.2-1.9,3.9c1.3-0.2,2.7-0.4,4.2-0.7c1.7,1.7,2.4,4.6,0.7,7.3c-2.2,3.4-5.1,6.5-7.8,9.7
	c-1.4,1.6-3.3,2.9-4.4,4.6c-2.2,3.5,0,6.2,4.8,6.1c1.4,0,2.8-0.1,4.5-0.2c-1,4.4-8,6.5-5.9,11c2.6-3.7,5.4-7.6,8.6-12.2
	c-2.4,0.1-3.5,0.2-4.5,0.1C26.4,158.6,23.5,158.8,23.1,158.1z M18.3,124.3c-0.3,0.5-2.2,0.8-2.5,0.5c-0.6-0.6-1.1-1.8-0.8-2.4
	c1.1-1.6,2.6-2.9,3.9-4.4c0.7,0.3,1.4,0.7,2.1,1C20.2,120.8,19.4,122.6,18.3,124.3z"/>
<linearGradient id="SVGID_12_" gradientUnits="userSpaceOnUse" x1="345.8014" y1="1525.1775" x2="211.0962" y2="275.2358" gradientTransform="matrix(1 0 0 -1 0 1508.6432)">
	<stop  offset="0" style="stop-color:#6F603E"/>
	<stop  offset="0.1551" style="stop-color:#6A5B39"/>
	<stop  offset="0.3104" style="stop-color:#817251"/>
	<stop  offset="0.519" style="stop-color:#9B8E6F"/>
	<stop  offset="0.6967" style="stop-color:#ADA283"/>
	<stop  offset="0.8211" style="stop-color:#B5AB8C"/>
</linearGradient>
<path class="st15" d="M668-5.7v8.5c0,0-417.5-0.4-418.6-0.3c-4.9,0.4-104.6,0-117.6,1.1c-0.3,0-0.6,0.1-0.9,0.1
	c-7.9,0.7-15.2,2.3-19.5,2.6c-2.4,0.2-3.9,0.3-4.1,0.3c-1.4,0.1-3.4-0.4-6-0.1c-2.6,0.3-5.6,0.2-9.2,0.8c-1.2,0.2-2.6,0.4-3.9,0.7
	c-2.5,0.5-5.2,1.1-7.9,1.8c-2.1,0.5-4.3,1.2-6.5,2c-2.2,0.8-4.4,1.7-6.6,2.7c-1.1,0.5-2.1,1.1-3.3,1.4c-0.6,0.2-1.2,0.4-1.8,0.6
	c-0.6,0.2-1.2,0.6-1.7,1c-2.2,1.4-4.4,3-6.5,4.7c-4.3,3.5-8.3,7.4-12.2,11.6c-0.5,0.5-1,1-1.6,1.4s-1.2,0.9-1.6,1.5
	c-0.9,1.1-1.8,2.3-2.7,3.5c-1.7,2.4-3.2,4.9-4.6,7.4c-3,5-5.7,10.1-7.8,15.4c-1.1,2.6-2.1,5.3-2.9,8c-0.9,2.7-1.4,5.4-2.1,8.2
	c-0.6,2.8-1.2,5.4-1.7,8c-0.5,2.6-1,5.2-1.4,7.7c-0.8,5-1.5,9.8-2,14.2c-0.4,3.6-0.6,6.9-0.8,9.9c-0.3,4.5-0.4,8.4-0.4,11.6
	c0,3.1,0.1,5.9,0.3,7.7c0,0,0,0.1,0,0.1c-0.1,0.6-0.2,1.3-0.3,1.9c-0.1,0.5-0.1,1-0.2,1.5c0,0.2-0.1,0.4-0.1,0.6
	c-0.1,0.8-0.2,1.6-0.3,2.4c-0.1,0.5-0.1,1-0.2,1.5c-0.1,0.9-0.2,1.9-0.2,2.8c-0.1,2.1,0,4.3,0.2,6.4c0.1,0.9,0.1,1.9,0.5,2.8
	c0.4,1,0.6,2,0.6,3.1c0,0.7,0,1.3,0.2,2c0.6,2.2,0.8,4.4,1.3,6.6c0.6,2.3,1.2,4.6,2.3,6.6c0.9,1.7,1.9,3.5,2.6,5.4
	c1.8,4.2,4.1,8.2,7,11.5c1.8,2,3.3,4.3,4.8,6.5c1.3,1.9,2.4,3.9,3.9,5.6c0.6,0.7,1.3,1.4,1.9,2.2c0.5,0.8,0.8,1.7,1.4,2.4
	c0.4,0.6,1,1,1.4,1.5c0.4,0.5,0.7,1,1.2,1.5c0.9,0.8,1,2.4,1.4,3.5c0.5,1.4,1.4,2.3,1.9,3.6c0.6,1.5,1.1,3,1.8,4.4
	c1.3,2.7,2.8,5,3.5,8.4c0.3,1.6,0.9,3.1,1.1,4.8c0.2,1.6,0.3,3.4,0.5,5.1c0.4,3.4,1.1,6.7,1.8,9.8c2.1,8.2,3.7,16.8,3.5,26.9
	c-0.1,4.8,0.1,9.5,0,14.3c0,1.9-0.2,3.9-0.5,5.9c-1,7.3-3.5,15.1-6.3,22.8c-1.2,3.1-2.3,6.3-3.7,9.5c-1.7,3.8-3.8,7.1-5.8,10.8
	c-2.2,4-4.9,7.7-6.8,11.8c-1.3,2.8-2.4,5.5-3.5,8.3c-1,2.4-2.2,4.7-3.1,7.1c-1.6,4.5-3.5,9.1-4.6,13.5c-0.8,3.1-1.1,6-1.4,8.8
	c-0.1,1.4-0.2,2.8-0.2,4.2c0,1.2-0.4,2.2-0.7,3.5c-0.9,4-1.6,8-1.6,11.5c0.1,3.6,0,7.4,0,11c0,3.7,0.1,7.4,0,11.1
	c-0.1,3.7,0.9,6.6,0.6,10.4c-0.2,3.5,0.1,6.6,0.8,9.4c0.3,1.1,0.5,2.1,0.8,3.2c0.5,1.5,0.9,3,1.5,4.4c0.4,0.8,0.5,2,0.8,2.9
	c0.4,0.9,0.9,1.6,1.2,2.5c0.4,0.8,0.7,1.6,1,2.5c0.3,0.8,0.4,1.8,0.7,2.7c0.3,1,0.9,1.8,1.3,2.6c0.4,0.9,0.8,1.8,1.2,2.7
	c0.8,1.4,1.3,3.1,2,4.7c0.3,0.8,0.8,1.6,1,2.5c0.1,0.5-0.1,1.2,0.1,1.7c0.1,0.5,0.2,1,0.4,1.5c0.5,2.1,1.4,3.8,2.1,5.6
	c0.5,1.1,0.8,2.5,1,3.9c0.3,1.4,0.6,2.8,0.8,4.3c0.7,6.9,0.9,14.3,0.5,22c-0.4,8.8-1.8,18-3.8,27.6c-1.3,6-2.7,12.1-4,18.1
	c-0.6,2.9-1.3,5.8-1.8,8.6c-0.5,2.8-1.8,6.2-2.7,9.2c-3,9.5-6,18.7-5.8,27.1c0,1.7,0.5,3.2,0.9,4.8c0.3,1.3,0.6,2.5,0.9,3.8
	c0.3,1.2,0.6,2.4,0.9,3.6c0.3,1.2,0.6,2.4,0.9,3.6c0.5,1.8,1,3.7,1.5,5.5c0.6,2.2,1.2,4.4,1.8,6.6c0.1,0.3,0.2,0.7,0.3,1
	c1,3.6,1.9,7.2,2.6,10.9c1,4.9,1.6,9.9,2.1,15c0.1,0.7,0.1,1.4,0.2,2.1c0.1,0.7,0.1,1.4,0.2,2.1c0,0.5,0.1,0.9,0.1,1.4
	c0,0.6,0.1,1.2,0.1,1.8c0,0.6,0.1,1.2,0.1,1.8v0.1c0.1,1,0.1,2,0.1,3c0,0.3,0,0.6,0,1c0,1.2,0.1,2.4,0.1,3.6
	c0,5.6-0.2,11.2-0.6,16.7c-0.1,1.8-0.3,3.6-0.5,5.4c-0.4,3.8-0.8,7.7-1.4,11.5c-0.8,5.8-1.8,11.6-2.9,17.3c-0.1,0.4-0.1,0.8-0.2,1.2
	c0,0.1,0,0.2-0.1,0.3c-1,5.1-2.1,10.2-3.2,15.4c-0.8,3.8-1.6,7.6-2.4,11.5c-0.3,1.7-0.7,3.4-1,5.2c-1.1,5.8-2,11.6-2.9,17.4
	c-0.3,2.3-0.7,4.6-0.9,6.9c-0.5,3.5-0.9,7-1.2,10.6c-0.6,5.7-1,11.3-1.2,17c0,0.8-0.1,1.6-0.1,2.4s0,1.6,0,2.4c0,0.7,0,1.4,0,2.1
	c0,3.5,0,7,0.1,10.5c0.2,6,0.5,11.9,1.1,17.8c0.1,1,0.2,2,0.3,3c0.1,0.8,0.2,1.6,0.3,2.4c0.5,4,1,7.9,1.7,11.9
	c0.6,3.9,1.3,7.7,2,11.6c0.3,1.8,0.6,3.5,0.9,5.3c0.6,3.7,1.2,7.5,1.7,11.2c0.3,2.1,0.5,4.2,0.8,6.2c0.6,5.8,1.1,11.5,1.5,17.3
	c0,0.1,0,0.2,0,0.2c0.4,5.7,0.7,11.5,1,17.2c0.2,2.7,0.3,5.4,0.4,8.1c0.2,3.2,0.3,6.4,0.4,9.6c0.2,6,0.4,12,0.5,18.1
	c0,0.6,0,1.2,0,1.8c0,5.2,0,10.3,0,15.5c0,4.2-0.1,8.4-0.1,12.5c0,0.4,0,0.7,0,1.1c0,1.2-0.1,2.4-0.1,3.6c-0.2,6-0.4,12.1-0.9,18.1
	c-0.2,2.9-0.5,5.8-0.9,8.6c0,0.1,0,0.1,0,0.2c-0.4,2.8-0.8,5.6-1.3,8.4c-0.8,4.7-1.8,9.3-2.8,14c-0.1,0.4-0.2,0.9-0.3,1.3
	c-1.1,4.9-2.1,9.8-2.8,14.8c0,0.2-0.1,0.4-0.1,0.7c-0.8,5.5-1.3,11.1-1.5,16.7c-0.1,2-0.1,3.9-0.1,5.9v0.1c0,3.7,0.1,7.5,0.3,11.2
	c0.2,4.4,0.6,8.7,0.9,13.1c0.1,1.6,0.2,3.1,0.4,4.7c0.5,6,0.9,11.9,1.3,17.9c0,0.8,0.1,1.6,0.1,2.4c0.2,4,0.4,8,0.5,12
	c0,1.7,0,3.3-0.1,4.9c0,0.2,0,0.3,0,0.5c-0.1,1.7-0.2,3.5-0.4,5.2c-0.3,2.4-0.6,4.9-1.1,7.3c0,0.2-0.1,0.4-0.1,0.6
	c-0.3,1.6-0.6,3.2-0.8,4.7c-1,5.7-2.1,11.4-3.1,17c-0.2,1.2-0.4,2.3-0.7,3.5c0,0.1,0,0.1,0,0.2c-0.9,4.4-1.7,8.9-2.6,13.3
	c-0.7,3.4-1.4,6.8-2.1,10.2c-0.1,0.3-0.1,0.6-0.2,1c-0.3,1.2-0.5,2.5-0.8,3.7c-1.1,4.9-2.1,9.8-3.2,14.7c-0.4,1.7-0.7,3.3-1,5
	c-0.3,1.3-0.6,2.6-0.9,4c-0.1,0.4-0.2,0.8-0.3,1.2c-0.2,1.2-0.5,2.4-0.8,3.6c-0.8,3.6-1.6,7.1-2.4,10.7c-1.3-0.3-2.6-0.6-3.9-0.9
	c0.1-0.2,0.1-0.4,0.1-0.6c1.9-7.3,3.4-14.7,4.9-22.1c1.9-9.2,4.1-18.3,5.9-27.6c2.2-10.8,3.7-21.6,5.6-32.4c1.4-7.8,3.4-15.7,3-23.6
	c-0.2-4-0.9-8-1.4-12c-0.7-5.2-1.4-10.5-1.8-15.8c-0.8-11-0.5-22-0.2-32.9c0.4-10.6,0.6-21.2,2.3-31.6c1.5-9.6,4.3-19,5.8-28.6
	c1.8-10.9,2.3-22,2.5-33.1c0.2-10.9,0.3-21.8,0.1-32.7c-0.2-11.1-0.7-22.2-1.3-33.4c-0.6-11-1.2-22.1-2.2-33.1
	c-0.9-10.8-2.5-21.4-4.1-32.1c-1.7-10.8-3.2-21.7-3.9-32.7c-0.7-10.9-0.7-21.9-0.5-32.8c0.2-10.9,0.7-21.7,1.9-32.6
	c1.2-10.9,3.1-21.7,5.4-32.5c2.2-10.4,4.8-20.7,6.5-31.2c1.7-10.7,2.6-21.5,3.1-32.3c0.5-9.6,0.3-19.1-0.8-28.7
	c-0.4-2.8-0.7-5.7-1.1-8.5c-0.3-2.1-0.9-4.2-1.2-6.4c-0.2-2-0.4-3.9-1-5.8c-0.6-1.7-1.5-3.3-2.1-5c-0.6-1.8-1.2-3.6-1.7-5.5
	c-0.5-1.7-0.1-3.5-0.6-5.2c-0.4-1.2-1.1-2.2-1.6-3.3c-0.6-1.3-0.5-2.4-0.6-3.8c-0.1-1.2-0.4-2.4-0.4-3.6c0-0.2-0.1-0.5-0.1-0.7
	c0.1-0.8,0.2-1.5,0.3-2.3c0.1-0.4,0.1-0.9,0.2-1.3c1.6-10,4.8-21.2,8.1-31.6c0.4-1.3,0.5-2.4,0.6-3.6c0.3-1.8,1-3.8,1.4-5.6
	c0.4-1.7,0.7-3.3,1.2-4.9c1.1-4,1.6-7.9,2.3-11.8c0.3-1.6,0.7-3.4,0.7-4.9c0-1.5,0.3-3,0.4-4.4c0-0.7-0.1-1.3,0-2
	c0.1-0.7,0.4-1.5,0.4-2.2c0.1-1.7-0.1-3.2-0.1-4.8c0.1-1.4,0.4-3,0.4-4.4v-4.7c0-2.7,0-5.3,0-8c0-3.1-0.1-5.9-0.8-8.4
	c-0.7-2.7-1.8-5-1.6-8.5c0.2-3.4-1-5.2-1.9-7.6c-0.8-2.1-1.2-5.2-2.8-6.3c-0.4-0.3-0.8-0.6-1.1-1.1c-0.3-0.4-0.5-0.8-0.8-1.2
	c-0.4-0.7-0.7-1.5-1-2.4c-0.7-1.7-1.9-2.8-2.5-4.5c-0.5-1.5-0.9-3.1-1.4-4.7c-0.5-1.5-0.6-3.4-0.9-5c-0.2-1-0.1-2.3-0.4-3.3
	c-0.3-0.9-0.5-1.8-0.6-2.8c-0.2-1.1-0.7-2-0.7-3.3c0-1.1-0.3-2-0.4-3.1c-0.1-1.2-0.4-2.2-0.6-3.4c-0.6-3.3-0.2-7.6-0.2-11.3
	c0-2.5-0.1-4.8-0.2-7.2c-0.2-6.3,0.4-13.3,1.3-20.3c0.3-2,0.8-4.3,0.8-6.2c0-1.7-0.1-3.3,0.1-5.2c0.3-1.8,0.6-3.6,1-5.4
	c0.3-1.8,0.4-3.5,0.8-5.3c0.4-1.8,1-3.7,1.3-5.5c0.6-3.2,1.6-6.7,2.6-10c0.4-1.5,0.7-2.9,1.2-4.4c0.7-1.9,1.8-4.1,2.7-6.1
	c0.7-1.5,1.6-2.8,2.3-4.2c0.8-1.7,1.6-3.3,2.5-5c1.5-2.8,2.9-5.9,4.6-8.6c1.9-3,3.8-6.1,5.3-9.3c0.8-1.7,1.2-3.4,1.9-5.1
	c0.8-1.8,1.8-3.7,2.4-5.5c1.5-4.1,2.5-8.3,4.1-12.4c0.8-2.2,1.8-4.3,2.3-6.6c0.5-2.1,0.7-4,0.9-6c0.1-1.3,0.3-2.1,0.9-3.4
	c0.4-0.9,0.6-1.8,0.7-2.7c0.2-1.9-0.1-3.4-0.1-5.1c0-1.7,0.1-3.5-0.1-5.1c-0.2-2-0.6-3.7-0.6-5.9c0-3.9-1.1-6.8-1.4-10.4
	c-0.2-1.9-0.1-3.9-0.4-5.6c-0.4-2-0.3-4.2-0.4-6.4c-0.2-2.4-0.5-4.8-0.8-7.1c-0.2-1.7-0.5-3.4-0.8-5c-0.1-0.4-0.1-0.7-0.2-1
	c-0.5-3.7-1.9-6.8-2.8-10.1c-1.1-3.9-2.1-7.6-3.8-10.9c-1.5-2.9-3.3-5.6-4.9-8.4c-2.4-4.5-8.5-7.2-10.5-11.2c-0.8-1.5-2-1.9-2.6-3.6
	c-0.8-2.1-1.8-3.6-2.5-5.7c-0.8-2.2-2.1-3.4-3.1-5.4c-0.8-1.7-1.7-3.5-2.7-4.8c-1.2-1.6-1.7-4.4-2.5-6.8c-0.7-2-1.5-3.9-1.8-6.4
	c-0.4-2.8-1.1-5-1.6-7.6c-0.4-2.3-0.1-6.2-0.1-9c0-3-0.1-11.9-0.1-13.4c0-2,0.1-4.1,0.3-6.1c0-1,0-2.1,0-3.3c0-5.3,0.1-12.9,1-22
	c0.4-4.5,1-9.4,1.9-14.6c0.4-2.6,0.9-5.2,1.3-7.9c0.5-2.7,1-5.5,1.6-8.2c0.6-2.7,1.2-5.7,2-8.5c0.8-2.9,1.7-5.8,2.7-8.6
	c2.1-5.7,4.8-11.4,8.2-16.6c1.7-2.6,3.6-5,5.6-7.4c1-1.2,2-2.4,2.9-3.5c1-1.2,1.6-2.7,2.6-3.8c4.1-4.5,8.7-8.4,13.3-11.9
	c2.3-1.7,4.6-3.4,7-4.9c0.6-0.4,1.1-0.7,1.7-1.2c0.6-0.4,1.1-1,1.7-1.4c1.1-0.9,2.5-1.5,3.7-2c2.6-1.1,5.1-1.8,7.6-2.3
	c2.5-0.6,4.8-1,7.1-1.4c4.6-0.8,8.7-1.3,12.4-1.6c3.7-0.3,6.9-0.5,9.6-0.6c1,0,4.8-1.1,5.7-1.1c1.4,0,3.6-1,4.5-1
	c1,0,25.3-4.3,42.1-5.6C160.5-6.2,668-5.7,668-5.7z"/>
<path class="st16" d="M22.4,632.1c-0.1-0.2-0.1-0.4-0.2-0.6l0.1-0.3C22.3,631.2,22.3,631.6,22.4,632.1z"/>
<linearGradient id="SVGID_13_" gradientUnits="userSpaceOnUse" x1="12.0278" y1="1369.1866" x2="12.5329" y2="1369.1866" gradientTransform="matrix(1 0 0 -1 0 1508.6432)">
	<stop  offset="0" style="stop-color:#6F603E"/>
	<stop  offset="0.1551" style="stop-color:#6A5B39"/>
	<stop  offset="0.3104" style="stop-color:#817251"/>
	<stop  offset="0.519" style="stop-color:#9B8E6F"/>
	<stop  offset="0.6967" style="stop-color:#ADA283"/>
	<stop  offset="0.8211" style="stop-color:#B5AB8C"/>
</linearGradient>
<path class="st17" d="M12.5,140.5l-0.5-0.1c0.1-0.6,0.2-1.3,0.3-1.9c0,0,0-0.1,0-0.1C12.4,139.7,12.5,140.5,12.5,140.5z"/>
</svg>
