<?xml version="1.0" encoding="utf-8"?>
<!-- Generator: Adobe Illustrator 16.0.0, SVG Export Plug-In . SVG Version: 6.00 Build 0)  -->
<!DOCTYPE svg PUBLIC "-//W3C//DTD SVG 1.1//EN" "http://www.w3.org/Graphics/SVG/1.1/DTD/svg11.dtd">
<svg version="1.1" id="Layer_1" xmlns="http://www.w3.org/2000/svg" xmlns:xlink="http://www.w3.org/1999/xlink" x="0px" y="0px"
	 width="83.564px" height="118.82px" viewBox="0 0 83.564 118.82" enable-background="new 0 0 83.564 118.82" xml:space="preserve">
<linearGradient id="SVGID_1_" gradientUnits="userSpaceOnUse" x1="36.5273" y1="316.167" x2="43.8219" y2="-1.562">
	<stop  offset="0.0839" style="stop-color:#D4DF8B"/>
	<stop  offset="0.3009" style="stop-color:#E1D14D"/>
	<stop  offset="0.8449" style="stop-color:#3D3420"/>
	<stop  offset="1" style="stop-color:#564930"/>
</linearGradient>
<path fill-rule="evenodd" clip-rule="evenodd" fill="url(#SVGID_1_)" stroke="#B5AB8C" stroke-width="0.2754" stroke-miterlimit="10" d="
	M76.525,89.455c2.664-1.48,4.729-3.504,6.284-6.023c0.741-1.198,0.811-2.304,0.23-3.617c-2.364-5.345-4.667-10.715-6.921-16.101
	c-2.025-4.839-4.056-9.677-5.902-14.576c-2.386-6.322-3.953-12.817-3.929-19.582c0-0.257-0.145-0.515-0.364-1.251
	c-1.109,1.447-1.879,2.659-2.636,3.885c-2.616,4.246-5.237,8.49-7.882,12.719c-0.277,0.443-0.722,0.795-1.363,1.482
	c-0.489-2.41-1.047-4.41-1.276-6.443c-0.415-3.707-0.63-7.433-0.939-11.148c-0.036-0.431,0.138-1.001-0.728-1.092
	c-0.902,1.742-0.963,3.8-2.195,6.167c-0.104-1.343-0.15-2.012-0.208-2.681c-0.322-3.716-0.52-7.446-0.998-11.145
	c-0.836-6.464-2.787-12.673-5.256-18.739c-0.187-0.459-0.193-1.226-1.079-1.169c-0.147,0.149-0.341,0.265-0.412,0.429
	c-3.24,7.578-4.826,15.416-4.159,23.606c0.096,1.174,0.156,2.355,0.312,3.522c0.124,0.923-0.106,1.684-0.595,2.503
	c-1.775,2.973-1.391,5.828,0.77,8.516c0.285,0.354,0.872,0.602,0.368,1.42c-0.895,0-1.93,0.03-2.962-0.009
	c-1.014-0.038-2.096,0.279-2.998-0.422c0.109-7.546-1.037-12.357-3.594-14.799c-1.294,1.972-1.911,4.12-2.315,6.34
	c-0.405,2.217,0.378,4.213,1.574,6.296c-0.972,0.044-1.688,0.082-2.405,0.106c-2.136,0.068-4.126,0.655-5.907,1.722
	c-4.155,2.487-6.232,6.037-5.555,10.709c0.436,3.007,1.942,5.574,4.479,7.536c0.708,0.547,1.421,1.089,2.048,1.571
	c-1.204,8.8-0.632,17.213,3.017,25.206c6.599,2.69,9.06,4.631,10.47,8.205c-2.717-0.39-13.472-3.627-15.715-4.754
	C18.5,79.453,15.08,72.79,7.756,67.979c3.555-6.605,3.921-9.609,1.615-13.135c-2.375,0.238-3.997,1.474-4.881,3.53
	c-0.503,1.171-0.893,2.408-1.138,3.65c-0.482,2.443-0.193,4.893,0.157,7.333c0.182,1.263,0.38,2.528,0.438,3.799
	c0.235,5.242-0.053,6.116-3.179,10.183c3.948,0.981,8.048,0.654,12.219,1.603c-0.39,0.531-0.574,1.059-0.947,1.241
	c-1.19,0.584-2.424,1.115-3.691,1.522c-1.079,0.346-2.247,0.435-3.343,0.742C3.043,89,1.384,89.976,0.473,91.801
	c-0.754,1.516-0.213,2.987,1.407,3.683c0.65,0.278,1.39,0.386,2.096,0.536c3.137,0.676,3.138,0.671,4.345,3.557
	c3.506-0.124,6.72-1.855,10.223-2.003c1.131,3.436,0.257,4.677-3.078,4.677c-4.989,0.001-9.979,0.001-14.968,0.031
	c2.439,2.625,4.953,5.262,7.383,8.058c0.407,0.767,0.815,1.579,1.245,2.404c1.331-0.322,2.55-0.958,3.65-1.849
	c0.44-0.356,0.935-0.653,1.547-1.077c0.387,1.142,0.701,2.07,1.015,2.999c0.318,0.935,0.651,1.865,0.955,2.805
	c0.289,0.893,0.425,1.85,1.368,2.879c0.41-4.139-0.303-7.941,0.151-11.774c4.077-1.188,8.04-2.343,12.216-3.561
	c0.276,1.045,0.549,1.874,0.711,2.722c0.5,2.606,0.939,5.224,1.448,7.829c0.136,0.707,0.434,1.386,0.769,2.422
	c1.364-4.124,1.561-8.074,2.832-11.802c2.25,0.181,3.35,1.741,4.742,2.909c3.591-8.947,3.848-9.39,6.475-11.167
	c0.075,0.068,0.205,0.127,0.22,0.205c0.903,4.924,0.811,9.934,1.358,15.161c0.871-1.022,0.82-2.006,0.895-2.957
	c0.304-3.918,0.682-7.833,0.893-11.755c0.105-1.968,0.987-3.287,2.77-4.262c2.834-1.549,5.788-2.685,9.086-2.93
	c0.474-0.035,0.942-0.13,1.65-0.231c-0.578-1.049-1.39-1.453-2.219-1.832c-1.231-0.565-2.516-0.848-3.902-0.942
	c-2.644-0.18-4.736,1.129-6.957,2.232c-0.686-4.819,4.305-15.107,8.773-17.852c-0.052,0.677-0.005,1.236-0.147,1.752
	c-0.891,3.228-1.836,6.443-2.734,9.669c-0.149,0.534-0.175,1.098-0.265,1.696c2.438,0.438,4.713,0.697,6.892,1.28
	c2.178,0.582,4.259,1.486,6.238,2.196c1.372-0.997,2.587-2.079,3.992-2.857c1.862-1.033,3.269-1.062,5.158-0.421
	c-1.207,0.969-2.552,1.467-3.776,2.13c-1.356,0.731-2.722,1.449-4.09,2.165c-1.275,0.667-2.562,1.317-3.837,1.983
	c-1.368,0.714-2.732,1.434-4.094,2.156c-1.272,0.674-2.559,1.329-3.806,2.041c-1.273,0.729-2.786,1.14-4.016,2.411
	c1.612,0.821,3.266,0.306,4.938,0.905c-0.884,0.784-1.569,1.345-2.196,1.958c-1.486,1.45-2.491,3.141-2.745,5.174
	c-0.123,0.972,0.205,1.525,1.149,1.833c1.813,0.592,3.664,0.765,5.535,0.25c0.886-0.244,1.754-0.536,2.805-0.86
	c0.067,0.81,0.135,1.477,0.177,2.145c0.154,2.47,0.671,4.858,1.762,7.124c0.189,0.396,0.448,0.633,1.047,0.376
	c0.459-3.143,0.203-6.333-0.316-9.695c1.252,0.389,2.216,0.733,3.204,0.986c2.434,0.625,4.796,0.354,6.929-0.888
	c2.451-1.426,4.209-4.635,1.132-7.781c-0.794-0.811-1.698-1.447-2.836-1.76c-0.665-0.184-1.329-0.378-2.187-0.622
	c1.745-2.135,4.303-3.26,6.19-5.612c-2.104,0.166-3.77,0.299-5.434,0.431C74.938,90.312,75.737,89.894,76.525,89.455z M9.7,78.04
	c-0.284-0.388-0.592-0.616-0.566-0.809c0.079-0.641,0.585-1.014,1.229-0.997c0.224,0.004,0.66,0.662,0.612,0.718
	C10.635,77.337,10.192,77.643,9.7,78.04z M46.687,78.714c-0.392,0.035-0.783,0.061-1.177,0.085c0.005-0.143,0.01-0.285,0.015-0.429
	c0.391,0.049,0.78,0.098,1.169,0.156C46.701,78.527,46.694,78.714,46.687,78.714z M46.172,42.995
	c0.178,0.299,0.286,0.795,0.138,1.058c-0.133,0.236-0.669,0.41-1.009,0.384c-1.021-0.079-1.981-0.384-2.979-1.293
	c0.184-0.64,0.338-1.179,0.473-1.653c0.312-0.092,0.514-0.222,0.684-0.189C44.622,41.507,45.589,42.021,46.172,42.995z
	 M44.237,57.654c-0.728,0.166-1.471-0.183-1.44-0.655c0.039-0.618,0.559-0.783,1.025-0.897c0.763-0.186,1.548-0.578,2.352-0.057
	C45.96,57.05,45.179,57.438,44.237,57.654z M46.162,62.919c-0.174,0.29-0.506,0.592-0.834,0.679
	c-0.346,0.091-0.765-0.064-1.425-0.145c0.336-0.557,0.479-1.026,0.81-1.262c0.23-0.161,0.757-0.081,1.079,0.049
	C45.995,62.321,46.239,62.786,46.162,62.919z M43.363,26.331c0.974,0.044,1.163,0.69,1.103,1.2
	c-0.188,1.625-0.503,3.238-0.813,4.848c-0.049,0.261-0.319,0.483-0.676,0.992C41.787,30.675,42.343,28.491,43.363,26.331z
	 M42.688,48.557c0.058-0.214,0.415-0.46,0.668-0.497c0.245-0.037,0.651,0.102,0.779,0.289c0.734,1.08,0.683,2.899-0.096,3.845
	c-0.471,0.569-1.062,0.928-2.277,0.405C42.076,51.19,42.345,49.865,42.688,48.557z M30.545,76.319
	c-1.053,1.072-1.566,2.407-2.355,3.604c-0.136,0.208-0.499,0.283-1.185,0.646c-0.101-2.715,1.081-4.354,2.86-5.707
	C30.704,75.209,30.96,75.895,30.545,76.319z M32.306,86.143c-0.441-0.583-0.82-1.021-1.124-1.501
	c-0.256-0.403-0.053-0.814,0.363-0.921c0.338-0.087,0.896-0.034,1.105,0.177C33.264,84.518,33.449,85.237,32.306,86.143z
	 M29.432,60.294c-0.208-0.636,0.324-0.805,0.727-1.101c0.978-0.719,2.04-1.38,2.844-2.248c1.478-1.595,1.443-3.327,0.196-5.092
	c-0.511-0.724-1.052-1.471-1.341-2.283c-1.083-3.04,1.176-5.959,4.648-6.085c0.146-0.005,0.301,0.21,0.589,0.425
	c-0.228,0.284-0.397,0.663-0.699,0.838c-0.524,0.302-1.153,0.438-1.698,0.714c-0.763,0.39-0.977,1.384-0.416,2.028
	c0.318,0.367,0.739,0.687,1.176,0.925c0.442,0.241,0.951,0.396,1.451,0.518c3.569,0.867,3.777,5.062,1.362,7.062
	c-0.847,0.702-1.865,1.222-3.194,2.075c1.257,0.606,2.245,1.085,3.266,1.579C36.511,61.579,33.237,61.775,29.432,60.294z
	 M37.842,64.033c-0.313,2.447-0.313,2.447-2.013,4.027c-0.897-1.046-0.808-2.124-0.295-3.227
	C35.804,64.256,36.235,64.125,37.842,64.033z M22.604,98.316c0.562-1.93,1.531-2.764,3.095-3.004
	c0.889-0.138,1.56,0.619,1.315,1.459c-0.238,0.819-0.788,1.397-1.658,1.521C24.578,98.403,23.77,98.316,22.604,98.316z
	 M30.93,100.984c-1.848,0.302-3.358,1.978-5.656,1.255c0.736-1.247,1.945-1.649,3.027-2.118c1.58-0.684,3.2-1.347,5.2-1.174
	C32.993,100.21,31.958,100.816,30.93,100.984z M36.131,78.63c-1.879-2.409-2.115-4.388-0.719-6.745
	c0.87,0.505,1.736,1.007,2.69,1.561c1.083-0.919,0.825-2.703,2.494-3.312c0.559,0.458,1.172,0.96,1.776,1.456
	c0.859-0.641,1.661-1.255,2.484-1.841c0.149-0.106,0.389-0.103,0.585-0.148c1.17,1.703,1.17,1.703,0.154,4.109
	c-1.786,0.286-3.899,0.119-5.487,1.341C38.694,76.14,37.45,77.43,36.131,78.63z M41.528,91.787c0.956,2.346,0.86,4.778-0.943,7.301
	c-1.116-1.303-1.312-2.574-1.628-3.791c-0.82-3.158-1.069-6.364-0.799-9.607c0.107-1.291,0.457-2.514,1.185-3.609
	c0.671-1.013,1.538-1.781,3.197-1.773c-0.121,1.602-0.506,3.004-1.005,4.349C40.644,87.054,40.528,89.337,41.528,91.787z
	 M47.645,90.953c-0.163,0.664-0.689,1.14-1.729,1.191c0.054-0.653,0.036-1.292,0.18-1.896c0.11-0.466,0.988-0.825,1.182-0.549
	C47.523,90.051,47.738,90.573,47.645,90.953z M47.55,84.328c-1.082,0.896-2.267,1.281-3.981,0.557
	c0.659-1.137,1.513-1.688,2.426-2.078c0.353-0.15,0.973,0.077,1.39,0.281C47.887,83.334,47.932,84.012,47.55,84.328z M55.334,53.182
	c0.174-0.62,0.603-1.213,1.05-1.714c0.19-0.211,0.718-0.153,1.18-0.233c0.158,0.485,0.352,0.843,0.38,1.209
	c0.135,1.839,0.228,3.68,0.354,5.89c-1.593-0.384-2.173-1.141-2.63-2.021C55.148,55.31,55.039,54.23,55.334,53.182z M56.263,69.896
	c-1.82,1.248-2.874,1.577-5.185,1.657c-0.555-0.974-0.233-1.835,0.399-2.68c0.708-0.947,1.792-1.316,2.89-1.591
	c1.262-0.314,2.571-0.669,3.944,0.119C58.132,68.698,57.16,69.281,56.263,69.896z M60.636,60.864
	c-2.319,1.104-4.618,2.261-7.007,3.22c-2.604,1.044-3.889,0.201-4.117-2.518c-0.149-1.759-0.321-3.519-0.354-5.282
	c-0.019-0.964,0.119-1.96,0.389-2.891c0.361-1.257,0.718-1.437,3.126-2.116c-0.286,1.296-0.569,2.225-0.676,3.172
	c-0.121,1.06-0.266,2.168-0.075,3.201c0.585,3.183,3.586,4.464,6.529,2.842c0.832-0.457,1.573-0.993,2.613-0.33
	C60.925,60.405,60.85,60.764,60.636,60.864z M62.63,49.558c-0.193,0.271-0.654,0.56-0.948,0.522
	c-0.284-0.035-0.689-0.464-0.72-0.751c-0.059-0.542,0.086-1.112,0.209-1.657c0.028-0.125,0.315-0.196,0.544-0.326
	c0.224,0.112,0.536,0.189,0.725,0.378C62.989,48.272,63.071,48.941,62.63,49.558z M67.978,55.225
	c-0.151-0.447-0.226-0.919-0.474-1.972c3.243,2.697,3.441,4.475,1.429,8.242c0.048,1.179,0.944,1.908,1.684,2.72
	c0.678,0.744,1.426,1.438,2.032,2.229c0.886,1.155,1.094,2.419,0.385,4.067c-0.822-1.095-1.4-1.981-2.1-2.774
	c-0.73-0.829-1.604-1.54-2.362-2.349c-1.029-1.097-1.447-2.359-0.985-3.816c0.147-0.47,0.222-0.96,0.378-1.427
	C68.512,58.505,68.532,56.87,67.978,55.225z M65.339,70.488c0.471,0.509,0.891,0.764,0.891,1.021
	c0.002,0.261-0.412,0.522-0.642,0.783c-0.223-0.181-0.601-0.344-0.627-0.548C64.92,71.445,65.132,71.116,65.339,70.488z
	 M74.758,79.868c-2.303,1.426-8.33,2.042-11.409,1.167c0.064-0.176,0.074-0.407,0.202-0.518c2.346-2.031,5.205-2.781,8.294-2.716
	c0.979,0.019,1.965,0.482,2.906,0.837C75.227,78.817,75.185,79.603,74.758,79.868z M61.576,102.34
	c-0.169-0.018-0.404-0.148-0.465-0.284c-0.194-0.437,0.354-1.11,0.983-1.154c0.209-0.014,0.438,0.247,0.59,0.343
	C62.73,101.989,62.27,102.409,61.576,102.34z M68.961,102.171c-0.04,0.095-0.378,0.15-0.547,0.108
	c-0.719-0.174-1.271-0.893-1.062-1.49c0.103-0.291,0.499-0.494,0.933-0.894c0.398,0.508,0.79,0.828,0.918,1.226
	C69.301,101.424,69.105,101.836,68.961,102.171z"/>
</svg>
