<?xml version="1.0" encoding="utf-8"?>
<!-- Generator: Adobe Illustrator 16.0.0, SVG Export Plug-In . SVG Version: 6.00 Build 0)  -->
<!DOCTYPE svg PUBLIC "-//W3C//DTD SVG 1.1//EN" "http://www.w3.org/Graphics/SVG/1.1/DTD/svg11.dtd">
<svg version="1.1" id="Layer_1" xmlns="http://www.w3.org/2000/svg" xmlns:xlink="http://www.w3.org/1999/xlink" x="0px" y="0px"
	 width="316.861px" height="1242.427px" viewBox="0 46.712 316.861 1242.427" enable-background="new 0 46.712 316.861 1242.427"
	 xml:space="preserve">
<path opacity="0.4" fill="#9D1B36" d="M17.684,402.58c-0.56,0.05-1.12,0.1-1.67,0.04c-0.38-0.04-0.76-0.13-1.08-0.36
	c-0.2-0.14-0.38-0.35-0.42-0.609c-0.02-0.221,0.07-0.42,0.16-0.601l0.85-0.27c0.9-0.11,1.8-0.21,2.71-0.21
	c0.94,0,1.89,0.09,2.83,0.25c0.91,0.16,1.82,0.38,2.71,0.62c0.8,0.199,1.59,0.42,2.38,0.67c0.77,0.239,1.53,0.52,2.26,0.88
	c0.85,0.41,1.67,0.92,2.45,1.479c0.76,0.55,1.49,1.141,2.17,1.8c0.22,0.221,0.44,0.45,0.63,0.7c0.07,0.09,0.24,0.3,0.2,0.44
	c-0.13,0.479-2.99-1.37-3.22-1.521c-1.38-0.859-2.75-1.79-4.25-2.37c-1.38-0.539-2.85-0.8-4.31-0.949
	C20.615,402.43,19.155,402.47,17.684,402.58z"/>
<path opacity="0.4" fill="#9D1B36" d="M67.304,400.29c-0.4,0.63,0.45,1.05,0.61,2.3c0.16,1.26-0.24,1.811-1.08,2.061
	c-0.84,0.26-1.82,0.81-0.87,1.93c0.95,1.13,1.23,1.3,1.53,1.59s-1.15,0.34-1.91,0.89c-0.77,0.551-1.66-0.119-1.12,1.721
	c0.55,1.84,1.2,1.25,1.11,1.04s0.76,0.51-0.79,1.18c-1.56,0.68-0.91,0.55-1.27,2.1c-0.35,1.561,0.45,2.681-0.77,3.69
	c0,0-1.43-0.79-2.39-1.83s-1.62-1.42-2.82-1.33c-1.19,0.09-1.2,0.18-0.86,0.8c0.34,0.63,1.23,1.96,2.78,3.011
	c1.56,1.04,2.4,4.51,3.66,5.85c1.27,1.33,2.57,3.96,3.67,5.76s0.24,6.71-0.42,7.3c-0.66,0.58-0.95,1.931-2.3,3.061
	c-1.34,1.14-0.57,2.6-0.65,4.03c-0.04,0.569-0.16,0.989-0.29,1.279c-0.2,0.42-0.44,0.54-0.48,0.311c-0.07-0.38-1.09-1.21-2.53-1.62
	c-1.43-0.41-2.04,0.72-2.32-0.41c-0.28-1.13-0.31-1.25-0.62-1.08c-0.32,0.16-0.96,1.93-1.97,2.43c-1.02,0.511-1.55,0.301-2.15-0.659
	s-0.88-0.08-1.92-1.12c-1.03-1.04-0.36-1.801,0.36-3.65c0.23-0.58,0.39-0.88,0.5-1.03c-0.18-0.1-0.44-0.27-0.8-0.6
	c-0.75-0.67-0.19-0.63-0.12-2.34c0.08-1.73,0.71-6.54,0.81-8.521c0.11-1.97-1.82-3-3.1-2.83c-1.27,0.17-1,0.42-1.44,2.73
	c-0.43,2.31,1.79,3.34,3.1,4.56c1.31,1.21,0.44,0.74-0.27,1.091c-0.7,0.329,0.03,1.079-0.57,2.51c-0.6,1.43-0.02,1.6-1.02,2.6
	c-1,1.021-0.84,0.26-2.06-0.83c-1.21-1.08-0.79-0.54-2.1-0.109c-1.3,0.43-1.07,0.34-2.7-0.99c-1.63-1.34-0.9-0.29-1.67,0.05
	c-0.78,0.33-0.33,1-1.53,1.39c-1.18,0.381-1.83-0.83-3.53-1.199c-1.7-0.37-1.69,2.6-1.88,1.97c-0.19-0.62-0.3-0.37-1.91-1.87
	s0,0-1.77,0.6c-1.76,0.591-3.72,1.9-3.65,0.931c0.06-0.96-1.55-1.41-3.14-3.46c-1.6-2.051-1.05,0.09-2.06-0.83
	c-1.01-0.92-0.12-2.351-0.27-3.69c-0.15-1.33-3.06-1.16-1.43-1.83c1.63-0.68,2.09-0.47,2.35-1.189c0.26-0.71-1.16-0.25,0.5-1.55
	c1.66-1.311,0.16-1.131,2.39-2.57c2.23-1.43,2.57-7.97,2.57-7.97s0.14-2.971,0.7-5.11c0.57-2.15-2.84-3.76-1.13-3.85
	c1.71-0.101,11.63,3.38,11.63,3.38s2.07,0.659,2.03,0.409c-0.03-0.14-0.3-0.479-0.57-0.989c-0.22-0.431-0.45-0.99-0.52-1.65
	c-0.14-1.42-1.83-2.92-3.34-4.38c-1.51-1.46-1.61-1.5-2.16-1.83c-0.56-0.34-1.2-0.29-1.72-1.25c-0.53-0.97-2.85-0.33-2.85-0.33
	s0.68-0.84,1.3-1.47c0.63-0.63,0.07-0.96,2.81-2.021c2.75-1.06,0.6-1.06,0.18-2.35c-0.41-1.3-0.83-1.17,0.13-1.47
	c0.95-0.3,0.95-1.261,0.96-2.771c0.02-1.51,1.19-3.729,3.12-3.45c1.93,0.29,3.87-2.279,6-2.409c2.13-0.141,2.19,0.989,3.21,1.83
	c1.02,0.829,1.65,2.5,2,3.34c0.36,0.83,0.15,1.72,0.49,2.72c0.33,1,1.28,0.79,2.05,0.16c0.77-0.641-0.07-1.05,0.9-0.38
	c0.96,0.66,2.85-1.021,3.32-0.98c0.48,0.04,1.62,1.12,2.43,1.87s3.31,0.82,3.91,0.82c0.59,0,0.77,0.71,1.68,1.96
	c0.89,1.25,0,0.3,2.23,0.58c2.23,0.279,2.1,1.08,2.75,1.62C68.874,398.48,67.715,399.66,67.304,400.29z"/>
<path fill="#D6A3B0" d="M-4.342,46.708l-12.708,1228.43h8.907c0.206-1.18,0.539-3.07,0.981-5.61c0.356-2.01,0.776-4.439,1.267-7.239
	c0.079-0.41,0.143-0.82,0.214-1.23c0.229-1.32,0.459-2.64,0.681-3.97c0.396-2.311,0.823-4.82,1.274-7.51
	c0.815-4.75,1.726-10.07,2.692-15.9c0.055-0.33,0.111-0.65,0.167-0.97c0.736-4.44,1.504-9.17,2.304-14.181
	c0.475-3.01,0.974-6.1,1.48-9.29c0.016-0.069,0.023-0.13,0.031-0.199c0.499-3.131,1.005-6.351,1.497-9.67
	c0.744-5.011,1.512-10.211,2.193-15.631c0.024-0.199,0.055-0.399,0.079-0.609c0.214-1.71,0.412-3.44,0.602-5.19
	c0.087-0.979,0.174-1.97,0.27-2.95l0.126-1.489l0.071-1.44l0.071-1.439c0.016-0.16,0.016-0.33,0.016-0.5v-0.341l-0.008-0.76
	c-0.016-1.01-0.008-2.05-0.056-3.03c-0.079-3.949-0.166-7.97-0.261-12.06c-0.008-0.26-0.008-0.51-0.016-0.771
	c-0.15-7.88-0.673-15.93-1.354-24.189c-0.023-0.28-0.047-0.57-0.071-0.85c-0.15-1.851-0.309-3.721-0.427-5.601
	c-0.15-2.16-0.333-4.34-0.412-6.54c-0.071-2.189-0.166-4.399-0.182-6.62c-0.007-1.819,0.016-3.66,0.04-5.5v-0.06
	c0.008-0.38,0.008-0.76,0.016-1.141c0.166-7.279,0.562-14.71,1.354-22.1c0.175-1.71,0.373-3.42,0.602-5.13
	c0.159-1.13,0.325-2.26,0.483-3.39l0.238-1.7c0.095-0.57,0.222-1.15,0.324-1.73c0.27-1.38,0.539-2.76,0.808-4.14
	c0.174-0.91,0.356-1.83,0.531-2.75c1.021-4.78,1.678-9.61,2.209-14.47c0.19-1.7,0.356-3.41,0.507-5.13
	c0.008-0.07,0.008-0.131,0.016-0.19c0.721-7.99,1.093-16.07,1.362-24.19c0.063-2.06,0.119-4.119,0.167-6.18
	c0.008-0.37,0.016-0.74,0.023-1.11c0.206-9.3,0.238-18.659,0.127-28.04c-0.087-8.26-0.285-16.529-0.555-24.8
	c-0.055-1.569-0.111-3.14-0.166-4.71c-0.309-8.439-0.681-16.859-1.18-25.26c-0.008-0.08-0.008-0.16-0.016-0.24
	c-0.467-7.88-1.037-15.729-1.75-23.54c-0.19-2.08-0.388-4.149-0.602-6.22c-0.135-1.24-0.277-2.48-0.443-3.75
	c-0.158-1.31-0.34-2.42-0.531-3.72c-0.15-0.931-0.301-1.86-0.451-2.79c-0.229-1.46-0.451-2.92-0.657-4.38
	c-0.356-2.391-0.665-4.78-0.974-7.16c-0.261-2.391-0.578-4.771-0.8-7.15c-0.167-1.58-0.317-3.16-0.451-4.729
	c-0.08-0.801-0.15-1.601-0.214-2.41c-0.594-7.12-0.974-14.21-1.108-21.21c-0.072-2.33-0.047-4.66-0.079-6.97
	c-0.008-1.04-0.016-2.08-0.032-3.11v-0.36c0.016-0.59,0.024-1.17,0.032-1.76c0.007-0.56,0.016-1.13,0.023-1.69
	c0.008-0.229,0.008-0.449,0.016-0.68c0.04-2.06,0.095-4.13,0.135-6.17c0.119-2.27,0.237-4.52,0.364-6.77
	c0.063-1.12,0.134-2.23,0.206-3.351c0.095-1.109,0.19-2.22,0.285-3.32c0.19-2.21,0.388-4.409,0.578-6.59
	c0.111-1.26,0.253-2.52,0.404-3.77c0.103-0.91,0.214-1.811,0.309-2.72c0.237-2.141,0.467-4.28,0.705-6.391
	c0.277-2.109,0.562-4.21,0.839-6.29c0.277-2.069,0.507-4.149,0.792-6.189c0.412-2.66,0.8-5.29,1.172-7.9
	c0.206-1.38,0.404-2.74,0.594-4.1c1.314-7.86,2.589-15.45,3.808-22.74c0.016-0.09,0.032-0.19,0.048-0.29
	c0.673-3.71,1.077-7.41,1.576-11c0.237-1.79,0.491-3.57,0.697-5.33c0.174-1.76,0.348-3.51,0.522-5.229
	c0.167-1.73,0.333-3.431,0.491-5.11c0.111-1.14,0.174-2.271,0.238-3.39c0.032-0.54,0.063-1.07,0.103-1.601
	c0.189-3.28,0.459-6.46,0.506-9.56c0.206-5.12,0.253-9.971,0.174-14.53c-0.008-0.32-0.016-0.64-0.024-0.95
	c-0.016-1.01-0.047-2.03-0.087-3.04v-0.13c-0.016-0.61-0.04-1.21-0.063-1.81c-0.024-0.601-0.056-1.19-0.079-1.78
	c-0.016-0.46-0.04-0.93-0.071-1.39c-0.04-0.7-0.079-1.4-0.126-2.11c-0.135-2.22-0.293-4.35-0.475-6.37
	c-0.847-8.86-2.059-15.75-3.135-20.37c-0.103-0.41-0.198-0.8-0.285-1.18c-0.166-0.69-0.325-1.311-0.459-1.88
	c-0.245-0.87-0.443-1.61-0.609-2.2c-0.19-0.62-0.333-1.08-0.428-1.39c-0.04-0.11-0.111-1.061-0.182-2.181
	c-0.396-1.83-0.784-3.67-1.156-5.52c-0.238-1.19-0.467-2.38-0.697-3.58c-0.198-0.72-0.412-1.44-0.618-2.15
	c-0.341-1.18-0.689-2.359-1.053-3.52c-0.546-1.74-0.388-4.19-0.412-6.49c-0.095-8.37,2.272-17.63,4.616-27.09
	c0.736-2.95,1.734-6.34,2.122-9.17c0.388-2.82,0.887-5.721,1.401-8.63c1.077-6.03,2.185-12.08,3.199-18.101
	c1.615-9.58,2.676-18.729,3-27.56c0.277-7.641,0.167-15.09-0.412-21.97c-0.127-1.511-0.42-2.87-0.625-4.301
	c-0.198-1.35-0.436-2.77-0.792-3.899c-0.578-1.84-1.306-3.48-1.702-5.59c-0.095-0.511-0.198-0.99-0.293-1.49
	c-0.103-0.51,0.032-1.22-0.056-1.71c-0.158-0.86-0.538-1.67-0.808-2.46c-0.538-1.58-0.958-3.261-1.56-4.681
	c-0.356-0.84-0.641-1.779-0.974-2.659c-0.317-0.851-0.76-1.631-1.014-2.601c-0.214-0.85-0.34-1.88-0.57-2.68
	c-0.254-0.86-0.531-1.66-0.808-2.46c-0.309-0.87-0.705-1.601-0.99-2.5c-0.285-0.9-0.364-2.04-0.649-2.86
	c-0.475-1.38-0.776-2.95-1.172-4.43c-0.277-1.021-0.443-2.09-0.649-3.16c-0.539-2.79-0.8-5.89-0.602-9.37
	c0.213-3.78-0.57-6.729-0.5-10.42c0.072-3.76,0.016-7.43,0.008-11.13c0-3.67,0.055-7.4,0-11.04c-0.047-3.51,0.483-7.521,1.235-11.53
	c0.237-1.29,0.538-2.3,0.57-3.479c0.04-1.391,0.087-2.78,0.182-4.21c0.182-2.83,0.499-5.78,1.093-8.84
	c0.863-4.421,2.351-9.021,3.642-13.511c0.689-2.399,1.639-4.7,2.431-7.09c0.934-2.82,1.757-5.51,2.795-8.31
	c1.52-4.141,3.658-7.811,5.368-11.84c1.543-3.65,3.23-6.99,4.568-10.801c1.093-3.11,2.003-6.31,2.914-9.45
	c2.225-7.66,4.22-15.5,5.004-22.76c0.222-2.02,0.356-4,0.38-5.9c0.056-4.81-0.095-9.46-0.032-14.28
	c0.135-10.04-1.101-18.69-2.763-26.87c-0.617-3.07-1.108-6.4-1.449-9.78c-0.167-1.67-0.246-3.44-0.42-5.09
	c-0.19-1.73-0.609-3.19-0.887-4.81c-0.562-3.35-1.766-5.66-2.803-8.38c-0.538-1.4-0.998-2.86-1.433-4.4
	c-0.404-1.38-1.108-2.28-1.512-3.65c-0.34-1.14-0.42-2.74-1.116-3.54c-0.364-0.42-0.61-0.99-0.942-1.45
	c-0.372-0.51-0.808-0.9-1.132-1.47c-0.427-0.75-0.697-1.65-1.092-2.43c-0.419-0.83-0.982-1.49-1.481-2.23
	c-1.164-1.72-2.05-3.74-3.072-5.62c-1.227-2.26-2.415-4.5-3.824-6.53c-2.288-3.31-4.109-7.33-5.526-11.53
	c-0.61-1.82-1.346-3.62-2.075-5.36c-0.854-2.02-1.385-4.33-1.829-6.6c-0.427-2.17-0.609-4.42-1.045-6.59
	c-0.143-0.71-0.111-1.32-0.134-2.04c-0.04-1.09-0.143-2.13-0.483-3.1c-0.309-0.86-0.341-1.86-0.412-2.8
	c-0.159-2.12-0.206-4.27-0.167-6.4c0.016-0.93,0.048-1.88,0.158-2.8c0.325-2.66,0.539-5.37,0.895-8.02
	c0.28-2.089,0.567-4.739,0.937-6.854c0.003-2.969,1.984-6.23,3.888-8.875c-0.165-0.157-0.336-0.312-0.494-0.472
	c0.942-2.57,1.592-5.33,2.399-7.98c0.388-1.25,0.768-2.79,1.497-3.71c0.8-1.02,1.314-2.61,1.9-3.89
	c0.769-1.65,1.576-3.27,2.399-4.87c0.839-1.65,2.098-3.31,3.452-4.01c1.045-0.54,2.114-0.85,3.096-1.63
	c0.895-0.71,1.591-1.83,2.486-2.54c0.388-0.3,0.799-0.24,1.172-0.57c0.443-0.41,0.839-0.91,1.306-1.28
	c0.364-0.29,0.808-0.45,1.195-0.69c0.491-0.29,0.982-0.58,1.465-0.9c0.475-0.31,0.958-0.44,1.457-0.66
	c0.333-0.15,0.673-0.21,1.014-0.27c0.443-0.09,0.863-0.29,1.299-0.39c0.411-0.09,0.815-0.1,1.211-0.25
	c0.586-0.21,1.14-0.55,1.718-0.8c0.554-0.25,1.124-0.43,1.663-0.75c0.697-0.41,1.267-1.15,1.964-1.58
	c0.625-0.39,1.274-0.74,1.908-1.09c0.07-0.039,0.147-0.069,0.22-0.105c0.663-1.13,1.873-1.595,3.268-1.998
	c0.192-0.275,0.372-0.567,0.581-0.817c0.396-0.47,0.895-0.73,1.394-0.92c0.697-0.26,1.409-0.49,2.082-0.85
	c1.441-0.78,2.842-1.61,4.395-1.82c0.665-0.09,1.338,0.02,2.003-0.04c0.539-0.05,1.061-0.23,1.6-0.31
	c1.274-0.18,2.557-0.48,3.848-0.53c0.491-0.01,0.99,0.07,1.481,0.01c0.539-0.06,1.037-0.44,1.552-0.62
	c0.808-0.27,1.567-0.8,2.383-1.04c0.911-0.28,1.797-0.68,2.708-0.92c1.006-0.27,2.019-0.68,2.922-1.36
	c0.942-0.72,2.059-0.97,3.048-1.54c1.266-0.72,2.494-1.63,3.57-2.83c1.069-1.2,1.837-2.17,3.144-2.93
	c1.781-1.02,3.563-2.04,5.344-3.05c1.457-0.82,2.914-1.64,4.378-2.42c5.463,5.69,9.754,3.69,12.24-5.78
	c0.008-0.03,0.016-0.05,0.016-0.08c2.748-1.23,5.503-2.46,8.187-3.79c2.914-1.43,5.764-2.92,8.638-4.37
	c0.079,0.03,0.166,0.06,0.253,0.09c0.071-0.1,0.143-0.21,0.198-0.32c0.562-0.28,1.116-0.56,1.679-0.83H-4.342z"/>
<g>
	<linearGradient id="SVGID_1_" gradientUnits="userSpaceOnUse" x1="14.5115" y1="404.0293" x2="33.8704" y2="404.0293">
		<stop  offset="0.1789" style="stop-color:#B5AB8C"/>
		<stop  offset="0.3033" style="stop-color:#ADA283"/>
		<stop  offset="0.481" style="stop-color:#9B8E6F"/>
		<stop  offset="0.6896" style="stop-color:#817251"/>
		<stop  offset="0.8449" style="stop-color:#6A5B39"/>
		<stop  offset="1" style="stop-color:#6F603E"/>
	</linearGradient>
	<path fill="url(#SVGID_1_)" d="M33.865,407.41c-0.13,0.479-2.99-1.37-3.22-1.521c-1.38-0.859-2.75-1.79-4.25-2.37
		c-1.38-0.539-2.85-0.8-4.31-0.949c-1.47-0.141-2.93-0.101-4.4,0.01c-0.56,0.05-1.12,0.1-1.67,0.04c-0.38-0.04-0.76-0.13-1.08-0.36
		c-0.2-0.14-0.38-0.35-0.42-0.609c-0.02-0.221,0.07-0.42,0.16-0.601l0.85-0.27c0.9-0.11,1.8-0.21,2.71-0.21
		c0.94,0,1.89,0.09,2.83,0.25c0.91,0.16,1.82,0.38,2.71,0.62c0.8,0.199,1.59,0.42,2.38,0.67c0.77,0.239,1.53,0.52,2.26,0.88
		c0.85,0.41,1.67,0.92,2.45,1.479c0.76,0.55,1.49,1.141,2.17,1.8c0.22,0.221,0.44,0.45,0.63,0.7
		C33.735,407.06,33.905,407.27,33.865,407.41z"/>
	<linearGradient id="SVGID_2_" gradientUnits="userSpaceOnUse" x1="28.7644" y1="415.5547" x2="68.4231" y2="415.5547">
		<stop  offset="0.1789" style="stop-color:#A2B442"/>
		<stop  offset="0.3168" style="stop-color:#9BAB40"/>
		<stop  offset="0.5137" style="stop-color:#8C963A"/>
		<stop  offset="0.7449" style="stop-color:#757831"/>
		<stop  offset="0.8449" style="stop-color:#6A692C"/>
		<stop  offset="1" style="stop-color:#706F37"/>
	</linearGradient>
	<path fill="url(#SVGID_2_)" d="M67.914,402.59c0.16,1.26-0.24,1.811-1.08,2.061c-0.84,0.26-1.82,0.81-0.87,1.93
		c0.95,1.13,1.23,1.3,1.53,1.59s-1.15,0.34-1.91,0.89c-0.77,0.551-1.66-0.119-1.12,1.721c0.55,1.84,1.2,1.25,1.11,1.04
		s0.76,0.51-0.79,1.18c-1.56,0.68-0.91,0.55-1.27,2.1c-0.35,1.561,0.45,2.681-0.77,3.69c0,0-1.43-0.79-2.39-1.83
		s-1.62-1.42-2.82-1.33c-1.19,0.09-1.2,0.18-0.86,0.8c0.34,0.63,1.23,1.96,2.78,3.011c1.56,1.04,2.4,4.51,3.66,5.85
		c1.27,1.33,2.57,3.96,3.67,5.76s0.24,6.71-0.42,7.3c-0.66,0.58-0.95,1.931-2.3,3.061c-1.34,1.14-0.57,2.6-0.65,4.03
		c-0.04,0.569-0.16,0.989-0.29,1.279c-4.25-15.52-11.35-28.899-23.77-36.939c-0.22-0.431-0.45-0.99-0.52-1.65
		c-0.14-1.42-1.83-2.92-3.34-4.38c-1.51-1.46-1.61-1.5-2.16-1.83c-0.56-0.34-1.2-0.29-1.72-1.25c-0.53-0.97-2.85-0.33-2.85-0.33
		s0.68-0.84,1.3-1.47c0.63-0.63,0.07-0.96,2.81-2.021c2.75-1.06,0.6-1.06,0.18-2.35c-0.41-1.3-0.83-1.17,0.13-1.47
		c0.95-0.3,0.95-1.261,0.96-2.771c0.02-1.51,1.19-3.729,3.12-3.45c1.93,0.29,3.87-2.279,6-2.409c2.13-0.141,2.19,0.989,3.21,1.83
		c1.02,0.829,1.65,2.5,2,3.34c0.36,0.83,0.15,1.72,0.49,2.72c0.33,1,1.28,0.79,2.05,0.16c0.77-0.641-0.07-1.05,0.9-0.38
		c0.96,0.66,2.85-1.021,3.32-0.98c0.48,0.04,1.62,1.12,2.43,1.87s3.31,0.82,3.91,0.82c0.59,0,0.77,0.71,1.68,1.96
		c0.89,1.25,0,0.3,2.23,0.58c2.23,0.279,2.1,1.08,2.75,1.62c0.64,0.54-0.52,1.72-0.93,2.35
		C66.905,400.92,67.755,401.34,67.914,402.59z"/>
	<linearGradient id="SVGID_3_" gradientUnits="userSpaceOnUse" x1="18.3899" y1="427.0625" x2="63.1243" y2="427.0625">
		<stop  offset="0.1789" style="stop-color:#A2B442"/>
		<stop  offset="0.3168" style="stop-color:#9BAB40"/>
		<stop  offset="0.5137" style="stop-color:#8C963A"/>
		<stop  offset="0.7449" style="stop-color:#757831"/>
		<stop  offset="0.8449" style="stop-color:#6A692C"/>
		<stop  offset="1" style="stop-color:#706F37"/>
	</linearGradient>
	<path fill="url(#SVGID_3_)" d="M63.124,446.72c-0.2,0.42-0.44,0.54-0.48,0.311c-0.07-0.38-1.09-1.21-2.53-1.62
		c-1.43-0.41-2.04,0.72-2.32-0.41c-0.28-1.13-0.31-1.25-0.62-1.08c-0.32,0.16-0.96,1.93-1.97,2.43
		c-1.02,0.511-1.55,0.301-2.15-0.659s-0.88-0.08-1.92-1.12c-1.03-1.04-0.36-1.801,0.36-3.65c0.23-0.58,0.39-0.88,0.5-1.03
		c0.18,0.101,0.27,0.11,0.27,0.11s-0.02-0.44-0.27-0.11c-0.18-0.1-0.44-0.27-0.8-0.6c-0.75-0.67-0.19-0.63-0.12-2.34
		c0.08-1.73,0.71-6.54,0.81-8.521c0.11-1.97-1.82-3-3.1-2.83c-1.27,0.17-1,0.42-1.44,2.73c-0.43,2.31,1.79,3.34,3.1,4.56
		c1.31,1.21,0.44,0.74-0.27,1.091c-0.7,0.329,0.03,1.079-0.57,2.51c-0.6,1.43-0.02,1.6-1.02,2.6c-1,1.021-0.84,0.26-2.06-0.83
		c-1.21-1.08-0.79-0.54-2.1-0.109c-1.3,0.43-1.07,0.34-2.7-0.99c-1.63-1.34-0.9-0.29-1.67,0.05c-0.78,0.33-0.33,1-1.53,1.39
		c-1.18,0.381-1.83-0.83-3.53-1.199c-1.7-0.37-1.69,2.6-1.88,1.97c-0.19-0.62-0.3-0.37-1.91-1.87s0,0-1.77,0.6
		c-1.76,0.591-3.72,1.9-3.65,0.931c0.06-0.96-1.55-1.41-3.14-3.46c-1.6-2.051-1.05,0.09-2.06-0.83c-1.01-0.92-0.12-2.351-0.27-3.69
		c-0.15-1.33-3.06-1.16-1.43-1.83c1.63-0.68,2.09-0.47,2.35-1.189c0.26-0.71-1.16-0.25,0.5-1.55c1.66-1.311,0.16-1.131,2.39-2.57
		c2.23-1.43,2.57-7.97,2.57-7.97s0.14-2.971,0.7-5.11c0.57-2.15-2.84-3.76-1.13-3.85c1.71-0.101,11.63,3.38,11.63,3.38
		s2.07,0.659,2.03,0.409c-0.03-0.14-0.3-0.479-0.57-0.989C51.774,417.82,58.874,431.2,63.124,446.72z"/>
</g>
<linearGradient id="SVGID_4_" gradientUnits="userSpaceOnUse" x1="-7.49" y1="404.834" x2="31.5422" y2="404.834" gradientTransform="matrix(1 0 0 -1 0 664.2773)">
	<stop  offset="0.1789" style="stop-color:#A2B442"/>
	<stop  offset="0.3168" style="stop-color:#9BAB40"/>
	<stop  offset="0.5137" style="stop-color:#8C963A"/>
	<stop  offset="0.7449" style="stop-color:#757831"/>
	<stop  offset="0.8449" style="stop-color:#6A692C"/>
	<stop  offset="1" style="stop-color:#706F37"/>
</linearGradient>
<path fill="url(#SVGID_4_)" d="M23.608,257.136c-1.352,0.443-2.759,0.619-4.142,0.916c-0.15-0.436-0.302-0.876-0.451-1.315
	c1.612-3.315,5.967-5.368,3.398-10.75c-1.714-3.597-4.996-5.739-7.576-8.532c-0.081,0.56-0.162,1.12-0.243,1.675
	c-1.312,0.763-2.627,1.532-4.194,2.444c-0.278,3.475-1.91,4.209-4.559,2.955c-0.912-0.437-2.134-0.247-2.936,0.355
	c-1.204,0.901-2.163,2.415-2.692,3.046c-1.453,6.119-3.973,9.933-7.703,13.146c3.375,2.526,6.503,4.872,9.875,7.399
	c0,0.008-0.196,0.975-0.312,1.552c3.247,4.054,5.57,2.142,7.773-0.81c0.396-0.531,0.979-1.035,1.51-1.023
	c0.913,0.011,2.288,0.008,2.676,0.792c0.529,1.062,0.616,3.039,0.34,4.289c-0.333,1.511-1.241,2.669-2.27,4.715
	c2.071,0.678,4.228,0.468,5.421,1.956c2.944,3.688,3.195-0.483,4.471-1.897c0.395-0.437,1.045-0.521,1.599-0.532
	c2.83-0.07,3.223-3.314,3.625-6.317c0.398-2.972-0.451-5.286-2.573-6.824c-1.21-0.877-2.255-2.342-3.373-3.541
	c0.111-0.418,0.225-0.83,0.337-1.247c1.111-0.325,2.215-0.685,3.335-0.966c3.305-0.83,4.594,0.159,5.024,5.023
	c0.002,0.006,0.002,0.016,0.002,0.018c0.543-0.543,1.008-1.286,1.572-1.773C29.657,257.101,27.583,255.833,23.608,257.136z"/>
<linearGradient id="SVGID_5_" gradientUnits="userSpaceOnUse" x1="36.7981" y1="41.1582" x2="177.1887" y2="41.1582" gradientTransform="matrix(1 0 0 -1 0 664.2773)">
	<stop  offset="0.1789" style="stop-color:#A2B442"/>
	<stop  offset="0.3168" style="stop-color:#9BAB40"/>
	<stop  offset="0.5137" style="stop-color:#8C963A"/>
	<stop  offset="0.7449" style="stop-color:#757831"/>
	<stop  offset="0.8449" style="stop-color:#6A692C"/>
	<stop  offset="1" style="stop-color:#706F37"/>
</linearGradient>
<path fill="url(#SVGID_5_)" d="M175.868,633.676c-1.34-1.18-2.56-2.57-4.039-3.49c-3.5-2.17-6.98-1.49-9.551,1.561
	c-1.3,1.55-1.52,4.13-2.229,6.25c0.53,0.18,1.069,0.38,1.609,0.569c0.311-0.52,0.721-1.01,0.891-1.569
	c0.93-3.11,2.26-5.9,5.91-5.311c3.729,0.61,5.93,3.15,6.239,7.24c0.431,5.56-0.689,10.95-5.3,13.89
	c-6.1,3.87-12.55,7.391-19.23,9.87c-6.34,2.36-13.15,3.68-20.49,1.24c2.48-3.26,4.68-6.101,6.82-8.99
	c2.85-3.86,5.26-8.25,8.65-11.47c1.81-1.71,6.19-2.91,7.81-1.771c3.13,2.2,0.64,5.311-1.24,7.71c-0.25,0.32-0.31,0.82-0.86,2.351
	c4.07-1.601,6.08-3.75,5.98-7.521c-0.1-3.859-2.33-5.779-5.89-5.93c-5.01-0.19-7.67,3.46-10.35,7.14
	c-3.71,5.07-7.5,10.08-11.27,15.11c-1.95,2.6-4.35,2.81-6.68,0.82c-5.09-4.32-10.42-8.42-14.95-13.34
	c-5.08-5.521-10.92-8.95-17.97-9.58c-5.2-0.471-10.51-0.261-15.71,0.31c-3.02,0.33-4.38-0.75-6.23-3.09
	c-4.34-5.53-9.26-10.561-13.94-15.8c-0.74-0.84-1.41-1.771-2.11-2.66c0.28-0.46,0.57-0.91,0.85-1.36c2.47,1.05,4.94,2.101,7.63,3.24
	c0.13-0.89,0.33-1.53,0.32-2.17c-0.16-6.55,0.82-7.45,6.95-6.12c1.71,0.37,3.36,1.04,5.06,1.52c1.82,0.511,3.78,1.65,5.46,1.311
	c5.53-1.13,10.96-2.8,16.21-4.21c-1.34-2.3-2.9-4.82-4.31-7.44c-3.42-6.319-8.56-10.149-15.26-11.06
	c-7.24-0.98-9.34-4.89-5.24-12.55c-4.41-0.41-8.57-0.15-12.33-1.33c-3.44-1.09-6.53-1.29-9.76-0.05c-3.62,1.399-4.45,4.22-2.19,7.52
	c1.3,1.92,2.95,3.56,4.3,5.45c1.14,1.6,1.48,3.16-1.14,3.49c2.52,1.319,1.95,2.8,0.01,3.979c-1.22,0.75-2.68,1.05-4.05,1.5
	c-5.77,1.89-7.88,4.64-7.38,10.74l0.02-0.01v0.159c0.06,0.721,0.15,1.48,0.29,2.301c-0.06-0.021-0.12-0.04-0.18-0.061
	c0.33,1.75,1.2,3.33,2.33,4.57c1.94,0.66,3.88,1.5,5.81,2.52c7.52,3.98,14.8,10.78,20.38,21.091
	c-7.61,1.729-14.98,3.399-22.35,5.069c6.89-0.899,13.77-1.979,20.68-2.569c1.83-0.16,4.22,0.689,5.6,1.989
	c4.64,4.38,8.53,9.771,13.47,13.67c13.21,10.431,27.5,15.811,43.79,7.91c0.77-0.38,1.84-0.029,2.76-0.1
	c6.96-0.51,14.24,0.149,20.81-1.83c13.01-3.9,26.089-8.75,26.91-26.89C176.749,636.226,176.309,634.936,175.868,633.676z
	 M71.859,641.306c12-2.62,22.74-1.16,32.2,6.49c6.56,5.29,12.75,11.09,19.09,16.66C113.289,673.286,85.079,663.315,71.859,641.306z"
	/>
<linearGradient id="SVGID_6_" gradientUnits="userSpaceOnUse" x1="23.0466" y1="598.1504" x2="49.8088" y2="598.1504">
	<stop  offset="0.1789" style="stop-color:#B5AB8C"/>
	<stop  offset="0.3033" style="stop-color:#ADA283"/>
	<stop  offset="0.481" style="stop-color:#9B8E6F"/>
	<stop  offset="0.6896" style="stop-color:#817251"/>
	<stop  offset="0.8449" style="stop-color:#6A5B39"/>
	<stop  offset="1" style="stop-color:#6F603E"/>
</linearGradient>
<path fill="url(#SVGID_6_)" d="M49.809,592.456c-1.89-0.221-3.89-0.99-5.67-0.58c-0.18,0.05-0.36,0.1-0.55,0.14
	c-1.49,0.39-2.94,0.91-4.36,1.57c-1.4,0.64-2.73,1.399-4.03,2.25c-0.82,0.54-1.63,1.09-2.42,1.7c-0.76,0.579-1.42,1.35-2.21,1.89
	c-0.51,0.35-1.09,0.45-1.65,0.66c-0.76,0.29-1.39,1-2.03,1.529c-0.4,0.32-0.84,0.61-1.2,1.011c-0.17,0.21-0.31,0.42-0.41,0.68
	c-0.11,0.27-0.33,0.38-0.53,0.56c-0.28,0.261-0.54,0.551-0.77,0.87c-0.2,0.271-0.41,0.65-0.7,0.801
	c-0.31,0.159-0.24-0.211-0.18-0.431c0.24-0.76,0.69-1.47,1.07-2.149c0.09-0.17,0.19-0.341,0.29-0.511
	c0.38-0.689,0.71-1.25,1.37-1.62c0.65-0.35,1.27-0.729,1.9-1.109c1.26-0.76,2.53-1.5,3.78-2.28c1.24-0.78,2.51-1.52,3.77-2.27
	c1.25-0.761,2.52-1.49,3.8-2.19s2.56-1.38,3.87-2.02C44.709,590.096,47.499,591.886,49.809,592.456z"/>
<linearGradient id="SVGID_7_" gradientUnits="userSpaceOnUse" x1="0.1272" y1="137.5337" x2="22.0144" y2="137.5337" gradientTransform="matrix(1 0 0 -1 0 664.2773)">
	<stop  offset="0.1789" style="stop-color:#B5AB8C"/>
	<stop  offset="0.3033" style="stop-color:#ADA283"/>
	<stop  offset="0.481" style="stop-color:#9B8E6F"/>
	<stop  offset="0.6896" style="stop-color:#817251"/>
	<stop  offset="0.8449" style="stop-color:#6A5B39"/>
	<stop  offset="1" style="stop-color:#6F603E"/>
</linearGradient>
<path fill="url(#SVGID_7_)" d="M10.831,492.669c1.99,3.25,3.52,6.62,5.81,9.109c0.93,1.011,3.49,0.101,5.32,0.051
	c-0.1-1.73,0.37-3.921-0.39-5.11c-1.6-2.521-3.84-4.51-6.46-7.44c0.88-1.199,1.86-2.54,2.79-3.81c0.16-0.22,0.31-0.44,0.47-0.65
	c-0.4-0.18-0.82-0.37-1.23-0.55c-0.09-0.04-0.17-0.08-0.26-0.12c-0.92,1.601-2.11,3.141-3.35,4.66c-0.66,0.82-1.52,1.63-2.43,1.97
	c-5.74,2.15-7.53,7.2-8.09,13.341c-0.21,2.31-0.53,4.699-1.25,6.859c-3.33,10.11-1.62,17.96,5.6,25.16
	c2.35,2.35,5.01,4.52,6.75,7.36c1.09,1.79,1.43,4.989,0.76,7c-0.37,1.12-3.45,1.17-5.34,1.55c-1.1,0.22-2.26,0.16-4.88,0.32
	c3.99,6.439,7.32,11.829,10.5,16.97c1.82-6.92-5.96-9.141-7.45-15.54c1.82-0.061,3.34-0.05,4.86-0.17c5.13-0.391,7.25-4.54,4.55-9.5
	c-1.3-2.37-3.55-4.05-5.16-6.24c-3.22-4.37-6.6-8.65-9.32-13.4c-2.18-3.81-1.69-8.1-0.01-10.819c1.63,0.18,3.14,0.359,4.59,0.52
	c-1.04-2.33-1.75-3.91-2.45-5.479c1.93-0.33,3.92-1.141,5.73-0.771c0.79,0.16,1.2,2.73,1.78,4.2c-1.43,0.6-2.87,1.19-4.98,2.05
	c2.05,0.22,3.97,0.391,5.88,0.37c0.26,0,1.18-4.77,0.65-5.12c-2.73-1.8-5.84-2.89-9.22-4.399
	C4.031,499.829,6.671,494.719,10.831,492.669z M15.471,491.559c1.57,1.97,3.32,3.79,4.61,5.97c0.44,0.761-0.03,2.58-0.59,3.53
	c-0.23,0.38-2.33,0.1-2.71-0.54c-1.35-2.28-2.33-4.85-3.45-7.31C14.051,492.658,14.751,492.108,15.471,491.559z"/>
<linearGradient id="SVGID_8_" gradientUnits="userSpaceOnUse" x1="61.3787" y1="609.377" x2="161.3831" y2="609.377" gradientTransform="matrix(1 0 0 -1 0 664.2773)">
	<stop  offset="0.1789" style="stop-color:#B5AB8C"/>
	<stop  offset="0.3033" style="stop-color:#ADA283"/>
	<stop  offset="0.481" style="stop-color:#9B8E6F"/>
	<stop  offset="0.6896" style="stop-color:#817251"/>
	<stop  offset="0.8449" style="stop-color:#6A5B39"/>
	<stop  offset="1" style="stop-color:#6F603E"/>
</linearGradient>
<path fill="url(#SVGID_8_)" d="M161.371,41.398c-2.541,1.26-4.99,2.66-7.65,2.62c-1.59-0.03-3.26-0.58-5.08-2
	c2.48-3.54,7.32-4.92,12.18-3.71c-0.12-0.41-0.27-0.83-0.43-1.25c-4.74-0.83-9.21-0.37-13.21,3.93c-0.5,0.54-1.93,0.52-2.83,0.3
	c-6.38-1.55-12.35-0.39-17.84,3.01c-1.23,0.76-2.44,1.57-3.64,2.41c-2.62,1.81-5.21,3.76-7.96,5.7c-1.35-1.84-2.71-3.8-4.18-5.7
	c-0.14-0.19-0.28-0.38-0.43-0.56c-2.68-3.41-6.42-4.44-8.71-2.5c-0.91,0.77-1.42,1.85-1.54,3.06c-0.17,1.98,0.7,4.32,2.57,6.33
	c0.85,0.93,1.8,1.84,2.87,2.46c1.32,0.75,2.81,1.18,4.43,1.83c-4.21,4.97-9.39,6.06-15,4.69c-5.59-1.36-11.07-3.25-16.57-4.99
	c-5.73-1.83-11.14-1.75-15.97,2.41c-0.33,0.55-0.65,1.1-0.98,1.65c-0.43,7.79,5.32,13.69,12.42,11.55
	c-1.61-0.99-2.66-1.71-3.77-2.29c-1.12-0.58-2.6-0.74-3.39-1.59c-1.35-1.45-3.24-3.37-3.12-4.96c0.11-1.57,2.17-3.58,3.83-4.3
	c2.12-0.91,4.8-1.29,7.04-0.86c5.22,1.01,10.42,2.38,15.46,4.1c7.79,2.66,14.79,2.19,21.01-3.84c0.93-0.89,2.55-1.12,3.89-1.46
	c1.46-0.37,2.55,0.06,3.52,0.79c0.72,0.55,1.38,1.26,2.06,1.93c0.61,0.6,1.22,1.15,1.81,1.63c6.9,5.69,12.32,3.69,15.46-5.78
	c0.01-0.03,0.02-0.05,0.02-0.08c0.04-0.19,0.03-0.41,0.13-0.53c0.52-0.59,0.98-1.37,1.64-1.68c4.79-2.17,9.59-4.3,14.45-6.3
	c0.97-0.4,2.27-0.47,3.27-0.18c0.58,0.17,1.17,0.35,1.76,0.53c0.1,0.03,0.21,0.06,0.32,0.09c0.09-0.1,0.18-0.21,0.25-0.32
	c0.22-0.27,0.42-0.55,0.59-0.83c-0.5-0.24-1.021-0.57-1.56-0.99c0.91-0.68,1.81-1.26,2.68-1.73
	C161.351,43.148,161.411,42.279,161.371,41.398z M105.061,53.898c-2.23-1.33-3.86-4.83-3.43-7.19c0.03-0.17,0.07-0.33,0.12-0.49
	c0.75-2.27,2.6-2.71,4.26-1.69c0.97,0.6,1.86,1.36,2.7,2.18c0.8,0.78,1.56,1.62,2.32,2.43c1.14,1.22,2,2.7,3.1,4.21
	C111.601,56.139,108.981,56.229,105.061,53.898z M130.221,63.559c-2.98,0.69-5.1-0.46-7.12-2.17c-1.27-1.07-2.49-2.36-3.86-3.55
	c-0.04-0.04-0.07-0.07-0.11-0.1c0.19-0.03,0.37-0.06,0.55-0.09c5.79-0.9,11.02-1.73,16.62-2.61c-0.11,0.5-0.22,1-0.35,1.49
	C135.091,59.918,133.791,62.729,130.221,63.559z M138.391,52.099c0.1-0.28,0.19-0.56,0.29-0.84c-0.53-0.25-1.05-0.51-1.57-0.76
	c-1.44-0.71-2.88-1.41-4.38-1.9c-0.4-0.13-1.29,1.28-1.95,1.98l0.63,0.69c0.62-0.43,1.29-1.26,1.85-1.18
	c0.79,0.11,1.54,0.61,2.29,1.04c0.15,0.08,0.3,0.16,0.45,0.24c-0.43,0.77-0.75,2.1-1.3,2.21c-3.11,0.61-6.24,1.19-9.37,1.7
	c-1.91,0.31-3.84,0.59-5.76,0.83c-0.98,0.12-2.12-0.98-3.56-1.71c3.22-2.91,6.42-5.6,9.78-7.69c5.86-3.63,12.24-5.41,20.21-3.29
	c-0.57,1.12-1.07,2.24-1.6,3.29c-0.2,0.4-0.4,0.79-0.62,1.16C142.591,49.938,141.101,51.579,138.391,52.099z M144.651,49.349
	c0.32-0.83,0.6-1.55,0.87-2.16c0.07-0.17,0.14-0.33,0.21-0.48c1.32-2.96,2.21-3.09,5.28-1.65c0.38,0.18,0.8,0.38,1.26,0.61
	c-0.75,0.36-1.46,0.7-2.16,1.04C148.291,47.589,146.571,48.418,144.651,49.349z"/>
<linearGradient id="SVGID_9_" gradientUnits="userSpaceOnUse" x1="41.7507" y1="104.1104" x2="90.5837" y2="104.1104">
	<stop  offset="0.1789" style="stop-color:#A2B442"/>
	<stop  offset="0.3168" style="stop-color:#9BAB40"/>
	<stop  offset="0.5137" style="stop-color:#8C963A"/>
	<stop  offset="0.7449" style="stop-color:#757831"/>
	<stop  offset="0.8449" style="stop-color:#6A692C"/>
	<stop  offset="1" style="stop-color:#706F37"/>
</linearGradient>
<path fill="url(#SVGID_9_)" d="M90.571,88.759c-0.29,2.26-0.82,4.5-1.34,7.19c-1.18,1.74-2.78,4.12-4.56,6.79
	c-0.1-0.01-0.21-0.02-0.33-0.02c-2.02,0.02-4.03,0.07-6.03,0.12c0.11,2.62-0.67,5.86,0.49,7.53c1.86,2.65,2.86,4.63,0.31,7.85
	c-0.72,0.9-0.41,2.49-0.44,3.72c-0.04,1.63,0.05,3.22,0.07,5.09c-4.52-0.38-5.09-6.21-10.05-4.25c-2.11-3.06-4.36-5.74-4.87-10.02
	c-0.55-4.64-6.7-4.89-10.2-0.95c-0.2-0.29-0.39-0.59-0.59-0.88c-1.05,0.47-2.05,1.09-3.12,1.36c-1.4,0.38-2.83,0.48-3.88,0.65
	c-1.41-1.77-2.66-3.32-4.28-5.35c0.85-4.02,1.58-9.06,5.35-13.05c5.03-5.32,8.71-0.95,12.49,1.76c2.06-3.44,2.29-7.63,1.11-10.98
	c-0.28-0.8-0.64-1.56-1.08-2.24c0.94,0.11,1.78,0.21,2.65,0.32c0,0.45,0,0.89,0.01,1.32c0,2.41,0.02,4.61,0.15,6.74
	c0.07,1,0.83,1.85,1.26,2.76c0.87-0.64,1.96-1.11,2.59-1.98c0.7-0.96,1.27-2.34,1.37-3.52c0.4-4.99,3.4-6.35,7.05-7.17
	c6.43-1.44,10.9,1.72,15.08,5.28C90.261,87.239,90.661,88.049,90.571,88.759z"/>
<linearGradient id="SVGID_10_" gradientUnits="userSpaceOnUse" x1="9.4343" y1="524.126" x2="26.9045" y2="524.126" gradientTransform="matrix(0.9845 -0.1755 -0.1755 -0.9845 96.4998 657.6555)">
	<stop  offset="0.1789" style="stop-color:#B5AB8C"/>
	<stop  offset="0.3033" style="stop-color:#ADA283"/>
	<stop  offset="0.481" style="stop-color:#9B8E6F"/>
	<stop  offset="0.6896" style="stop-color:#817251"/>
	<stop  offset="0.8449" style="stop-color:#6A5B39"/>
	<stop  offset="1" style="stop-color:#6F603E"/>
</linearGradient>
<path fill="url(#SVGID_10_)" d="M25.622,151.642c-0.817-0.941-1.196-2.783-0.79-4.034c0.642-1.983,2.022-3.814,3.174-5.675
	c3.513-5.706,3.196-10.443-0.944-15.211c-0.883-1.021-1.541-2.264-2.124-3.481c-1.524-3.252-3.673-5.612-7.942-5.409
	c-0.676,0.029-1.408-0.207-2.011-0.505c-0.545-0.269-1.091-0.537-1.608-0.82c-0.541-0.3-1.055-0.615-1.521-0.948
	c-0.292,0.245-0.593,0.491-0.886,0.727c0.688,0.385,1.431,0.792,2.131,1.185c0.314,0.167,0.608,0.338,0.901,0.499
	c-1.062,1.967-2.065,3.456-2.707,4.983c0.001,0.01-0.009,0.011-0.009,0.011c-0.083,0.218-0.166,0.437-0.239,0.652
	c-0.072,0.216-0.084,0.442-0.049,0.689c0.104,0.703,0.551,1.497,0.751,2.223c1.236-0.413,3.127-0.527,3.566-1.306
	c1.08-1.919,1.485-4.145,2.208-6.417c3.192,0.131,5.929,2.316,6.524,5.318c-2,1.657-3.894,3-5.397,4.649
	c-0.289,0.315,1.216,2.719,1.397,2.656c1.292-0.443,2.556-0.994,3.898-1.609c-1.59,0.029-2.663,0.048-3.746,0.069
	c0.114-0.956-0.084-2.464,0.414-2.746c1.146-0.641,2.643-0.674,4.006-0.948c-0.182,1.028-0.353,2.064-0.617,3.604
	c0.939-0.431,1.922-0.901,2.983-1.385c1.647,1.088,2.778,3.334,2.027,5.957c-0.949,3.278-2.426,6.446-3.779,9.623
	c-0.682,1.594-1.882,3.067-2.304,4.687c-0.9,3.38,1.305,5.151,4.843,4.144c1.044-0.297,2.063-0.672,3.302-1.076
	c0.195,3.886-4.638,6.973-2.105,10.351c1.178-3.593,2.414-7.368,3.897-11.868c-1.805,0.535-2.56,0.853-3.349,0.993
	C28.171,151.462,26.084,152.179,25.622,151.642z M14.983,124.559c-0.134,0.44-1.5,1.1-1.72,0.946
	c-0.557-0.388-1.214-1.276-1.062-1.801c0.463-1.505,1.305-2.936,1.989-4.398c0.583,0.14,1.165,0.27,1.746,0.4
	C15.647,121.332,15.464,122.979,14.983,124.559z"/>
<g display="none">
	<path display="inline" fill="#B5AB8C" d="M20.29,638.4c0,0,0.062,0.145,0.183,0.429c0.12,0.311,0.3,0.773,0.537,1.385
		c0.207,0.594,0.464,1.331,0.769,2.207c0.271,0.88,0.585,1.899,0.941,3.054c1.36,4.623,2.889,11.511,3.96,20.378
		c1.005,8.867,1.581,19.718,0.951,32.104c-0.062,3.104-0.396,6.283-0.639,9.566c-0.145,1.639-0.231,3.31-0.431,4.989
		c-0.203,1.679-0.409,3.38-0.617,5.104c-0.217,1.723-0.438,3.468-0.66,5.235c-0.26,1.761-0.583,3.531-0.878,5.33
		c-0.629,3.588-1.147,7.287-1.995,10.996c-1.562,7.382-3.189,15.07-4.873,23.028c-0.705,3.941-1.434,7.944-2.222,12.004
		c-0.36,2.039-0.654,4.114-1.004,6.192c-0.353,2.079-0.707,4.173-1.064,6.281c-0.292,2.118-0.586,4.251-0.882,6.397
		c-0.294,2.146-0.667,4.302-0.904,6.484c-0.243,2.183-0.487,4.379-0.732,6.588c-0.12,1.105-0.241,2.214-0.361,3.326
		c-0.086,1.114-0.174,2.231-0.261,3.353c-0.151,2.244-0.303,4.5-0.456,6.768c-0.063,2.271-0.127,4.554-0.191,6.848
		c-0.021,1.147-0.043,2.298-0.064,3.45c0.011,1.152,0.023,2.308,0.034,3.466c0.04,2.315,0.01,4.643,0.105,6.977
		c0.222,9.341,0.992,18.818,2.232,28.344c0.282,2.385,0.681,4.762,1.017,7.152c0.389,2.384,0.779,4.773,1.223,7.161
		c0.437,2.388,0.904,4.779,1.399,7.175c0.249,1.299,0.477,2.409,0.674,3.715c0.213,1.273,0.391,2.516,0.561,3.75
		c2.553,19.784,3.83,39.845,4.692,59.975c0.828,20.119,1.101,40.271,0.3,60.128c-0.42,9.928-1.035,19.785-2.388,29.511
		c-0.666,4.862-1.495,9.692-2.784,14.464c-0.564,2.308-1.127,4.605-1.688,6.896c-0.136,0.575-0.291,1.154-0.411,1.726l-0.303,1.699
		c-0.203,1.133-0.405,2.262-0.607,3.39c-1.518,9.088-2.211,18.271-2.469,27.231c-0.028,2.246-0.079,4.479-0.069,6.7
		c0.017,2.223,0.137,4.433,0.231,6.627c0.098,2.194,0.326,4.376,0.511,6.539c0.177,2.163,0.417,4.312,0.638,6.445
		c0.881,8.531,1.558,16.833,1.73,24.966c0.112,4.09,0.222,8.109,0.33,12.056c0.06,0.979,0.049,2.02,0.064,3.026l0.008,0.759l0,0.48
		l-0.021,0.361l-0.085,1.442l-0.087,1.438l-0.167,1.488c-0.113,0.988-0.226,1.972-0.337,2.95c-1.032,7.563-2.358,14.669-3.63,21.438
		c-1.269,6.766-2.594,13.15-3.801,19.158c-2.42,12.013-4.652,22.454-6.522,31.048c-1.831,8.602-3.307,15.352-4.337,19.951
		c-1.018,4.604-1.56,7.059-1.56,7.059l-3.897-0.898c0,0,0.568-2.441,1.634-7.019c1.039-4.584,2.528-11.319,4.377-19.901
		c1.8-8.592,3.947-19.035,6.267-31.036c1.138-6.004,2.307-12.401,3.453-19.15c1.139-6.745,2.327-13.861,3.193-21.243
		c0.086-0.894,0.173-1.792,0.26-2.694l0.134-1.357l0.06-1.434l0.058-1.443l0.014-0.362c-0.005,0.146-0.007-0.059-0.011-0.071
		l-0.009-0.173l-0.039-0.694c-0.058-0.933-0.083-1.843-0.185-2.816c-0.355-3.826-1.012-7.784-1.583-11.804
		c-1.242-8.045-1.929-16.479-1.916-25.186c-0.015-2.175,0.012-4.366,0.074-6.574c0.073-2.207,0.053-4.421,0.152-6.656
		c0.084-4.464,0.169-8.981,0.255-13.549c0.292-9.148,1.008-18.469,2.618-27.948c0.218-1.188,0.436-2.379,0.654-3.572l0.329-1.792
		c0.125-0.586,0.279-1.153,0.417-1.731c0.574-2.318,1.151-4.645,1.729-6.979c1.195-4.466,1.96-9.156,2.578-13.893
		c1.251-9.48,1.804-19.228,2.14-29.05c0.613-19.662,0.104-39.703-0.756-59.709c-0.443-10.006-1.082-20.002-1.793-29.948
		c-0.706-9.94-1.554-19.855-2.731-29.564c-0.15-1.216-0.307-2.42-0.484-3.581c-0.15-1.137-0.397-2.445-0.595-3.565
		c-0.467-2.432-0.907-4.866-1.318-7.303c-0.419-2.434-0.777-4.873-1.15-7.302c-0.315-2.438-0.694-4.859-0.955-7.289
		c-0.579-4.852-1.023-9.687-1.368-14.492c-0.158-2.404-0.315-4.799-0.471-7.186c-0.096-2.389-0.192-4.768-0.288-7.138
		c-0.101-2.369-0.075-4.731-0.119-7.082c-0.014-1.175-0.027-2.348-0.041-3.518c0.02-1.17,0.039-2.337,0.059-3.501
		c0.029-2.329,0.057-4.646,0.085-6.953c0.074-2.305,0.148-4.599,0.222-6.879c0.025-1.143,0.05-2.281,0.075-3.417
		c0.06-1.134,0.119-2.264,0.177-3.392c0.118-2.257,0.235-4.5,0.351-6.73c0.284-4.457,0.701-8.851,1.109-13.188
		c0.542-4.32,1.063-8.583,1.688-12.773c0.712-4.189,1.46-8.311,2.208-12.358c1.745-7.915,3.43-15.562,5.048-22.904
		c0.865-3.629,1.398-7.235,2.045-10.74c0.303-1.756,0.637-3.486,0.905-5.205c0.235-1.723,0.467-3.424,0.695-5.104
		c0.238-1.68,0.473-3.337,0.704-4.973c0.229-1.636,0.344-3.26,0.518-4.855c0.301-3.194,0.692-6.294,0.811-9.31
		c0.79-12.051,0.703-22.594-0.011-31.212c-0.634-8.629-1.845-15.32-2.835-19.808c-0.271-1.114-0.511-2.099-0.718-2.948
		c-0.236-0.835-0.434-1.538-0.594-2.104c-0.17-0.535-0.299-0.94-0.386-1.213c-0.104-0.291-0.156-0.438-0.156-0.438L20.29,638.4z"/>
</g>
<linearGradient id="SVGID_11_" gradientUnits="userSpaceOnUse" x1="-11.4832" y1="638.3604" x2="247.136" y2="638.3604">
	<stop  offset="0" style="stop-color:#6F603E"/>
	<stop  offset="0.1551" style="stop-color:#6A5B39"/>
	<stop  offset="0.3104" style="stop-color:#817251"/>
	<stop  offset="0.519" style="stop-color:#9B8E6F"/>
	<stop  offset="0.6967" style="stop-color:#ADA283"/>
	<stop  offset="0.8211" style="stop-color:#B5AB8C"/>
</linearGradient>
<path fill="url(#SVGID_11_)" d="M247.136,4.329c-11.116,3.47-22.106,6.18-33.333,8.78c-11.22,2.62-22.099,5.95-32.993,9.97
	c-16.935,6.26-33.403,13.4-49.872,20.56c-2.232,0.97-4.402,2-6.555,3.07c-0.562,0.27-1.117,0.55-1.679,0.83
	c-0.151,0.08-0.301,0.15-0.452,0.23c-2.874,1.45-5.725,2.94-8.638,4.37c-2.684,1.33-5.439,2.56-8.187,3.79
	c-0.443,0.2-0.895,0.4-1.338,0.6c-3.064,1.38-6.113,2.76-9.066,4.28c-0.372,0.19-0.744,0.38-1.108,0.58
	c-0.253,0.13-0.499,0.26-0.744,0.4c-1.465,0.78-2.922,1.6-4.378,2.42c-1.781,1.01-3.563,2.03-5.344,3.05
	c-1.307,0.76-2.075,1.73-3.144,2.93c-1.077,1.2-2.304,2.11-3.57,2.83c-0.99,0.57-2.106,0.82-3.048,1.54
	c-0.903,0.68-1.916,1.09-2.922,1.36c-0.911,0.24-1.797,0.64-2.708,0.92c-0.815,0.24-1.575,0.77-2.383,1.04
	c-0.515,0.18-1.013,0.56-1.552,0.62c-0.491,0.06-0.99-0.02-1.481-0.01c-1.291,0.05-2.573,0.35-3.848,0.53
	c-0.539,0.08-1.061,0.26-1.6,0.31c-0.665,0.06-1.338-0.05-2.003,0.04c-1.552,0.21-2.954,1.04-4.395,1.82
	c-0.673,0.36-1.385,0.59-2.082,0.85c-0.499,0.19-0.998,0.45-1.394,0.92c-0.277,0.33-0.491,0.75-0.768,1.08
	c-0.238,0.28-0.507,0.5-0.792,0.68c-0.396,0.26-0.824,0.44-1.251,0.6c-0.428,0.18-0.863,0.34-1.259,0.56
	c-0.634,0.35-1.283,0.7-1.908,1.09c-0.697,0.43-1.267,1.17-1.964,1.58c-0.539,0.32-1.108,0.5-1.663,0.75
	c-0.578,0.25-1.132,0.59-1.718,0.8c-0.396,0.15-0.8,0.16-1.211,0.25c-0.436,0.1-0.855,0.3-1.299,0.39
	c-0.34,0.06-0.681,0.12-1.014,0.27c-0.499,0.22-0.981,0.35-1.457,0.66c-0.483,0.32-0.974,0.61-1.465,0.9
	c-0.388,0.24-0.831,0.4-1.195,0.69c-0.467,0.37-0.863,0.87-1.306,1.28c-0.373,0.33-0.784,0.27-1.172,0.57
	c-0.895,0.71-1.592,1.83-2.486,2.54c-0.982,0.78-2.051,1.09-3.096,1.63c-1.354,0.7-2.613,2.36-3.452,4.01
	c-0.823,1.6-1.631,3.22-2.399,4.87c-0.585,1.28-1.1,2.87-1.9,3.89c-0.729,0.92-1.108,2.46-1.497,3.71
	c-0.807,2.65-1.457,5.41-2.399,7.98c-0.079,0.23-0.166,0.45-0.253,0.67c-0.032,0.08-0.063,0.15-0.095,0.23
	c-0.657,1.63-1.512,3.28-2.177,5.09c-0.15,0.41-0.285,0.84-0.412,1.27c-0.119,0.42-0.222,0.85-0.309,1.29
	c-0.443,2.21-0.768,5.29-1.085,7.65c-0.356,2.65-0.57,5.36-0.895,8.02c-0.11,0.92-0.142,1.87-0.158,2.8
	c-0.04,2.13,0.008,4.28,0.167,6.4c0.071,0.94,0.103,1.94,0.412,2.8c0.34,0.97,0.443,2.01,0.483,3.1
	c0.023,0.72-0.008,1.33,0.134,2.04c0.436,2.17,0.618,4.42,1.045,6.59c0.443,2.27,0.974,4.58,1.829,6.6
	c0.729,1.74,1.465,3.54,2.075,5.36c1.417,4.2,3.238,8.22,5.526,11.53c1.41,2.03,2.597,4.27,3.824,6.53
	c1.021,1.88,1.908,3.9,3.072,5.62c0.499,0.74,1.062,1.4,1.481,2.23c0.396,0.78,0.665,1.68,1.092,2.43
	c0.325,0.57,0.76,0.96,1.132,1.47c0.333,0.46,0.578,1.03,0.942,1.45c0.696,0.8,0.776,2.4,1.116,3.54
	c0.404,1.37,1.108,2.27,1.512,3.65c0.436,1.54,0.895,3,1.433,4.4c1.037,2.72,2.241,5.03,2.803,8.38
	c0.277,1.62,0.697,3.08,0.887,4.81c0.174,1.65,0.253,3.42,0.42,5.09c0.34,3.38,0.832,6.71,1.449,9.78
	c1.663,8.18,2.898,16.83,2.763,26.87c-0.063,4.82,0.087,9.47,0.032,14.28c-0.024,1.9-0.158,3.88-0.38,5.9
	c-0.784,7.26-2.779,15.1-5.004,22.76c-0.911,3.14-1.821,6.34-2.914,9.45c-1.338,3.811-3.025,7.15-4.568,10.801
	c-1.71,4.029-3.848,7.699-5.368,11.84c-1.038,2.8-1.861,5.489-2.795,8.31c-0.792,2.39-1.742,4.69-2.431,7.09
	c-1.291,4.49-2.779,9.09-3.642,13.511c-0.594,3.06-0.911,6.01-1.093,8.84c-0.095,1.43-0.143,2.819-0.182,4.21
	c-0.032,1.18-0.333,2.189-0.57,3.479c-0.752,4.01-1.283,8.021-1.235,11.53c0.055,3.64,0,7.37,0,11.04
	c0.008,3.7,0.063,7.37-0.008,11.13c-0.071,3.69,0.713,6.64,0.5,10.42c-0.198,3.48,0.063,6.58,0.602,9.37
	c0.206,1.07,0.372,2.14,0.649,3.16c0.396,1.479,0.697,3.05,1.172,4.43c0.285,0.82,0.364,1.96,0.649,2.86
	c0.285,0.899,0.681,1.63,0.99,2.5c0.277,0.8,0.554,1.6,0.808,2.46c0.229,0.8,0.356,1.83,0.57,2.68
	c0.253,0.97,0.697,1.75,1.014,2.601c0.333,0.88,0.617,1.819,0.974,2.659c0.602,1.42,1.021,3.101,1.56,4.681
	c0.27,0.79,0.649,1.6,0.808,2.46c0.087,0.49-0.047,1.2,0.056,1.71c0.095,0.5,0.198,0.979,0.293,1.49
	c0.396,2.109,1.125,3.75,1.702,5.59c0.356,1.13,0.594,2.55,0.792,3.899c0.206,1.431,0.499,2.79,0.625,4.301
	c0.578,6.88,0.688,14.329,0.412,21.97c-0.325,8.83-1.385,17.979-3,27.56c-1.014,6.021-2.122,12.07-3.199,18.101
	c-0.515,2.909-1.014,5.81-1.401,8.63c-0.388,2.83-1.386,6.22-2.122,9.17c-2.344,9.46-4.711,18.72-4.616,27.09
	c0.024,2.3-0.135,4.75,0.412,6.49c0.364,1.16,0.712,2.34,1.053,3.52c0.206,0.71,0.42,1.431,0.618,2.15
	c0.229,1.2,0.459,2.39,0.697,3.58c0.372,1.85,0.76,3.689,1.156,5.52c0.475,2.21,0.966,4.41,1.449,6.61
	c0.079,0.35,0.15,0.689,0.229,1.04c0.784,3.6,1.504,7.21,2.083,10.87c0.768,4.939,1.306,9.93,1.67,14.95
	c0.056,0.699,0.103,1.399,0.143,2.1c0.047,0.71,0.087,1.41,0.126,2.11c0.032,0.46,0.056,0.93,0.071,1.39
	c0.023,0.59,0.055,1.18,0.079,1.78c0.024,0.6,0.047,1.199,0.063,1.81v0.13c0.04,1.01,0.071,2.03,0.087,3.04
	c0.016,0.32,0.024,0.63,0.024,0.95c0.032,1.19,0.047,2.38,0.056,3.57c0.015,5.59-0.143,11.17-0.467,16.739
	c-0.103,1.79-0.23,3.591-0.372,5.381c-0.293,3.85-0.657,7.689-1.077,11.52c-0.633,5.8-1.401,11.58-2.264,17.33
	c-0.063,0.4-0.119,0.81-0.182,1.21c-0.016,0.1-0.032,0.2-0.048,0.29c-0.783,5.14-1.654,10.25-2.517,15.36
	c-0.642,3.819-1.283,7.649-1.885,11.479c-0.269,1.72-0.538,3.44-0.792,5.17c-0.855,5.771-1.615,11.57-2.28,17.38
	c-0.27,2.311-0.523,4.63-0.745,6.94c-0.372,3.53-0.689,7.05-0.974,10.59c-0.443,5.66-0.768,11.34-0.935,17.02
	c-0.023,0.79-0.047,1.57-0.063,2.36c-0.016,0.79-0.032,1.58-0.039,2.37c-0.016,0.7-0.024,1.41-0.032,2.12
	c-0.024,3.5,0.008,7,0.087,10.5c0.135,5.95,0.42,11.89,0.879,17.82c0.079,0.989,0.158,1.979,0.253,2.97
	c0.063,0.81,0.134,1.609,0.214,2.41c0.364,3.97,0.815,7.92,1.322,11.859c0.491,3.86,1.037,7.71,1.56,11.561
	c0.246,1.76,0.483,3.52,0.712,5.29c0.491,3.72,0.935,7.45,1.314,11.189c0.222,2.07,0.42,4.15,0.594,6.23
	c0.49,5.76,0.854,11.53,1.156,17.31c0.008,0.08,0.008,0.16,0.016,0.24c0.301,5.72,0.562,11.46,0.824,17.19
	c0.126,2.689,0.245,5.38,0.356,8.069c0.127,3.2,0.246,6.41,0.348,9.62c0.198,6.021,0.317,12.04,0.364,18.061
	c0.008,0.609,0.008,1.22,0.008,1.829c0.04,5.16,0.023,10.33-0.008,15.49c-0.023,4.19-0.055,8.37-0.119,12.55
	c-0.008,0.37-0.016,0.74-0.023,1.11c-0.016,1.21-0.04,2.42-0.063,3.63c-0.135,6.04-0.348,12.08-0.744,18.11
	c-0.198,2.88-0.436,5.76-0.721,8.63c-0.008,0.06-0.008,0.12-0.016,0.19c-0.285,2.8-0.618,5.6-0.998,8.39
	c-0.649,4.67-1.457,9.32-2.249,13.96c-0.079,0.439-0.15,0.89-0.229,1.33c-0.847,4.89-1.639,9.8-2.225,14.76
	c-0.031,0.22-0.055,0.44-0.079,0.66c-0.642,5.54-1.045,11.12-1.204,16.71c-0.056,1.96-0.087,3.91-0.087,5.87v0.06
	c0,3.73,0.104,7.46,0.261,11.181c0.19,4.359,0.444,8.72,0.721,13.08c0.095,1.569,0.198,3.13,0.293,4.699
	c0.372,5.971,0.729,11.95,1.014,17.931c0.04,0.8,0.079,1.609,0.119,2.409c0.182,4,0.34,8.011,0.388,12.021
	c0.016,1.65,0.007,3.3-0.048,4.94c0,0.17,0,0.34-0.016,0.5c-0.055,1.739-0.159,3.479-0.309,5.21c-0.222,2.449-0.506,4.88-0.831,7.3
	c-0.024,0.21-0.055,0.41-0.079,0.609c-0.214,1.58-0.436,3.16-0.657,4.73c-0.8,5.689-1.639,11.36-2.494,17.04
	c-0.174,1.18-0.356,2.35-0.539,3.53c-0.008,0.069-0.016,0.13-0.031,0.199c-0.673,4.44-1.37,8.87-2.09,13.29
	c-0.546,3.4-1.117,6.79-1.694,10.181c-0.056,0.319-0.111,0.64-0.167,0.97c-0.214,1.24-0.419,2.47-0.633,3.71
	c-0.839,4.9-1.678,9.8-2.502,14.71c-0.277,1.66-0.554,3.33-0.831,4.99c-0.222,1.33-0.452,2.649-0.681,3.97
	c-0.071,0.41-0.135,0.82-0.214,1.23c-0.198,1.21-0.404,2.409-0.61,3.609c-0.609,3.57-1.251,7.13-1.892,10.69
	c-1.029-0.3-2.059-0.601-3.088-0.9c0.04-0.18,0.079-0.37,0.111-0.55c1.497-7.3,2.676-14.69,3.848-22.08
	c1.465-9.21,3.207-18.35,4.68-27.55c1.726-10.76,2.938-21.64,4.418-32.45c1.069-7.76,2.684-15.67,2.336-23.6
	c-0.183-4.011-0.705-7.99-1.141-11.971c-0.585-5.229-1.092-10.479-1.409-15.76c-0.649-10.97-0.419-21.96-0.134-32.939
	c0.277-10.551,0.515-21.15,1.829-31.591c1.211-9.63,3.397-19,4.624-28.609c1.401-10.931,1.789-22,1.972-33.05
	c0.182-10.891,0.221-21.78,0.063-32.66c-0.158-11.13-0.57-22.24-1.053-33.351c-0.483-11.04-0.95-22.09-1.71-33.1
	c-0.736-10.75-1.948-21.4-3.278-32.06c-1.354-10.841-2.573-21.711-3.104-32.681c-0.523-10.91-0.523-21.87-0.356-32.8
	c0.166-10.87,0.546-21.74,1.48-32.56c0.942-10.91,2.431-21.73,4.252-32.46c1.773-10.391,3.808-20.7,5.123-31.2
	c1.338-10.681,2.066-21.48,2.494-32.271c0.38-9.59,0.269-19.12-0.666-28.66c-0.277-2.84-0.538-5.67-0.871-8.5
	c-0.245-2.149-0.736-4.25-0.942-6.409c-0.285-3.07-0.76-5.761-1.766-8.601c-0.681-1.95-1.188-3.979-1.67-6.02
	c-0.419-1.75-1.227-4.66-1.433-6.45c-0.237-2.22-0.72-2.82-1.069-4.96c-0.483-2.96-0.665-6.19-0.333-9.17
	c0.047-0.431,0.095-0.86,0.15-1.29c1.235-10.03,3.776-21.16,6.381-31.641c0.317-1.26,0.356-2.399,0.507-3.6
	c0.23-1.75,0.768-3.76,1.14-5.61c0.333-1.659,0.578-3.27,0.942-4.939c0.847-3.95,1.259-7.92,1.829-11.771
	c0.238-1.59,0.539-3.42,0.555-4.89c0.008-1.47,0.229-2.96,0.292-4.43c0.032-0.69-0.071-1.261-0.008-1.971
	c0.071-0.71,0.277-1.489,0.317-2.189c0.079-1.66-0.087-3.18-0.04-4.83c0.047-1.44,0.301-2.98,0.309-4.41v-4.729
	c0.008-2.671,0.008-5.33,0.008-7.99c0-3.08-0.111-5.9-0.641-8.44c-0.562-2.729-1.425-4.97-1.283-8.45
	c0.134-3.359-0.815-5.229-1.528-7.619c-0.625-2.091-0.99-5.25-2.249-6.301c-0.34-0.29-0.633-0.649-0.871-1.06
	c-0.229-0.36-0.427-0.771-0.602-1.2c-0.301-0.729-0.554-1.54-0.823-2.39c-0.538-1.67-1.504-2.75-1.963-4.48
	c-0.396-1.5-0.721-3.149-1.125-4.67c-0.412-1.55-0.443-3.35-0.744-5.02c-0.174-1.04-0.103-2.32-0.333-3.28
	c-0.229-0.9-0.372-1.82-0.515-2.83c-0.158-1.13-0.539-2.02-0.57-3.29c-0.024-1.15-0.222-1.95-0.285-3.06
	c-0.071-1.23-0.277-2.25-0.436-3.391c-0.467-3.26-0.126-7.569-0.135-11.26c0-2.46-0.111-4.8-0.174-7.2
	c-0.167-6.319,0.324-13.31,1.029-20.27c0.206-2.021,0.602-4.271,0.617-6.16c0.008-1.69-0.119-3.33,0.103-5.17
	c0.222-1.8,0.507-3.601,0.76-5.41c0.253-1.77,0.356-3.49,0.642-5.28c0.292-1.84,0.768-3.689,1.021-5.54
	c0.443-3.25,1.298-6.66,2.074-10.02c0.333-1.45,0.562-2.9,0.966-4.36c0.538-1.939,1.449-4.149,2.169-6.06
	c0.546-1.45,1.267-2.79,1.837-4.221c0.665-1.659,1.306-3.34,1.987-4.979c1.156-2.81,2.328-5.87,3.658-8.56
	c1.48-3,3.04-6.091,4.212-9.271c0.618-1.7,0.958-3.36,1.536-5.06c0.625-1.82,1.385-3.71,1.908-5.541
	c1.188-4.15,2.011-8.26,3.222-12.41c0.657-2.25,1.433-4.3,1.853-6.55c0.388-2.08,0.522-4.02,0.697-5.98
	c0.119-1.31,0.253-2.13,0.744-3.44c0.348-0.94,0.507-1.81,0.578-2.68c0.167-1.86-0.079-3.38-0.071-5.11
	c0.008-1.71,0.071-3.52-0.08-5.1c-0.182-1.98-0.507-3.73-0.507-5.9c0-3.85-0.831-6.82-1.1-10.4c-0.143-1.88-0.087-3.86-0.356-5.61
	c-0.309-2-0.229-4.21-0.34-6.39c-0.135-2.44-0.372-4.8-0.642-7.13c-0.198-1.69-0.403-3.37-0.594-5.04
	c-0.04-0.35-0.079-0.69-0.119-1.04c-0.412-3.7-1.473-6.83-2.201-10.15c-0.847-3.89-1.694-7.62-3.032-10.85
	c-1.219-2.92-2.613-5.55-3.848-8.44c-1.916-4.5-6.698-7.19-8.282-11.18c-0.594-1.49-1.552-1.87-2.043-3.55
	c-0.602-2.05-1.394-3.65-1.987-5.71c-0.626-2.2-1.678-3.42-2.415-5.37c-0.633-1.7-1.322-3.46-2.106-4.76
	c-0.974-1.61-1.314-4.45-1.948-6.82c-0.53-1.99-1.18-3.89-1.457-6.38c-0.309-2.82-0.911-4.99-1.307-7.63
	c-0.34-2.28-0.087-6.2-0.087-9.02c0.008-2.97-0.087-11.85-0.087-13.38c0-3.91,0.277-8.11,0.958-11.9
	c0.428-2.33,1.219-3.68,2.075-5.63c1.061-2.41,2.082-4.83,3.072-7.3c0.309-0.77,0.618-1.59,0.823-2.43
	c0.127-0.52,0.119-1.03,0.15-1.57c0.087-1.45,0.681-2.94,1.22-4.15c0.348-0.76,0.744-1.48,1.171-2.15
	c0.634-0.98,1.331-1.86,1.996-2.79c0.823-1.14,1.583-2.36,2.343-3.59c0.918-1.51,1.837-3.05,2.89-4.37
	c1.093-1.36,2.328-2.35,3.674-3.09c1.71-0.94,3.476-1.66,5.186-2.57c1.884-1,3.713-2.16,5.511-3.42
	c1.354-0.95,2.692-1.95,4.093-2.73c1.211-0.66,2.455-1.14,3.689-1.7c1.338-0.62,2.645-1.34,3.911-2.21
	c1.14-0.79,2.241-1.69,3.396-2.42c2.597-1.65,5.455-2.32,8.227-3.11c2.177-0.61,4.354-1.14,6.548-1.64
	c2.225-0.51,4.418-1.26,6.635-1.89c0.911-0.26,1.845-0.46,2.724-0.9c0.57-0.28,1.052-0.76,1.559-1.21
	c1.718-1.53,3.722-2.35,5.59-3.42c2.011-1.17,4.03-2.31,6.065-3.42c2.042-1.12,4.077-2.27,6.136-3.35
	c0.182-0.09,0.356-0.19,0.538-0.29c0.254-0.13,0.499-0.26,0.752-0.39c0.111-0.07,0.229-0.13,0.348-0.19
	c1.489-0.8,2.977-1.6,4.474-2.37c0.032-0.02,0.063-0.03,0.095-0.05c2.09-1.07,4.172-2.17,6.263-3.23
	c0.578-0.29,1.156-0.59,1.734-0.87c0.412-0.22,0.824-0.42,1.235-0.63c1.116-0.56,2.225-1.12,3.341-1.68
	c0.649-0.32,1.291-0.64,1.94-0.95c0.459-0.23,0.918-0.46,1.377-0.68c0.325-0.16,0.649-0.32,0.974-0.48
	c0.689-0.34,1.37-0.67,2.059-1.01c0.436-0.21,0.878-0.43,1.314-0.64c0.712-0.35,1.433-0.7,2.146-1.04
	c0.966-0.47,1.94-0.94,2.906-1.41c0.499-0.24,0.998-0.48,1.504-0.72c17.276-8.29,34.909-16.45,53.348-22.5
	c9.961-3.27,19.984-6.28,29.929-9.57c5.415-1.79,10.783-3.68,16.271-5.15c4.948-1.34,10.039-3.21,14.996-4.22
	C242.916-0.731,245.101,1.569,247.136,4.329z"/>
<path fill="#B5AB8C" d="M19.991,633.608c-0.07-0.22-0.14-0.43-0.21-0.64l0.15-0.33C19.931,632.639,19.961,633.028,19.991,633.608z"
	/>
</svg>
