<?xml version="1.0" encoding="utf-8"?>
<!-- Generator: Adobe Illustrator 16.0.0, SVG Export Plug-In . SVG Version: 6.00 Build 0)  -->
<!DOCTYPE svg PUBLIC "-//W3C//DTD SVG 1.1//EN" "http://www.w3.org/Graphics/SVG/1.1/DTD/svg11.dtd">
<svg version="1.1" id="Layer_1" xmlns="http://www.w3.org/2000/svg" xmlns:xlink="http://www.w3.org/1999/xlink" x="0px" y="0px"
	 width="42.511px" height="41.334px" viewBox="0 0 42.511 41.334" enable-background="new 0 0 42.511 41.334" xml:space="preserve">
<g>
	<g>
		<path fill="#EADAB8" d="M34.329,37.484c0,0.007-0.119-0.578-0.121-0.576"/>
	</g>
	<g>
		<path fill="#EADAB8" d="M38.734,38.758c-0.009,0.002-0.922-0.107-0.952-0.108"/>
	</g>
	<g>
		<path fill="#EADAB8" d="M1.669,31.938c0.036-0.002,0.857,0.345,0.855,0.343"/>
	</g>
	<g>
		<g>
			<path fill-rule="evenodd" clip-rule="evenodd" fill="#EADAB8" d="M35.799,29.164c-0.03-0.005-0.053-0.011-0.075-0.012
				c-0.226-0.006-0.317-0.166-0.276-0.393c0.037-0.194,0.084-0.395,0.024-0.601c-0.021-0.067,0.018-0.166,0.059-0.231
				c0.073-0.119,0.167-0.229,0.26-0.332c0.054-0.06,0.12-0.116,0.19-0.147c0.092-0.039,0.125-0.095,0.129-0.187
				c0.002-0.093,0.004-0.187,0.025-0.274c0.016-0.056,0.055-0.115,0.1-0.156c0.098-0.09,0.206-0.169,0.307-0.253
				c0.012-0.01,0.012-0.032,0.031-0.087c-0.062,0.028-0.101,0.04-0.135,0.06c-0.14,0.089-0.277,0.07-0.393-0.05
				c-0.049-0.053-0.104-0.103-0.16-0.148c-0.107-0.089-0.143-0.182-0.078-0.322c0.043-0.096,0.057-0.213-0.106-0.258
				c-0.048-0.013-0.102-0.108-0.107-0.17c-0.014-0.116,0.018-0.243,0.143-0.286c0.123-0.042,0.194-0.113,0.259-0.221
				c0.055-0.093,0.185-0.154,0.207-0.246c0.041-0.161,0.044-0.341,0.021-0.506c-0.015-0.109-0.059-0.179,0.086-0.229
				c0.143-0.051,0.164-0.324,0.047-0.416c-0.253-0.2-0.301-0.48-0.07-0.71c0.207-0.204,0.121-0.429,0.126-0.649
				c0.002-0.067-0.019-0.137-0.042-0.201c-0.034-0.102-0.079-0.201-0.116-0.302c-0.028-0.072-0.046-0.147-0.077-0.217
				c-0.066-0.155-0.134-0.31-0.212-0.458c-0.022-0.044-0.079-0.082-0.128-0.097c-0.285-0.082-0.241-0.272-0.156-0.464
				c0.061-0.135,0.11-0.272,0.162-0.412c0.023-0.062,0.043-0.127,0.061-0.19c0.01-0.031,0.027-0.067,0.019-0.092
				c-0.091-0.264,0.015-0.507,0.073-0.751c0.051-0.211,0.115-0.417,0.061-0.64c-0.017-0.075,0.008-0.164,0.028-0.243
				c0.063-0.244,0.042-0.505,0.153-0.743c0.036-0.079,0.02-0.188,0.016-0.283c-0.006-0.137-0.029-0.271-0.031-0.408
				c0-0.064,0.036-0.129,0.049-0.194c0.054-0.275,0.127-0.546,0.105-0.83c-0.004-0.079,0.033-0.161,0.043-0.241
				c0.014-0.109,0.023-0.218,0.029-0.326c0.002-0.054-0.019-0.111-0.008-0.165c0.037-0.183,0.016-0.358-0.026-0.54
				c-0.02-0.093,0.031-0.201,0.049-0.302c0.017-0.104,0.054-0.209,0.044-0.312c-0.024-0.25,0.095-0.451,0.195-0.662
				c0.087-0.184,0.226-0.343,0.226-0.572c-0.001-0.114,0.103-0.228,0.151-0.344c0.024-0.055,0.049-0.114,0.052-0.174
				c0.004-0.082-0.015-0.165-0.018-0.246c-0.001-0.033,0.005-0.083,0.028-0.102c0.19-0.179,0.305-0.404,0.42-0.633
				c0.074-0.146,0.17-0.155,0.339-0.16c0.278-0.009,0.374,0.107,0.448,0.376c0.079,0.281,0.14,0.555,0.145,0.844
				c0.003,0.1,0.037,0.177,0.142,0.211c0.032,0.012,0.071,0.035,0.085,0.062c0.042,0.09,0.096,0.146,0.203,0.162
				c0.04,0.006,0.066,0.079,0.107,0.112c0.051,0.039,0.104,0.082,0.162,0.097c0.023,0.007,0.097-0.067,0.091-0.093
				c-0.013-0.057-0.05-0.117-0.096-0.156c-0.095-0.082-0.204-0.151-0.303-0.229c-0.021-0.017-0.045-0.066-0.036-0.078
				c0.021-0.025,0.06-0.053,0.091-0.05c0.149,0.01,0.298,0.029,0.446,0.046c0.127,0.015,0.25,0.031,0.377,0.042
				c0.017,0.004,0.039-0.004,0.049-0.013c0.238-0.239,0.468-0.075,0.699,0.009c0.084,0.032,0.166,0.091,0.252,0.098
				c0.18,0.014,0.257,0.145,0.35,0.262c0.007,0.011,0.016,0.029,0.01,0.039c-0.114,0.257,0.145,0.481,0.064,0.741
				c-0.043,0.142-0.041,0.276,0.031,0.43c0.086,0.179,0.006,0.337-0.164,0.444c-0.07,0.043-0.148,0.074-0.22,0.113
				c-0.03,0.017-0.073,0.037-0.079,0.062c-0.036,0.182-0.17,0.248-0.351,0.29c0.048,0.082,0.092,0.154,0.13,0.229
				c0.033,0.062,0.072,0.126,0.082,0.193c0.018,0.142-0.01,0.153-0.154,0.123c-0.049-0.011-0.123-0.001-0.154,0.031
				c-0.023,0.022-0.008,0.104,0.014,0.148c0.045,0.099-0.023,0.211-0.15,0.218c-0.133,0.007-0.266,0.001-0.399-0.005
				c-0.186-0.008-0.296,0.071-0.36,0.241c-0.021,0.06-0.078,0.111-0.129,0.152c-0.1,0.08-0.146,0.174-0.121,0.3
				c0.035,0.173,0.072,0.347,0.115,0.55c0.027-0.046,0.035-0.071,0.051-0.081c0.031-0.017,0.067-0.023,0.101-0.033
				c0.004,0.038,0.027,0.099,0.011,0.111c-0.076,0.061-0.041,0.121-0.039,0.195c0.01,0.213,0.008,0.419-0.125,0.616
				c-0.123,0.184-0.246,0.341-0.449,0.443c-0.078,0.037-0.141,0.156-0.164,0.248c-0.094,0.402-0.061,0.814-0.091,1.224
				c-0.003,0.048,0.021,0.098,0.029,0.148c0.015,0.11,0.028,0.224,0.04,0.336c0.004,0.03-0.009,0.07,0.006,0.094
				c0.104,0.146,0.05,0.277-0.014,0.423c-0.042,0.091-0.045,0.207-0.037,0.309c0.006,0.053,0.066,0.127,0.117,0.143
				c0.217,0.072,0.283,0.262,0.362,0.441c0.011,0.022-0.015,0.076-0.039,0.101c-0.126,0.121-0.257,0.237-0.278,0.423
				c-0.01,0.087-0.021,0.185,0.008,0.26c0.113,0.288,0.111,0.578,0.047,0.869c-0.02,0.086-0.063,0.167-0.18,0.187
				c-0.042,0.007-0.093,0.067-0.106,0.115c-0.019,0.063-0.007,0.136-0.001,0.205c0.008,0.075,0.039,0.088,0.121,0.068
				c0.183-0.044,0.371-0.045,0.539,0.062c0.093,0.057,0.152,0.14,0.119,0.251c-0.036,0.122-0.146,0.126-0.25,0.123
				c-0.088-0.003-0.178-0.005-0.266-0.02c-0.057-0.01-0.105-0.046-0.16-0.064c-0.036-0.015-0.096-0.041-0.107-0.029
				c-0.092,0.104-0.221,0.206-0.248,0.328c-0.033,0.145,0.029,0.309,0.045,0.465c0.007,0.08,0.018,0.164-0.001,0.24
				c-0.03,0.123-0.108,0.239-0.116,0.363c-0.012,0.169-0.007,0.352,0.045,0.511c0.055,0.161,0.025,0.287-0.053,0.413
				c-0.072,0.121-0.119,0.238-0.033,0.383c-0.118,0.021-0.117,0.085-0.102,0.181c0.022,0.131,0.021,0.266,0.02,0.398
				c-0.002,0.19,0.055,0.251,0.244,0.287c0.061,0.011,0.109,0.079,0.164,0.121c-0.043,0.032-0.08,0.076-0.129,0.094
				c-0.134,0.051-0.213,0.182-0.216,0.351c-0.001,0.093-0.003,0.191-0.03,0.281c-0.025,0.089-0.084,0.148-0.189,0.188
				c-0.182,0.07-0.288,0.24-0.345,0.422c-0.018,0.053,0.05,0.138,0.09,0.201c0.005,0.008,0.079-0.023,0.12-0.04
				c0.09-0.041,0.173-0.066,0.272-0.017c0.093,0.047,0.198,0.07,0.3,0.095c0.098,0.024,0.16,0.074,0.193,0.172
				c0.07,0.202,0.147,0.401,0.225,0.601c0.008,0.023,0.029,0.047,0.051,0.056c0.012,0.005,0.049-0.018,0.053-0.031
				c0.015-0.078,0.022-0.156,0.033-0.234c0.02-0.166,0.033-0.331,0.064-0.495c0.008-0.036,0.07-0.069,0.113-0.091
				c0.191-0.088,0.393-0.135,0.6-0.155c0.045-0.005,0.09-0.026,0.135-0.027c0.078,0,0.178-0.02,0.232,0.021
				c0.2,0.149,0.422,0.148,0.65,0.124c0.217-0.024,0.303,0.035,0.377,0.246c0.02,0.055,0.049,0.112,0.09,0.152
				c0.152,0.146,0.184,0.34,0.236,0.528c0.029,0.105,0.061,0.211,0.107,0.311c0.133,0.283,0.238,0.562,0.058,0.869
				c-0.062,0.105-0.085,0.233-0.13,0.364c-0.002,0,0.011,0.013,0.027,0.016c0.08,0.017,0.155,0.035,0.157,0.14
				c0,0.109-0.095,0.098-0.158,0.117c-0.173,0.054-0.347,0.106-0.522,0.144c-0.043,0.008-0.098-0.041-0.139-0.08
				c-0.224-0.06-0.445-0.035-0.664,0.048c-0.038,0.015-0.082,0.019-0.123,0.019c-0.182-0.004-0.361-0.008-0.542-0.014
				c-0.026,0-0.063-0.004-0.077-0.021c-0.149-0.192-0.374-0.112-0.564-0.157c-0.086-0.02-0.181-0.007-0.271-0.02
				c-0.081-0.008-0.114,0.007-0.12,0.1c-0.008,0.14-0.031,0.282-0.062,0.42c-0.05,0.229,0.093,0.377,0.221,0.521
				c0.098,0.108,0.238,0.061,0.361,0.02c0.027-0.009,0.053-0.024,0.08-0.021c0.146,0.011,0.279-0.028,0.395-0.119
				c0.144-0.117,0.289-0.035,0.432-0.006c0.029,0.007,0.074,0.08,0.066,0.107c-0.027,0.083-0.057,0.179-0.118,0.233
				c-0.052,0.042-0.147,0.04-0.222,0.04c-0.146-0.003-0.272,0.016-0.396,0.114c-0.062,0.051-0.189,0.044-0.282,0.029
				c-0.081-0.012-0.121,0.007-0.146,0.077c-0.057,0.158-0.104,0.321-0.17,0.474c-0.035,0.081-0.088,0.164-0.156,0.219
				c-0.156,0.125-0.227,0.358-0.476,0.375c-0.05,0.005-0.104,0.084-0.138,0.142c-0.24,0.399-0.471,0.802-0.711,1.2
				c-0.05,0.082-0.051,0.15-0.003,0.216c0.122,0.161,0.198,0.362,0.401,0.453c0.131,0.061,0.261,0.119,0.393,0.174
				c0.101,0.042,0.207,0.073,0.303,0.124c0.039,0.022,0.074,0.082,0.082,0.132c0.049,0.243,0.094,0.487,0.131,0.734
				c0.037,0.253,0.055,0.505-0.145,0.708c-0.045,0.044-0.094,0.087-0.148,0.114c-0.283,0.139-0.438,0.369-0.496,0.674
				c-0.008,0.044-0.023,0.088-0.034,0.132c-0.007,0.034-0.032,0.084-0.019,0.104c0.088,0.129,0.18,0.257,0.283,0.372
				c0.062,0.068,0.154,0.109,0.22,0.177c0.097,0.099,0.188,0.196,0.334,0.226c0.056,0.008,0.101,0.07,0.155,0.082
				c0.082,0.018,0.172,0.024,0.254,0.011c0.156-0.026,0.227,0.011,0.255,0.167c0.009,0.05,0.011,0.101,0.015,0.151
				c0.018,0.278-0.028,0.343-0.301,0.366c-0.238,0.021-0.477,0.03-0.715,0.039c-0.223,0.007-0.389-0.095-0.465-0.298
				c-0.072-0.193-0.221-0.245-0.395-0.264c-0.389-0.041-0.781-0.074-1.17-0.118c-0.06-0.006-0.119-0.045-0.17-0.083
				c-0.23-0.179-0.466-0.312-0.785-0.282c-0.174,0.016-0.337,0.048-0.504,0.082c-0.081,0.017-0.192-0.019-0.266-0.068
				c-0.121-0.083-0.211-0.065-0.325,0.006c-0.281,0.177-0.515,0.423-0.821,0.557c-0.021,0.009-0.043,0.032-0.062,0.027
				c-0.266-0.052-0.45,0.144-0.674,0.219c-0.057,0.018-0.15,0.015-0.186-0.021c-0.119-0.111-0.251-0.178-0.406-0.227
				c-0.107-0.034-0.191-0.14-0.291-0.209c-0.069-0.05-0.141-0.11-0.221-0.135c-0.152-0.05-0.311-0.074-0.486-0.113
				c-0.01,0.029-0.037,0.067-0.042,0.108c-0.019,0.171-0.142,0.243-0.277,0.284c-0.125,0.037-0.21-0.046-0.289-0.139
				c-0.038-0.047-0.11-0.067-0.169-0.098c-0.09-0.046-0.184-0.086-0.271-0.139c-0.072-0.044-0.136-0.104-0.209-0.148
				c-0.104-0.068-0.201-0.069-0.315,0.009c-0.126,0.086-0.272,0.064-0.407-0.001c-0.152-0.074-0.301-0.115-0.476-0.091
				c-0.151,0.021-0.31,0.008-0.464-0.005c-0.047-0.002-0.09-0.054-0.136-0.077c-0.183-0.091-0.368-0.18-0.551-0.269
				c-0.013-0.005-0.024-0.014-0.038-0.017c-0.369-0.064-0.738-0.127-1.107-0.193c-0.039-0.007-0.082-0.018-0.115-0.038
				c-0.199-0.119-0.414-0.139-0.641-0.144c-0.182-0.003-0.363-0.063-0.545-0.077c-0.121-0.01-0.27-0.021-0.368,0.036
				c-0.264,0.152-0.524,0.153-0.806,0.085c-0.116-0.029-0.242-0.012-0.363-0.021c-0.175-0.012-0.35-0.027-0.524-0.044
				c-0.183-0.017-0.326,0.052-0.449,0.184c-0.034,0.036-0.099,0.054-0.15,0.06c-0.14,0.02-0.28,0.028-0.421,0.041
				c-0.066,0.004-0.135,0.01-0.202,0.012c-0.067,0.003-0.136-0.007-0.204-0.003c-0.365,0.009-0.73,0.02-1.094,0.031
				c-0.02,0.001-0.04-0.004-0.055,0.006c-0.258,0.162-0.55,0.077-0.826,0.114c-0.217,0.028-0.436,0.052-0.654,0.069
				c-0.078,0.005-0.164-0.003-0.238-0.027c-0.322-0.104-0.611-0.039-0.887,0.146c-0.063,0.04-0.149,0.042-0.225,0.061
				c-0.019,0.004-0.039,0-0.055,0.007c-0.312,0.152-0.619,0.064-0.932-0.012c-0.206-0.048-0.417-0.05-0.638-0.029
				c-0.282,0.026-0.571-0.035-0.858-0.052c-0.148-0.008-0.3,0-0.45,0.004c-0.063,0-0.127,0.013-0.19,0.013
				c-0.176-0.003-0.353-0.009-0.529-0.013c-0.008,0-0.02-0.001-0.027,0.004c-0.24,0.16-0.487,0.004-0.73,0.017
				c-0.227,0.01-0.442-0.052-0.663-0.057c-0.198-0.006-0.401,0.06-0.599,0.112c-0.207,0.057-0.4,0.133-0.636,0.11
				c-0.324-0.031-0.657,0.014-0.987,0.036c-0.161,0.01-0.321,0.048-0.482,0.059c-0.076,0.006-0.156-0.021-0.235-0.035
				c-0.194-0.032-0.386-0.08-0.579-0.096c-0.363-0.033-0.729-0.053-1.094-0.068c-0.305-0.011-0.609-0.003-0.914-0.014
				c-0.249-0.01-0.494-0.007-0.74-0.102c-0.186-0.07-0.404-0.052-0.609-0.066c-0.27-0.021-0.539-0.052-0.809-0.045
				c-0.172,0.002-0.346,0.068-0.519,0.093c-0.124,0.015-0.254,0.002-0.38,0.011c-0.113,0.008-0.232,0.002-0.332,0.045
				c-0.192,0.085-0.379,0.063-0.564,0.01c-0.185-0.053-0.311-0.375-0.248-0.599c0.024-0.088,0.061-0.172,0.088-0.261
				c0.041-0.136,0.129-0.203,0.258-0.271c0.189-0.099,0.42-0.181,0.47-0.436c0.01-0.053,0.018-0.119-0.005-0.164
				c-0.068-0.137-0.141-0.263-0.062-0.427c0.03-0.064,0.008-0.152,0.012-0.23c0.003-0.027,0.014-0.056,0.03-0.075
				c0.093-0.112,0.13-0.228,0.076-0.372c-0.013-0.033,0.025-0.093,0.052-0.13c0.062-0.083,0.049-0.136-0.053-0.158
				c-0.065-0.015-0.133-0.036-0.197-0.033c-0.088,0.008-0.135,0.052-0.17,0.154c-0.033,0.097-0.159,0.175-0.26,0.234
				c-0.093,0.052-0.169,0.091-0.178,0.214c-0.004,0.038-0.082,0.094-0.135,0.102c-0.165,0.022-0.332,0.031-0.501,0.037
				c-0.069,0.001-0.14-0.016-0.245-0.028c0.076,0.156,0.027,0.248-0.099,0.311c-0.028,0.014-0.044,0.069-0.052,0.106
				c-0.023,0.097-0.086,0.13-0.174,0.114c-0.086-0.015-0.134-0.06-0.127-0.161c0.011-0.228,0.016-0.238,0.238-0.323
				c0.029-0.012,0.054-0.037,0.086-0.06c-0.023-0.017-0.034-0.026-0.037-0.026c-0.279,0.147-0.535,0.056-0.771-0.095
				c-0.076-0.048-0.118-0.158-0.164-0.247c-0.05-0.096-0.08-0.202-0.132-0.298c-0.028-0.051-0.081-0.097-0.134-0.129
				c-0.088-0.053-0.188-0.089-0.276-0.14c-0.117-0.068-0.11-0.274,0.015-0.401c0.202-0.206,0.443-0.283,0.725-0.192
				c0.035,0.012,0.071,0.028,0.097,0.052c0.187,0.166,0.397,0.162,0.628,0.123c0.11-0.02,0.242-0.003,0.342,0.045
				c0.106,0.049,0.185,0.158,0.28,0.231c0.035,0.027,0.089,0.044,0.133,0.041c0.062-0.003,0.121-0.029,0.202-0.053
				c-0.01-0.032-0.011-0.075-0.031-0.102c-0.14-0.18-0.107-0.375-0.037-0.562c0.095-0.249,0.088-0.484-0.037-0.715
				c-0.025-0.046-0.062-0.094-0.107-0.121c-0.104-0.061-0.211-0.115-0.32-0.165c-0.115-0.054-0.173-0.17-0.158-0.351
				c0.018-0.209,0.043-0.416,0.061-0.626c0.014-0.151,0.019-0.307,0.023-0.46c0.001-0.024-0.027-0.048-0.034-0.07
				c-0.017-0.057-0.058-0.129-0.037-0.168c0.083-0.154,0.081-0.361,0.29-0.466c-0.191-0.126-0.125-0.305-0.113-0.474
				c0.01-0.138,0.048-0.253,0.198-0.312c0.06-0.021,0.104-0.093,0.145-0.149c0.068-0.095,0.148-0.19,0.187-0.297
				c0.053-0.149,0.07-0.31,0.105-0.466c0.049-0.219,0.125-0.287,0.346-0.332c0.037-0.007,0.068-0.043,0.103-0.064
				c0.06-0.034,0.108-0.106,0.198-0.062c0.017,0.008,0.058-0.027,0.085-0.046c0.064-0.039,0.105-0.137,0.208-0.074
				c0.096,0.057,0.188,0.102,0.158,0.251c-0.035,0.185,0.108,0.411,0.283,0.507c0.041,0.021,0.074,0.063,0.1,0.104
				c0.104,0.156,0.209,0.311,0.297,0.475c0.029,0.055,0.019,0.142,0,0.207c-0.031,0.104-0.057,0.231-0.129,0.299
				c-0.141,0.123-0.178,0.266-0.18,0.437c0,0.029-0.026,0.058-0.045,0.084c-0.034,0.059-0.027,0.091,0.04,0.13
				c0.253,0.144,0.462,0.33,0.554,0.618c0.012,0.034,0.036,0.064,0.061,0.092c0.145,0.153,0.242,0.354,0.457,0.435
				c0.01,0.002,0.02,0.007,0.023,0.015c0.101,0.179,0.226,0.219,0.393,0.082c0.014-0.012,0.076,0.016,0.096,0.041
				C5.7,34.037,5.688,34.1,5.668,34.112c-0.084,0.047-0.084,0.121-0.051,0.189c0.061,0.124,0.133,0.243,0.199,0.365
				c0.023,0.042,0.062,0.083,0.064,0.128c0.016,0.236,0.018,0.476,0.031,0.711c0.014,0.203,0.017,0.408,0.061,0.605
				c0.055,0.256,0.148,0.503,0.225,0.755c0.004,0.013,0.008,0.029,0.016,0.037c0.153,0.149,0.3,0.312,0.465,0.448
				c0.275,0.228,0.615,0.194,0.943,0.199c0.375,0.003,0.75,0.012,1.123,0.023c0.238,0.007,0.477,0.021,0.714,0.043
				c0.076,0.006,0.148,0.06,0.226,0.083c0.244,0.079,0.498,0.053,0.748,0.069c0.347,0.021,0.619-0.181,0.939-0.214
				c0.104-0.013,0.207-0.013,0.312-0.017c0.318-0.008,0.65,0.036,0.953-0.038c0.252-0.06,0.465-0.062,0.706,0.004
				c0.116,0.034,0.258-0.022,0.387-0.031c0.075-0.005,0.149-0.001,0.224,0.004c0.23,0.019,0.451,0.119,0.691-0.021
				c0.154-0.089,0.342-0.134,0.537-0.124c0.068,0.003,0.139-0.114,0.213-0.17c0.054-0.04,0.115-0.09,0.179-0.098
				c0.319-0.037,0.638-0.073,0.958-0.087c0.153-0.006,0.307,0.039,0.462,0.061c0.112,0.017,0.228,0.028,0.339,0.049
				c0.074,0.014,0.145,0.042,0.219,0.062c0.033,0.01,0.068,0.019,0.103,0.018c0.042,0,0.085-0.028,0.121-0.02
				c0.272,0.075,0.587,0.006,0.819,0.224c0.072,0.068,0.335,0.11,0.418,0.054c0.035-0.024,0.053-0.075,0.08-0.084
				c0.113-0.019,0.227-0.033,0.341-0.051c0.059-0.01,0.117-0.031,0.175-0.028c0.191,0.002,0.365-0.021,0.545-0.108
				c0.125-0.061,0.297-0.045,0.445-0.033c0.24,0.019,0.488-0.008,0.715,0.104c0.027,0.013,0.062,0.006,0.094,0.01
				c0.268,0.038,0.533,0.081,0.799,0.114c0.058,0.007,0.142,0.001,0.175-0.034c0.163-0.179,0.374-0.218,0.594-0.23
				c0.413-0.021,0.826-0.032,1.239-0.054c0.077-0.005,0.152-0.055,0.229-0.057c0.085-0.004,0.173,0.027,0.261,0.035
				c0.045,0.006,0.094-0.006,0.139-0.014c0.035-0.007,0.068-0.018,0.102-0.024c0.043-0.01,0.096-0.001,0.132-0.021
				c0.228-0.138,0.46-0.135,0.713-0.078c0.111,0.025,0.252-0.001,0.359-0.047c0.138-0.062,0.242-0.039,0.336,0.057
				c0.076,0.08,0.157,0.087,0.25,0.061c0.321-0.094,0.646-0.063,0.966,0.001c0.156,0.032,0.312,0.074,0.461,0.131
				c0.188,0.071,0.298-0.062,0.41-0.153c0.169-0.138,0.342-0.253,0.566-0.233c0.093,0.008,0.189,0.033,0.273,0.074
				c0.334,0.164,0.654,0.354,0.994,0.503c0.176,0.075,0.381,0.09,0.574,0.116c0.176,0.024,0.367-0.011,0.527,0.048
				c0.227,0.079,0.497,0.078,0.67,0.295c0.035,0.042,0.108,0.07,0.166,0.075c0.259,0.019,0.51,0.072,0.752,0.161
				c0.02,0.007,0.047,0.014,0.063,0.005c0.167-0.073,0.279,0.021,0.362,0.138c0.067,0.096,0.143,0.109,0.236,0.078
				c0.187-0.062,0.371-0.127,0.557-0.195c0.035-0.014,0.066-0.046,0.098-0.072c0.016-0.016,0.02-0.046,0.037-0.057
				c0.176-0.11,0.344-0.233,0.53-0.321c0.126-0.06,0.218-0.126,0.313-0.237c0.188-0.221,0.145-0.441,0.101-0.68
				c-0.011-0.062,0.015-0.13,0.002-0.192c-0.033-0.148-0.083-0.296-0.118-0.443c-0.013-0.06-0.002-0.121-0.001-0.183
				c0.001-0.039,0.009-0.08,0.004-0.12c-0.042-0.352-0.091-0.701-0.124-1.056c-0.01-0.076,0.029-0.161,0.064-0.233
				c0.068-0.147,0.072-0.287,0.039-0.448c-0.033-0.159-0.008-0.338,0.023-0.501c0.039-0.219,0.11-0.433,0.164-0.647
				c0.021-0.089,0.04-0.181,0.047-0.272c0.004-0.026-0.023-0.072-0.047-0.083c-0.09-0.033-0.133-0.098-0.16-0.188
				c-0.045-0.144-0.121-0.276-0.162-0.421c-0.024-0.088-0.03-0.195-0.006-0.282c0.133-0.459,0.113-0.934,0.154-1.4
				c0.012-0.114,0.039-0.202,0.153-0.253c0.035-0.016,0.056-0.065,0.084-0.098c0.071-0.085,0.128-0.193,0.218-0.249
				c0.098-0.061,0.123-0.118,0.094-0.221C35.807,29.277,35.807,29.229,35.799,29.164z M2.874,32.141
				c-0.01,0.154,0.033,0.327-0.035,0.406c-0.133,0.153-0.051,0.32-0.127,0.47c0.175,0.005,0.371-0.112,0.41-0.225
				c0.031-0.099,0.07-0.193,0.105-0.289c0.025-0.064,0.048-0.117-0.053-0.146c-0.043-0.011-0.087-0.062-0.106-0.106
				C3.017,32.144,2.947,32.111,2.874,32.141z"/>
			<path fill-rule="evenodd" clip-rule="evenodd" fill="#EADAB8" d="M40.798,5.104c-0.04,0.126-0.088,0.228-0.233,0.245
				c-0.027,0.003-0.047,0.065-0.072,0.101c0.029,0.018,0.055,0.034,0.086,0.047c0.203,0.089,0.416,0.12,0.639,0.105
				c0.037-0.003,0.078,0.053,0.12,0.083c-0.042,0.034-0.077,0.081-0.125,0.098c-0.058,0.021-0.124,0.018-0.214,0.025
				c0.055,0.143,0.116,0.261,0.145,0.388c0.025,0.112,0.027,0.234,0.015,0.351c-0.015,0.123-0.095,0.254,0.103,0.304
				c0.017,0.003,0.033,0.033,0.037,0.052c0.016,0.091,0.027,0.183,0.042,0.285c-0.073-0.092-0.142-0.045-0.225-0.004
				c-0.204,0.106-0.306,0.047-0.341-0.17c-0.006-0.033-0.05-0.082-0.082-0.087c-0.184-0.032-0.369-0.061-0.555-0.074
				c-0.109-0.008-0.22,0.015-0.33,0.019c-0.127,0.008-0.228,0.056-0.293,0.173c-0.027,0.046-0.078,0.079-0.106,0.126
				c-0.022,0.037-0.039,0.09-0.034,0.132c0.017,0.112,0.042,0.224,0.072,0.332c0.007,0.029,0.039,0.055,0.068,0.069
				c0.052,0.027,0.108,0.047,0.178,0.073c0.012-0.045,0.023-0.095,0.037-0.146c0.107-0.031,0.195-0.017,0.309,0.024
				c0.185,0.067,0.395,0.068,0.594,0.093c0.053,0.006,0.11-0.013,0.164-0.007c0.116,0.014,0.209,0.021,0.223-0.145
				c0.008-0.088,0.163-0.097,0.213,0.009c0.074,0.156,0.18,0.285,0.271,0.425c0.052,0.081-0.001,0.18-0.093,0.233
				c-0.037,0.022-0.074,0.041-0.13,0.08c0.175-0.005,0.181,0.054,0.116,0.175c-0.029,0.055-0.008,0.135-0.012,0.204
				c-0.014,0.198-0.146,0.3-0.424,0.318c-0.105,0.007-0.211-0.001-0.32-0.002c-0.018,0.101-0.023,0.172,0.053,0.257
				c0.064,0.072,0.084,0.193,0.101,0.296c0.016,0.103,0.006,0.189,0.13,0.242c0.135,0.054,0.212,0.472,0.15,0.634
				c-0.039,0.101-0.064,0.208-0.074,0.315c-0.018,0.184-0.177,0.315-0.359,0.282c-0.168-0.029-0.314-0.084-0.452-0.199
				c-0.11-0.095-0.271-0.154-0.417-0.176c-0.287-0.044-0.33-0.269-0.404-0.477c-0.021-0.062-0.035-0.134-0.035-0.201
				c0.001-0.128,0.213-0.287,0.344-0.266c0.049,0.008,0.097,0.015,0.174,0.026c-0.049-0.102-0.084-0.178-0.122-0.251
				c-0.042-0.076-0.054-0.144,0.031-0.201c0.028-0.02,0.043-0.06,0.062-0.091c0.102-0.169,0.143-0.178,0.336-0.112
				c0.088,0.029,0.184,0.037,0.282,0.056c-0.033-0.113-0.253-0.226-0.388-0.222c-0.079,0-0.164-0.006-0.235-0.036
				c-0.175-0.069-0.339-0.09-0.505,0.018c-0.049,0.033-0.111,0.042-0.164,0.066c-0.095,0.043-0.184,0.096-0.281,0.133
				c-0.105,0.039-0.217,0.065-0.324,0.097c-0.031,0.008-0.077,0.008-0.088,0.028c-0.08,0.15-0.231,0.185-0.373,0.228
				c-0.088,0.027-0.187,0.046-0.275,0.032c-0.033-0.005-0.056-0.104-0.08-0.16c-0.018-0.04-0.02-0.098-0.047-0.117
				c-0.052-0.036-0.102-0.036-0.142,0.042c-0.038,0.08-0.118,0.066-0.173,0.01c-0.047-0.051-0.076-0.119-0.113-0.182
				c-0.012-0.02-0.008-0.051-0.022-0.063c-0.206-0.173-0.188-0.404-0.168-0.637c0.014-0.144,0.006-0.299,0.054-0.432
				c0.088-0.237,0.205-0.466,0.327-0.69c0.026-0.052,0.123-0.068,0.188-0.093c0.152-0.051,0.185-0.135,0.118-0.278
				c-0.082-0.178-0.169-0.355-0.222-0.54c-0.032-0.105-0.003-0.228-0.004-0.342c-0.003-0.071-0.002-0.146-0.02-0.216
				c-0.049-0.197-0.114-0.391-0.16-0.588c-0.029-0.132-0.025-0.273-0.066-0.399c-0.019-0.062-0.099-0.14-0.159-0.146
				c-0.237-0.028-0.392-0.178-0.56-0.321c-0.075-0.062-0.182-0.093-0.277-0.13c-0.193-0.075-0.393-0.142-0.583-0.223
				c-0.257-0.109-0.52-0.177-0.798-0.183c-0.153-0.003-0.287,0.038-0.433,0.089C34.218,4,33.951,4.092,33.687,3.935
				c-0.052-0.031-0.122-0.033-0.185-0.037c-0.177-0.014-0.361,0.005-0.531-0.038c-0.137-0.035-0.266-0.131-0.381-0.222
				c-0.108-0.086-0.204-0.165-0.355-0.13c-0.039,0.011-0.09-0.008-0.131-0.026c-0.254-0.12-0.383-0.088-0.559,0.126
				c-0.043,0.049-0.102,0.096-0.161,0.12c-0.185,0.067-0.375,0.118-0.558,0.19c-0.088,0.036-0.158,0.114-0.244,0.154
				c-0.068,0.031-0.146,0.037-0.222,0.053c-0.058,0.012-0.12,0.008-0.172,0.03c-0.269,0.116-0.546,0.198-0.839,0.216
				c-0.391,0.023-0.783-0.062-1.175,0.04c-0.098,0.025-0.229-0.017-0.325-0.066c-0.097-0.048-0.173-0.052-0.257-0.002
				c-0.142,0.084-0.269,0.079-0.423-0.001c-0.145-0.074-0.322-0.086-0.486-0.12c-0.085-0.018-0.172-0.027-0.258-0.031
				c-0.059-0.004-0.133-0.012-0.175,0.017c-0.127,0.09-0.265,0.071-0.405,0.086C25.687,4.31,25.522,4.36,25.383,4.44
				c-0.143,0.079-0.269,0.073-0.42,0.05c-0.24-0.035-0.47-0.132-0.724-0.068c-0.129,0.031-0.278-0.019-0.406,0.017
				c-0.283,0.075-0.566,0.089-0.851,0.036c-0.186-0.037-0.36-0.05-0.553-0.014c-0.221,0.04-0.455,0.021-0.683,0.029
				c-0.092,0.004-0.185,0.023-0.275,0.018c-0.33-0.021-0.662-0.045-0.994-0.076c-0.253-0.023-0.505-0.062-0.759-0.081
				c-0.111-0.008-0.227,0.031-0.338,0.022c-0.131-0.009-0.258-0.045-0.387-0.072c-0.072-0.017-0.148-0.059-0.219-0.053
				c-0.29,0.028-0.498-0.136-0.701-0.294c-0.125-0.096-0.268-0.191-0.322-0.361c-0.01-0.028-0.065-0.056-0.103-0.06
				c-0.192-0.021-0.392-0.068-0.567,0.069c-0.008,0.004-0.021,0.007-0.022,0.013c-0.068,0.271-0.3,0.12-0.451,0.173
				c-0.028,0.011-0.073-0.013-0.093,0.001c-0.205,0.147-0.404,0.046-0.604-0.004c-0.122-0.029-0.254-0.04-0.366-0.091
				c-0.125-0.056-0.143-0.207-0.051-0.312c0.016-0.016,0.059-0.021,0.085-0.015c0.172,0.041,0.331,0.012,0.498-0.039
				c0.155-0.046,0.323-0.053,0.487-0.058c0.06-0.003,0.119,0.054,0.184,0.074c0.062,0.021,0.131,0.03,0.224,0.05
				c-0.072-0.161-0.123-0.282-0.178-0.399c-0.042-0.091-0.08-0.18-0.19-0.221c-0.045-0.017-0.066-0.094-0.096-0.145
				c-0.018-0.027-0.029-0.057-0.066-0.092c0.064,0.204-0.065,0.272-0.205,0.333c-0.022,0.01-0.06,0.029-0.061,0.046
				c-0.012,0.203-0.181,0.117-0.281,0.153c-0.012,0.004-0.055-0.035-0.052-0.047c0.022-0.097,0.005-0.215,0.135-0.263
				c0.025-0.01,0.06-0.05,0.056-0.072c-0.016-0.106-0.041-0.213-0.068-0.341C15.92,2.4,15.886,2.435,15.862,2.473
				c-0.123,0.199-0.311,0.19-0.505,0.165c-0.036-0.005-0.079-0.015-0.106,0.002c-0.134,0.071-0.264,0.148-0.394,0.229
				c-0.089,0.055-0.082,0.097,0.011,0.155c0.127,0.081,0.254,0.142,0.412,0.146c0.089,0.001,0.166,0.062,0.154,0.172
				c-0.011,0.113-0.121,0.206-0.217,0.205c-0.066-0.001-0.132,0.02-0.197,0.031c-0.018,0.004-0.038,0.024-0.051,0.021
				c-0.205-0.08-0.344,0.102-0.521,0.134c-0.206,0.035-0.403-0.018-0.567-0.14c-0.059-0.046-0.098-0.163-0.088-0.241
				c0.012-0.089,0.108-0.085,0.192-0.07c0.026,0.005,0.063-0.035,0.094-0.057c0.073-0.053,0.144-0.108,0.218-0.156
				c0.051-0.033,0.107-0.057,0.162-0.085c-0.043-0.045-0.088-0.091-0.107-0.113c-0.168,0.092-0.305,0.177-0.451,0.243
				c-0.068,0.031-0.16-0.101-0.137-0.193c0.009-0.033,0.025-0.067,0.041-0.101c0.037-0.092,0.052-0.17,0.014-0.28
				c-0.046-0.136-0.035-0.293,0.057-0.428c0.19,0.117,0.204,0.108,0.37-0.167c-0.134-0.143-0.228-0.132-0.354,0.013
				c-0.079,0.091-0.157,0.156-0.112,0.305c0.028,0.099-0.114,0.188-0.224,0.165c-0.066-0.013-0.133-0.027-0.199-0.047
				c-0.021-0.004-0.039-0.021-0.053-0.028c-0.031,0.034-0.058,0.069-0.09,0.101c-0.071,0.072-0.078,0.151-0.027,0.236
				c0.121,0.2,0.176,0.398,0.012,0.605c-0.019,0.024-0.016,0.064-0.031,0.089c-0.033,0.05-0.069,0.13-0.113,0.135
				C12.91,3.536,12.76,3.53,12.612,3.53c-0.084-0.002-0.171-0.015-0.256-0.01c-0.109,0.006-0.145-0.035-0.108-0.134
				c0.056-0.149,0.13-0.192,0.266-0.168c0.046,0.009,0.096-0.005,0.144-0.007c-0.006-0.062,0.01-0.137-0.021-0.18
				c-0.094-0.127-0.163-0.278-0.358-0.307c-0.138-0.021-0.165-0.149-0.083-0.262c0.027-0.037,0.053-0.075,0.088-0.106
				c0.068-0.062,0.06-0.108,0.004-0.185c-0.045-0.063-0.045-0.159-0.072-0.238c-0.02-0.059-0.047-0.112-0.072-0.169
				c-0.056,0.039-0.141,0.07-0.16,0.125c-0.058,0.174-0.077,0.352,0.037,0.521c0.087,0.127-0.027,0.464-0.178,0.565
				c-0.033,0.021-0.071,0.042-0.119,0.067c0.064,0.056,0.125,0.106,0.186,0.157c0.119,0.103,0.09,0.304-0.056,0.363
				c-0.062,0.027-0.13,0.04-0.198,0.049c-0.224,0.032-0.451,0.051-0.674,0.094c-0.105,0.023-0.204,0.088-0.305,0.141
				c-0.186,0.097-0.446,0.046-0.583-0.117c-0.046-0.056-0.093-0.112-0.141-0.166c-0.149-0.17-0.32-0.055-0.467-0.011
				C9.312,3.605,9.149,3.637,8.975,3.588C8.946,3.58,8.9,3.57,8.881,3.586C8.745,3.701,8.594,3.639,8.448,3.63
				C8.329,3.624,8.24,3.683,8.137,3.742c-0.187,0.111-0.211,0.23-0.132,0.414c0.017,0.038-0.039,0.114-0.069,0.166
				c-0.014,0.026-0.045,0.04-0.069,0.06c0.102,0.182,0.058,0.341-0.091,0.319C7.677,4.69,7.583,4.615,7.499,4.553
				C7.461,4.525,7.454,4.456,7.429,4.398c0.05-0.016,0.089-0.03,0.134-0.043C7.525,4.238,7.473,4.26,7.404,4.323
				c-0.14,0.13-0.149,0.122-0.216-0.052C7.172,4.227,7.102,4.201,7.06,4.165C7.039,4.146,7.022,4.121,7.003,4.1
				C7.03,4.087,7.054,4.075,7.08,4.062C7.118,4.041,7.155,4.02,7.196,3.996C7.065,3.918,6.958,3.848,6.844,3.785
				c-0.026-0.014-0.07-0.004-0.105,0C6.643,3.794,6.565,3.788,6.475,3.718C6.423,3.676,6.292,3.71,6.206,3.739
				C6.11,3.771,6.022,3.833,5.938,3.89C5.852,3.945,5.773,4.014,5.692,4.076C5.636,4.119,5.578,4.159,5.524,4.204
				C5.481,4.242,5.436,4.278,5.405,4.325c-0.093,0.13-0.395,0.22-0.532,0.156C4.799,4.447,4.768,4.408,4.801,4.319
				C4.86,4.17,4.796,4.093,4.632,4.087c-0.033-0.001-0.08-0.028-0.098-0.058C4.474,3.925,4.422,3.95,4.383,4.039
				C4.352,4.112,4.317,4.134,4.232,4.135C4.088,4.136,3.946,4.175,3.79,4.201C3.786,4.155,3.792,4.112,3.778,4.079
				C3.762,4.042,3.727,3.982,3.704,3.984C3.471,4,3.39,3.806,3.262,3.679C3.166,3.582,3.124,3.482,3.221,3.35
				c0.025-0.033-0.004-0.138-0.042-0.182C3.127,3.104,3.124,3.062,3.153,2.986C3.194,2.882,3.22,2.771,3.235,2.66
				c0.02-0.146,0.128-0.254,0.276-0.249c0.083,0.003,0.106,0.045,0.087,0.131C3.577,2.627,3.553,2.718,3.564,2.805
				c0.014,0.119,0.107,0.177,0.222,0.209c0.17,0.048,0.316,0.152,0.51,0.144C4.434,3.15,4.464,3.061,4.532,2.988
				C4.596,2.92,4.656,2.842,4.719,2.772c0.04-0.042,0.09-0.075,0.127-0.119C4.867,2.629,4.885,2.58,4.874,2.562
				C4.856,2.534,4.81,2.526,4.764,2.503C4.756,2.558,4.76,2.59,4.748,2.617C4.725,2.661,4.701,2.729,4.666,2.736
				C4.625,2.745,4.561,2.711,4.53,2.676c-0.14-0.151-0.213-0.32-0.119-0.53c0.04-0.092,0.064-0.191,0.094-0.287
				c0.01-0.033,0.008-0.07,0.013-0.11c-0.2,0.008-0.372,0.027-0.452,0.244C4.027,2.098,3.884,2.104,3.77,2.018
				C3.645,1.921,3.524,1.837,3.354,1.846C3.288,1.85,3.22,1.783,3.151,1.755C3.083,1.726,3.012,1.69,2.94,1.678
				c-0.178-0.03-0.362-0.256-0.346-0.435c0.018-0.161,0.367-0.326,0.508-0.238c0.043,0.027,0.094,0.054,0.119,0.092
				c0.181,0.274,0.418,0.242,0.676,0.145c0.037-0.017,0.08-0.027,0.121-0.024C4.17,1.234,4.325,1.249,4.475,1.28
				c0.057,0.012,0.114,0.056,0.16,0.097c0.074,0.067,0.149,0.062,0.242,0.045C5.128,1.38,5.38,1.354,5.634,1.327
				C5.67,1.322,5.712,1.35,5.75,1.365c0.02,0.01,0.037,0.036,0.057,0.037c0.275,0.001,0.535,0.217,0.822,0.066
				C6.67,1.447,6.721,1.432,6.745,1.399C6.831,1.28,6.943,1.242,7.088,1.238c0.182-0.004,0.378-0.089,0.54-0.042
				c0.274,0.079,0.541,0.079,0.817,0.059C8.586,1.246,8.729,1.249,8.87,1.261c0.115,0.011,0.229,0.042,0.344,0.065
				c0.037,0.006,0.07,0.018,0.107,0.018c0.246,0.004,0.492,0.009,0.738,0.004c0.076-0.004,0.15-0.03,0.226-0.048
				c0.192-0.049,0.385-0.103,0.579-0.143C10.903,1.15,10.96,1.18,10.995,1.21c0.167,0.152,0.198,0.156,0.396,0.071
				c0.116-0.052,0.238-0.11,0.363-0.121c0.082-0.008,0.19,0.042,0.256,0.099c0.167,0.145,0.328,0.172,0.527,0.076
				c0.069-0.033,0.167-0.009,0.251-0.002c0.048,0.005,0.099,0.023,0.143,0.045c0.179,0.093,0.364,0.017,0.546,0.029
				c0.152,0.01,0.307,0.038,0.451,0.088c0.124,0.043,0.24,0.118,0.346,0.197c0.039,0.032,0.037,0.115,0.062,0.201
				c0.051-0.06,0.096-0.11,0.129-0.147c0.087,0.001,0.164-0.006,0.238,0.005c0.066,0.009,0.127,0.044,0.193,0.059
				c0.053,0.013,0.111,0.014,0.186,0.022c-0.035-0.085-0.049-0.141-0.078-0.185c-0.068-0.102-0.014-0.151,0.068-0.194
				c0.096-0.05,0.158-0.006,0.178,0.081c0.02,0.079,0.013,0.162,0.013,0.245c0,0.032-0.011,0.064-0.017,0.097
				c0.043,0.007,0.102,0.035,0.128,0.018c0.157-0.114,0.216-0.024,0.266,0.111c0.045,0.119,0.101,0.232,0.268,0.226
				c0.056-0.161,0.155-0.255,0.352-0.233c0.083,0.011,0.173-0.048,0.263-0.06c0.132-0.018,0.267-0.027,0.401-0.03
				c0.085-0.002,0.175,0.017,0.26,0.024c0.026,0.002,0.058-0.007,0.081,0.003c0.381,0.133,0.591,0.073,0.902,0.034
				c0.107-0.014,0.221-0.031,0.327-0.019c0.13,0.019,0.245,0,0.356-0.062c0.184-0.104,0.368-0.077,0.537,0.019
				c0.12,0.07,0.236,0.082,0.352,0.025c0.166-0.081,0.336-0.119,0.518-0.102c0.129,0.012,0.186-0.05,0.219-0.158
				c0.004-0.013,0.009-0.026,0.012-0.041c0.035-0.146,0.07-0.279,0.278-0.231c0.05,0.012,0.124-0.018,0.167-0.053
				c0.12-0.104,0.261-0.09,0.402-0.097c0.245-0.013,0.491-0.039,0.736-0.046c0.217-0.007,0.424,0.027,0.621,0.138
				c0.189,0.106,0.398,0.177,0.602,0.258c0.035,0.014,0.08,0.009,0.122,0.005c0.176-0.02,0.342-0.013,0.504,0.084
				c0.155,0.091,0.329,0.026,0.497,0.013c0.369-0.032,0.736-0.072,1.102,0.03c0.017,0.005,0.039,0.008,0.051,0.019
				c0.217,0.202,0.472,0.107,0.715,0.101c0.278-0.01,0.553-0.032,0.824,0.086c0.165,0.07,0.331-0.023,0.462-0.127
				c0.106-0.083,0.19-0.077,0.3-0.024c0.062,0.03,0.148,0.051,0.209,0.033c0.127-0.039,0.24-0.05,0.357,0.021
				c0.029,0.019,0.07,0.027,0.104,0.023c0.241-0.029,0.482-0.063,0.725-0.094c0.167-0.022,0.313,0.01,0.476,0.079
				c0.245,0.106,0.516,0.159,0.773,0.234c0.018,0.004,0.039,0.004,0.057,0c0.18-0.059,0.332,0.048,0.495,0.087
				c0.054,0.013,0.093,0.08,0.143,0.119c0.032,0.025,0.07,0.045,0.108,0.062c0.006,0.005,0.024-0.021,0.036-0.034
				c-0.025-0.025-0.048-0.057-0.076-0.078c-0.038-0.031-0.084-0.056-0.159-0.106c0.079-0.053,0.146-0.134,0.201-0.125
				c0.07,0.01,0.158,0.079,0.191,0.146c0.072,0.145,0.113,0.163,0.229,0.042c0.035-0.036,0.063-0.078,0.096-0.117
				c0.107-0.126,0.25-0.158,0.373-0.047c0.14,0.129,0.307,0.122,0.473,0.141c0.199,0.021,0.398,0.048,0.597,0.071
				c0.033,0.003,0.068,0.021,0.096,0.01c0.349-0.136,0.719-0.03,1.073-0.098c0.193-0.036,0.385-0.063,0.578-0.089
				c0.105-0.016,0.213-0.021,0.32-0.026c0.199-0.012,0.389,0,0.574,0.091c0.162,0.08,0.345,0.095,0.512,0.022
				c0.22-0.093,0.383,0.041,0.564,0.106c0.055,0.021,0.111,0.045,0.168,0.048c0.12,0.007,0.244-0.009,0.363,0.008
				c0.043,0.005,0.076,0.074,0.117,0.113c0.041,0.037,0.089,0.105,0.134,0.104c0.159-0.004,0.327-0.054,0.428,0.185
				c0.069-0.179,0.122-0.31,0.186-0.473c0.028,0.074,0.073,0.138,0.071,0.201c-0.002,0.066-0.049,0.131-0.09,0.232
				c0.149-0.015,0.266-0.029,0.381-0.035c0.047-0.004,0.118-0.003,0.134,0.022c0.022,0.037,0.022,0.108,0.001,0.149
				c-0.037,0.07-0.102,0.128-0.152,0.191c-0.049,0.062-0.11,0.117-0.141,0.188c-0.088,0.209-0.168,0.423-0.234,0.641
				c-0.017,0.059,0.021,0.145,0.051,0.209c0.049,0.106,0.115,0.204,0.165,0.31c0.044,0.093,0.067,0.195,0.116,0.285
				c0.072,0.132,0.297,0.19,0.449,0.184c0.178-0.009,0.378-0.084,0.538,0.078c0.013,0.013,0.042,0.018,0.061,0.015
				c0.372-0.051,0.557,0.115,0.558,0.494c0.014-0.153,0.008-0.316,0.174-0.401c-0.029-0.04-0.06-0.067-0.066-0.1
				c-0.006-0.03,0.013-0.064,0.021-0.099c0.029,0.013,0.062,0.02,0.088,0.037c0.036,0.024,0.068,0.055,0.102,0.082
				c0.011-0.009,0.021-0.021,0.031-0.03c-0.008-0.019-0.015-0.04-0.023-0.06c-0.109-0.231-0.092-0.292,0.123-0.444
				c0.032-0.024,0.066-0.068,0.068-0.106c0.01-0.115,0.078-0.171,0.178-0.171c0.102,0.001,0.193,0.063,0.195,0.178
				c0,0.111,0.06,0.166,0.133,0.235c0.118,0.114,0.184,0.261,0.158,0.435c-0.027,0.188-0.227,0.279-0.403,0.2
				C40.995,5.131,40.899,5.125,40.798,5.104z M5.204,3.408C5.061,3.406,4.928,3.405,4.786,3.404
				c0.014,0.042,0.021,0.069,0.031,0.093C4.87,3.618,4.986,3.673,5.13,3.646c0.14-0.028,0.046-0.133,0.065-0.201
				C5.203,3.423,5.204,3.403,5.204,3.408z M12.792,2.783c0.015-0.002,0.031-0.004,0.045-0.006c0.008-0.03,0.016-0.062,0.013-0.053
				c0.076-0.017,0.128-0.02,0.17-0.038c0.017-0.005,0.024-0.074,0.019-0.077C13,2.589,12.951,2.563,12.915,2.572
				c-0.053,0.013-0.107,0.046-0.139,0.089C12.758,2.686,12.784,2.741,12.792,2.783z"/>
			<path fill-rule="evenodd" clip-rule="evenodd" fill="#EADAB8" d="M2.626,12.544c-0.118-0.3-0.235-0.585-0.136-0.911
				c0.036-0.122,0-0.236-0.117-0.325c-0.128-0.094-0.185-0.212-0.145-0.392c0.049-0.229,0.185-0.408,0.272-0.611
				c0.116-0.271,0.205-0.548,0.104-0.849c-0.018-0.051-0.005-0.118,0.01-0.174C2.661,9.104,2.62,9.019,2.449,8.966
				C2.336,8.929,2.215,8.91,2.112,8.856c-0.18-0.091-0.23-0.271-0.277-0.45C1.811,8.314,1.801,8.219,1.77,8.128
				C1.713,7.958,1.777,7.846,1.946,7.8C2.059,7.769,2.153,7.775,2.27,7.816C2.467,7.89,2.764,7.879,2.881,7.607
				c0.023-0.054,0.061-0.104,0.078-0.161c0.048-0.157,0.167-0.07,0.25-0.063c0.038,0.004,0.081,0.087,0.1,0.141
				c0.008,0.024-0.029,0.085-0.058,0.1C3.133,7.684,3.127,7.707,3.226,7.819c0.296-0.125,0.11-0.45,0.265-0.633
				C3.446,7.124,3.403,7.09,3.323,7.144C3.26,7.188,3.178,7.199,3.116,7.244C2.95,7.362,2.95,7.367,2.829,7.197
				C2.783,7.134,2.728,7.072,2.705,7.002c-0.028-0.09-0.03-0.187-0.038-0.248C2.45,6.733,2.214,6.717,1.98,6.683
				C1.927,6.674,1.838,6.591,1.846,6.556c0.011-0.083,0.056-0.178,0.118-0.23c0.086-0.071,0.212-0.091,0.3-0.158
				c0.074-0.059,0.158-0.146,0.172-0.229c0.043-0.269,0.057-0.543,0.081-0.815c0.008-0.083,0.007-0.165,0.017-0.248
				c0.004-0.031,0.035-0.061,0.072-0.123C2.645,4.933,2.709,4.97,2.824,4.856C2.85,4.829,2.92,4.812,2.949,4.829
				c0.185,0.105,0.356,0.058,0.524-0.028C3.583,4.744,3.69,4.749,3.804,4.77c0.03,0.005,0.085-0.004,0.091-0.021
				c0.012-0.032,0.002-0.075-0.007-0.113c-0.006-0.02-0.031-0.033-0.045-0.052c-0.092-0.14-0.013-0.313,0.153-0.309
				C4.135,4.279,4.28,4.3,4.411,4.346c0.12,0.044,0.209,0.056,0.287-0.09C4.621,4.491,4.807,4.58,4.915,4.688
				C5.03,4.804,5.045,4.923,5.018,5.06C4.994,5.187,5.039,5.267,5.141,5.338c0.189,0.132,0.198,0.229,0.023,0.38
				c-0.117,0.101-0.221,0.237-0.41,0.213C4.75,5.944,4.739,5.959,4.743,5.969C4.854,6.27,4.792,6.564,4.724,6.86
				C4.718,6.892,4.711,6.927,4.721,6.956c0.064,0.208,0.043,0.436,0.174,0.629c0.044,0.062,0.062,0.178,0.037,0.248
				c-0.08,0.22,0.006,0.418,0.077,0.597C5.11,8.681,5.067,8.907,4.999,9.139C4.95,9.309,4.844,9.461,4.86,9.649
				c0.002,0.033-0.022,0.068-0.038,0.102C4.809,9.78,4.786,9.808,4.78,9.837c-0.025,0.185-0.068,0.371-0.063,0.557
				c0.003,0.11,0.075,0.229,0.134,0.33c0.098,0.166,0.125,0.357-0.009,0.494c-0.212,0.223-0.176,0.502-0.219,0.762
				c-0.014,0.078,0.045,0.173,0.077,0.258c0.115,0.308-0.057,0.535-0.207,0.771c-0.065,0.102-0.14,0.2-0.184,0.311
				c-0.048,0.119-0.078,0.245-0.195,0.32c-0.012,0.006-0.023,0.017-0.029,0.027c-0.12,0.202-0.244,0.402-0.354,0.607
				c-0.021,0.041-0.007,0.115,0.017,0.162c0.121,0.259,0.226,0.52,0.208,0.815c-0.008,0.112-0.031,0.211-0.178,0.225
				c0.003,0.065,0.006,0.125,0.008,0.162c0.064,0.022,0.15,0.028,0.162,0.062c0.043,0.117-0.016,0.217-0.115,0.277
				c-0.035,0.021-0.099-0.003-0.147-0.019c-0.106,0.037-0.101,0.105-0.05,0.198c0.025,0.048,0.049,0.126,0.027,0.165
				c-0.097,0.178-0.174,0.373-0.371,0.472c-0.075,0.037-0.115,0-0.16-0.057c-0.027-0.039-0.077-0.071-0.123-0.082
				c-0.016-0.005-0.072,0.069-0.066,0.101c0.007,0.045,0.045,0.102,0.086,0.119c0.064,0.027,0.086,0.053,0.07,0.121
				c-0.005,0.029,0.025,0.063,0.039,0.096c0.025-0.031,0.061-0.061,0.08-0.096c0.025-0.048,0.041-0.102,0.066-0.166
				c0.088,0.15,0.158,0.268,0.229,0.384c0.058,0.097,0.018,0.143-0.079,0.166c-0.051,0.013-0.1,0.037-0.147,0.057
				c0,0.017,0.001,0.034,0.003,0.05c0.065,0.022,0.131,0.053,0.198,0.063c0.149,0.024,0.254,0.1,0.318,0.233
				c0.017,0.031,0.038,0.077,0.064,0.084c0.112,0.029,0.188,0.092,0.184,0.206c-0.002,0.111,0.006,0.245-0.052,0.33
				c-0.16,0.24-0.067,0.475-0.028,0.711c0.014,0.085,0.035,0.168,0.053,0.252c0.016,0.074,0.025,0.149,0.047,0.223
				c0.025,0.093,0.012,0.155-0.098,0.166c-0.031,0.002-0.062,0.009-0.096,0.01c-0.125,0.003-0.24,0.005-0.368,0.049
				c-0.163,0.057-0.353,0.026-0.53,0.034c-0.043,0.001-0.086-0.001-0.145-0.001c0.102,0.202,0.215,0.308,0.439,0.344
				c0.217,0.035,0.418,0.029,0.629-0.009c0.053-0.008,0.143,0.012,0.166,0.049c0.032,0.053,0.033,0.138,0.02,0.201
				c-0.035,0.164-0.109,0.324-0.123,0.488c-0.01,0.169,0.029,0.343,0.057,0.513c0.035,0.223,0.03,0.436-0.092,0.636
				c-0.061,0.099-0.135,0.146-0.248,0.081c-0.07-0.038-0.15-0.06-0.195,0.019c-0.022,0.042,0.005,0.111,0.013,0.166
				c0.016,0.113,0.071,0.236,0.042,0.335c-0.067,0.233,0.004,0.443,0.047,0.66c0.035,0.178,0.067,0.357,0.114,0.531
				c0.052,0.186,0.132,0.339,0.347,0.401c0.234,0.069,0.299,0.381,0.133,0.61c-0.107,0.151-0.236,0.287-0.355,0.43
				c-0.051,0.062-0.096,0.09-0.164,0.011c-0.029-0.033-0.1-0.029-0.17-0.047c0.145,0.372,0.141,0.477-0.17,0.499
				c-0.023,0.124-0.046,0.246-0.068,0.371c-0.02,0.104-0.094,0.101-0.169,0.075c-0.06-0.02-0.116-0.055-0.176-0.078
				c-0.02-0.006-0.048,0.005-0.071,0.009c0.01,0.021,0.016,0.054,0.033,0.067c0.104,0.087,0.096,0.213-0.021,0.294
				c-0.051,0.036-0.104,0.068-0.145,0.127c0.025,0,0.053,0.001,0.09,0.001c-0.01,0.055-0.018,0.104-0.033,0.195
				c0.066-0.025,0.122-0.034,0.152-0.063c0.085-0.086,0.158-0.069,0.238,0.002c0.044,0.04,0.096,0.069,0.139,0.101
				c0.085-0.139,0.164-0.271,0.239-0.394c-0.023-0.097-0.063-0.195-0.064-0.295c-0.001-0.084,0.043-0.168,0.069-0.259
				c0.127-0.023,0.203,0.033,0.21,0.178c0.004,0.067-0.013,0.138-0.005,0.206c0.005,0.05,0.022,0.109,0.057,0.145
				c0.184,0.188,0.207,0.425,0.061,0.645c-0.023,0.035-0.04,0.082-0.045,0.125c-0.019,0.184-0.033,0.37-0.047,0.556
				c-0.004,0.048-0.006,0.099,0.004,0.146c0.049,0.22,0.107,0.434,0.152,0.653c0.033,0.163,0.064,0.33,0.066,0.497
				c0.003,0.098-0.057,0.196-0.09,0.294c-0.002,0.008-0.016,0.014-0.018,0.021c-0.088,0.335-0.404,0.48-0.607,0.721
				c-0.127,0.15-0.428,0.124-0.557-0.037C2.625,29.95,2.52,29.893,2.377,29.96c-0.036,0.018-0.078,0.068-0.08,0.107
				c-0.008,0.083-0.039,0.118-0.121,0.14c-0.055,0.014-0.112,0.058-0.145,0.105c-0.068,0.103-0.104,0.23-0.184,0.323
				c-0.068,0.079-0.178,0.139-0.293,0.088c-0.12-0.055-0.225-0.045-0.34,0.013c-0.117,0.061-0.34-0.012-0.427-0.108
				c-0.039-0.045-0.097-0.073-0.146-0.109c-0.032,0.05-0.071,0.094-0.097,0.146c-0.075,0.164-0.096,0.353-0.261,0.471
				c-0.101,0.071-0.165,0.057-0.176-0.068c-0.011-0.135-0.01-0.275,0.015-0.406c0.009-0.06,0.081-0.135,0.139-0.149
				c0.145-0.04,0.145-0.135,0.123-0.245C0.37,30.179,0.35,30.119,0.477,30.08c0.064-0.021,0.096-0.157,0.137-0.244
				c0.023-0.056,0.035-0.115,0.054-0.17c0.065,0.021,0.134,0.032,0.191,0.065c0.116,0.067,0.228,0.146,0.339,0.219
				c0.1-0.138,0.075-0.217-0.052-0.257c-0.03-0.009-0.071,0.003-0.094-0.014c-0.03-0.027-0.048-0.069-0.071-0.105
				c0.037-0.018,0.086-0.061,0.111-0.051c0.092,0.038,0.149,0.014,0.16-0.079c0.027-0.218,0.072-0.428,0.143-0.637
				c0.049-0.146,0.071-0.323,0.039-0.474C1.405,28.206,1.29,28.091,1.2,27.979c-0.084-0.105-0.174-0.165-0.336-0.098
				c-0.094,0.04-0.254-0.005-0.35-0.065c-0.049-0.03-0.038-0.182-0.025-0.275c0.007-0.039,0.086-0.087,0.138-0.094
				c0.059-0.007,0.129,0.013,0.183,0.042c0.1,0.051,0.136,0.017,0.146-0.08c0.002-0.021,0.012-0.047,0.007-0.067
				c-0.042-0.251-0.019-0.497,0.021-0.749c0.02-0.114-0.058-0.244-0.084-0.37c-0.019-0.088-0.035-0.182-0.029-0.271
				c0.021-0.343-0.052-0.306-0.323-0.434c-0.08-0.036-0.177-0.091-0.21-0.162C0.293,25.26,0.37,25.176,0.45,25.104
				c0.244-0.217,0.458-0.453,0.586-0.765c0.07-0.176,0.2-0.327,0.292-0.494c0.028-0.051,0.036-0.133,0.015-0.188
				c-0.018-0.049-0.088-0.077-0.134-0.118c-0.032-0.027-0.062-0.059-0.093-0.089c0.033-0.026,0.071-0.075,0.102-0.07
				c0.111,0.017,0.145-0.048,0.15-0.132c0.021-0.342,0.039-0.683,0.053-1.024c0.002-0.027-0.016-0.064-0.037-0.082
				c-0.11-0.083-0.113-0.195-0.088-0.311c0.081-0.4,0.059-0.8-0.007-1.2c-0.019-0.115,0.007-0.209,0.112-0.271
				c0.25-0.151,0.428-0.369,0.608-0.598c0.206-0.261,0.173-0.492,0.026-0.753c-0.045-0.081-0.049-0.189-0.063-0.287
				c-0.031-0.211-0.069-0.423-0.085-0.636c-0.018-0.276,0.064-0.533,0.193-0.775c0.014-0.023,0.05-0.04,0.078-0.049
				c0.251-0.073,0.34-0.4,0.154-0.615C2.188,16.505,2.063,16.348,2,16.175c-0.092-0.264-0.163-0.548,0.021-0.815
				c0.077-0.111,0.154-0.222,0.219-0.34c0.034-0.062,0.043-0.137,0.06-0.208c0.047-0.231,0.113-0.463,0.13-0.697
				c0.014-0.175-0.034-0.354-0.065-0.531c-0.006-0.032-0.062-0.061-0.101-0.083c-0.088-0.05-0.182-0.087-0.266-0.141
				c-0.125-0.081-0.062-0.337,0.101-0.426c0.009-0.006,0.018-0.011,0.026-0.012C2.362,12.891,2.483,12.707,2.626,12.544z
				 M3.093,5.436c-0.009,0.012-0.02,0.028-0.028,0.042c0.076,0.09,0.137,0.205,0.234,0.267C3.436,5.83,3.48,5.891,3.44,6.041
				c-0.014,0.05,0.001,0.107,0.002,0.162c0.052-0.021,0.106-0.035,0.153-0.062c0.094-0.056,0.177-0.128,0.298-0.047
				c0.065,0.045,0.126,0.013,0.168-0.062c0.022-0.042,0.068-0.078,0.113-0.101c0.09-0.045,0.185-0.08,0.303-0.129
				c-0.293-0.116-0.32-0.107-0.423,0.149c-0.06-0.083-0.11-0.15-0.162-0.223C3.823,5.764,3.745,5.805,3.667,5.845
				c-0.025,0.013-0.052,0.021-0.078,0.03c0.006-0.03,0.005-0.065,0.019-0.09C3.66,5.69,3.641,5.654,3.539,5.64
				C3.498,5.635,3.458,5.606,3.421,5.585C3.317,5.52,3.23,5.418,3.093,5.436z M4.032,5.557C4.096,5.301,4.133,5.28,4.375,5.372
				c0.022,0.01,0.075,0.001,0.081-0.011c0.04-0.124,0.071-0.25,0.105-0.374C4.453,4.994,4.369,4.994,4.288,5.008
				c-0.041,0.009-0.093,0.037-0.11,0.07C4.112,5.2,4.055,5.329,4.003,5.459C3.995,5.483,4.022,5.523,4.032,5.557z M3.852,7.046
				c0.047-0.058,0.086-0.086,0.094-0.12c0.005-0.02-0.04-0.068-0.065-0.072C3.854,6.85,3.798,6.886,3.797,6.906
				C3.795,6.941,3.823,6.981,3.852,7.046z"/>
			<path fill-rule="evenodd" clip-rule="evenodd" fill="#EADAB8" d="M40.196,24.327c0.152,0.088,0.314,0.158,0.447,0.265
				c0.127,0.102,0.225,0.24,0.336,0.364c-0.055,0.14-0.043,0.134,0.01,0.314c0.07,0.239,0.14,0.483,0.166,0.729
				c0.018,0.162-0.039,0.331-0.066,0.496c-0.003,0.022-0.015,0.046-0.029,0.062c-0.172,0.157-0.336,0.329-0.523,0.464
				c-0.105,0.077-0.19,0.133-0.172,0.275c0.007,0.069-0.015,0.14-0.002,0.205c0.011,0.057,0.041,0.113,0.08,0.155
				c0.083,0.094,0.195,0.168,0.26,0.272c0.037,0.061,0.014,0.166,0.002,0.249c-0.014,0.085-0.054,0.164-0.072,0.249
				c-0.029,0.135-0.094,0.236-0.24,0.235c-0.188,0.001-0.373-0.016-0.558-0.026c-0.013-0.001-0.026-0.008-0.038-0.016
				c-0.176-0.106-0.351-0.215-0.525-0.322c-0.011-0.006-0.022-0.019-0.027-0.029c-0.046-0.165-0.145-0.249-0.322-0.251
				c-0.029-0.001-0.093-0.098-0.081-0.124c0.042-0.092,0.104-0.182,0.173-0.259c0.018-0.021,0.09,0.012,0.137,0.007
				c0.051-0.006,0.127-0.014,0.147-0.046c0.05-0.081,0.085-0.158,0.196-0.165c0.03-0.002,0.056-0.047,0.085-0.067
				c0.067-0.046,0.136-0.089,0.205-0.133c0.034-0.021,0.091-0.034,0.098-0.063c0.012-0.044,0.003-0.131-0.021-0.14
				c-0.104-0.039-0.028-0.279-0.227-0.198c-0.113,0.045-0.189-0.011-0.24-0.1c-0.055-0.089-0.113-0.139-0.226-0.149
				c-0.146-0.011-0.228-0.148-0.224-0.295c0.006-0.24-0.002-0.481,0-0.723c0-0.055,0.01-0.108,0.016-0.16
				c-0.034-0.038-0.067-0.075-0.101-0.114c0.042-0.023,0.093-0.042,0.128-0.075c0.041-0.039,0.077-0.088,0.103-0.14
				c0.032-0.065,0.054-0.135,0.078-0.204c0.06-0.167,0.134-0.313,0.344-0.324c0.053-0.001,0.104-0.032,0.153-0.059
				c0.158-0.088,0.16-0.173,0.01-0.267c-0.226-0.139-0.205-0.344,0.01-0.494c0.201-0.143,0.374-0.326,0.545-0.505
				c0.066-0.067,0.119-0.124,0.221-0.095c0.091,0.027,0.16,0.069,0.148,0.181c-0.002,0.026,0,0.065,0.016,0.077
				c0.101,0.08,0.161,0.172,0.142,0.308c-0.002,0.008,0.003,0.02,0.009,0.023c0.078,0.046,0.161,0.095,0.087,0.201
				c-0.113,0.16-0.212,0.349-0.462,0.302C40.291,24.2,40.216,24.211,40.196,24.327z"/>
			<path fill-rule="evenodd" clip-rule="evenodd" fill="#EADAB8" d="M39.573,2.407c0.065-0.198,0.246-0.123,0.373-0.17
				c0.086-0.029,0.178-0.037,0.262-0.066c0.098-0.035,0.18-0.039,0.27,0.029c0.062,0.048,0.147,0.068,0.224,0.097
				c0.155,0.063,0.215,0.164,0.166,0.32c-0.059,0.189-0.138,0.374-0.198,0.564c-0.014,0.041,0.006,0.109,0.036,0.145
				c0.048,0.057,0.114,0.103,0.18,0.142c0.095,0.059,0.083,0.145,0.036,0.214c-0.084,0.127-0.125,0-0.182-0.055
				c-0.024,0.034-0.051,0.062-0.062,0.094c-0.039,0.106-0.108,0.168-0.228,0.159c-0.138-0.01-0.245-0.071-0.307-0.195
				c-0.044-0.086-0.017-0.152,0.076-0.202c0.085-0.046,0.166-0.11,0.231-0.18c0.048-0.054,0.035-0.107-0.059-0.117
				c-0.108-0.012-0.226-0.02-0.321-0.066c-0.096-0.044-0.171-0.134-0.259-0.209c-0.021,0.029-0.048,0.079-0.088,0.11
				c-0.07,0.05-0.285-0.028-0.316-0.109c-0.005-0.013-0.003-0.032-0.012-0.04c-0.18-0.149-0.16-0.353-0.13-0.547
				c0.018-0.122,0.062-0.244,0.119-0.351c0.05-0.093,0.118-0.04,0.126,0.034c0.008,0.077-0.014,0.161-0.037,0.238
				C39.446,2.334,39.459,2.387,39.573,2.407z"/>
			<path fill-rule="evenodd" clip-rule="evenodd" fill="#EADAB8" d="M39.574,17.305c0.001-0.096-0.018-0.198,0.009-0.283
				c0.023-0.072,0.095-0.161,0.162-0.18c0.227-0.063,0.395-0.204,0.559-0.358c0.115-0.109,0.204-0.106,0.301,0.021
				c0.004,0.003,0.004,0.009,0.009,0.009c0.241,0.134,0.173,0.354,0.149,0.557c-0.005,0.048-0.049,0.094-0.086,0.128
				c-0.068,0.062-0.152,0.108-0.217,0.172c-0.1,0.096-0.102,0.207-0.004,0.303c0.125,0.119,0.098,0.269,0.096,0.412
				c-0.001,0.018-0.057,0.053-0.088,0.055c-0.231,0.012-0.355-0.149-0.457-0.318c-0.059-0.096-0.106-0.177-0.225-0.213
				C39.61,17.556,39.569,17.481,39.574,17.305z"/>
			<path fill-rule="evenodd" clip-rule="evenodd" fill="#EADAB8" d="M2.884,2.385c-0.03,0.023-0.089,0.051-0.087,0.068
				c0.007,0.067,0.018,0.153,0.062,0.191C2.987,2.756,3.002,2.818,2.85,2.891C2.752,2.938,2.663,3.083,2.51,2.981
				c-0.034-0.024-0.114,0.01-0.168,0.031c-0.09,0.034-0.174,0.086-0.264,0.118C1.993,3.162,1.901,3.191,1.812,3.198
				C1.777,3.2,1.71,3.144,1.704,3.104C1.686,3.008,1.693,2.905,1.692,2.808c0-0.029,0.02-0.06,0.01-0.081
				C1.661,2.609,1.684,2.522,1.784,2.438c0.088-0.075,0.172-0.105,0.289-0.122c0.137-0.019,0.266-0.11,0.4-0.161
				c0.083-0.03,0.176-0.047,0.265-0.057C2.766,2.094,2.801,2.125,2.83,2.143c0.036,0.022,0.067,0.062,0.104,0.071
				c0.07,0.02,0.134,0.044,0.104,0.124c-0.015,0.04-0.079,0.062-0.12,0.09C2.907,2.414,2.897,2.4,2.884,2.385z"/>
			<path fill-rule="evenodd" clip-rule="evenodd" fill="#EADAB8" d="M39.809,21.935c0.154,0.035,0.297,0.065,0.438,0.102
				c0.111,0.027,0.174,0.095,0.2,0.216c0.026,0.129,0.077,0.257,0.13,0.38c0.042,0.101-0.047,0.28-0.176,0.324
				c-0.061,0.022-0.123,0.042-0.184,0.056c-0.049,0.013-0.123,0.035-0.146,0.014c-0.202-0.199-0.536-0.247-0.64-0.552
				c-0.021-0.062,0.006-0.155,0.041-0.217c0.046-0.081,0.117-0.147,0.186-0.214C39.698,22.004,39.747,21.977,39.809,21.935z"/>
			<path fill-rule="evenodd" clip-rule="evenodd" fill="#EADAB8" d="M1.548,0C1.672,0.046,1.79,0.063,1.874,0.124
				c0.221,0.157,0.469,0.217,0.721,0.285c0.055,0.014,0.097,0.077,0.143,0.117C2.688,0.565,2.644,0.621,2.588,0.645
				C2.336,0.743,2.083,0.657,1.833,0.626C1.676,0.607,1.53,0.591,1.375,0.646C1.264,0.686,1.153,0.67,1.098,0.547
				C1.059,0.46,0.901,0.419,0.969,0.301C1.01,0.229,1.11,0.178,1.192,0.137C1.309,0.081,1.434,0.043,1.548,0z"/>
			<path fill-rule="evenodd" clip-rule="evenodd" fill="#EADAB8" d="M40.168,41.037c-0.105,0.087-0.214,0.18-0.328,0.264
				c-0.032,0.023-0.086,0.038-0.125,0.031c-0.119-0.021-0.244-0.042-0.357-0.088c-0.047-0.019-0.096-0.091-0.105-0.144
				c-0.036-0.229,0.203-0.441,0.43-0.389c0.124,0.027,0.201,0.093,0.212,0.229c0.005,0.046,0.055,0.087,0.083,0.128
				c0.016-0.048,0.031-0.096,0.043-0.146c0.012-0.041,0.01-0.114,0.026-0.119c0.058-0.014,0.12-0.005,0.142-0.005
				c0.088-0.034,0.148-0.072,0.206-0.073c0.03,0,0.089,0.069,0.087,0.105c-0.004,0.123,0.056,0.162,0.166,0.16
				c0.069-0.002,0.139-0.004,0.206,0.01c0.099,0.017,0.114,0.068,0.048,0.142c-0.125,0.134-0.436,0.185-0.584,0.083
				C40.26,41.189,40.229,41.116,40.168,41.037z"/>
			<path fill-rule="evenodd" clip-rule="evenodd" fill="#EADAB8" d="M40.169,38.793c0.033-0.034,0.049-0.066,0.073-0.077
				c0.057-0.029,0.117-0.058,0.179-0.068c0.11-0.019,0.221-0.023,0.233-0.174c0.002-0.018,0.057-0.043,0.086-0.043
				c0.12-0.002,0.241,0.013,0.361,0.007c0.146-0.007,0.291-0.029,0.438-0.037c0.012,0,0.045,0.084,0.039,0.088
				c-0.072,0.052-0.154,0.091-0.227,0.145c-0.039,0.028-0.063,0.078-0.093,0.121c-0.021,0.025-0.03,0.068-0.054,0.078
				c-0.127,0.047-0.255,0.1-0.387,0.122c-0.098,0.019-0.207,0.005-0.302-0.02c-0.079-0.022-0.132-0.134-0.241-0.06
				C40.266,38.883,40.213,38.828,40.169,38.793z"/>
			<path fill-rule="evenodd" clip-rule="evenodd" fill="#EADAB8" d="M17.817,4.381c-0.259-0.041-0.525-0.074-0.705-0.308
				c-0.033-0.041-0.051-0.114-0.037-0.161c0.006-0.029,0.087-0.045,0.137-0.054c0.122-0.02,0.221,0.015,0.303,0.115
				c0.078,0.1,0.174,0.184,0.262,0.276c0.025,0.028,0.046,0.062,0.068,0.092C17.835,4.354,17.827,4.368,17.817,4.381z"/>
			<path fill-rule="evenodd" clip-rule="evenodd" fill="#EADAB8" d="M39.944,33.642c0.026-0.011,0.05-0.032,0.073-0.033
				c0.14-0.006,0.279-0.014,0.419-0.009c0.145,0.006,0.175,0.134,0.146,0.226c-0.028,0.082-0.12,0.17-0.205,0.205
				c-0.128,0.052-0.258-0.037-0.314-0.169C40.03,33.788,39.986,33.72,39.944,33.642z"/>
			<path fill-rule="evenodd" clip-rule="evenodd" fill="#EADAB8" d="M3.081,3.823C3.042,4.01,2.899,4.135,2.734,4.104
				C2.7,4.1,2.651,4.034,2.655,4c0.012-0.14,0.031-0.279,0.07-0.416c0.026-0.088,0.127-0.101,0.18-0.045
				C2.979,3.617,3.024,3.728,3.081,3.823z"/>
			<path fill-rule="evenodd" clip-rule="evenodd" fill="#EADAB8" d="M40.66,15.939c0.138,0.001,0.256,0.149,0.229,0.284
				c-0.008,0.035-0.004,0.076-0.021,0.104c-0.019,0.031-0.056,0.071-0.085,0.072c-0.105,0.002-0.258-0.13-0.291-0.24
				C40.459,16.051,40.544,15.936,40.66,15.939z"/>
			<path fill-rule="evenodd" clip-rule="evenodd" fill="#EADAB8" d="M2.292,3.414C2.313,3.222,2.418,3.1,2.518,3.115
				c0.1,0.017,0.121,0.095,0.118,0.176C2.629,3.418,2.501,3.566,2.422,3.537C2.362,3.515,2.321,3.442,2.292,3.414z"/>
			<path fill-rule="evenodd" clip-rule="evenodd" fill="#EADAB8" d="M40.212,21.32c0.107-0.004,0.129,0.065,0.124,0.153
				c-0.004,0.104-0.115,0.187-0.247,0.187c-0.091,0-0.14-0.047-0.146-0.131C39.938,21.435,40.096,21.316,40.212,21.32z"/>
			<path fill-rule="evenodd" clip-rule="evenodd" fill="#EADAB8" d="M21.249,40.086c0.075-0.013,0.129,0.008,0.127,0.104
				c-0.004,0.126-0.094,0.265-0.189,0.246c-0.062-0.012-0.141-0.088-0.156-0.149C21,40.173,21.101,40.09,21.249,40.086z"/>
			<path fill-rule="evenodd" clip-rule="evenodd" fill="#EADAB8" d="M2.096,30.86c0.101,0.059,0.189,0.098,0.258,0.156
				c0.061,0.051,0.034,0.166-0.027,0.165c-0.108-0.004-0.219-0.013-0.32-0.047c-0.035-0.014-0.076-0.114-0.062-0.154
				C1.963,30.931,2.04,30.902,2.096,30.86z"/>
			<path fill-rule="evenodd" clip-rule="evenodd" fill="#EADAB8" d="M41.469,40.34c-0.066,0.039-0.135,0.082-0.205,0.113
				c-0.041,0.021-0.088,0.021-0.131,0.032c-0.111,0.035-0.148-0.038-0.172-0.12c-0.027-0.096,0.039-0.145,0.117-0.142
				c0.123,0.004,0.246,0.035,0.371,0.054C41.456,40.3,41.463,40.319,41.469,40.34z"/>
			<path fill-rule="evenodd" clip-rule="evenodd" fill="#EADAB8" d="M41.141,2.209c0.055-0.023,0.093-0.042,0.131-0.059
				c-0.008,0.041-0.014,0.081-0.026,0.119c-0.011,0.038-0.02,0.087-0.048,0.108c-0.043,0.032-0.1,0.046-0.15,0.065
				c-0.02-0.046-0.056-0.095-0.053-0.141c0.01-0.128,0.04-0.254,0.062-0.396C41.18,1.979,41.161,2.098,41.141,2.209z"/>
			<path fill-rule="evenodd" clip-rule="evenodd" fill="#EADAB8" d="M40.922,1.576c0.029-0.044,0.042-0.073,0.062-0.096
				c0.035-0.04,0.072-0.08,0.113-0.115c0.03-0.027,0.081-0.073,0.103-0.064c0.038,0.017,0.079,0.065,0.089,0.107
				c0.027,0.11-0.137,0.288-0.246,0.266C41,1.664,40.967,1.613,40.922,1.576z"/>
			<path fill-rule="evenodd" clip-rule="evenodd" fill="#EADAB8" d="M6.567,4.389C6.528,4.511,6.498,4.637,6.444,4.751
				C6.431,4.78,6.342,4.774,6.288,4.785c0-0.076-0.027-0.17,0.008-0.223c0.051-0.08,0.145-0.132,0.223-0.195
				C6.534,4.373,6.55,4.381,6.567,4.389z"/>
			<path fill-rule="evenodd" clip-rule="evenodd" fill="#EADAB8" d="M41.661,6.588c0.02-0.014,0.066-0.073,0.121-0.079
				c0.095-0.013,0.19,0.026,0.191,0.144c0.002,0.076-0.039,0.151-0.135,0.137C41.756,6.775,41.639,6.787,41.661,6.588z"/>
			<path fill-rule="evenodd" clip-rule="evenodd" fill="#EADAB8" d="M42.116,5.372c0.089-0.01,0.135,0.049,0.107,0.122
				c-0.027,0.072-0.082,0.15-0.145,0.187c-0.056,0.029-0.164-0.099-0.152-0.174C41.943,5.401,42.008,5.357,42.116,5.372z"/>
			<path fill-rule="evenodd" clip-rule="evenodd" fill="#EADAB8" d="M0.944,7.8c0.11,0.001,0.205-0.003,0.3,0.004
				C1.28,7.808,1.323,7.84,1.336,7.871C1.348,7.895,1.334,7.947,1.312,7.97C1.219,8.07,1.118,7.994,1.024,7.963
				C0.946,7.935,0.9,7.872,0.944,7.8z"/>
			<path fill-rule="evenodd" clip-rule="evenodd" fill="#EADAB8" d="M38.624,11.126c-0.127-0.189-0.082-0.319,0.116-0.393
				C38.824,10.9,38.779,11.062,38.624,11.126z"/>
			<path fill-rule="evenodd" clip-rule="evenodd" fill="#EADAB8" d="M1.51,31.404c0.029,0.057,0.076,0.11,0.086,0.17
				c0.014,0.085-0.053,0.119-0.13,0.121c-0.088,0.004-0.155-0.045-0.142-0.127c0.01-0.061,0.079-0.111,0.121-0.167
				C1.467,31.403,1.489,31.404,1.51,31.404z"/>
			<path fill-rule="evenodd" clip-rule="evenodd" fill="#EADAB8" d="M38.801,2.402c0.016-0.101,0.024-0.202,0.056-0.296
				c0.008-0.025,0.092-0.034,0.139-0.027c0.021,0.004,0.058,0.077,0.048,0.093c-0.059,0.093-0.127,0.177-0.193,0.263
				C38.833,2.424,38.818,2.412,38.801,2.402z"/>
			<path fill-rule="evenodd" clip-rule="evenodd" fill="#EADAB8" d="M42.124,2.26C42.04,2.214,42,1.98,42.075,1.94
				c0.031-0.019,0.09-0.019,0.111,0.002c0.024,0.019,0.035,0.075,0.025,0.109C42.191,2.123,42.155,2.191,42.124,2.26z"/>
			<path fill-rule="evenodd" clip-rule="evenodd" fill="#EADAB8" d="M41.318,3.382c0.023-0.102,0.034-0.181,0.063-0.252
				c0.01-0.027,0.062-0.047,0.096-0.051c0.021-0.003,0.066,0.033,0.066,0.051c0.001,0.041-0.012,0.086-0.033,0.122
				c-0.029,0.049-0.065,0.094-0.104,0.135c-0.016,0.017-0.048,0.037-0.06,0.031C41.326,3.411,41.317,3.379,41.318,3.382z"/>
			<path fill-rule="evenodd" clip-rule="evenodd" fill="#EADAB8" d="M1.32,2.851c0.077-0.055,0.13-0.093,0.183-0.129
				c0.032,0.047,0.09,0.093,0.092,0.141c0,0.034-0.073,0.098-0.114,0.098C1.436,2.96,1.391,2.902,1.32,2.851z"/>
			<path fill-rule="evenodd" clip-rule="evenodd" fill="#EADAB8" d="M41.745,2.863c-0.021-0.096-0.046-0.191-0.055-0.288
				c-0.003-0.017,0.059-0.041,0.09-0.063c0.018,0.03,0.048,0.06,0.05,0.089c0.002,0.085-0.009,0.168-0.013,0.251
				C41.792,2.855,41.769,2.859,41.745,2.863z"/>
			<path fill-rule="evenodd" clip-rule="evenodd" fill="#EADAB8" d="M41.753,4.438c-0.078,0.05-0.126,0.08-0.171,0.111
				c-0.028-0.047-0.081-0.097-0.074-0.138c0.004-0.04,0.07-0.093,0.112-0.097C41.653,4.312,41.692,4.378,41.753,4.438z"/>
			<path fill-rule="evenodd" clip-rule="evenodd" fill="#EADAB8" d="M38.782,26.241c0.022,0.051,0.059,0.101,0.061,0.151
				c0,0.031-0.051,0.067-0.086,0.092c-0.014,0.01-0.068-0.004-0.068-0.013c-0.004-0.036,0-0.074,0.009-0.11
				c0.009-0.034,0.027-0.068,0.039-0.1C38.751,26.254,38.767,26.248,38.782,26.241z"/>
			<path fill-rule="evenodd" clip-rule="evenodd" fill="#EADAB8" d="M40.579,19.983c0.056,0.065,0.1,0.102,0.115,0.149
				c0.008,0.016-0.062,0.086-0.068,0.082c-0.045-0.026-0.093-0.061-0.12-0.102C40.497,20.099,40.541,20.048,40.579,19.983z"/>
			<path fill-rule="evenodd" clip-rule="evenodd" fill="#EADAB8" d="M39.295,10.698c-0.049,0.051-0.08,0.086-0.111,0.119
				c-0.026-0.036-0.077-0.077-0.072-0.112c0.006-0.042,0.055-0.078,0.087-0.117C39.225,10.618,39.253,10.65,39.295,10.698z"/>
			<path fill-rule="evenodd" clip-rule="evenodd" fill="#EADAB8" d="M14.801,36.359c0.062-0.021,0.125-0.045,0.223-0.078
				c-0.015,0.062-0.018,0.125-0.035,0.13c-0.057,0.015-0.119,0.01-0.181,0.013C14.805,36.402,14.802,36.381,14.801,36.359z"/>
			<path fill-rule="evenodd" clip-rule="evenodd" fill="#EADAB8" d="M3.112,26.512c0.039-0.014,0.084-0.042,0.117-0.033
				c0.033,0.01,0.069,0.055,0.077,0.091c0.005,0.024-0.038,0.06-0.06,0.089c-0.032-0.027-0.062-0.054-0.095-0.08
				C3.138,26.557,3.125,26.533,3.112,26.512z"/>
			<path fill-rule="evenodd" clip-rule="evenodd" fill="#EADAB8" d="M42.32,9.052c0.011,0.056,0.026,0.11,0.032,0.166
				c0.001,0.005-0.051,0.017-0.078,0.025c-0.014-0.057-0.029-0.112-0.046-0.168C42.259,9.066,42.29,9.061,42.32,9.052z"/>
			<path fill-rule="evenodd" clip-rule="evenodd" fill="#EADAB8" d="M40.247,21.738c0.039-0.042,0.062-0.068,0.085-0.095
				c0.026,0.03,0.066,0.058,0.075,0.092c0.003,0.023-0.037,0.059-0.057,0.087C40.32,21.798,40.29,21.773,40.247,21.738z"/>
			<path fill-rule="evenodd" clip-rule="evenodd" fill="#EADAB8" d="M41.649,5.422c0.053-0.012,0.104-0.023,0.156-0.035
				c0.006,0.013,0.015,0.024,0.021,0.038c-0.032,0.027-0.06,0.068-0.098,0.082c-0.021,0.007-0.058-0.031-0.088-0.051
				C41.644,5.445,41.647,5.434,41.649,5.422z"/>
			<path fill-rule="evenodd" clip-rule="evenodd" fill="#EADAB8" d="M42.439,3.528c0.034,0.046,0.072,0.074,0.072,0.1
				s-0.04,0.049-0.063,0.072c-0.03-0.028-0.063-0.054-0.085-0.087C42.36,3.606,42.401,3.57,42.439,3.528z"/>
		</g>
		<g>
			<path fill-rule="evenodd" clip-rule="evenodd" fill="#EADAB8" d="M18.919,9.658c-0.081,0.03-0.046-1.207-0.128-1.19
				c-0.01,0.003-0.184,1.17-0.169,1.138c0.022-0.047,0.091-0.106,0.136-0.104c0.06,0.003,0.115,0.063,0.172,0.1
				C18.928,9.62,18.922,9.64,18.919,9.658z"/>
			<path fill-rule="evenodd" clip-rule="evenodd" fill="#EADAB8" d="M14.797,32.144c-0.028,0.081-0.051,0.165-0.093,0.239
				c-0.015,0.026-0.073,0.029-0.112,0.041c-0.004-0.046-0.03-0.107-0.011-0.134c0.046-0.063,0.114-0.109,0.173-0.161
				C14.77,32.135,14.784,32.139,14.797,32.144z"/>
			<path fill-rule="evenodd" clip-rule="evenodd" fill="#EADAB8" d="M13.95,33.168c-0.049,0.049-0.088,0.085-0.125,0.122
				c-0.021-0.031-0.064-0.076-0.059-0.089c0.025-0.04,0.068-0.071,0.109-0.098C13.881,33.099,13.913,33.136,13.95,33.168z"/>
			<path id="Facebook_1_" fill="#EADAB8" d="M17.151,13.887c0.238,0.235,0.124,1.057-0.016,1.068
				c0.207-0.091-0.217,0.921-0.182,0.795c-0.077-0.114,0.004,0.99,0.185,1.009c0.325-0.305-0.056,1.066,0.505,1.056
				c-0.435,0.044-0.918-0.287-1.072-0.365c0.059-0.119-0.713-0.194-1.061,0c0.186-0.139-0.387,0.066-0.607,0.338
				c-0.085-0.303-0.307,0.47-0.188,0.298c0.365,0.122-0.227,1.112,0.027,0.879c0.049,0.071,0.158,1.083,0.329,1.136
				c-0.17,0.007-0.11,0.688-0.179,0.577c-0.137,0.188-0.24,1.156-0.285,1.262c0.355-0.138,1.203-0.141,1.229-0.536
				c-0.019-0.047,0.924,0.078,0.286,0.034c0.168,0.298,1.195,0.266,1.127,0.216c0.033-0.304-0.174,0.974,0.102,0.614
				c-0.244,0.413,0.271,1.22,0.01,1.177c-0.13-0.023-0.074,2.853,0.099,3.189c-0.763,0.065-0.259,1.108-0.677,1.514
				c-0.153,0.148,0.924,1.366-0.059,1.698c0.439,0.481,0.314,1.232,0.707,1.74c-0.168-0.088-0.201-0.026-0.171,0.14
				c0.03,0.169,0.052,0.328,0.042,0.501c-0.021,0.359-0.19,0.683-0.463,0.915c-0.137,0.119-0.318,0.227-0.338,0.424
				c-0.016,0.163,0.082,0.369,0.238,0.436c0.297,0.127,0.534-0.277,0.861-0.182c0.155,0.045,0.297,0.119,0.459,0.148
				c0.186,0.031,0.376,0.028,0.563,0.031c0.003-0.162,0.034-0.316,0.048-0.478c0.011-0.122-0.016-0.359,0.128-0.419
				c0.177-0.069,0.208,0.149,0.181,0.267c-0.042,0.182-0.117,0.318-0.107,0.512c0.1-0.004,0.115,0.056,0.179,0.111
				c0.249,0.211,0.475,0.261,0.776,0.114c0.229-0.113,0.428-0.276,0.688-0.308c0.198-0.023,0.399,0.011,0.596,0.007
				c0.253-0.004,0.507-0.056,0.76-0.027c0.038,0.003,0.57,0.09,0.462,0.213c-0.506-0.342,0.329-0.862-0.018-0.82
				c0.004,0,0,0.023,0.014,0.019c0.088-0.267,0.012-0.579,0.106-0.842c0.005,0.018,0.007,0.033,0.007,0.051
				c-0.139-0.138-0.286-0.439-0.522-0.404c-0.169,0.023-0.222,0.197-0.345,0.281c-0.225,0.156-0.395-0.355-0.057-0.399
				c0.324-0.04,0.588,0.08,0.655-0.344c0.052-0.316-0.046-0.647,0.034-0.959c0.03-0.116,0.057-0.225,0.067-0.348
				c0.005-0.044-0.009-0.259,0.034-0.288c-0.148,0.102-0.127-0.875,0.098-0.838c-0.22-0.207-0.234-0.8-0.078-0.709
				c-0.318-0.354,0.445-1.131,0.25-0.994c-0.172-0.048-0.475-0.94-0.207-1.056c-0.511,0.118-0.248-0.574-0.43-0.642
				c0.536-0.14,0.572-0.572,0.43-0.566c0.032-0.397-0.119-0.85-0.2-1.2c0.171,0.366,0.263-0.734,0.165-0.679
				c0.135,0.058,0.498-0.521,0.51-0.683c-0.658-0.171-0.475-0.894-0.285-0.739c0.066-0.01,0.445-0.42,0.966-0.25
				c-0.659-0.071,0.47,0.114,0.792,0.521c-0.423-0.067,0.553-0.361,0.797-0.64c-0.355,0.346,0.779,0.343,0.786,0.273
				c0.138,0.231-0.095-0.846-0.054-0.982c0.444,0.049-0.273-0.745,0.223-0.716c-0.192-0.267,0.072-0.746-0.344-0.829
				c0.07-0.168,0.518-0.796,0.604-1.098c-0.02,0.187-0.086-0.539,0.2-0.374c-0.401,0.022-1.205-0.178-0.972-0.116
				c-0.139,0.118-1.033-0.024-0.818-0.185c0.242-0.04-0.99,0.285-0.527,0.14c0.006-0.126-1.125,0.004-1.355-0.247
				c0.174,0.041-0.657,0.278-0.635,0.339c-0.092-0.351,0.533-1.295,0.219-1.149c0.312,0.15,0.162-1.144,0.07-0.731
				c-0.248-0.309-0.094-0.932-0.456-0.974c0.394-0.38,0.991-1.027,0.393-0.753c0.403-0.009,1.231-0.284,1.253-0.29
				c-0.221,0.02,0.555-0.146,0.828-0.047c-0.134-0.367,1.043-0.329,0.839-0.043c-0.155,0.079,0.726-0.108,1.013-0.078
				c-0.129,0.146,0.036-0.825,0.008-0.634c-0.198-0.142-0.214-0.956,0.112-1.068c-0.14,0.016-0.091-0.548-0.138-0.735
				c-0.268,0.043-0.104-0.673-0.357-0.686c0.371-0.316,0.517-0.947,0.432-1.002C26.354,9.062,25.467,9.29,25.588,9.4
				c0.102-0.303-0.93,0.271-1.015-0.08c0.262,0.361-0.864-0.207-0.524-0.159c-0.355-0.094-0.98,0.26-0.562,0.289
				c-0.357,0.225-1.027,0.006-1.271,0.045c0.249-0.227-0.265-0.225-0.315-0.314c-0.527,0.099-0.758,0.6-0.675,0.71
				c-0.575-0.348-0.872-0.029-0.755-0.025c-0.543-0.108-0.762,0.183-1.246,0.126c-0.151-0.171-0.248,0.632-0.559,0.795
				c0.468,0.023-0.71,0.479-0.721,0.441c0.369-0.062,0.055,0.387-0.035,0.313c0.234,0.233-0.479,0.809-0.455,0.995
				c0.297,0.134-0.042,0.957-0.154,0.835C16.995,13.4,16.997,14.318,17.151,13.887z"/>
			<path fill="#EADAB8" d="M17.229,10.82c-0.326,0.031-0.414,0.508-0.056,0.563c0.247,0.039,0.657-0.088,0.696-0.377
				c0.027-0.197-0.152-0.286-0.309-0.352C17.502,10.805,17.369,10.807,17.229,10.82z"/>
			<path fill="#EADAB8" d="M16.772,12.201c-0.342-0.032-0.289,0.385-0.279,0.609c0.014,0.326,0.458,0.135,0.38-0.152
				C16.867,12.635,16.708,12.195,16.772,12.201z"/>
		</g>
	</g>
</g>
</svg>
