<?xml version="1.0" encoding="utf-8"?>
<!-- Generator: Adobe Illustrator 16.0.0, SVG Export Plug-In . SVG Version: 6.00 Build 0)  -->
<!DOCTYPE svg PUBLIC "-//W3C//DTD SVG 1.1//EN" "http://www.w3.org/Graphics/SVG/1.1/DTD/svg11.dtd">
<svg version="1.1" id="Layer_1" xmlns="http://www.w3.org/2000/svg" xmlns:xlink="http://www.w3.org/1999/xlink" x="0px" y="0px"
	 width="653.122px" height="1505.232px" viewBox="-351.578 -3.643 653.122 1505.232"
	 enable-background="new -351.578 -3.643 653.122 1505.232" xml:space="preserve">
<linearGradient id="SVGID_1_" gradientUnits="userSpaceOnUse" x1="233.3667" y1="-459.6694" x2="327.9478" y2="-459.6694" gradientTransform="matrix(-0.6164 0.7874 0.7874 0.6164 776.4995 822.7796)">
	<stop  offset="0.1789" style="stop-color:#A2B442"/>
	<stop  offset="0.3168" style="stop-color:#9BAB40"/>
	<stop  offset="0.5137" style="stop-color:#8C963A"/>
	<stop  offset="0.7449" style="stop-color:#757831"/>
	<stop  offset="0.8449" style="stop-color:#6A692C"/>
	<stop  offset="1" style="stop-color:#706F37"/>
</linearGradient>
<path fill="url(#SVGID_1_)" d="M276.872,734.188c-5.251,1.959-5.037,5.33-12.473,4.083c2.37-4.96,4.666-9.761,6.963-14.561
	c-2.518,4.202-4.931,8.476-7.631,12.555c-0.713,1.08-2.236,2.035-3.57,2.235c-4.488,0.671-9.214,0.487-13.564,1.532
	c-11.638,2.791-20.918,8.365-23.636,20.801c-0.125,0.59-0.791,1.029-1.154,1.569c-2.768,4.074-6.33,7.813-8.103,12.306
	c-3.52,8.888-6.539,18.224,3.264,26.535c0.902,0.307,1.82,0.62,2.718,0.924c1.249-0.23,2.563-0.304,3.728-0.724
	c2.75-0.997,3.896-3.216,3.314-5.959c-0.299-1.392-1.647-2.63-2.524-3.941c-0.332,0.216-0.682,0.428-1.024,0.644
	c0.155,0.397,0.25,0.836,0.49,1.173c1.334,1.861,2.313,3.806,0.382,5.569c-1.979,1.8-4.365,1.916-6.793,0.316
	c-3.303-2.171-5.832-5.124-5.457-8.947c0.508-5.051,1.364-10.144,2.905-14.915c1.458-4.529,3.705-8.867,8.29-11.871
	c0.739,2.782,1.366,5.231,2.047,7.665c0.912,3.25,2.314,6.484,2.631,9.754c0.165,1.742-1.084,4.686-2.433,5.088
	c-2.605,0.779-3.256-1.945-3.776-4.024c-0.069-0.277-0.322-0.528-0.939-1.495c-0.888,2.946-0.565,4.988,1.591,6.566
	c2.207,1.615,4.26,1.214,5.905-0.69c2.304-2.689,1.426-5.742,0.539-8.818c-1.213-4.249-2.357-8.515-3.521-12.78
	c-0.602-2.203,0.333-3.622,2.47-4.051c4.652-0.944,9.286-2.119,14.029-2.493c5.32-0.42,9.803-2.165,13.248-5.793
	c2.544-2.673,4.755-5.701,6.715-8.824c1.142-1.816,2.342-2.1,4.464-2.109c5.002-0.006,8.686,3.531,9.203,3.536 M261.025,741.32
	c-3.795,7.773-9.322,13.083-17.757,15.004c-5.84,1.338-11.804,2.249-17.705,3.345C224.94,750.39,242.898,739.101,261.025,741.32z"/>
<path fill="#D6A3B0" d="M205.649,15.789c0.007,0.007,0.008,0,0.004-0.012C205.642,15.776,205.637,15.778,205.649,15.789z"/>
<path fill="#EADAB7" d="M301.706-3.643h-173.05c6.32,1.13,12.86,2.29,18.63,3.31c0.05,0.01,0.1,0.02,0.15,0.03
	c9.68,1.72,17.15,3.03,17.68,3.08c0.1,0.01,0.21,0.02,0.31,0.03c1.04,0.12,2.08,0.22,3.11,0.35c0.229,0.03,0.47,0.06,0.7,0.09
	c0.189,0.03,0.39,0,0.51,0.17c0.21,0.32,0.34,0.69,0.66,0.93c0.21,0.16,0.489,0.22,0.71,0.37c0.229,0.16,0.47,0.32,0.729,0.37
	c0.32,0.07,0.61,0.1,0.92,0.22c1.271,0.49,2.57,0.95,3.88,1.25c0.91,0.21,1.841,0.32,2.761,0.43c0.38,0.05,0.75,0.15,1.13,0.18
	c0.16,0.02,0.149,0.01,0.35,0.01c0.05,0,0.33,0,0.47-0.01c0.851-0.04,1.641,0.16,2.46,0.31c0.681,0.12,1.351,0.19,1.99,0.45
	c0.431,0.17,0.83,0.4,1.26,0.58c0.681,0.27,1.41,0.42,2.141,0.57c0.88,0.18,1.81,0.58,2.729,0.53c1.48-0.07,2.891,0.69,4.261,1.15
	c0.699,0.24,1.399,0.45,2.09,0.74c0.489,0.21,0.96,0.44,1.45,0.65c0.84,0.36,1.649,0.76,2.439,1.23c0.57,0.34,1.08,0.75,1.63,1.11
	c0.391,0.26,0.84,0.43,1.23,0.7c0.189,0.13,0.43,0.27,0.56,0.46c0.01,0,0.05,0.1,0.061,0.13c0.029,0,0.1,0.03,0.109,0.04
	c0.25,0.08,0.49,0.23,0.71,0.36c0.49,0.29,0.96,0.6,1.431,0.9c0.279,0.18,0.55,0.35,0.84,0.51c0.72,0.4,1.49,0.71,2.2,1.13
	c0.39,0.24,0.739,0.55,1.14,0.77c0.41,0.22,0.87,0.36,1.31,0.51c0.561,0.2,1.101,0.45,1.65,0.69c0.89,0.38,1.83,0.76,2.65,1.3
	c0.39,0.27,0.72,0.62,1.1,0.91c0.22,0.17,0.5,0.3,0.65,0.54c0.159,0.24,0.329,0.43,0.56,0.62c0.47,0.39,0.88,0.82,1.35,1.21
	c0.141,0.11,0.2,0.2,0.32,0.28c0.35,0.26,0.75,0.46,1.12,0.69c0.79,0.48,1.57,0.96,2.35,1.45c1.851,1.15,3.771,2.23,5.48,3.57
	c0.399,0.32,0.79,0.65,1.24,0.91c0.439,0.27,0.88,0.54,1.3,0.84c2.56,1.89,4.84,4.02,7.31,6.02c2.78,2.25,5.78,3.24,6.88,6.95
	c0.79,2.66,1.04,5.44,1.65,8.13c0.3,1.28,0.66,2.53,1.17,3.74l7.64,13.15c0.011,0.01,0.011,0.01,0.011,0.01l5.449,15.561
	c3.16,12.18,4.351,24.97,6.03,38.319c2.931,23.351,14.49,46.21,9.86,70.13c-2.16,11.15-6.88,21.69-7.96,33.061
	c-1.65,17.319,6.17,30.52,11.359,46.24c9.061,27.43-0.399,61.38-14.479,85.35c-1.63,2.76-3.04,5.88-4.44,8.75
	c-0.83,1.67-1.6,3.38-2.399,5.08c-0.69,1.46-1.58,2.84-2.23,4.31c-0.87,1.95-1.97,4.2-2.609,6.17c-3.62,11.29-6.36,24.2-6.08,36.07
	c0.029,1.69-0.28,3.36-0.49,5.03c-0.26,2.06-0.13,4.09-0.07,6.149c0.021,0.521,0.04,1.051,0.04,1.58v0.7
	c-0.05,3.351-0.06,6.71,0.26,10.061c0.221,2.369,0.54,4.72,0.7,7.079c0.29,4.211,0.15,8.48,0.59,12.66
	c0.2,1.82,0.681,3.53,1.131,5.29c0.409,1.601,0.63,3.221,1.039,4.811c0.86,3.33,2.591,6.52,3.961,9.67
	c2.699,6.25,5.35,12.68,8.659,18.63c1.61,2.88,2.66,6.05,3.67,9.189c0.96,2.921,1.87,6,2.471,9.011
	c2.569,12.97-2.971,27.6-2.771,40.569c0.021,1.48-0.319,3.32-0.58,4.92c-0.609,3.881-1.02,7.87-1.989,11.87
	c-0.421,1.69-0.69,3.311-1.07,4.99c-0.42,1.87-1.05,3.91-1.3,5.67c-0.15,1.21-0.16,2.351-0.54,3.63
	c-3.03,10.62-5.96,21.88-7.261,31.971c-0.05,0.43-0.1,0.859-0.14,1.3c-0.1,0.77-0.189,1.54-0.229,2.31
	c-0.011,0.271,0.069,0.48,0.09,0.73c0.99,13.29,8.24,25.22,10.6,38.24c0.51,2.81,0.93,5.63,1.36,8.46
	c1.479,9.5,1.899,19.029,1.7,28.649c-0.03,1.58,0.09,3.2,0.319,4.84c0.03,0.271,0.07,0.53,0.12,0.801c0.061,0.38,0.13,0.76,0.2,1.14
	c0.06,0.32,0.12,0.63,0.19,0.95c0.59,2.8,1.439,5.64,2.359,8.489c0.58,1.78,1.19,3.57,1.78,5.341c0.24,0.71,0.47,1.409,0.7,2.109
	c0.12,0.36,0.229,0.71,0.34,1.061c0.109,0.35,0.22,0.699,0.33,1.05c0.22,0.7,0.42,1.39,0.62,2.09c0.1,0.34,0.189,0.68,0.279,1.021
	c0.351,1.279,0.65,2.55,0.891,3.8c0.08,0.42,0.149,0.83,0.22,1.239c1.67,10.53,4.42,20.851,6.78,31.261
	c2.42,10.76,4.35,21.6,5.45,32.55c1.1,10.86,1.39,21.77,1.35,32.71c-0.04,10.979-0.33,22-1.39,32.979
	c-1.07,11.03-3.16,21.99-5.44,32.921c-2.26,10.75-4.32,21.479-5.69,32.31c-1.43,11.08-2.399,22.2-3.399,33.32
	c-1.01,11.17-1.91,22.35-2.44,33.55c-0.52,10.939,5.74,84.68,5.83,96.58c0.08,12.05,0.48,24.27,2.45,36.97
	c1.72,11.15,4.94,22.65,6.64,33.811c1.83,12.109,2.011,23.72,2.24,35.3c0.25,12.05,0.41,24.09-0.81,35.55
	c-0.58,5.51-1.46,10.87-2.45,16.16c-0.76,4.04-1.64,8.01-1.99,12.24c-0.689,8.359,1.67,17.92,3.18,26.97
	c2.101,12.62,3.771,25.14,6.25,37.85c2.11,10.87,4.641,21.84,6.74,32.71c0.521,2.721,1.05,5.431,1.59,8.15L301.706-3.643z"/>
<linearGradient id="SVGID_2_" gradientUnits="userSpaceOnUse" x1="331.5796" y1="53.2476" x2="350.9399" y2="53.2476" gradientTransform="matrix(-0.9802 0.1982 0.1982 0.9802 574.4578 -57.508)">
	<stop  offset="0.1789" style="stop-color:#B5AB8C"/>
	<stop  offset="0.3033" style="stop-color:#ADA283"/>
	<stop  offset="0.481" style="stop-color:#9B8E6F"/>
	<stop  offset="0.6896" style="stop-color:#817251"/>
	<stop  offset="0.8449" style="stop-color:#6A5B39"/>
	<stop  offset="1" style="stop-color:#6F603E"/>
</linearGradient>
<path display="none" fill="url(#SVGID_2_)" d="M241.713,67.563c0.225,0.443,2.659-1.937,2.856-2.129
	c1.183-1.115,2.34-2.301,3.696-3.166c1.246-0.802,2.634-1.348,4.036-1.784c1.411-0.43,2.851-0.68,4.315-0.864
	c0.557-0.061,1.115-0.123,1.644-0.291c0.364-0.113,0.72-0.277,0.988-0.567c0.167-0.177,0.302-0.417,0.29-0.681
	c-0.024-0.219-0.152-0.396-0.275-0.556l-0.887-0.096c-0.904,0.069-1.807,0.149-2.699,0.33c-0.92,0.187-1.836,0.464-2.724,0.808
	c-0.86,0.337-1.71,0.732-2.532,1.144c-0.746,0.354-1.478,0.728-2.201,1.13c-0.707,0.387-1.396,0.812-2.041,1.31
	c-0.751,0.571-1.453,1.233-2.107,1.937c-0.637,0.689-1.234,1.412-1.771,2.193c-0.17,0.26-0.342,0.529-0.478,0.812
	C241.773,67.194,241.648,67.432,241.713,67.563z"/>
<g>
	
		<linearGradient id="SVGID_3_" gradientUnits="userSpaceOnUse" x1="140.3765" y1="28.8389" x2="175.6597" y2="28.8389" gradientTransform="matrix(0.9206 0.3904 -0.3904 0.9206 23.6635 -50.6406)">
		<stop  offset="0.1789" style="stop-color:#A2B442"/>
		<stop  offset="0.3168" style="stop-color:#9BAB40"/>
		<stop  offset="0.5137" style="stop-color:#8C963A"/>
		<stop  offset="0.7449" style="stop-color:#757831"/>
		<stop  offset="0.8449" style="stop-color:#6A692C"/>
		<stop  offset="1" style="stop-color:#706F37"/>
	</linearGradient>
	<path fill="url(#SVGID_3_)" d="M174,44.756c-0.174,0.799-1.705,0.131-2.422-0.009c-0.238-0.053-0.406,0.022-0.545,0.167
		c-0.273,0.272-0.473,0.838-1.141,1.224c-0.994,0.607-1.641,0.439-2.23-0.256c-0.4-0.472-0.939-0.942-1.404-0.83
		c-0.24,0.063-0.461,0.27-0.639,0.709c-0.531,1.298-0.543,1.623-0.668,2.007c-0.098,0.346-0.664-0.699-1.365-1.288
		c-0.08-0.062-0.16-0.125-0.244-0.181c-0.809-0.517-0.65-1.596-1.965-0.416c-1.326,1.175-0.516,1.577-0.385,1.409
		c0.129-0.149-0.08,0.896-1.369-0.319c-1.273-1.209-0.871-0.65-2.355-0.417c-1.482,0.225-2.066,1.395-3.492,0.615
		c0,0,0.035-1.635,0.479-2.912c0.316-0.903,0.422-1.547,0.236-2.228c-0.064-0.281-0.191-0.577-0.377-0.898
		c-0.631-1.092-0.699-1.072-1.072-0.512c-0.129,0.188-0.303,0.463-0.48,0.814c-0.004,0.008-0.008,0.016-0.008,0.016s0,0-0.008,0.017
		l-0.045,0.106c-0.049,0.095-0.084,0.178-0.125,0.275c-0.113,0.265-0.23,0.564-0.322,0.893c-0.018,0.042-0.023,0.078-0.033,0.123
		c-0.061,0.215-0.111,0.448-0.164,0.687c-0.008,0.045-0.018,0.089-0.021,0.146c-0.045,0.195-0.076,0.405-0.086,0.614
		c-0.182,1.844-2.754,3.887-3.316,5.55c-0.131,0.382-0.311,0.779-0.535,1.199c-0.076,0.152-0.158,0.302-0.245,0.459
		c-0.313,0.556-0.671,1.123-1.035,1.686c-0.186,0.281-0.373,0.56-0.548,0.835c-0.02,0.022-0.03,0.047-0.048,0.067
		c-0.033,0.054-0.068,0.117-0.11,0.167c-0.251,0.389-0.499,0.769-0.709,1.125l-0.004,0.009c-0.059,0.072-0.107,0.138-0.182,0.224
		c-0.082,0.1-0.185,0.203-0.294,0.302c-0.071,0.057-0.151,0.129-0.235,0.19c-0.058,0.043-0.127,0.091-0.182,0.127
		c-0.076,0.045-0.168,0.103-0.262,0.161c-0.123,0.063-0.243,0.139-0.382,0.216c-0.133,0.06-0.285,0.122-0.415,0.202
		c-0.018-0.007-0.041,0.002-0.044,0.011c-0.164,0.066-0.316,0.128-0.488,0.19c-0.278,0.106-0.552,0.204-0.823,0.272
		c-0.161,0.058-0.322,0.097-0.492,0.131c-0.131,0.033-0.284,0.074-0.422,0.102c-0.724,0.15-1.375,0.223-1.798,0.189
		c-0.164-0.001-0.294-0.038-0.382-0.084c-0.801-0.398-2.056-0.183-3.638-1.029c-1.592-0.869-2.478,0.396-3.73,0.834
		c-0.505,0.184-0.907,0.217-1.213,0.204c0.398-0.345,0.798-0.69,1.188-1.037c0.399-0.347,0.781-0.698,1.163-1.051
		c0.39-0.349,0.764-0.703,1.142-1.068c0.337-0.314,0.677-0.635,1-0.964c0.096-0.084,0.182-0.175,0.269-0.263
		c0.316-0.312,0.624-0.628,0.934-0.944c0.36-0.371,0.719-0.734,1.062-1.111c0.642-0.689,1.266-1.385,1.866-2.09
		c0.224-0.254,0.441-0.513,0.647-0.773c0.229-0.262,0.44-0.531,0.655-0.789c0.227-0.282,0.445-0.568,0.663-0.854
		c0.05-0.047,0.082-0.101,0.123-0.152c0.297-0.378,0.573-0.756,0.853-1.142c0.295-0.4,0.583-0.801,0.861-1.207
		c0.278-0.407,0.558-0.812,0.831-1.23c0.811-1.247,1.56-2.511,2.248-3.811c0.169-0.306,0.329-0.617,0.481-0.931
		c0.244-0.459,0.47-0.926,0.676-1.391c0.226-0.458,0.436-0.932,0.638-1.409c0.717-1.693,1.331-3.433,1.838-5.225
		c0.572-2.037,1.018-4.139,1.273-6.32c0.092-0.629,0.16-1.271,0.215-1.926c0.262-0.365,0.637-0.788,1.16-1.09
		c0.816-0.459,1.312-1.675,1.734-3.038c0.168-0.551,0.32-1.116,0.477-1.67c0.566-1.953,0.555-2.064,0.574-2.706
		c0.039-0.634-0.279-1.215,0.283-2.062c0.602-0.842-1.016-2.798-1.016-2.798s1.027,0.346,1.85,0.696
		c0.811,0.354,0.85-0.289,2.996,1.902c1.732,1.772,1.432,0.791,1.73-0.101c0.068-0.205,0.168-0.415,0.342-0.573
		c0.275-0.262,0.443-0.472,0.553-0.62c0.273-0.35,0.277-0.358,0.762,0.197c0.682,0.793,1.492,0.438,2.789-0.1
		c0.428-0.167,0.99-0.258,1.561-0.209c1.084,0.052,2.229,0.557,2.701,1.708c0.023,0.059,0.053,0.109,0.07,0.176
		c0.645,1.913,3.699,2.81,4.787,4.755c0.27,0.482,0.414,0.874,0.467,1.208c0.178,1.017-0.385,1.524-0.57,2.465
		c-0.045,0.291-0.16,0.583-0.305,0.851c-0.432,0.931-1.201,1.76-1.627,2.239c-0.561,0.635-1.393,0.768-2.104,1.437
		c-0.697,0.685-0.09,1.495,0.797,1.988c0.062,0.035,0.121,0.06,0.16,0.077c0.314,0.133,0.475,0.076,0.559,0.034
		c0.076-0.016,0.09-0.029,0.072,0.06c0.006,0.08-0.02,0.225-0.053,0.491c0,0,0.008,0.024,0.002,0.04
		c-0.141,1.153,2.154,2.311,2.34,2.768c0.182,0.465-0.225,1.923-0.496,2.952c-0.271,1.03,0.807,3.409,1.072,3.968
		c0.279,0.555-0.248,0.972-0.914,2.271c-0.055,0.131-0.111,0.236-0.152,0.313c-0.416,0.795-0.016,0.013,0.678,1.996
		C174.9,43.778,174.154,43.958,174,44.756z"/>
	
		<linearGradient id="SVGID_4_" gradientUnits="userSpaceOnUse" x1="114.709" y1="32.1372" x2="147.627" y2="32.1372" gradientTransform="matrix(0.9206 0.3904 -0.3904 0.9206 23.6635 -50.6406)">
		<stop  offset="0.1789" style="stop-color:#A2B442"/>
		<stop  offset="0.3168" style="stop-color:#9BAB40"/>
		<stop  offset="0.5137" style="stop-color:#8C963A"/>
		<stop  offset="0.7449" style="stop-color:#757831"/>
		<stop  offset="0.8449" style="stop-color:#6A692C"/>
		<stop  offset="1" style="stop-color:#706F37"/>
	</linearGradient>
	<path fill="url(#SVGID_4_)" d="M130.219,57.65c-0.458-0.039-0.663-0.226-0.484-0.339c0.286-0.199,0.524-1.462,0.226-2.961
		c-0.298-1.5-1.537-1.649-0.705-2.326c0.832-0.677,0.922-0.751,0.641-0.979c-0.292-0.234-2.072-0.193-2.967-0.96
		c-0.89-0.776-0.956-1.346-0.415-2.258c0.551-0.908-0.323-0.857,0.092-2.199c0.419-1.351,1.367-0.993,3.27-0.983
		c0.584-0.008,0.921,0.036,1.1,0.089c-0.002,0.199,0.03,0.291,0.03,0.291s0.36-0.18-0.03-0.291c0.004-0.209,0.035-0.505,0.139-0.971
		c0.234-0.943,0.456-0.405,1.945-0.958c1.489-0.553,5.883-1.703,7.603-2.326c1.715-0.613,1.73-2.799,1.002-3.929
		c-0.725-1.138-0.812-0.787-2.971-0.362c-2.156,0.426-2.038,2.88-2.462,4.55c-0.438,1.676-0.444,0.687-1.053,0.141
		c-0.604-0.533-0.913,0.421-2.398,0.379c-1.484-0.043-1.362,0.563-2.669-0.014c-1.32-0.571-0.604-0.699-0.239-2.228
		c0.38-1.535,0.104-0.943-0.84-2.007c-0.955-1.07-0.784-0.886-0.392-2.902c0.399-2.002-0.161-0.933-0.8-1.546
		c-0.643-0.604-1.004,0.05-1.857-0.921c-0.875-0.981-0.139-2.019-0.588-3.75c-0.459-1.735-2.981-0.644-2.536-1.053
		c0.441-0.401,0.186-0.409,0.729-2.473c0.539-2.053,0,0-1.31-1.43c-1.317-1.444-3.307-2.81-2.45-3.099
		c0.853-0.281,0.5-1.959,1.509-4.201c1.026-2.224-0.543-0.951-0.218-2.219c0.312-1.298,1.938-0.972,3.007-1.594
		c0.138-0.074,0.238-0.198,0.305-0.325c0.438-0.922-0.537-2.81,0.616-1.678c1.306,1.274,1.337,1.787,2.064,1.773
		s-0.313-1.185,1.546-0.099c1.861,1.079,1.032-0.259,3.268,1.31c1.339,0.944,3.943,0.575,5.797,0.143
		c1.237-0.295,2.144-0.62,2.144-0.62s2.598-0.959,4.665-1.202c0.496-0.056,0.864-0.308,1.137-0.646l0.005-0.01
		c0.091-0.105,0.174-0.215,0.235-0.331c0.698-1.09,0.789-2.558,1.383-1.475c0.299,0.548,0.673,2.179,1.062,4.083
		c0.051,0.322,0.105,0.643,0.168,0.969c0,0,0.012,0.005,0.008,0.014c0.623,3.354,1.164,7.073,1.164,7.073s0.375,2.187,0.572,2.059
		c0.104-0.077,0.275-0.458,0.58-0.895c-0.053,0.654-0.121,1.29-0.213,1.926c-0.262,2.181-0.701,4.276-1.271,6.317
		C146.308,40.979,139.257,49.93,130.219,57.65z"/>
	
		<linearGradient id="SVGID_5_" gradientUnits="userSpaceOnUse" x1="148.564" y1="44.5732" x2="155.1089" y2="44.5732" gradientTransform="matrix(0.9206 0.3904 -0.3904 0.9206 23.6635 -50.6406)">
		<stop  offset="0.1789" style="stop-color:#B5AB8C"/>
		<stop  offset="0.3033" style="stop-color:#ADA283"/>
		<stop  offset="0.481" style="stop-color:#9B8E6F"/>
		<stop  offset="0.6896" style="stop-color:#817251"/>
		<stop  offset="0.8449" style="stop-color:#6A5B39"/>
		<stop  offset="1" style="stop-color:#6F603E"/>
	</linearGradient>
	<path fill="url(#SVGID_5_)" d="M148.431,49.863c-0.131,0.382-0.311,0.779-0.535,1.199c-0.076,0.152-0.158,0.302-0.245,0.459
		c-0.313,0.556-0.671,1.123-1.035,1.686c-0.186,0.281-0.373,0.56-0.548,0.835c-0.02,0.022-0.03,0.047-0.048,0.067
		c-0.033,0.054-0.068,0.117-0.11,0.167c-0.251,0.389-0.499,0.769-0.709,1.125l-0.004,0.009c-0.059,0.072-0.107,0.138-0.182,0.224
		c-0.082,0.1-0.185,0.203-0.294,0.302c-0.071,0.057-0.151,0.129-0.235,0.19c-0.058,0.043-0.127,0.091-0.182,0.127
		c-0.076,0.045-0.168,0.103-0.262,0.161c-0.123,0.063-0.243,0.139-0.382,0.216c-0.133,0.06-0.285,0.122-0.415,0.202
		c-0.018-0.007-0.041,0.002-0.044,0.011c-0.164,0.066-0.316,0.128-0.488,0.19c-0.278,0.106-0.552,0.204-0.823,0.272
		c-0.161,0.058-0.322,0.097-0.492,0.131c-0.131,0.033-0.284,0.074-0.422,0.102c-0.724,0.15-1.375,0.223-1.798,0.189
		c0.268-0.381,0.756-0.776,1.635-1.062c2.303-0.741,1.959-0.683,1.672-1.358c-0.278-0.671-1.093-1.337-0.991-2.719
		c0.107-1.372,1.523-1.625,1.172-2.715c-0.199-0.609-0.041-0.455,0.323-0.514c0.282-0.046,0.687-0.223,1.151-0.977
		c1.037-1.734,1.852-2.213,2.127-2.407c0.207-0.144,0.067-0.087,0.515-0.344c0.077-0.045,0.166-0.095,0.281-0.162
		c0.191-0.104,0.431-0.234,0.749-0.411c1.559-0.861,2.676-0.865,3.521-1.97c0.049-0.066,0.098-0.133,0.146-0.21
		c0.402-0.624,0.773-1.088,1.064-1.41l-0.045,0.106c-0.049,0.095-0.084,0.178-0.125,0.275c-0.113,0.265-0.23,0.564-0.322,0.893
		c-0.018,0.042-0.023,0.078-0.033,0.123c-0.061,0.215-0.111,0.448-0.164,0.687c-0.008,0.045-0.018,0.089-0.021,0.146
		c-0.045,0.195-0.076,0.405-0.086,0.614C151.566,46.156,148.994,48.199,148.431,49.863z"/>
	<g>
		<linearGradient id="SVGID_6_" gradientUnits="userSpaceOnUse" x1="209.1899" y1="46.2041" x2="221.814" y2="46.2041">
			<stop  offset="0.1789" style="stop-color:#B58B90"/>
			<stop  offset="0.3024" style="stop-color:#AD8389"/>
			<stop  offset="0.4787" style="stop-color:#9C7079"/>
			<stop  offset="0.6856" style="stop-color:#825360"/>
			<stop  offset="0.8449" style="stop-color:#6B394C"/>
			<stop  offset="1" style="stop-color:#701D3C"/>
		</linearGradient>
		<path fill="url(#SVGID_6_)" d="M220.577,49.519c-0.83,1.046-2.026,1.867-3.474,2.251c-0.447,0.116-0.876,0.188-1.313,0.215
			c-0.116,0.009-0.25,0.009-0.357,0.009h-0.009c-2.76,0.054-5.252-1.572-6.003-4.108l-0.026-0.054
			c-0.01-0.044-0.026-0.099-0.026-0.134c-0.67-2.519,0.606-5.1,2.956-6.404c0.492-0.277,1.019-0.5,1.581-0.652
			c0.706-0.188,1.429-0.259,2.126-0.215c0.196,0.009,0.384,0.027,0.571,0.063c0.126,0.009,0.25,0.026,0.366,0.062
			c0.562,0.098,1.1,0.277,1.599,0.519c1.456,0.714,2.582,1.938,3.047,3.519C222.104,46.339,221.667,48.126,220.577,49.519z"/>
		<linearGradient id="SVGID_7_" gradientUnits="userSpaceOnUse" x1="192.5962" y1="53.521" x2="205.2319" y2="53.521">
			<stop  offset="0.1789" style="stop-color:#B58B90"/>
			<stop  offset="0.3024" style="stop-color:#AD8389"/>
			<stop  offset="0.4787" style="stop-color:#9C7079"/>
			<stop  offset="0.6856" style="stop-color:#825360"/>
			<stop  offset="0.8449" style="stop-color:#6B394C"/>
			<stop  offset="1" style="stop-color:#701D3C"/>
		</linearGradient>
		<path fill="url(#SVGID_7_)" d="M203.97,56.862c-0.186,0.234-0.393,0.459-0.621,0.663c-0.763,0.724-1.732,1.265-2.844,1.561
			c-1.395,0.367-2.789,0.285-4.02-0.163c-1.756-0.611-3.161-1.968-3.684-3.784c-0.817-2.846,0.872-5.822,3.814-6.944
			c0.238-0.102,0.467-0.173,0.707-0.234c2.746-0.735,5.546,0.306,6.963,2.386c0.021,0.021,0.042,0.051,0.055,0.092
			c0.305,0.438,0.533,0.938,0.687,1.469C205.529,53.671,205.082,55.465,203.97,56.862z"/>
		<linearGradient id="SVGID_8_" gradientUnits="userSpaceOnUse" x1="195.7358" y1="45.0996" x2="208.3569" y2="45.0996">
			<stop  offset="0.1789" style="stop-color:#B58B90"/>
			<stop  offset="0.3024" style="stop-color:#AD8389"/>
			<stop  offset="0.4787" style="stop-color:#9C7079"/>
			<stop  offset="0.6856" style="stop-color:#825360"/>
			<stop  offset="0.8449" style="stop-color:#6B394C"/>
			<stop  offset="1" style="stop-color:#701D3C"/>
		</linearGradient>
		<path fill="url(#SVGID_8_)" d="M207.223,48.277l-0.009,0.009c-0.08,0.125-0.179,0.232-0.276,0.349
			c-0.67,0.777-1.555,1.402-2.6,1.804c-0.054,0.019-0.107,0.036-0.16,0.055h-0.01c-0.178,0.071-0.366,0.115-0.535,0.169
			c-1.626,0.429-3.261,0.25-4.618-0.411c-0.983-0.464-1.813-1.17-2.403-2.054c-0.295-0.456-0.519-0.938-0.67-1.483
			c-0.83-2.894,0.92-5.904,3.939-7.003c0.188-0.062,0.375-0.125,0.571-0.179c2.045-0.536,4.127-0.098,5.628,1.027
			c0.982,0.706,1.724,1.724,2.071,2.92C208.634,45.178,208.242,46.911,207.223,48.277z"/>
		<linearGradient id="SVGID_9_" gradientUnits="userSpaceOnUse" x1="203.0229" y1="53.6836" x2="215.6519" y2="53.6836">
			<stop  offset="0.1789" style="stop-color:#B58B90"/>
			<stop  offset="0.3024" style="stop-color:#AD8389"/>
			<stop  offset="0.4787" style="stop-color:#9C7079"/>
			<stop  offset="0.6856" style="stop-color:#825360"/>
			<stop  offset="0.8449" style="stop-color:#6B394C"/>
			<stop  offset="1" style="stop-color:#701D3C"/>
		</linearGradient>
		<path fill="url(#SVGID_9_)" d="M214.691,56.611c-0.268,0.402-0.599,0.777-0.982,1.125c-0.741,0.697-1.688,1.224-2.778,1.51
			c-2.027,0.545-4.072,0.116-5.573-0.965c-0.545-0.394-1.019-0.866-1.385-1.42c-0.33-0.465-0.581-0.991-0.741-1.555
			c-0.491-1.706-0.089-3.448,0.947-4.813c0.035-0.055,0.062-0.099,0.106-0.144c0.724-0.911,1.725-1.644,2.93-2.063l0.009-0.009
			c0.179-0.062,0.357-0.116,0.528-0.16c0.553-0.144,1.106-0.215,1.669-0.232c2.742-0.036,5.253,1.581,6.003,4.108
			c0.009,0.027,0.009,0.045,0.018,0.062c0.036,0.116,0.055,0.214,0.08,0.331C215.861,53.878,215.521,55.37,214.691,56.611z"/>
		<linearGradient id="SVGID_10_" gradientUnits="userSpaceOnUse" x1="214.5571" y1="55.2974" x2="227.1763" y2="55.2974">
			<stop  offset="0.1789" style="stop-color:#B58B90"/>
			<stop  offset="0.3024" style="stop-color:#AD8389"/>
			<stop  offset="0.4787" style="stop-color:#9C7079"/>
			<stop  offset="0.6856" style="stop-color:#825360"/>
			<stop  offset="0.8449" style="stop-color:#6B394C"/>
			<stop  offset="1" style="stop-color:#701D3C"/>
		</linearGradient>
		<path fill="url(#SVGID_10_)" d="M226.883,56.861c-0.071,0.259-0.188,0.5-0.294,0.732c-0.769,1.536-2.243,2.77-4.127,3.269
			c-0.43,0.107-0.849,0.179-1.269,0.215c-0.796,0.054-1.581-0.027-2.305-0.224c-1.411-0.393-2.617-1.215-3.403-2.394v-0.009
			c-0.321-0.456-0.562-0.964-0.732-1.536c-0.026-0.107-0.054-0.205-0.062-0.304l-0.009-0.018c-0.331-1.492,0.009-2.993,0.839-4.207
			c0.072-0.152,0.17-0.286,0.269-0.402c0.831-1.055,2.027-1.876,3.492-2.251c0.429-0.116,0.867-0.196,1.295-0.215
			c2.787-0.196,5.396,1.322,6.28,3.806c0.053,0.116,0.08,0.232,0.124,0.356C227.276,54.762,227.232,55.853,226.883,56.861z"/>
		
			<linearGradient id="SVGID_11_" gradientUnits="userSpaceOnUse" x1="214.728" y1="108.1387" x2="227.3599" y2="108.1387" gradientTransform="matrix(0.9594 -0.2819 -0.2819 -0.9594 28.1463 228.4124)">
			<stop  offset="0.1789" style="stop-color:#B58B90"/>
			<stop  offset="0.3024" style="stop-color:#AD8389"/>
			<stop  offset="0.4787" style="stop-color:#9C7079"/>
			<stop  offset="0.6856" style="stop-color:#825360"/>
			<stop  offset="0.8449" style="stop-color:#6B394C"/>
			<stop  offset="1" style="stop-color:#701D3C"/>
		</linearGradient>
		<path fill="url(#SVGID_11_)" d="M203.627,63.959c0.878,3.076,4.325,4.843,7.697,3.946c3.376-0.894,5.397-4.111,4.517-7.187
			c-0.876-3.073-4.32-4.841-7.695-3.945S202.75,60.886,203.627,63.959z"/>
		<linearGradient id="SVGID_12_" gradientUnits="userSpaceOnUse" x1="194.5962" y1="62.9258" x2="207.2251" y2="62.9258">
			<stop  offset="0.1789" style="stop-color:#B58B90"/>
			<stop  offset="0.3024" style="stop-color:#AD8389"/>
			<stop  offset="0.4787" style="stop-color:#9C7079"/>
			<stop  offset="0.6856" style="stop-color:#825360"/>
			<stop  offset="0.8449" style="stop-color:#6B394C"/>
			<stop  offset="1" style="stop-color:#701D3C"/>
		</linearGradient>
		<path fill="url(#SVGID_12_)" d="M207.097,63.908c-0.229,1.062-0.784,2.051-1.579,2.846c-0.764,0.786-1.766,1.387-2.922,1.714
			l-0.098,0.021c-0.794,0.214-1.611,0.275-2.386,0.204c-1.928-0.174-3.66-1.163-4.652-2.713c-0.282-0.429-0.512-0.907-0.653-1.438
			c-0.6-2.06,0.119-4.17,1.679-5.618c0.751-0.715,1.721-1.265,2.843-1.561c1.384-0.367,2.79-0.286,4.021,0.163
			c0.653,0.224,1.253,0.561,1.776,0.979c0.894,0.715,1.569,1.673,1.896,2.805C207.271,62.186,207.284,63.063,207.097,63.908z"/>
		
			<linearGradient id="SVGID_13_" gradientUnits="userSpaceOnUse" x1="211.2915" y1="92.9766" x2="223.9233" y2="92.9766" gradientTransform="matrix(0.9594 -0.2819 -0.2819 -0.9594 28.1463 228.4124)">
			<stop  offset="0.1789" style="stop-color:#B58B90"/>
			<stop  offset="0.3024" style="stop-color:#AD8389"/>
			<stop  offset="0.4787" style="stop-color:#9C7079"/>
			<stop  offset="0.6856" style="stop-color:#825360"/>
			<stop  offset="0.8449" style="stop-color:#6B394C"/>
			<stop  offset="1" style="stop-color:#701D3C"/>
		</linearGradient>
		<path fill="url(#SVGID_13_)" d="M204.605,79.475c0.874,3.073,4.324,4.841,7.696,3.947c3.374-0.897,5.396-4.115,4.518-7.187
			c-0.88-3.076-4.324-4.843-7.699-3.945C205.747,73.185,203.723,76.402,204.605,79.475z"/>
		<linearGradient id="SVGID_14_" gradientUnits="userSpaceOnUse" x1="208.1978" y1="82.6797" x2="219.7847" y2="82.6797">
			<stop  offset="0.1789" style="stop-color:#B58B90"/>
			<stop  offset="0.3024" style="stop-color:#AD8389"/>
			<stop  offset="0.4787" style="stop-color:#9C7079"/>
			<stop  offset="0.6856" style="stop-color:#825360"/>
			<stop  offset="0.8449" style="stop-color:#6B394C"/>
			<stop  offset="1" style="stop-color:#701D3C"/>
		</linearGradient>
		<path fill="url(#SVGID_14_)" d="M219.29,84.489c-0.687,1.427-2.092,2.601-3.9,3.079c-1.983,0.521-3.978,0.092-5.36-0.989
			c-0.458-0.346-0.839-0.765-1.134-1.243c-0.229-0.358-0.414-0.745-0.534-1.164c-0.087-0.306-0.142-0.621-0.152-0.938
			c-0.076-1.07,0.251-2.122,0.872-3.028c0.773-1.121,1.994-2.01,3.508-2.418c1.569-0.408,3.139-0.224,4.401,0.398h0.013
			c0.173,0.081,0.315,0.163,0.479,0.265c1.024,0.634,1.798,1.581,2.136,2.743c0.077,0.245,0.12,0.5,0.142,0.755
			C219.856,82.827,219.682,83.693,219.29,84.489z"/>
		<linearGradient id="SVGID_15_" gradientUnits="userSpaceOnUse" x1="196.7104" y1="77.5605" x2="209.3345" y2="77.5605">
			<stop  offset="0.1789" style="stop-color:#B58B90"/>
			<stop  offset="0.3024" style="stop-color:#AD8389"/>
			<stop  offset="0.4787" style="stop-color:#9C7079"/>
			<stop  offset="0.6856" style="stop-color:#825360"/>
			<stop  offset="0.8449" style="stop-color:#6B394C"/>
			<stop  offset="1" style="stop-color:#701D3C"/>
		</linearGradient>
		<path fill="url(#SVGID_15_)" d="M208.753,79.839c-0.49,0.979-1.264,1.824-2.244,2.447c-0.566,0.367-1.199,0.652-1.907,0.836
			c-2.332,0.622-4.707-0.03-6.232-1.52c-0.675-0.663-1.188-1.479-1.46-2.426c-0.175-0.623-0.239-1.256-0.175-1.867
			c0.153-2.162,1.635-4.12,3.847-5.028h0.011c0.272-0.111,0.556-0.214,0.84-0.285c0.675-0.184,1.34-0.254,1.994-0.225
			c1.416,0.041,2.745,0.53,3.791,1.347c0.632,0.5,1.144,1.111,1.514,1.825v0.01c0.164,0.317,0.295,0.643,0.393,0.99
			C209.516,77.279,209.342,78.654,208.753,79.839z"/>
		<linearGradient id="SVGID_16_" gradientUnits="userSpaceOnUse" x1="197.8521" y1="84.1094" x2="210.5337" y2="84.1094">
			<stop  offset="0.1789" style="stop-color:#B58B90"/>
			<stop  offset="0.3024" style="stop-color:#AD8389"/>
			<stop  offset="0.4787" style="stop-color:#9C7079"/>
			<stop  offset="0.6856" style="stop-color:#825360"/>
			<stop  offset="0.8449" style="stop-color:#6B394C"/>
			<stop  offset="1" style="stop-color:#701D3C"/>
		</linearGradient>
		<path fill="url(#SVGID_16_)" d="M210.029,86.579c-0.186,0.408-0.393,0.796-0.666,1.143c-0.348,0.489-0.762,0.917-1.241,1.274
			c-0.643,0.5-1.384,0.866-2.212,1.092c-0.556,0.143-1.111,0.224-1.666,0.203c-2.791,0.012-5.362-1.805-6.157-4.558
			c-0.403-1.438-0.272-2.877,0.283-4.131c0.741-1.642,2.212-2.957,4.119-3.468c0.643-0.163,1.274-0.233,1.906-0.204h0.011
			c1.657,0.062,3.215,0.756,4.348,1.908c0.12,0.122,0.229,0.244,0.327,0.367c0.556,0.652,0.981,1.417,1.22,2.284
			c0.098,0.347,0.164,0.693,0.195,1.03v0.01c0.013,0.041,0.013,0.082,0.013,0.122C210.606,84.673,210.421,85.682,210.029,86.579z"/>
		<linearGradient id="SVGID_17_" gradientUnits="userSpaceOnUse" x1="208.0747" y1="88.4102" x2="220.7651" y2="88.4102">
			<stop  offset="0.1789" style="stop-color:#B58B90"/>
			<stop  offset="0.3024" style="stop-color:#AD8389"/>
			<stop  offset="0.4787" style="stop-color:#9C7079"/>
			<stop  offset="0.6856" style="stop-color:#825360"/>
			<stop  offset="0.8449" style="stop-color:#6B394C"/>
			<stop  offset="1" style="stop-color:#701D3C"/>
		</linearGradient>
		<path fill="url(#SVGID_17_)" d="M219.825,91.679c-0.808,1.284-2.093,2.273-3.706,2.702c-0.653,0.174-1.318,0.244-1.961,0.203
			c-0.632-0.029-1.242-0.152-1.819-0.346c-1.896-0.652-3.454-2.172-4.032-4.213c-0.098-0.335-0.163-0.683-0.185-1.029
			c-0.054-0.408-0.065-0.815-0.011-1.214c0.075-0.866,0.349-1.703,0.784-2.446c0.37-0.643,0.861-1.225,1.449-1.693
			c0.054-0.041,0.098-0.082,0.151-0.112v-0.01c0.644-0.49,1.386-0.856,2.214-1.081c0.664-0.175,1.34-0.245,1.993-0.204
			c1.775,0.081,3.454,0.907,4.587,2.254c0.556,0.651,0.992,1.417,1.242,2.304C221.022,88.518,220.716,90.281,219.825,91.679z"/>
		<linearGradient id="SVGID_18_" gradientUnits="userSpaceOnUse" x1="203.4683" y1="92.9238" x2="214.4546" y2="92.9238">
			<stop  offset="0.1789" style="stop-color:#B58B90"/>
			<stop  offset="0.3024" style="stop-color:#AD8389"/>
			<stop  offset="0.4787" style="stop-color:#9C7079"/>
			<stop  offset="0.6856" style="stop-color:#825360"/>
			<stop  offset="0.8449" style="stop-color:#6B394C"/>
			<stop  offset="1" style="stop-color:#701D3C"/>
		</linearGradient>
		<path fill="url(#SVGID_18_)" d="M214.158,94.584c-0.218,0.592-0.533,1.144-0.958,1.611c-0.383,0.47-0.861,0.856-1.396,1.164
			c-0.435,0.265-0.894,0.458-1.406,0.591c-2.135,0.562-4.324-0.153-5.653-1.663c-0.501-0.551-0.873-1.213-1.079-1.957
			c-0.414-1.418-0.153-2.856,0.578-4.039c0.707-1.121,1.851-2.019,3.289-2.396c0.186-0.05,0.382-0.081,0.578-0.112
			c0.424-0.07,0.85-0.092,1.252-0.061c2.268,0.132,4.283,1.602,4.903,3.793c0.056,0.215,0.11,0.429,0.131,0.643v0.01
			C214.528,93.004,214.43,93.819,214.158,94.584z"/>
		<linearGradient id="SVGID_19_" gradientUnits="userSpaceOnUse" x1="209.6226" y1="105.6865" x2="222.1724" y2="105.6865">
			<stop  offset="0.1789" style="stop-color:#B58B90"/>
			<stop  offset="0.3024" style="stop-color:#AD8389"/>
			<stop  offset="0.4787" style="stop-color:#9C7079"/>
			<stop  offset="0.6856" style="stop-color:#825360"/>
			<stop  offset="0.8449" style="stop-color:#6B394C"/>
			<stop  offset="1" style="stop-color:#701D3C"/>
		</linearGradient>
		<path fill="url(#SVGID_19_)" d="M219.017,110.035c-0.501,0.285-1.068,0.51-1.688,0.673c-0.556,0.152-1.112,0.234-1.656,0.245
			c-2.757,0.111-5.22-1.327-5.884-3.642c-0.098-0.336-0.152-0.693-0.163-1.04c-0.088-2.438,1.885-4.823,4.838-5.599l0.032-0.011
			h0.012l0.01-0.01c0.219-0.061,0.458-0.102,0.676-0.132c1.362-0.234,2.691-0.072,3.814,0.396c1.459,0.592,2.582,1.693,2.996,3.152
			C222.657,106.343,221.371,108.75,219.017,110.035z"/>
		<linearGradient id="SVGID_20_" gradientUnits="userSpaceOnUse" x1="211.7153" y1="96.248" x2="222.978" y2="96.248">
			<stop  offset="0.1789" style="stop-color:#B58B90"/>
			<stop  offset="0.3024" style="stop-color:#AD8389"/>
			<stop  offset="0.4787" style="stop-color:#9C7079"/>
			<stop  offset="0.6856" style="stop-color:#825360"/>
			<stop  offset="0.8449" style="stop-color:#6B394C"/>
			<stop  offset="1" style="stop-color:#701D3C"/>
		</linearGradient>
		<path fill="url(#SVGID_20_)" d="M219.007,100.917c-0.098,0.031-0.197,0.062-0.295,0.082c-1.231,0.326-2.463,0.275-3.542-0.082
			c-0.229-0.07-0.446-0.152-0.653-0.265l-0.01,0.01h-0.012c-1.264-0.602-2.234-1.631-2.614-2.966
			c-0.033-0.113-0.066-0.226-0.077-0.337c-0.142-0.664-0.108-1.347,0.065-1.999c0.109-0.389,0.251-0.765,0.469-1.122
			c0.458-0.826,1.166-1.55,2.059-2.071v-0.01c0.48-0.285,1.015-0.51,1.591-0.662c1.341-0.357,2.681-0.255,3.837,0.184
			c1.438,0.551,2.57,1.662,2.984,3.119C223.54,97.338,221.839,100.01,219.007,100.917z"/>
		<linearGradient id="SVGID_21_" gradientUnits="userSpaceOnUse" x1="217.3853" y1="77.3311" x2="230.0181" y2="77.3311">
			<stop  offset="0.1789" style="stop-color:#B58B90"/>
			<stop  offset="0.3024" style="stop-color:#AD8389"/>
			<stop  offset="0.4787" style="stop-color:#9C7079"/>
			<stop  offset="0.6856" style="stop-color:#825360"/>
			<stop  offset="0.8449" style="stop-color:#6B394C"/>
			<stop  offset="1" style="stop-color:#701D3C"/>
		</linearGradient>
		<path fill="url(#SVGID_21_)" d="M225.293,82.897c-2.005,0.531-4.043,0.112-5.535-0.948c-1.035-0.724-1.81-1.753-2.168-2.999
			c-0.044-0.173-0.087-0.325-0.109-0.499c-0.055-0.214-0.076-0.427-0.087-0.652v-0.011c-0.152-2.672,1.731-5.189,4.63-5.996
			l0.088-0.031c0.512-0.132,1.035-0.204,1.536-0.223c2.267-0.082,4.379,0.968,5.502,2.743c0.295,0.428,0.524,0.907,0.666,1.427
			C230.687,78.788,228.66,82,225.293,82.897z"/>
		<linearGradient id="SVGID_22_" gradientUnits="userSpaceOnUse" x1="190.8247" y1="71.5176" x2="203.4507" y2="71.5176">
			<stop  offset="0.1789" style="stop-color:#B58B90"/>
			<stop  offset="0.3024" style="stop-color:#AD8389"/>
			<stop  offset="0.4787" style="stop-color:#9C7079"/>
			<stop  offset="0.6856" style="stop-color:#825360"/>
			<stop  offset="0.8449" style="stop-color:#6B394C"/>
			<stop  offset="1" style="stop-color:#701D3C"/>
		</linearGradient>
		<path fill="url(#SVGID_22_)" d="M203.426,71.771c-0.056,0.939-0.382,1.847-0.904,2.631c-0.829,1.265-2.147,2.244-3.793,2.683
			c-0.675,0.174-1.339,0.245-1.994,0.225c-2.647-0.082-4.99-1.703-5.709-4.17c-0.861-3.05,1.122-6.223,4.435-7.16l0.098-0.021
			c1.93-0.521,3.88-0.153,5.361,0.825c0.675,0.439,1.243,1.011,1.677,1.684c0.285,0.429,0.514,0.907,0.655,1.428
			C203.426,70.518,203.491,71.15,203.426,71.771z"/>
		<linearGradient id="SVGID_23_" gradientUnits="userSpaceOnUse" x1="221.1567" y1="68.7329" x2="233.7876" y2="68.7329">
			<stop  offset="0.1789" style="stop-color:#B58B90"/>
			<stop  offset="0.3024" style="stop-color:#AD8389"/>
			<stop  offset="0.4787" style="stop-color:#9C7079"/>
			<stop  offset="0.6856" style="stop-color:#825360"/>
			<stop  offset="0.8449" style="stop-color:#6B394C"/>
			<stop  offset="1" style="stop-color:#701D3C"/>
		</linearGradient>
		<path fill="url(#SVGID_23_)" d="M229.15,74.281l-0.087,0.02c-2.038,0.541-4.107,0.102-5.611-0.999
			c-0.566-0.407-1.046-0.918-1.428-1.51c-0.293-0.438-0.511-0.918-0.663-1.438c-0.285-0.989-0.262-1.969,0.01-2.906v-0.011
			c0.088-0.316,0.207-0.632,0.36-0.938c0.751-1.56,2.233-2.814,4.15-3.334c2.855-0.755,5.754,0.397,7.115,2.641
			c0.25,0.398,0.447,0.837,0.589,1.306C234.447,70.161,232.473,73.353,229.15,74.281z"/>
		<linearGradient id="SVGID_24_" gradientUnits="userSpaceOnUse" x1="218.7837" y1="62.458" x2="233.936" y2="62.458">
			<stop  offset="0.1789" style="stop-color:#B58B90"/>
			<stop  offset="0.3024" style="stop-color:#AD8389"/>
			<stop  offset="0.4787" style="stop-color:#9C7079"/>
			<stop  offset="0.6856" style="stop-color:#825360"/>
			<stop  offset="0.8449" style="stop-color:#6B394C"/>
			<stop  offset="1" style="stop-color:#701D3C"/>
		</linearGradient>
		<path fill="url(#SVGID_24_)" d="M233.934,63.073c0.021,0.785-0.174,1.56-0.632,2.284c-0.099,0.152-0.196,0.307-0.306,0.448
			c-1.874,2.356-6.059,3.05-9.665,1.551c-0.577-0.245-1.122-0.531-1.601-0.857c-0.044-0.03-0.087-0.061-0.131-0.082
			c0-0.009-0.011-0.009-0.011-0.009c-2.114-1.469-3.149-3.6-2.703-5.559c0.11-0.448,0.295-0.887,0.546-1.295
			c0.021-0.041,0.054-0.072,0.075-0.102c1.275-1.948,4.021-2.907,6.908-2.642c0.152,0.01,0.306,0.03,0.468,0.051
			c0.851,0.122,1.7,0.356,2.54,0.693C232.234,58.739,233.912,60.931,233.934,63.073z"/>
		<linearGradient id="SVGID_25_" gradientUnits="userSpaceOnUse" x1="226.3237" y1="56.603" x2="239.6714" y2="56.603">
			<stop  offset="0.1789" style="stop-color:#B58B90"/>
			<stop  offset="0.3024" style="stop-color:#AD8389"/>
			<stop  offset="0.4787" style="stop-color:#9C7079"/>
			<stop  offset="0.6856" style="stop-color:#825360"/>
			<stop  offset="0.8449" style="stop-color:#6B394C"/>
			<stop  offset="1" style="stop-color:#701D3C"/>
		</linearGradient>
		<path fill="url(#SVGID_25_)" d="M239.058,60.077c-0.501,0.982-1.304,1.822-2.376,2.367c-0.866,0.428-1.805,0.625-2.751,0.625
			c-1.751,0.026-3.546-0.644-4.966-1.857c-0.59-0.501-1.108-1.1-1.537-1.778c-0.384-0.599-0.651-1.215-0.839-1.84
			c-0.072-0.26-0.144-0.518-0.171-0.786c-0.223-1.224-0.044-2.43,0.438-3.483c0.5-1.063,1.321-1.956,2.465-2.536
			c1.599-0.813,3.484-0.841,5.216-0.224c0.965,0.339,1.877,0.884,2.663,1.599c0.518,0.464,0.981,1.01,1.366,1.616
			C239.888,55.878,239.987,58.246,239.058,60.077z"/>
		
			<linearGradient id="SVGID_26_" gradientUnits="userSpaceOnUse" x1="209.3618" y1="102.0684" x2="221.9946" y2="102.0684" gradientTransform="matrix(0.9594 -0.2819 -0.2819 -0.9594 28.1463 228.4124)">
			<stop  offset="0.1789" style="stop-color:#B58B90"/>
			<stop  offset="0.3024" style="stop-color:#AD8389"/>
			<stop  offset="0.4787" style="stop-color:#9C7079"/>
			<stop  offset="0.6856" style="stop-color:#825360"/>
			<stop  offset="0.8449" style="stop-color:#6B394C"/>
			<stop  offset="1" style="stop-color:#701D3C"/>
		</linearGradient>
		<path fill="url(#SVGID_26_)" d="M200.191,71.297c0.878,3.075,4.325,4.842,7.697,3.944c3.375-0.892,5.397-4.111,4.518-7.185
			c-0.878-3.075-4.323-4.843-7.696-3.945C201.334,65.009,199.312,68.224,200.191,71.297z"/>
		
			<linearGradient id="SVGID_27_" gradientUnits="userSpaceOnUse" x1="219.2993" y1="96.7188" x2="231.9351" y2="96.7188" gradientTransform="matrix(0.9594 -0.2819 -0.2819 -0.9594 28.1463 228.4124)">
			<stop  offset="0.1789" style="stop-color:#B58B90"/>
			<stop  offset="0.3024" style="stop-color:#AD8389"/>
			<stop  offset="0.4787" style="stop-color:#9C7079"/>
			<stop  offset="0.6856" style="stop-color:#825360"/>
			<stop  offset="0.8449" style="stop-color:#6B394C"/>
			<stop  offset="1" style="stop-color:#701D3C"/>
		</linearGradient>
		<path fill="url(#SVGID_27_)" d="M211.233,73.626c0.876,3.076,4.323,4.841,7.697,3.948c3.374-0.897,5.397-4.115,4.521-7.188
			c-0.881-3.074-4.327-4.841-7.701-3.944C212.375,67.336,210.353,70.552,211.233,73.626z"/>
		
			<linearGradient id="SVGID_28_" gradientUnits="userSpaceOnUse" x1="220.0229" y1="104.6074" x2="232.6597" y2="104.6074" gradientTransform="matrix(0.9594 -0.2819 -0.2819 -0.9594 28.1463 228.4124)">
			<stop  offset="0.1789" style="stop-color:#B58B90"/>
			<stop  offset="0.3024" style="stop-color:#AD8389"/>
			<stop  offset="0.4787" style="stop-color:#9C7079"/>
			<stop  offset="0.6856" style="stop-color:#825360"/>
			<stop  offset="0.8449" style="stop-color:#6B394C"/>
			<stop  offset="1" style="stop-color:#701D3C"/>
		</linearGradient>
		<path fill="url(#SVGID_28_)" d="M209.704,65.854c0.877,3.073,4.324,4.84,7.696,3.945c3.374-0.896,5.396-4.113,4.521-7.188
			c-0.88-3.073-4.328-4.841-7.701-3.942C210.847,59.562,208.823,62.782,209.704,65.854z"/>
		<linearGradient id="SVGID_29_" gradientUnits="userSpaceOnUse" x1="202.5737" y1="100.5391" x2="215.2017" y2="100.5391">
			<stop  offset="0.1789" style="stop-color:#B58B90"/>
			<stop  offset="0.3024" style="stop-color:#AD8389"/>
			<stop  offset="0.4787" style="stop-color:#9C7079"/>
			<stop  offset="0.6856" style="stop-color:#825360"/>
			<stop  offset="0.8449" style="stop-color:#6B394C"/>
			<stop  offset="1" style="stop-color:#701D3C"/>
		</linearGradient>
		<path fill="url(#SVGID_29_)" d="M215.193,100.521c0.011,0.132,0,0.264-0.022,0.396c-0.239,2.367-2.048,4.478-4.685,5.192
			c-0.283,0.07-0.578,0.132-0.86,0.162c-3.084,0.418-6.037-1.295-6.843-4.109c-0.633-2.183,0.218-4.437,1.962-5.875
			c0.707-0.601,1.568-1.05,2.549-1.315c1.612-0.417,3.226-0.244,4.576,0.389c0.479,0.224,0.938,0.498,1.33,0.835
			c0.85,0.694,1.492,1.633,1.809,2.724C215.16,99.46,215.226,99.99,215.193,100.521z"/>
	</g>
</g>
<linearGradient id="SVGID_30_" gradientUnits="userSpaceOnUse" x1="197.8901" y1="151.9463" x2="289.1001" y2="151.9463" gradientTransform="matrix(0.9936 -0.1132 -0.1132 -0.9936 18.6687 190.5506)">
	<stop  offset="0.1789" style="stop-color:#B5AB8C"/>
	<stop  offset="0.3033" style="stop-color:#ADA283"/>
	<stop  offset="0.481" style="stop-color:#9B8E6F"/>
	<stop  offset="0.6896" style="stop-color:#817251"/>
	<stop  offset="0.8449" style="stop-color:#6A5B39"/>
	<stop  offset="1" style="stop-color:#6F603E"/>
</linearGradient>
<path fill="url(#SVGID_30_)" d="M270.135,2.177c-4.82-1.28-10.18-1.14-15.27-1.62c-0.681-0.07-1.45,0.1-2.021-0.14
	c-11.97-4.81-22.439-2.28-32.09,3.05c-0.02,0.01-0.03,0.02-0.06,0.03c-2.91,1.61-5.33,3.78-7.931,5.74
	c-0.399,0.3-0.8,0.59-1.21,0.88c-0.22,0.15-0.43,0.29-0.649,0.44c-1.011,0.67-2.75,1.08-4.11,0.93c-0.93-0.09-1.86-0.2-2.79-0.31
	c-1.88-0.23-3.76-0.49-5.64-0.75c-0.03-0.01-0.061-0.02-0.11-0.02c-0.31-0.05-0.64-0.09-0.96-0.13c0.14,0.13,0.28,0.26,0.4,0.4
	c0.05,0.03,0.06,0.06,0.079,0.08c0.28,0.04,0.54,0.11,0.811,0.18c3.13,0.64,6.26,1.3,9.46,1.97c-0.59,0.8-1.21,1.55-1.84,2.27
	c-0.181,0.2-0.36,0.4-0.55,0.6c0,0,0,0-0.011,0.01c-0.27,0.3-0.56,0.59-0.85,0.87c0.61,0.48,1.21,0.99,1.82,1.49
	c0.43-0.35,0.859-0.71,1.29-1.07c0.42-0.36,0.83-0.72,1.239-1.08c0.19-0.16,0.38-0.33,0.57-0.51c0.57-0.53,1.08-0.93,1.65-1.2
	c0.77-0.35,1.64-0.47,2.909-0.31c3.28,0.4,6.631,0.65,9.921,0.65c0.529,0,1.06-0.01,1.6-0.02c0.63-0.01,1.27-0.07,1.88-0.13
	c3.11-0.32,5.89-1.25,8.41-2.68c1-0.55,1.939-1.19,2.87-1.9c0.7-0.55,1.43-1.07,2.18-1.57h0.01c2.761-1.9,5.801-3.57,8.74-5.31
	c1.7-1.02,3.46-0.84,4.9,0.64c2.77,2.87,5.55,5.74,8.279,8.62c0.061,0.07,0.12,0.12,0.181,0.18c0.56,0.6,1.13,1.19,1.729,1.73
	l0.011,0.01c1.27,1.12,2.72,2,4.729,2.24c0.3,0.04,0.63,0.06,0.97,0.07c0.511,0,0.96-0.03,1.391-0.1c1.79-0.3,2.85-1.27,2.91-2.98
	c0.069-2.07-1.4-3.31-4.4-4.3c0.42,0.86,0.45,1.13,0.64,1.32c1.38,1.37,3.221,3.14,0.931,4.26c-0.67,0.32-1.96,0.21-3.19-0.1
	c-0.01,0-0.02-0.01-0.03-0.01c-0.899-0.25-1.77-0.59-2.35-1c-0.01,0-0.021-0.01-0.021-0.01s0-0.01-0.01-0.01
	c-0.01,0.01-0.01,0.01-0.02,0c0,0,0,0-0.011,0c-0.029-0.02-0.06-0.04-0.1-0.07c-2.5-1.87-4.28-4.35-6.38-6.55
	c-1.57-1.64-3.2-3.28-5.01-5.14c5.37-1.12,10.37-0.18,15.02,1.29c4.91,1.57,9.65,3.68,14.13,5.99c3.38,1.75,4.221,4.73,3.92,7.78
	c-0.21,2.23-1.84,3.55-4.569,3.78c-2.681,0.21-3.65-1.36-4.34-3.09c-0.12-0.32-0.421-0.59-0.66-0.88
	c-0.391,0.09-0.78,0.17-1.19,0.26c0.54,1.18,0.71,2.6,1.67,3.49c1.9,1.75,4.44,2.22,7,1.13c1.08-0.44,1.971-1.18,2.95-1.77
	c0.33-0.69,0.64-1.38,0.96-2.07C289.286,7.747,279.675,4.707,270.135,2.177z M239.496,8.027c-1.061,0.64-2.13,1.26-3.221,1.88
	c-0.609,0.34-1.239,0.68-1.869,0.96c-2.851,1.35-5.851,2.13-9,2.45c-0.99,0.12-2,0.17-3.021,0.19c-3.09,0.05-6.32-0.3-9.689-0.98
	c0.5-0.62,1.04-1.22,1.609-1.79c0.24-0.25,0.49-0.5,0.75-0.74c2.311-2.18,5-4.07,7.88-5.61c9.98-5.39,22.09-6.74,27.301-3.05
	C246.645,3.567,243.135,5.847,239.496,8.027z"/>
<linearGradient id="SVGID_31_" gradientUnits="userSpaceOnUse" x1="324.5864" y1="-105.4863" x2="519.9673" y2="1262.1797">
	<stop  offset="0" style="stop-color:#6F603E"/>
	<stop  offset="0.1551" style="stop-color:#6A5B39"/>
	<stop  offset="0.3104" style="stop-color:#817251"/>
	<stop  offset="0.519" style="stop-color:#9B8E6F"/>
	<stop  offset="0.6967" style="stop-color:#ADA283"/>
	<stop  offset="0.8211" style="stop-color:#B5AB8C"/>
</linearGradient>
<path display="none" fill="url(#SVGID_31_)" d="M483.594,274.77c0.215,4.023,0.283,7.951,0.118,11.697
	c-0.559,13.209-1.61,26.48-4.632,39.383c-3.01,12.855-9.375,23.842-13.646,36.168c-3.433,9.904-6.131,22.797-6.257,33.332
	c-0.021,3.449-0.06,6.904-0.08,10.381l-0.062,6.148c-0.005,1.861,0.39,3.871,0.451,5.744c0.049,2.145-0.236,4.111-0.135,6.268
	c0.062,0.908,0.392,1.932,0.506,2.863c0.087,0.918-0.094,1.658-0.046,2.553c0.077,1.912,0.427,3.857,0.426,5.771
	c-0.003,1.9,0.476,4.283,0.848,6.359c0.881,5.018,1.509,10.178,2.838,15.328c0.586,2.182,0.958,4.27,1.491,6.443
	c0.584,2.402,1.439,5.025,1.797,7.309c0.228,1.564,0.279,3.047,0.784,4.686c4.143,13.67,8.172,28.178,10.069,41.238
	c0.081,0.555,0.151,1.109,0.233,1.68c0.131,0.994,0.262,1.99,0.341,2.99c0.019,0.338-0.084,0.629-0.104,0.941
	c-0.072,1.592-0.432,3.135-0.567,4.717c-0.165,1.795-0.089,3.248-0.897,4.904c-0.715,1.459-1.7,2.76-2.191,4.309
	c-0.65,2.158-0.23,4.477-0.864,6.686c-0.667,2.395-1.452,4.752-2.278,7.088c-0.767,2.215-1.947,4.244-2.755,6.438
	c-0.908,2.467-1.109,5.004-1.441,7.586c-0.371,2.793-1.201,5.521-1.625,8.303c-0.585,3.676-1.052,7.359-1.544,11.045
	c-1.655,12.389-1.957,24.773-1.458,37.246c0.557,14.029,1.617,28.072,3.68,41.982c2.019,13.68,5.225,27.111,7.993,40.646
	c2.856,13.984,5.159,28.064,6.569,42.27c1.392,14.078,1.875,28.217,2.006,42.348c0.136,14.209-0.015,28.459-1.013,42.625
	c-1.008,14.258-3.156,28.367-5.515,42.438c-2.333,13.832-4.457,27.654-5.807,41.617c-1.382,14.305-2.294,28.66-3.232,43.006
	c-0.933,14.434-1.764,28.863-2.159,43.336c-0.401,14.146-0.479,28.289-0.32,42.457c0.156,14.365,0.655,28.764,2.808,42.994
	c1.896,12.514,5.36,24.721,7.229,37.262c2.017,13.602,2.271,27.373,2.589,41.105c0.321,14.277,0.551,28.559-0.652,42.812
	c-0.584,6.854-1.481,13.672-2.525,20.457c-0.75,5.172-1.673,10.336-2.02,15.549c-0.671,10.297,1.873,20.613,3.532,30.717
	c2.29,14.068,4.142,28.238,6.83,42.258c2.294,11.973,5.041,23.895,7.322,35.879c1.829,9.627,3.674,19.254,6.031,28.773
	c0.051,0.232,0.117,2.857,0.183,3.102c-1.701,0.365-3.387,0.74-5.084,1.119c-1.003-4.646-2.019-11.66-2.97-16.311
	c-0.319-1.572-0.65-3.129-0.956-4.699c-0.118-0.541-0.225-1.068-0.333-1.609c-0.364-1.713-0.718-3.439-1.069-5.164
	c-0.429-2.166-0.858-4.342-1.299-6.504c-1.293-6.404-2.598-12.777-3.916-19.164c-0.335-1.621-0.653-3.219-0.989-4.842
	c-0.087-0.424-0.174-0.836-0.262-1.262c-0.913-4.418-1.8-8.834-2.649-13.254c-1.127-5.76-2.218-11.531-3.256-17.311
	c-0.031-0.088-0.048-0.166-0.053-0.256c-0.291-1.549-0.566-3.07-0.845-4.604c-1.334-7.4-2.627-14.779-3.869-22.199
	c-0.344-2.037-0.688-4.102-1.02-6.154c-0.027-0.258-0.08-0.518-0.12-0.787c-0.508-3.162-0.938-6.318-1.265-9.516
	c-0.224-2.238-0.372-4.508-0.441-6.771c-0.023-0.207-0.023-0.428-0.021-0.648c-0.076-2.133-0.06-4.279-0.018-6.418
	c0.138-5.215,0.446-10.426,0.792-15.625c0.076-1.033,0.148-2.092,0.235-3.125c0.534-7.773,1.199-15.541,1.893-23.301
	c0.175-2.041,0.368-4.055,0.546-6.096c0.504-5.664,0.981-11.34,1.342-16.994c0.313-4.836,0.524-9.674,0.576-14.535l-0.004-0.078
	c0.033-2.539,0.002-5.078-0.056-7.625c-0.194-7.268-0.778-14.539-1.764-21.752c-0.041-0.283-0.069-0.568-0.123-0.854
	c-0.893-6.461-2.132-12.852-3.463-19.223c-0.12-0.568-0.231-1.16-0.354-1.74c-1.247-6.039-2.509-12.09-3.511-18.182
	c-0.585-3.625-1.105-7.27-1.536-10.916c-0.004-0.092-0.009-0.17-0.025-0.248c-0.422-3.74-0.778-7.484-1.069-11.23
	c-0.563-7.846-0.841-15.707-0.987-23.549c-0.018-1.574-0.038-3.15-0.057-4.723c0.002-0.482-0.012-0.963-0.024-1.443
	c-0.044-5.439-0.048-10.869-0.027-16.324c0.021-6.707,0.051-13.426,0.186-20.137c0.011-0.783,0.02-1.576,0.041-2.373
	c0.155-7.832,0.426-15.646,0.829-23.465c0.205-4.176,0.451-8.342,0.696-12.508c0.218-3.488,0.447-6.99,0.69-10.479
	c0.5-7.445,0.999-14.908,1.578-22.334c0.007-0.104,0.015-0.209,0.022-0.314c0.574-7.516,1.24-14.996,2.129-22.479
	c0.311-2.711,0.66-5.412,1.052-8.088c0.679-4.865,1.447-9.697,2.295-14.535c0.412-2.285,0.823-4.574,1.246-6.863
	c0.905-4.994,1.851-9.99,2.714-14.998c0.885-5.111,1.664-10.244,2.326-15.395c0.14-1.037,0.267-2.072,0.379-3.133
	c0.166-1.283,0.307-2.568,0.459-3.852c0.826-7.699,1.36-15.422,1.663-23.158c0.174-4.539,0.283-9.088,0.287-13.646
	c-0.011-0.924-0.008-1.834-0.031-2.758c-0.003-1.014-0.018-2.041-0.033-3.07c-0.017-1.027-0.045-2.041-0.075-3.08
	c-0.198-7.385-0.658-14.77-1.313-22.141c-0.416-4.598-0.895-9.182-1.453-13.773c-0.345-3.016-0.727-6.029-1.135-9.041
	c-1.017-7.559-2.188-15.113-3.517-22.633c-0.393-2.242-0.812-4.486-1.231-6.729c-0.944-4.988-1.939-9.975-2.946-14.943
	c-1.349-6.672-2.718-13.316-3.937-20.021c-0.032-0.115-0.052-0.244-0.071-0.375c-0.107-0.527-0.188-1.057-0.293-1.57
	c-1.338-7.494-2.522-15.02-3.486-22.57c-0.643-4.979-1.185-9.988-1.622-14.99c-0.215-2.332-0.395-4.678-0.543-7
	c-0.452-7.24-0.646-14.506-0.54-21.764c0.021-1.553,0.069-3.102,0.129-4.645c0.004-0.412,0.021-0.818,0.05-1.236
	c0.048-1.318,0.107-2.637,0.182-3.955l0.004-0.168c0.034-0.785,0.085-1.568,0.134-2.352c0.05-0.785,0.1-1.541,0.15-2.312
	c0.032-0.602,0.078-1.203,0.138-1.803c0.069-0.904,0.15-1.818,0.231-2.734c0.079-0.916,0.162-1.832,0.256-2.734
	c0.668-6.52,1.622-13.002,2.946-19.4c0.995-4.752,2.216-9.439,3.554-14.107c0.132-0.449,0.253-0.885,0.397-1.348
	c0.812-2.842,1.648-5.699,2.458-8.568c0.681-2.367,1.333-4.758,1.974-7.146c0.4-1.547,0.797-3.092,1.184-4.648
	c0.398-1.543,0.771-3.1,1.158-4.643c0.392-1.648,0.787-3.285,1.179-4.959c0.5-2.086,1.191-3.994,1.245-6.174
	c0.265-10.869-3.505-22.945-7.225-35.283c-1.169-3.855-2.773-8.275-3.376-11.967c-0.598-3.664-1.374-7.449-2.188-11.234
	c-1.683-7.85-3.418-15.738-5.011-23.58c-2.529-12.48-4.156-24.398-4.574-35.883c-0.966-26.525,8.379-52.383,17.622-76.816
	c6.727-17.779,6.844-37.121,6.885-55.875c0.051-23.174-2.611-44.18-10.301-66.043c-1.092-3.133-2.634-6.135-3.895-9.256
	c-1.498-3.682-2.817-7.193-4.485-10.854c-2.451-5.4-5.91-10.215-8.664-15.471c-0.378-0.727-0.709-1.66-1.313-2.223
	c-9.194-8.592-3.525-34.215-2.281-44.832c0.718-6.119,1.289-14.115,3.522-19.879c3.316-8.561,7.094-16.334,10.076-25.039
	c0.966-2.816,2.08-5.604,3.352-8.297c0.951-2.016,2.118-3.885,3.223-5.814c0.345-0.602,0.647-1.229,0.898-1.875
	c0.426-1.1,0.552-2.195,0.742-3.352c0.211-1.279,0.386-2.564,0.635-3.836c0.351-1.709,0.971-3.129,1.431-4.73
	c0.92-3.299,2.579-5.51,4.06-8.139c0.77-1.352,1.44-2.771,2.09-4.271c0.59-1.35,1.54-2.189,2.13-3.529
	c0.061-0.129,0.12-0.27,0.17-0.41c0.011-0.35,0.141-0.699,0.28-1.02c0.49-1.211,1.15-2.41,1.311-3.721
	c0.1-0.77,0.109-1.549,0.189-2.32c0.17-1.479,0.41-2.949,0.66-4.409c0.02-0.11,0.04-0.23,0.06-0.341c0.16-0.939,0.341-1.88,0.5-2.83
	c0.08-0.47,0.16-0.939,0.24-1.42c0.061-0.369,0.14-0.75,0.101-1.13c-0.03-0.229-0.131-0.45-0.19-0.68
	c-0.09-0.33-0.08-0.69-0.07-1.03c0.021-0.859,0.05-1.72,0.101-2.58c0.04-0.84,0.06-1.689-0.12-2.52c-0.25-1.17-0.48-2.29-0.58-3.51
	c-0.26-2.91-0.4-5.841-0.69-8.75c-0.239-2.36-0.93-4.71-1.51-7.011c-0.57-2.279-1.22-4.52-1.979-6.71l-4.591-10.04
	c-1.83-3.149-3.8-6.22-5.85-9.22c-1.81-2.64-3.66-5.25-5.4-7.93c-1-1.55-1.96-3.14-3.1-4.58c-0.53-0.67-1.1-1.3-1.71-1.88
	c-1.521-1.5-3.26-2.74-5.13-3.78c-0.44-0.25-0.891-0.48-1.351-0.7c-1.569-0.77-3.21-1.41-4.88-1.93c-1.31-0.44-2.41-0.79-3.34-1.77
	c-0.75-0.77-1.52-1.41-2.53-1.9c-1.239-0.6-2.699-0.91-4.079-1.12c-1.08-0.18-2.19-0.29-3.141-0.81c-0.67-0.35-1.2-0.72-1.99-0.85
	c-0.96-0.15-2.17-0.2-3.08,0.17c-1.439,0.56-1.399,2.15-1.569,3.33c-0.17,1.12-0.46,2.21-0.73,3.32c-0.26,1.06-0.25,2.12-0.35,3.19
	c-0.09,1.07-0.311,2.12-0.48,3.18c-0.29,1.98-0.819,4.01-0.72,6.01c0.07,1.12,0.29,2.14,0.04,3.27c-0.12,0.5-0.06,1.05-0.06,1.59
	c0,0.25,0,0.49-0.04,0.73c-0.101,0.66-0.32,1.3-0.71,1.89c-0.74,1.091-1.95,1.841-3.021,2.65c-0.53,0.4-1.08,0.9-1.689,1.29
	c-0.091,0.06-0.19,0.12-0.29,0.17c-0.32,0.19-0.67,0.34-1.04,0.41c-0.601,0.13-1.17,0-1.66-0.271c-0.12-0.06-0.24-0.13-0.34-0.22
	c-0.33-0.24-0.61-0.56-0.811-0.899c-0.81-1.36-0.42-2.94,0.12-4.331c0.63-1.64,1.7-2.98,2.88-4.3c0.33-0.36,0.66-0.71,0.99-1.07
	c1.34-1.48,2.229-2.97,2.729-4.83c0.74-2.78,1.051-5.69,1.15-8.54c0.05-1.17-0.16-2.38-0.03-3.53c0.12-1.11,0.03-2.32-0.38-3.38
	c-0.47-1.24-1.37-2.31-2.34-3.27c-2.08-2.1-4.51-4.26-7.26-5.65c-2.84-1.44-6.09-1.79-9.271-2.25c-2.81-0.41-5.489-1.13-8.239-1.77
	c-6.261-1.48-12.681-2.2-19.07-3.05c-1.811-0.24-3.6-0.56-5.38-0.91c-1.141-0.22-2.28-0.45-3.42-0.68
	c-4.8-0.97-9.62-1.85-14.41-2.82c-3.89-0.8-7.729-1.73-11.56-2.7c-1.971-0.5-3.94-1-5.91-1.5c-4.66-1.17-9.36-2.21-14.07-3.21
	c-2.35-0.5-4.73-0.94-7.07-1.47c-0.81-0.18-1.64-0.38-2.359-0.77c-0.541-0.3-1.03-0.66-1.601-0.92c-1.149-0.52-2.38-0.92-3.61-1.3
	c-1.17-0.37-2.34-0.72-3.469-1.15c-3.73-1.4-7.4-2.89-11.23-4.06c-6.29-1.93-12.79-3.25-19.32-4.38c-9.67-1.68-19.42-2.94-29.18-4.2
	c-9.801-1.27-19.641-2.45-29.37-4.09c-3.32-0.56-6.64-1.14-9.88-1.99c-0.051-0.01-0.131-0.03-0.25-0.06
	c-0.051-0.02-0.1-0.03-0.17-0.04c-0.061-0.02-0.131-0.04-0.2-0.06c-0.38-0.1-0.89-0.23-1.521-0.39c-0.02,0-0.039-0.01-0.07-0.02
	c-5.549-1.43-19.449-5.07-20.109-5.96c0-0.12,6.35-1,9-1.33c0.13-0.02,0.29-0.02,0.48-0.02c3.58,0,16.789,2.88,17.479,2.85
	c5.03-0.18,10.07,0.23,15.101,0.79c4.27,0.47,8.529,1.06,12.76,1.5c2.81,0.28,5.6,0.61,8.39,0.97c4.94,0.63,9.87,1.42,14.771,2.26
	c1.209,0.21,2.43,0.45,3.64,0.68c3.36,0.63,6.72,2.17,10.14,2.31c2.69,0.1,5.83-0.75,8.4-0.08c2.5,0.65,4.77,1.84,7.22,2.59
	c1.58,0.49,3.22,0.88,4.89,1c1.311,0.07,2.621,0.04,3.92,0.13c1.99,0.14,3.961,0.53,5.92,0.79c0.641,0.09,1.311,0.18,1.951,0.17
	c2.779-0.01,4.629-2.61,6.67-3.98c1.209-0.82,2.729-1.08,4.199-0.85c2.5,0.39,4.9,1.08,6.98,2.4c0.859,0.56,1.699,1.14,2.65,1.59
	c0.72,0.33,1.479,0.59,2.229,0.86c0.399,0.14,0.79,0.29,1.181,0.46c0.879,0.39,1.719,0.85,2.549,1.31
	c1.121,0.65,2.221,1.33,3.381,1.92c0.959,0.51,2.3,0.89,2.82,1.84c0.479,0.88,0.389,2.1,0.52,3.06c-0.551-0.78-1.04-1.59-1.62-2.36
	c-0.79-1.08-1.8-1.9-3.011-2.6c-0.479-0.28-0.959-0.56-1.469-0.85c-1.451-0.8-2.94-1.57-4.451-2.3c-0.889-0.43-1.779-0.84-2.68-1.23
	c-1.119-0.48-2.27-0.9-3.35-1.45c-0.859-0.43-1.67-0.96-2.62-1.25c-2.03-0.6-4.431,0.03-6.41,0.6c-0.89,0.25-1.81,0.62-2.25,1.4
	c-1.319,2.38,0.82,4.51,2.841,5.7c0.479,0.28,0.959,0.61,1.52,0.76c0.43,0.11,0.77,0.01,1.189,0.02c0.51,0.02,1.021,0.33,1.48,0.53
	c0.55,0.24,1.1,0.49,1.641,0.77c0.459,0.23,0.92,0.48,1.369,0.73c1.75,0.98,3.46,2.05,5.34,2.81c1.131,0.46,2.271,0.89,3.45,1.21
	c0.92,0.26,1.899,0.27,2.82,0.5c0.85,0.21,1.69,0.44,2.5,0.67s1.729,0.16,2.51,0.42c0.62,0.22,1.21,0.4,1.87,0.55
	c0.061,0.01,0.12,0.03,0.18,0.04c1.83,0.38,3.67,0.74,5.5,1.09c4.48,0.86,8.971,1.67,13.45,2.5c2.21,0.41,4.48,0.73,6.65,1.27
	c0.659,0.17,1.13,0.52,1.75,0.76c0.93,0.35,1.949,0.5,2.88,0.85c0.21,0.08,0.42,0.17,0.62,0.27c0.529,0.24,1.029,0.52,1.56,0.76
	c0.75,0.32,1.55,0.51,2.35,0.7c1.44,0.34,2.78,0.99,4.24,1.25c3.42,0.62,6.96-0.36,10.41-0.02c3.83,0.38,7.69,0.89,11.4,1.84
	c1.649,0.41,3.279,0.89,4.859,1.49c1.71,0.65,3.17,1.54,4.74,2.39c1.22,0.67,2.64,1,3.94,1.53c1.51,0.61,2.989,1.31,4.54,1.86
	c3.26,1.16,6.76,1.35,10.14,2.12c1.71,0.39,3.5,0.71,5.04,1.51c1.29,0.66,2.42,1.55,3.66,2.28c1.41,0.82,2.899,1.53,4.31,2.37
	c1.771,1.06,3.55,1.98,5.521,2.71c1.72,0.64,3.35,1.41,5.029,2.09c0.28,0.11,0.561,0.23,0.83,0.33c0.74,0.3,1.471,0.58,2.21,0.87
	c0.841,0.33,1.7,1.22,2.4,1.77c0.95,0.76,1.88,1.56,2.79,2.37c2.1,1.85,4.1,3.8,6.08,5.78c0.479,0.48,1.12,0.96,1.42,1.58
	c0.28,0.57,0.229,1.25,0.58,1.8c0.29,0.46,0.93,0.63,1.34,1.08c0.85,0.91,0.87,1.71,2.28,1.97c0.08,0.84,0.34,1.29,0.779,1.94
	c0.86,1.27,1.15,2.43,1.271,3.97c0.1,1.18,0.15,1.1,1.13,1.6c0.05,0.1,0.11,0.2,0.16,0.3c0.21,0.06,0.42,0.09,0.64,0.1
	c0.5,0.21,0.66,0.41,1.03,0.79c0.38,0.37,0.89,0.9,1.03,1.43c0.18,0.69-0.13,1.48,0,2.171c0.319,1.779,1.1,3.29,2.01,4.899
	c0.67,1.2,1.2,1.92,1.34,3.33c0.09,0.93,0.42,1.7,0.82,2.561c0.38,0.829,0.56,1.689,0.779,2.52c0.171,0.62,0.101,1.16,0.5,1.7
	c0.511,0.689,1.341,1.13,1.851,1.859c0.57,0.811,0.939,1.74,1.22,2.69c0.59,1.99,0.84,4.08,1.18,6.12
	c0.07,0.41,0.131,0.83,0.181,1.25c0.21,1.75,0.319,3.51,0.359,5.28c0.011,0.54-0.069,1.09-0.079,1.63
	c-0.011,0.41,0.199,0.75,0.199,1.149c0.011,0.36,0,0.71,0,1.061c0.011,0.92,0.03,1.85,0.011,2.77
	c-0.011,0.721-0.07,1.431-0.101,2.141c-0.06,1.109-0.05,2.21-0.07,3.319c-0.01,0.11-0.029,0.261,0.021,0.36
	c0.05,0.11,0.14,0.2,0.19,0.31c0.149,0.37,0.159,0.79,0.329,1.15c0.051,0.1,0.131,0.17,0.16,0.26c0.061,0.16,0.03,0.38,0.04,0.54
	c0.04,0.46,0.07,0.95,0.03,1.41c-0.06,0.49-0.11,0.99-0.16,1.48c-0.03,0.279-0.06,0.55-0.09,0.819c-0.05,0.54-0.09,1.08-0.09,1.61
	c-0.01,0.399,0.02,0.79,0.01,1.18c-0.01,1.061-0.3,2.08-0.65,3.07c-0.149,0.429-0.31,0.849-0.489,1.269
	c-0.011,0.111-0.011,0.211-0.021,0.32c-0.03,0.49-0.06,0.971-0.04,1.451c0.01,0.25,0.03,0.5-0.04,0.74
	c-0.08,0.289-0.22,0.559-0.359,0.828c-0.181,0.33-0.37,0.65-0.53,0.99c-0.18,0.381-0.3,0.781-0.39,1.182
	c-0.24,0.969-0.33,1.988-0.66,2.939c-0.181,0.529-0.479,1.018-0.729,1.516c-11.252,22.48-16.397,48.188-28.429,70.303
	c-0.271,0.5-0.493,0.961-0.629,1.521c-0.122,0.508-0.288,1.033-0.387,1.543c-0.08,0.412,0.017,0.863,0.001,1.283
	c-0.019,0.48-0.25,0.832-0.431,1.271c-0.246,0.594-0.289,1.174-0.358,1.811c-1.979,18.178-6.38,38.465,3.397,55.184
	c1.03,1.762,2.1,3.502,3.161,5.248c8.237,13.445,15.151,27.877,19.582,43.037c4.156,14.223,3.877,28.217,5.573,42.709
	C482.866,265.031,483.336,269.965,483.594,274.77z"/>
<linearGradient id="SVGID_32_" gradientUnits="userSpaceOnUse" x1="280.8384" y1="242.249" x2="280.9113" y2="242.8642">
	<stop  offset="0" style="stop-color:#6F603E"/>
	<stop  offset="0.1551" style="stop-color:#6A5B39"/>
	<stop  offset="0.3104" style="stop-color:#817251"/>
	<stop  offset="0.519" style="stop-color:#9B8E6F"/>
	<stop  offset="0.6967" style="stop-color:#ADA283"/>
	<stop  offset="0.8211" style="stop-color:#B5AB8C"/>
</linearGradient>
<path fill="url(#SVGID_32_)" d="M280.582,242.273c0.104,0.203,0.205,0.408,0.304,0.615c0.093-0.031,0.184-0.062,0.277-0.095
	C280.969,242.62,280.776,242.447,280.582,242.273z"/>
<linearGradient id="SVGID_33_" gradientUnits="userSpaceOnUse" x1="-47.4658" y1="-26.6665" x2="117.5157" y2="1364.7798">
	<stop  offset="0" style="stop-color:#6F603E"/>
	<stop  offset="0.1551" style="stop-color:#6A5B39"/>
	<stop  offset="0.3104" style="stop-color:#817251"/>
	<stop  offset="0.519" style="stop-color:#9B8E6F"/>
	<stop  offset="0.6967" style="stop-color:#ADA283"/>
	<stop  offset="0.8211" style="stop-color:#B5AB8C"/>
</linearGradient>
<path fill="url(#SVGID_33_)" d="M307.355,1389.167c-1.5-6.09-2.77-12.11-3.96-18.13c-0.54-2.72-1.069-5.43-1.59-8.15
	c-2.1-10.87-4.63-21.84-6.74-32.71c-2.479-12.71-4.149-25.229-6.25-37.85c-1.51-9.05-3.869-18.61-3.18-26.97
	c0.351-4.23,1.23-8.2,1.99-12.24c0.99-5.29,1.87-10.65,2.45-16.16c1.22-11.46,1.06-23.5,0.81-35.55
	c-0.229-11.58-0.41-23.19-2.24-35.3c-1.699-11.16-4.92-22.66-6.64-33.811c-1.97-12.7-2.37-24.92-2.45-36.97
	c-0.09-11.9-6.35-85.641-5.83-96.58c0.53-11.2,1.431-22.38,2.44-33.55c1-11.12,1.97-22.24,3.399-33.32
	c1.37-10.83,3.431-21.56,5.69-32.31c2.28-10.931,4.37-21.891,5.44-32.921c1.06-10.979,1.35-22,1.39-32.979
	c0.04-10.94-0.25-21.85-1.35-32.71c-1.101-10.95-3.03-21.79-5.45-32.55c-2.36-10.41-5.11-20.73-6.78-31.261
	c-0.79-4.989-2.71-10.369-4.52-15.77v-7.46c0-2.49-0.391-5.36,0.119-7.8c0.57-2.76,2.82-5.42,2.67-8.29
	c-0.13-2.55-0.68-5.181-0.89-7.76c-0.05-0.601-0.1-1.19-0.149-1.771c-0.04-0.46-0.08-0.93-0.141-1.39c-0.07-0.7-0.14-1.4-0.22-2.11
	c-0.08-0.689-0.15-1.39-0.24-2.09c-0.62-5.01-1.45-9.98-2.58-14.87c-2.979-12.91-9.069-25.13-10.47-38.37
	c-1.04-9.82,1.9-19.06,4.56-28.399c0.86-2.99,2.04-6.431,2.45-9.271c0.42-2.85,0.97-5.78,1.54-8.72c1.21-6.08,2.45-12.19,3.58-18.26
	c1.79-9.671,2.88-18.881,3.03-27.73c0.14-7.66-0.221-15.1-1.16-21.96c-1.32-9.63-6.12-19.11-10.24-27.78
	c-6.05-12.72-9.3-24.67-9.38-38.85c-0.04-7.771-0.7-15.521-0.67-23.3c0.05-8.61,1.32-18.67,3.16-27.11
	c0.979-4.47,2.75-9.14,4.28-13.7c0.81-2.439,1.96-4.79,2.899-7.22c5.521-14.09,14.01-26.86,18.88-41.19
	c1.96-5.79,3.86-11.75,4.99-17.76c0.7-3.71,0.92-7.45,0.98-11.189c0.09-5.591-0.181-11.2,0.229-16.79
	c0.64-8.761-4.09-16.841-5.46-25.311c-0.76-4.72-2-10.12-4.32-14.359c-7.699-14.061-1.029-23.82,1.74-37.82
	c5.86-29.61-4.28-61.68-7.87-91.07c-2.17-17.71-3.96-35.52-11.41-51.97c-9.069-20.04-25.25-38.52-43.729-50.5
	c-2.86-1.85-5.8-3.48-8.8-4.92c-2.41-1.15-4.87-2.19-7.36-3.11c-13.3-4.99-27.61-7.07-41.77-9.17
	c-4.94-0.73-28.855-6.006-33.785-6.806c-0.05-0.01-12.132-0.861-12.182-0.871c-15.55-2.55-452.396,3.897-467.896,1.027
	c-0.21,1.23-0.16,4.19,0.05,5.42c9.66,1.79,471.703-0.45,481.363,1.3c4.03,0.73,11.54-0.31,15.16,1.62c3.53,1.88,4.12,6.55,6.16,10
	c0.891-1.83,2.04-3.31,3.4-4.48c0.13-0.11,0.26-0.22,0.39-0.32c12.62-10,42.03,4.6,52.591,10.15c6.26,3.29,12.079,7.27,17.51,11.75
	c1.31,1.07,2.59,2.18,3.859,3.33c0.011,0,21.32,23.72,21.32,23.72c3.09,4.29,5.59,8.68,7.64,13.15c0.011,0.01,5.46,15.57,5.46,15.57
	c3.16,12.18,4.351,24.97,6.03,38.319c2.931,23.351,14.49,46.21,9.86,70.13c-2.16,11.15-6.88,21.69-7.96,33.061
	c-0.574,6.049,0.026,12.121,1.479,18.009c0.701,2.842,1.579,5.634,2.541,8.396c0.949,2.727,2.178,5.394,3.02,8.15
	c1.017,3.329,1.847,6.89,0.516,10.256c-0.722,1.824-2.081,3.343-3.246,4.895c-0.987,1.315-1.803,1.894-3.259,2.569
	c-0.567,0.263-3.17,2.095-2.041,2.9c0.975,0.694,3.179-1.656,3.718-2.272c0.827-0.946,1.527-1.954,2.423-2.85
	c1.033-1.034,2.123-2.436,3.452-3.096c0.771-0.383,2.185-0.144,2.827,0.377c0.942,0.763,1.249,2.167,1.476,3.292
	c0.479,2.377,0.765,4.811,1.185,7.203c1.052,6,1.036,12.357,0.611,18.422c-0.447,6.389-1.5,12.728-3.005,18.95
	c-1.481,6.126-3.439,12.198-5.825,18.031c-2.313,5.658-4.934,11.129-7.924,16.459c-0.354,0.633-0.699,1.272-1.066,1.897
	c-1.63,2.76-3.04,5.88-4.44,8.75c-0.83,1.67-1.6,3.38-2.399,5.08c-0.69,1.46-1.58,2.84-2.23,4.31c-0.87,1.95-1.97,4.2-2.609,6.17
	c-3.62,11.29-6.36,24.2-6.08,36.07c0.029,1.69-0.28,3.36-0.49,5.03c-0.26,2.06-0.13,4.09-0.07,6.149
	c0.021,0.521,0.04,1.051,0.04,1.58v0.7c-0.05,3.351-0.06,6.71,0.26,10.061c0.221,2.369,0.54,4.72,0.7,7.079
	c0.29,4.211,0.15,8.48,0.59,12.66c0.2,1.82,0.681,3.53,1.131,5.29c0.409,1.601,0.63,3.221,1.039,4.811
	c0.86,3.33,2.591,6.52,3.961,9.67c2.699,6.25,5.35,12.68,8.659,18.63c1.61,2.88,2.66,6.05,3.67,9.189c0.96,2.921,1.87,6,2.471,9.011
	c2.569,12.97-2.971,27.6-2.771,40.569c0.021,1.48-0.319,3.32-0.58,4.92c-0.609,3.881-1.02,7.87-1.989,11.87
	c-0.421,1.69-0.69,3.311-1.07,4.99c-0.42,1.87-1.05,3.91-1.3,5.67c-0.15,1.21-0.16,2.351-0.54,3.63
	c-3.03,10.62-5.96,21.88-7.261,31.971c-0.05,0.43-0.1,0.859-0.14,1.3c-0.1,0.77-0.189,1.54-0.229,2.31
	c-0.011,0.271,0.069,0.48,0.09,0.73c0.99,13.29,8.24,25.22,10.6,38.24c0.51,2.81,0.93,5.63,1.36,8.46
	c1.05,6.88,1.649,13.85,1.71,20.8c0.02,2.34-0.47,4.149-1.34,6.279c-1.011,2.49-1.011,4.971-1,7.631c0.01,3-0.71,6.479,0.399,9.35
	c0.49,1.27,0.91,2.54,1.46,3.79c-0.449,0.47-0.699,0.9-0.67,1.25c0.32,3.87,0.771,7.72,1.29,11.56c0.78,5.82,1.771,11.61,2.9,17.381
	c0.08,0.399,0.16,0.81,0.24,1.21c0.02,0.1,0.04,0.199,0.06,0.29c1.03,5.149,2.19,10.279,3.34,15.39c0.84,3.83,1.69,7.67,2.48,11.5
	c0.359,1.72,0.71,3.45,1.04,5.18c1.12,5.78,2.1,11.61,2.93,17.431c0.34,2.31,0.66,4.649,0.92,6.96c0.46,3.54,0.84,7.079,1.16,10.63
	c0.51,5.68,0.85,11.38,0.95,17.09c0.01,0.79,0.02,1.58,0.04,2.37c0,0.79,0,1.59-0.021,2.38c0.01,0.71,0.01,1.42,0,2.14
	c-0.05,3.51-0.2,7.03-0.399,10.561c-0.36,5.979-0.94,11.949-1.78,17.93c-0.141,1-0.29,1.99-0.44,2.99
	c-0.109,0.819-0.239,1.62-0.38,2.43c-0.649,4-1.42,7.98-2.27,11.95c-0.83,3.89-1.75,7.78-2.62,11.66c-0.41,1.77-0.8,3.55-1.19,5.33
	c-0.819,3.75-1.58,7.52-2.24,11.29c-0.38,2.079-0.729,4.18-1.039,6.27c-0.87,5.8-1.57,11.61-2.16,17.42
	c-0.021,0.08-0.021,0.16-0.03,0.24c-0.6,5.77-1.14,11.54-1.67,17.3c-0.26,2.72-0.51,5.42-0.75,8.13c-0.26,3.22-0.53,6.45-0.76,9.681
	c-0.45,6.06-0.78,12.119-1.011,18.159c-0.029,0.62-0.04,1.23-0.06,1.841c-0.19,5.199-0.3,10.39-0.39,15.579
	c-0.08,4.21,6.1,68.761,6.119,73.32c0,0.4,0.011,0.811,0.011,1.21c0.01,1.32,0.01,2.641,0.029,3.97c0.11,6.61,0.32,13.28,0.83,20.04
	c0.25,3.24,0.561,6.511,0.95,9.79c0.01,0.061,0.01,0.13,0.021,0.21c0.39,3.21,0.859,6.44,1.399,9.7c0.91,5.45,2.08,10.98,3.221,16.5
	c0.119,0.521,0.22,1.05,0.329,1.58c1.221,5.82,2.36,11.61,3.181,17.34c0.05,0.261,0.08,0.511,0.1,0.771
	c0.91,6.39,1.43,12.67,1.57,18.819c0.05,2.15,0.06,4.271,0.02,6.4l0.011,0.06c-0.07,4.04-0.301,8.011-0.62,11.931
	c-0.37,4.6-0.84,9.16-1.351,13.7c-0.17,1.64-0.37,3.26-0.54,4.899c-0.689,6.22-1.34,12.47-1.89,18.76
	c-0.08,0.841-0.15,1.69-0.23,2.54c-0.35,4.2-0.67,8.45-0.819,12.75c-0.061,1.78-0.08,3.57-0.01,5.381
	c-0.011,0.18-0.011,0.369,0,0.55c0.069,1.91,0.189,3.859,0.39,5.819c0.3,2.79,0.7,5.601,1.16,8.41c0.029,0.24,0.08,0.48,0.1,0.71
	c0.311,1.84,0.63,3.69,0.93,5.521c1.141,6.66,2.33,13.319,3.561,19.99c0.25,1.39,0.51,2.76,0.77,4.159
	c0.011,0.07,0.021,0.15,0.04,0.23c0.96,5.22,1.971,10.439,2.99,15.68c0.79,4,1.61,8.03,2.44,12.05
	c0.08,0.381,0.159,0.771,0.239,1.16c0.32,1.471,0.61,2.931,0.92,4.4c1.211,5.83,2.421,11.64,3.61,17.47
	c0.39,1.97,0.79,3.94,1.19,5.91c0.319,1.58,0.649,3.15,0.979,4.72c0.11,0.49,0.2,0.971,0.311,1.471
	c0.279,1.43,0.569,2.85,0.88,4.279c0.88,4.23,1.8,8.49,2.729,12.74c0.061,0.01,0.101,0.02,0.16,0.03c1.55,0.31,3.101,0.6,4.64,0.91
	C307.465,1389.597,307.406,1389.377,307.355,1389.167z"/>
<linearGradient id="SVGID_34_" gradientUnits="userSpaceOnUse" x1="223.9038" y1="28.314" x2="226.4425" y2="49.7255">
	<stop  offset="0" style="stop-color:#6F603E"/>
	<stop  offset="0.1551" style="stop-color:#6A5B39"/>
	<stop  offset="0.3104" style="stop-color:#817251"/>
	<stop  offset="0.519" style="stop-color:#9B8E6F"/>
	<stop  offset="0.6967" style="stop-color:#ADA283"/>
	<stop  offset="0.8211" style="stop-color:#B5AB8C"/>
</linearGradient>
<path fill="url(#SVGID_34_)" d="M224.812,27.99c0.396,1.468,0.348,2.971-0.25,4.489c-0.83,2.11-2.02,4.05-2.79,6.19
	c-0.38,1.08-0.739,2.16-1.05,3.26c0,0.03-0.01,0.06-0.02,0.09c-0.5,1.76-0.8,3.72-0.53,5.56c0.14,1.04,0.82,1.86,1.39,2.73
	c0.141,0.22,0.28,0.45,0.4,0.68c0.07-0.2,0.06-0.4,0.01-0.61c-0.05-0.26-0.149-0.52-0.21-0.75c-0.109-0.45-0.3-0.88-0.29-1.38
	c0-0.5-0.029-1.01,0-1.51c0.03-0.44,0.221-0.92,0.36-1.31c0.18-0.49,0.439-0.95,0.62-1.44c0.17-0.46,0.33-0.92,0.56-1.35
	c0.01-0.03,0.03-0.05,0.04-0.08c0.22-0.42,0.44-0.9,0.561-1.34c0.09-0.32,0.25-0.62,0.34-0.95c0.069-0.29,0.08-0.58,0.12-0.87
	c0.12-0.84,0.58-1.55,1.029-2.26c0.49-0.77,0.94-1.74,1.67-2.31c0.62-0.48,1.37-0.46,2.08-0.7c0.49-0.17,0.681-0.56,1.16-0.14
	c0.24,0.208,0.454,0.451,0.667,0.693C228.9,32.466,226.172,30.699,224.812,27.99z"/>
<linearGradient id="SVGID_35_" gradientUnits="userSpaceOnUse" x1="210.1665" y1="-100.8691" x2="249.1987" y2="-100.8691" gradientTransform="matrix(-0.9534 -0.3017 -0.3017 0.9534 467.5795 789.4484)">
	<stop  offset="0.1789" style="stop-color:#A2B442"/>
	<stop  offset="0.3168" style="stop-color:#9BAB40"/>
	<stop  offset="0.5137" style="stop-color:#8C963A"/>
	<stop  offset="0.7449" style="stop-color:#757831"/>
	<stop  offset="0.8449" style="stop-color:#6A692C"/>
	<stop  offset="1" style="stop-color:#706F37"/>
</linearGradient>
<path fill="url(#SVGID_35_)" d="M267.291,622.692c1.423-0.015,2.816,0.242,4.225,0.376c0.012,0.461,0.024,0.927,0.033,1.39
	c-2.536,2.675-7.308,3.317-6.482,9.224c0.549,3.947,3.031,6.979,4.648,10.421c0.247-0.51,0.492-1.02,0.738-1.523
	c1.481-0.332,2.967-0.668,4.735-1.065c1.314-3.229,3.091-3.437,5.237-1.441c0.738,0.691,1.961,0.879,2.906,0.547
	c1.42-0.496,2.792-1.649,3.486-2.093c3.232-5.395,6.784-8.27,11.311-10.209c-2.456-3.427-4.73-6.607-7.183-10.033
	c0.002-0.008,0.48-0.87,0.764-1.385c-1.871-4.846-4.664-3.724-7.655-1.574c-0.538,0.387-1.245,0.691-1.748,0.52
	c-0.866-0.285-2.178-0.697-2.312-1.562c-0.184-1.172,0.33-3.083,0.97-4.191c0.774-1.341,1.99-2.171,3.587-3.812
	c-1.77-1.271-3.889-1.721-4.577-3.5c-1.696-4.404-3.192-0.503-4.835,0.461c-0.508,0.297-1.153,0.181-1.686,0.024
	c-2.72-0.786-4.072,2.187-5.361,4.929c-1.277,2.714-1.165,5.176,0.395,7.282c0.889,1.201,1.442,2.913,2.148,4.394
	c-0.232,0.365-0.465,0.725-0.698,1.088c-1.158-0.025-2.318-0.016-3.471-0.086c-3.401-0.205-4.331-1.537-3.275-6.305
	c0-0.007,0.003-0.016,0.003-0.018c-0.681,0.354-1.349,0.922-2.033,1.217C261.511,620.901,263.107,622.735,267.291,622.692z"/>
<linearGradient id="SVGID_36_" gradientUnits="userSpaceOnUse" x1="-162.9546" y1="822.0762" x2="-105.5342" y2="822.0762" gradientTransform="matrix(-0.6108 0.7047 -0.7049 -0.6109 751.4819 890.5314)">
	<stop  offset="0.1789" style="stop-color:#A2B442"/>
	<stop  offset="0.3168" style="stop-color:#9BAB40"/>
	<stop  offset="0.5137" style="stop-color:#8C963A"/>
	<stop  offset="0.7449" style="stop-color:#757831"/>
	<stop  offset="0.8449" style="stop-color:#6A692C"/>
	<stop  offset="1" style="stop-color:#706F37"/>
</linearGradient>
<path fill="url(#SVGID_36_)" d="M247.943,272.362c0.381,0.022,0.762,0.047,1.141,0.064c0.153,0.479,0.293,0.957,0.438,1.43
	c-2.247,1.1-4.497,2.198-6.943,3.397c0.547,0.636,0.876,1.167,1.334,1.552c4.714,3.889,4.749,5.129,0.069,8.636
	c-1.306,0.98-2.787,1.732-4.162,2.639c-1.472,0.971-3.473,1.654-4.259,3.047c-2.581,4.588-4.721,9.435-6.934,13.995
	c2.439,0.461,5.168,0.901,7.877,1.508c6.542,1.451,12.382,0.169,17.116-3.998c5.112-4.502,9.151-3.594,12.047,3.975
	c2.982-2.857,5.34-5.946,8.469-7.878c2.869-1.757,4.897-3.812,5.996-6.846c1.224-3.406-0.257-5.715-3.963-6.138
	c-2.148-0.256-4.311-0.097-6.469-0.299c-1.823-0.175-3.13-0.889-1.764-2.936c-2.469,0.97-3.163-0.337-2.811-2.425
	c0.218-1.317,0.896-2.529,1.417-3.771c2.192-5.221,1.542-8.388-3.062-11.762l-0.006,0.021l-0.112-0.099
	c-0.545-0.397-1.135-0.798-1.8-1.199c0.052-0.031,0.102-0.062,0.154-0.091c-1.436-0.837-3.08-1.188-4.645-1.15
	c-1.651,0.965-3.428,1.817-5.325,2.556c-0.71,0.273-1.437,0.531-2.18,0.771l-1.841,2.809L247.943,272.362z"/>
</svg>
