<?xml version="1.0" encoding="utf-8"?>
<!-- Generator: Adobe Illustrator 16.0.0, SVG Export Plug-In . SVG Version: 6.00 Build 0)  -->
<!DOCTYPE svg PUBLIC "-//W3C//DTD SVG 1.1//EN" "http://www.w3.org/Graphics/SVG/1.1/DTD/svg11.dtd">
<svg version="1.1" id="Layer_1" xmlns="http://www.w3.org/2000/svg" xmlns:xlink="http://www.w3.org/1999/xlink" x="0px" y="0px"
	 width="667.98px" height="1507.555px" viewBox="-1.049 1.139 667.98 1507.555"
	 enable-background="new -1.049 1.139 667.98 1507.555" xml:space="preserve">
<g display="none">
	<path display="inline" fill="#B5AB8C" d="M20.29,638.4c0,0,0.062,0.145,0.183,0.429c0.12,0.311,0.3,0.773,0.537,1.385
		c0.207,0.594,0.464,1.331,0.769,2.207c0.271,0.88,0.585,1.899,0.941,3.054c1.36,4.623,2.889,11.511,3.96,20.378
		c1.005,8.867,1.581,19.718,0.951,32.104c-0.062,3.104-0.396,6.283-0.639,9.566c-0.145,1.639-0.231,3.31-0.431,4.989
		c-0.203,1.679-0.409,3.38-0.617,5.104c-0.217,1.723-0.438,3.468-0.66,5.235c-0.26,1.761-0.583,3.531-0.878,5.33
		c-0.629,3.588-1.147,7.287-1.995,10.996c-1.562,7.382-3.189,15.07-4.873,23.028c-0.705,3.941-1.434,7.944-2.222,12.004
		c-0.36,2.039-0.654,4.114-1.004,6.192c-0.353,2.079-0.707,4.173-1.064,6.281c-0.292,2.118-0.586,4.251-0.882,6.397
		c-0.294,2.146-0.667,4.302-0.904,6.484c-0.243,2.183-0.487,4.379-0.732,6.588c-0.12,1.105-0.241,2.214-0.361,3.326
		c-0.086,1.114-0.174,2.231-0.261,3.353c-0.151,2.244-0.303,4.5-0.456,6.768c-0.063,2.271-0.127,4.554-0.191,6.848
		c-0.021,1.147-0.043,2.298-0.064,3.45c0.011,1.152,0.023,2.308,0.034,3.466c0.04,2.315,0.01,4.643,0.105,6.977
		c0.222,9.341,0.992,18.818,2.232,28.344c0.282,2.385,0.681,4.762,1.017,7.152c0.389,2.384,0.779,4.773,1.223,7.161
		c0.437,2.388,0.904,4.779,1.399,7.175c0.249,1.299,0.477,2.409,0.674,3.715c0.213,1.273,0.391,2.516,0.561,3.75
		c2.553,19.784,3.83,39.845,4.692,59.975c0.828,20.119,1.101,40.271,0.3,60.128c-0.42,9.928-1.035,19.785-2.388,29.511
		c-0.666,4.862-1.495,9.692-2.784,14.464c-0.564,2.308-1.127,4.605-1.688,6.896c-0.136,0.575-0.291,1.154-0.411,1.726l-0.303,1.699
		c-0.203,1.133-0.405,2.262-0.607,3.39c-1.518,9.088-2.211,18.271-2.469,27.231c-0.028,2.246-0.079,4.479-0.069,6.7
		c0.017,2.223,0.137,4.433,0.231,6.627c0.098,2.194,0.326,4.376,0.511,6.539c0.177,2.163,0.417,4.312,0.638,6.445
		c0.881,8.531,1.558,16.833,1.73,24.966c0.112,4.09,0.222,8.109,0.33,12.056c0.06,0.979,0.049,2.02,0.064,3.026l0.008,0.759l0,0.48
		l-0.021,0.361l-0.085,1.442l-0.087,1.438l-0.167,1.488c-0.113,0.988-0.226,1.972-0.337,2.95c-1.032,7.563-2.358,14.669-3.63,21.438
		c-1.269,6.766-2.594,13.15-3.801,19.158c-2.42,12.013-4.652,22.454-6.522,31.048c-1.831,8.602-3.307,15.352-4.337,19.951
		c-1.018,4.604-1.56,7.059-1.56,7.059l-3.897-0.898c0,0,0.568-2.441,1.634-7.019c1.039-4.584,2.528-11.319,4.377-19.901
		c1.8-8.592,3.947-19.035,6.267-31.036c1.138-6.004,2.307-12.401,3.453-19.15c1.139-6.745,2.327-13.861,3.193-21.243
		c0.086-0.894,0.173-1.792,0.26-2.694l0.134-1.357l0.06-1.434l0.058-1.443l0.014-0.362c-0.005,0.146-0.007-0.059-0.011-0.071
		l-0.009-0.173l-0.039-0.694c-0.058-0.933-0.083-1.843-0.185-2.816c-0.355-3.826-1.012-7.784-1.583-11.804
		c-1.242-8.045-1.929-16.479-1.916-25.186c-0.015-2.175,0.012-4.366,0.074-6.574c0.073-2.207,0.053-4.421,0.152-6.656
		c0.084-4.464,0.169-8.981,0.255-13.549c0.292-9.148,1.008-18.469,2.618-27.948c0.218-1.188,0.436-2.379,0.654-3.572l0.329-1.792
		c0.125-0.586,0.279-1.153,0.417-1.731c0.574-2.318,1.151-4.645,1.729-6.979c1.195-4.466,1.96-9.156,2.578-13.893
		c1.251-9.48,1.804-19.228,2.14-29.05c0.613-19.662,0.104-39.703-0.756-59.709c-0.443-10.006-1.082-20.002-1.793-29.948
		c-0.706-9.94-1.554-19.855-2.731-29.564c-0.15-1.216-0.307-2.42-0.484-3.581c-0.15-1.137-0.397-2.445-0.595-3.565
		c-0.467-2.432-0.907-4.866-1.318-7.303c-0.419-2.434-0.777-4.873-1.15-7.302c-0.315-2.438-0.694-4.859-0.955-7.289
		c-0.579-4.852-1.023-9.687-1.368-14.492c-0.158-2.404-0.315-4.799-0.471-7.186c-0.096-2.389-0.192-4.768-0.288-7.138
		c-0.101-2.369-0.075-4.731-0.119-7.082c-0.014-1.175-0.027-2.348-0.041-3.518c0.02-1.17,0.039-2.337,0.059-3.501
		c0.029-2.329,0.057-4.646,0.085-6.953c0.074-2.305,0.148-4.599,0.222-6.879c0.025-1.143,0.05-2.281,0.075-3.417
		c0.06-1.134,0.119-2.264,0.177-3.392c0.118-2.257,0.235-4.5,0.351-6.73c0.284-4.457,0.701-8.851,1.109-13.188
		c0.542-4.32,1.063-8.583,1.688-12.773c0.712-4.189,1.46-8.311,2.208-12.358c1.745-7.915,3.43-15.562,5.048-22.904
		c0.865-3.629,1.398-7.235,2.045-10.74c0.303-1.756,0.637-3.486,0.905-5.205c0.235-1.723,0.467-3.424,0.695-5.104
		c0.238-1.68,0.473-3.337,0.704-4.973c0.229-1.636,0.344-3.26,0.518-4.855c0.301-3.194,0.692-6.294,0.811-9.31
		c0.79-12.051,0.703-22.594-0.011-31.212c-0.634-8.629-1.845-15.32-2.835-19.808c-0.271-1.114-0.511-2.099-0.718-2.948
		c-0.236-0.835-0.434-1.538-0.594-2.104c-0.17-0.535-0.299-0.94-0.386-1.213c-0.104-0.291-0.156-0.438-0.156-0.438L20.29,638.4z"/>
</g>
<g display="none">
	<linearGradient id="SVGID_1_" gradientUnits="userSpaceOnUse" x1="3.6453" y1="71.8965" x2="107.1125" y2="71.8965">
		<stop  offset="0" style="stop-color:#6F603E"/>
		<stop  offset="0.1551" style="stop-color:#6A5B39"/>
		<stop  offset="0.3104" style="stop-color:#817251"/>
		<stop  offset="0.519" style="stop-color:#9B8E6F"/>
		<stop  offset="0.6967" style="stop-color:#ADA283"/>
		<stop  offset="0.8211" style="stop-color:#B5AB8C"/>
	</linearGradient>
	<path display="inline" fill="url(#SVGID_1_)" d="M107.086,6.705c0,0-0.737,0.054-2.118,0.155c-1.388,0.113-3.427,0.301-6.014,0.598
		c-2.585,0.305-5.721,0.711-9.285,1.313c-3.562,0.599-7.562,1.374-11.82,2.477c-2.128,0.545-4.322,1.183-6.522,1.971
		c-2.196,0.801-4.403,1.724-6.591,2.697c-1.111,0.459-2.141,1.06-3.33,1.382c-0.59,0.173-1.176,0.35-1.763,0.563
		c-0.577,0.228-1.204,0.601-1.738,0.964c-2.175,1.415-4.4,3-6.506,4.741c-4.261,3.456-8.285,7.445-12.185,11.637
		c-0.486,0.526-1.041,0.991-1.622,1.44c-0.583,0.446-1.163,0.904-1.619,1.468c-0.935,1.108-1.812,2.269-2.657,3.454
		c-1.664,2.392-3.165,4.897-4.615,7.416c-2.979,4.986-5.677,10.137-7.845,15.44c-1.112,2.639-2.045,5.33-2.859,8.022
		c-0.851,2.7-1.438,5.36-2.061,8.144c-0.644,2.759-1.153,5.416-1.703,8.041c-0.486,2.639-0.995,5.218-1.393,7.741
		c-0.846,5.04-1.5,9.825-1.956,14.254c-0.951,8.857-1.163,16.279-1.229,21.494c-0.029,5.245-0.045,8.241-0.045,8.241H4.712
		c0,0-0.015-3.01-0.041-8.277c0.013-5.292,0.15-12.904,1.029-21.979c0.42-4.538,1.038-9.436,1.847-14.586
		c0.381-2.581,0.871-5.211,1.339-7.907c0.532-2.687,1.04-5.474,1.648-8.206c0.586-2.715,1.196-5.66,1.987-8.52
		c0.792-2.875,1.663-5.773,2.719-8.636c2.084-5.732,4.786-11.373,8.179-16.57c1.727-2.579,3.646-5.02,5.624-7.376
		c0.982-1.181,1.963-2.359,2.94-3.534c0.988-1.16,1.559-2.691,2.627-3.784c4.089-4.529,8.693-8.411,13.315-11.876
		c2.335-1.721,4.616-3.362,6.964-4.934c0.597-0.382,1.107-0.733,1.658-1.228c0.572-0.458,1.112-0.999,1.69-1.448
		c1.144-0.934,2.471-1.472,3.735-2.022c2.559-1.057,5.116-1.749,7.578-2.321c2.459-0.582,4.833-1.039,7.107-1.447
		c4.552-0.794,8.727-1.257,12.426-1.577c3.699-0.322,6.923-0.478,9.577-0.576c2.655-0.09,4.741-0.114,6.167-0.116
		c1.433,0.011,2.197,0.017,2.197,0.017L107.086,6.705z"/>
</g>
<path opacity="0.4" fill="#9D1B36" d="M23.185,404.323c-0.561,0.05-1.121,0.1-1.67,0.04c-0.381-0.04-0.76-0.13-1.08-0.36
	c-0.201-0.14-0.381-0.35-0.42-0.609c-0.021-0.221,0.068-0.42,0.16-0.601l0.85-0.27c0.9-0.11,1.799-0.21,2.709-0.21
	c0.941,0,1.891,0.09,2.83,0.25c0.91,0.16,1.82,0.38,2.711,0.62c0.799,0.199,1.59,0.42,2.379,0.67c0.771,0.239,1.531,0.52,2.26,0.88
	c0.852,0.41,1.67,0.92,2.451,1.479c0.76,0.55,1.49,1.141,2.17,1.8c0.221,0.221,0.439,0.45,0.629,0.7c0.07,0.09,0.24,0.3,0.201,0.44
	c-0.131,0.479-2.99-1.37-3.221-1.521c-1.379-0.859-2.75-1.79-4.25-2.37c-1.379-0.539-2.85-0.8-4.311-0.949
	C26.115,404.173,24.654,404.213,23.185,404.323z"/>
<path opacity="0.4" fill="#9D1B36" d="M37.993,578.913c1.281-0.7,2.561-1.38,3.871-2.02c1.76-0.86,4.549,0.93,6.859,1.5
	c-1.891-0.221-3.891-0.99-5.67-0.58c-0.18,0.05-0.359,0.1-0.549,0.14c-1.49,0.39-2.941,0.91-4.361,1.57
	c-1.4,0.64-2.73,1.399-4.029,2.25c-0.82,0.54-1.631,1.09-2.42,1.7c-0.76,0.579-1.42,1.35-2.211,1.89c-0.51,0.35-1.09,0.45-1.65,0.66
	c-0.76,0.29-1.389,1-2.029,1.529c-0.4,0.32-0.84,0.61-1.199,1.011c-0.17,0.21-0.311,0.42-0.41,0.68
	c-0.111,0.27-0.33,0.38-0.531,0.56c-0.279,0.261-0.539,0.551-0.77,0.87c-0.199,0.271-0.41,0.65-0.699,0.801
	c-0.311,0.159-0.24-0.211-0.18-0.431c0.24-0.76,0.689-1.47,1.068-2.149c0.092-0.17,0.191-0.341,0.291-0.511
	c0.381-0.689,0.709-1.25,1.369-1.62c0.65-0.35,1.271-0.729,1.9-1.109c1.26-0.76,2.531-1.5,3.781-2.28
	c1.238-0.78,2.51-1.52,3.77-2.27C35.445,580.343,36.714,579.613,37.993,578.913z"/>
<path opacity="0.4" fill="#9D1B36" d="M72.804,402.033c-0.4,0.63,0.451,1.05,0.609,2.3c0.16,1.26-0.238,1.811-1.08,2.061
	c-0.84,0.26-1.818,0.81-0.869,1.93c0.949,1.13,1.23,1.3,1.529,1.59c0.301,0.29-1.148,0.34-1.91,0.89
	c-0.77,0.551-1.658-0.119-1.119,1.721c0.551,1.84,1.199,1.25,1.109,1.04s0.76,0.51-0.789,1.18c-1.561,0.68-0.91,0.55-1.27,2.1
	c-0.352,1.561,0.449,2.681-0.771,3.69c0,0-1.43-0.79-2.389-1.83c-0.961-1.04-1.621-1.42-2.82-1.33c-1.189,0.09-1.201,0.18-0.859,0.8
	c0.34,0.63,1.229,1.96,2.779,3.011c1.561,1.04,2.4,4.51,3.66,5.85c1.27,1.33,2.57,3.96,3.67,5.76s0.24,6.71-0.42,7.3
	c-0.66,0.58-0.951,1.931-2.301,3.061c-1.34,1.14-0.57,2.6-0.65,4.03c-0.039,0.569-0.158,0.989-0.289,1.279
	c-0.199,0.42-0.439,0.54-0.48,0.311c-0.07-0.38-1.09-1.21-2.529-1.62c-1.43-0.41-2.041,0.72-2.32-0.41s-0.311-1.25-0.619-1.08
	c-0.32,0.16-0.961,1.93-1.971,2.43c-1.02,0.511-1.551,0.301-2.15-0.659s-0.879-0.08-1.92-1.12c-1.029-1.04-0.359-1.801,0.359-3.65
	c0.23-0.58,0.391-0.88,0.5-1.03c-0.18-0.1-0.439-0.27-0.799-0.6c-0.75-0.67-0.189-0.63-0.121-2.34c0.08-1.73,0.711-6.54,0.811-8.521
	c0.109-1.97-1.82-3-3.1-2.83c-1.27,0.17-1,0.42-1.439,2.73c-0.432,2.31,1.789,3.34,3.1,4.56c1.311,1.21,0.439,0.74-0.27,1.091
	c-0.701,0.329,0.029,1.079-0.57,2.51c-0.6,1.43-0.021,1.6-1.021,2.6c-1,1.021-0.84,0.26-2.059-0.83
	c-1.211-1.08-0.791-0.54-2.1-0.109c-1.301,0.43-1.07,0.34-2.701-0.99c-1.629-1.34-0.9-0.29-1.67,0.05c-0.779,0.33-0.33,1-1.529,1.39
	c-1.18,0.381-1.83-0.83-3.531-1.199c-1.699-0.37-1.689,2.6-1.879,1.97c-0.189-0.62-0.301-0.37-1.91-1.87s0,0-1.77,0.6
	c-1.76,0.591-3.721,1.9-3.65,0.931c0.061-0.96-1.551-1.41-3.141-3.46c-1.6-2.051-1.049,0.09-2.061-0.83
	c-1.01-0.92-0.119-2.351-0.27-3.69c-0.15-1.33-3.059-1.16-1.43-1.83c1.631-0.68,2.09-0.47,2.35-1.189c0.26-0.71-1.16-0.25,0.5-1.55
	c1.66-1.311,0.16-1.131,2.391-2.57c2.23-1.43,2.57-7.97,2.57-7.97s0.139-2.971,0.699-5.11c0.57-2.15-2.84-3.76-1.129-3.85
	c1.709-0.101,11.629,3.38,11.629,3.38s2.07,0.659,2.031,0.409c-0.031-0.14-0.301-0.479-0.57-0.989
	c-0.221-0.431-0.451-0.99-0.521-1.65c-0.139-1.42-1.828-2.92-3.34-4.38c-1.51-1.46-1.609-1.5-2.16-1.83
	c-0.559-0.34-1.199-0.29-1.719-1.25c-0.531-0.97-2.85-0.33-2.85-0.33s0.68-0.84,1.299-1.47c0.631-0.63,0.07-0.96,2.811-2.021
	c2.75-1.06,0.6-1.06,0.18-2.35c-0.41-1.3-0.83-1.17,0.131-1.47c0.949-0.3,0.949-1.261,0.959-2.771c0.02-1.51,1.189-3.729,3.121-3.45
	c1.93,0.29,3.869-2.279,6-2.409c2.129-0.141,2.189,0.989,3.209,1.83c1.02,0.829,1.65,2.5,2,3.34c0.359,0.83,0.15,1.72,0.49,2.72
	c0.33,1,1.279,0.79,2.051,0.16c0.77-0.641-0.07-1.05,0.898-0.38c0.961,0.66,2.852-1.021,3.32-0.98c0.48,0.04,1.621,1.12,2.43,1.87
	c0.811,0.75,3.311,0.82,3.91,0.82c0.59,0,0.771,0.71,1.682,1.96c0.889,1.25,0,0.3,2.229,0.58c2.23,0.279,2.1,1.08,2.75,1.62
	C74.374,400.224,73.214,401.403,72.804,402.033z"/>
<path fill="#EADAB7" d="M163.095,0.163c-0.121,0.04-0.23,1.35-0.361,3.51c0,0.05-0.01,0.1-0.01,0.15c-1.4,0.17-2.789,0.35-4.18,0.57
	c-4.23,0.67-8.529,0.82-12.801,1.03c-5.02,0.24-10.029-0.45-15.029-0.05c-0.301,0.02-0.6,0.05-0.9,0.07
	c-6.469,0.48-13.07,1.7-19.52,2.65c-2.381,0.19-3.869,0.31-4.08,0.33c-1.391,0.11-3.34-0.91-5.93-0.61
	c-2.58,0.3-5.721,0.71-9.279,1.31c-1.25,0.21-2.561,0.44-3.91,0.71c-2.49,0.48-5.15,1.06-7.91,1.77
	c-2.131,0.54-4.32,1.18-6.521,1.97c-2.199,0.8-4.408,1.72-6.59,2.7c-1.119,0.46-2.148,1.06-3.33,1.38
	c-0.59,0.17-1.18,0.35-1.77,0.56c-0.57,0.23-1.199,0.6-1.73,0.97c-2.18,1.41-4.398,3-6.51,4.74c-4.26,3.45-8.289,7.44-12.189,11.63
	c-0.48,0.53-1.039,0.99-1.619,1.44s-1.16,0.91-1.621,1.47c-0.93,1.11-1.811,2.27-2.65,3.46c-1.67,2.39-3.17,4.89-4.619,7.41
	c-2.98,4.99-5.68,10.14-7.84,15.44c-1.121,2.64-2.051,5.33-2.861,8.02c-0.85,2.7-1.439,5.36-2.059,8.15
	c-0.65,2.76-1.16,5.41-1.711,8.04c-0.48,2.64-0.99,5.22-1.389,7.739c-0.842,5.041-1.5,9.82-1.951,14.25
	c-0.391,3.561-0.65,6.891-0.83,9.94c-0.27,4.53-0.359,8.44-0.4,11.56c-0.02,3.051,0.15,5.891,0.291,7.73
	c0,0.03-0.01,0.061-0.01,0.09c-0.111,0.631-0.201,1.26-0.291,1.9c-0.08,0.51-0.15,1.02-0.209,1.529
	c-0.031,0.211-0.061,0.42-0.09,0.631c-0.102,0.81-0.211,1.619-0.32,2.43c-0.07,0.51-0.141,1.02-0.221,1.529
	c-0.139,0.921-0.18,1.871-0.199,2.801c-0.051,2.13,0.01,4.279,0.209,6.4c0.09,0.939,0.131,1.939,0.521,2.799
	c0.43,0.971,0.559,2.011,0.609,3.101c0.029,0.72-0.01,1.33,0.17,2.04c0.551,2.17,0.779,4.42,1.32,6.59
	c0.559,2.27,1.23,4.58,2.309,6.6c0.922,1.74,1.852,3.541,2.621,5.36c1.789,4.2,4.09,8.22,6.98,11.53
	c1.779,2.029,3.279,4.27,4.83,6.529c1.289,1.881,2.41,3.9,3.879,5.621c0.631,0.74,1.34,1.399,1.871,2.229
	c0.5,0.78,0.84,1.681,1.379,2.431c0.41,0.569,0.961,0.959,1.43,1.469c0.42,0.461,0.73,1.031,1.191,1.451
	c0.879,0.799,0.979,2.399,1.41,3.539c0.51,1.371,1.398,2.271,1.908,3.65c0.551,1.54,1.131,3,1.811,4.4
	c1.311,2.72,2.83,5.029,3.541,8.38c0.35,1.62,0.879,3.079,1.119,4.81c0.221,1.65,0.32,3.42,0.529,5.09
	c0.432,3.381,1.051,6.711,1.83,9.78c2.102,8.181,3.66,16.83,3.49,26.87c-0.08,4.82,0.111,9.47,0.041,14.279
	c-0.031,1.9-0.201,3.881-0.48,5.9c-0.99,7.26-3.51,15.1-6.32,22.76c-1.15,3.141-2.299,6.34-3.68,9.45
	c-1.689,3.811-3.82,7.15-5.77,10.801c-2.16,4.029-4.861,7.699-6.781,11.84c-1.309,2.8-2.35,5.489-3.529,8.31
	c-1,2.39-2.199,4.69-3.07,7.09c-1.629,4.49-3.51,9.09-4.6,13.511c-0.75,3.06-1.15,6.01-1.381,8.84
	c-0.119,1.43-0.18,2.819-0.229,4.21c-0.041,1.18-0.42,2.189-0.721,3.479c-0.949,4.01-1.619,8.021-1.561,11.53
	c0.07,3.64,0,7.37,0,11.04c0.01,3.7,0.08,7.37-0.01,11.13c-0.09,3.69,0.9,6.64,0.631,10.42c-0.25,3.48,0.08,6.58,0.76,9.37
	c0.26,1.07,0.471,2.14,0.82,3.16c0.5,1.479,0.879,3.05,1.48,4.43c0.359,0.82,0.459,1.96,0.818,2.86c0.361,0.899,0.861,1.63,1.25,2.5
	c0.352,0.8,0.701,1.6,1.021,2.46c0.289,0.8,0.449,1.83,0.719,2.68c0.32,0.97,0.881,1.75,1.281,2.601
	c0.42,0.88,0.779,1.819,1.229,2.659c0.76,1.42,1.291,3.101,1.971,4.681c0.34,0.79,0.82,1.6,1.02,2.46
	c0.111,0.49-0.059,1.2,0.07,1.71c0.121,0.5,0.25,0.979,0.371,1.49c0.5,2.109,1.42,3.75,2.148,5.59c0.451,1.13,0.75,2.55,1,3.899
	c0.26,1.431,0.631,2.79,0.791,4.301c0.73,6.88,0.869,14.329,0.52,21.97c-0.41,8.83-1.75,17.979-3.789,27.56
	c-1.281,6.021-2.682,12.07-4.041,18.101c-0.65,2.909-1.279,5.81-1.77,8.63c-0.49,2.83-1.75,6.22-2.68,9.17
	c-2.961,9.46-5.951,18.72-5.83,27.09c0.029,2.3-0.17,4.75,0.52,6.49c0.459,1.16,0.9,2.34,1.33,3.52
	c0.26,0.71,0.529,1.431,0.779,2.15c0.061,0.16,0.111,0.31,0.17,0.47c0.111,0.311,0.221,0.62,0.33,0.94
	c0.471,1.34,0.92,2.68,1.381,4.01c0.07,0.21,0.141,0.42,0.209,0.64c0.07,0.811,0.16,2,0.25,3.04c0.09,1.12,0.182,2.07,0.23,2.181
	c0.121,0.31,0.301,0.77,0.541,1.39c0.209,0.59,0.459,1.33,0.77,2.2c0.17,0.569,0.369,1.189,0.58,1.88
	c0.109,0.38,0.23,0.77,0.359,1.18c1.359,4.62,2.891,11.51,3.961,20.37c0.229,2.021,0.43,4.15,0.6,6.37
	c0.061,0.71,0.109,1.41,0.16,2.11c0.039,0.46,0.07,0.93,0.09,1.39c0.029,0.59,0.07,1.18,0.1,1.78c0.029,0.6,0.061,1.199,0.08,1.81
	v0.13c0.051,1.01,0.09,2.03,0.109,3.04c0.021,0.32,0.031,0.63,0.031,0.95c0.1,4.56,0.039,9.41-0.221,14.53
	c-0.061,3.1-0.4,6.279-0.641,9.56c-0.049,0.53-0.09,1.061-0.129,1.601c-0.08,1.119-0.16,2.25-0.301,3.39
	c-0.199,1.68-0.41,3.38-0.619,5.11c-0.221,1.72-0.441,3.47-0.66,5.229c-0.26,1.76-0.58,3.54-0.881,5.33
	c-0.629,3.59-1.139,7.29-1.99,11c-0.02,0.1-0.039,0.2-0.059,0.29c-1.541,7.29-3.15,14.88-4.811,22.74
	c-0.24,1.359-0.49,2.72-0.75,4.1c-0.471,2.61-0.961,5.24-1.48,7.9c-0.359,2.04-0.65,4.12-1,6.189c-0.35,2.08-0.709,4.181-1.061,6.29
	c-0.299,2.11-0.59,4.25-0.889,6.391c-0.121,0.909-0.26,1.81-0.391,2.72c-0.189,1.25-0.369,2.51-0.51,3.77
	c-0.24,2.181-0.49,4.38-0.73,6.59c-0.119,1.101-0.24,2.211-0.359,3.32c-0.09,1.12-0.18,2.23-0.26,3.351
	c-0.16,2.25-0.311,4.5-0.461,6.77c-0.049,2.04-0.119,4.11-0.17,6.17c-0.01,0.23-0.01,0.45-0.02,0.68
	c-0.01,0.561-0.02,1.131-0.029,1.69c-0.01,0.59-0.021,1.17-0.041,1.76v0.36c0.02,1.03,0.031,2.07,0.041,3.11
	c0.039,2.31,0.01,4.64,0.1,6.97c0.17,7,0.65,14.09,1.4,21.21c0.08,0.81,0.17,1.609,0.27,2.41c0.17,1.569,0.359,3.149,0.57,4.729
	c0.279,2.38,0.68,4.76,1.01,7.15c0.391,2.38,0.779,4.77,1.23,7.16c0.26,1.46,0.539,2.92,0.83,4.38
	c0.189,0.93,0.379,1.859,0.568,2.79c0.24,1.3,0.471,2.41,0.67,3.72c0.211,1.27,0.391,2.51,0.561,3.75c0.27,2.07,0.52,4.14,0.76,6.22
	c0.9,7.811,1.621,15.66,2.211,23.54c0.01,0.08,0.01,0.16,0.02,0.24c0.631,8.4,1.1,16.82,1.49,25.26
	c0.07,1.57,0.141,3.141,0.209,4.71c0.342,8.271,0.592,16.54,0.701,24.8c0.141,9.381,0.1,18.74-0.16,28.04
	c-0.01,0.37-0.02,0.74-0.029,1.11c-0.061,2.061-0.131,4.12-0.211,6.18c-0.34,8.12-0.811,16.2-1.721,24.19
	c-0.01,0.06-0.01,0.12-0.02,0.19c-0.189,1.72-0.4,3.43-0.641,5.13c-0.67,4.859-1.5,9.689-2.789,14.47
	c-0.221,0.92-0.449,1.84-0.67,2.75c-0.34,1.38-0.68,2.76-1.02,4.14c-0.131,0.58-0.291,1.16-0.41,1.73l-0.301,1.7
	c-0.199,1.13-0.41,2.26-0.609,3.39c-0.291,1.71-0.541,3.42-0.76,5.13c-1,7.39-1.5,14.82-1.711,22.1
	c-0.01,0.381-0.01,0.761-0.02,1.141v0.06c-0.029,1.84-0.061,3.681-0.051,5.5c0.021,2.221,0.141,4.431,0.23,6.62
	c0.1,2.2,0.33,4.38,0.52,6.54c0.15,1.88,0.352,3.75,0.541,5.601c0.029,0.279,0.061,0.569,0.09,0.85
	c0.859,8.26,1.52,16.31,1.709,24.189c0.012,0.261,0.012,0.511,0.021,0.771c0.119,4.09,0.229,8.11,0.33,12.06
	c0.059,0.98,0.049,2.021,0.07,3.03l0.01,0.76v0.341c0,0.17,0,0.34-0.021,0.5l-0.09,1.439l-0.09,1.44l-0.16,1.489
	c-0.119,0.98-0.229,1.971-0.34,2.95c-0.24,1.75-0.49,3.48-0.76,5.19c-0.029,0.21-0.07,0.41-0.1,0.609
	c-0.859,5.42-1.83,10.62-2.77,15.631c-0.621,3.319-1.26,6.539-1.891,9.67c-0.01,0.069-0.02,0.13-0.039,0.199
	c-0.641,3.19-1.271,6.28-1.871,9.29c-1.01,5.011-1.98,9.74-2.91,14.181c-0.07,0.319-0.141,0.64-0.209,0.97
	c-1.221,5.83-2.371,11.15-3.4,15.9c-0.57,2.689-1.109,5.199-1.609,7.51c-0.281,1.33-0.57,2.649-0.861,3.97
	c-0.09,0.41-0.17,0.82-0.27,1.23c-0.619,2.8-1.15,5.229-1.6,7.239c-0.561,2.54-0.98,4.431-1.24,5.61h-11.25L-7.319,0.389
	L163.095,0.163z"/>
<g>
	<linearGradient id="SVGID_2_" gradientUnits="userSpaceOnUse" x1="20.0115" y1="405.7734" x2="39.3704" y2="405.7734">
		<stop  offset="0.1789" style="stop-color:#B5AB8C"/>
		<stop  offset="0.3033" style="stop-color:#ADA283"/>
		<stop  offset="0.481" style="stop-color:#9B8E6F"/>
		<stop  offset="0.6896" style="stop-color:#817251"/>
		<stop  offset="0.8449" style="stop-color:#6A5B39"/>
		<stop  offset="1" style="stop-color:#6F603E"/>
	</linearGradient>
	<path fill="url(#SVGID_2_)" d="M39.365,409.153c-0.131,0.479-2.99-1.37-3.221-1.521c-1.379-0.859-2.75-1.79-4.25-2.37
		c-1.379-0.539-2.85-0.8-4.311-0.949c-1.469-0.141-2.93-0.101-4.398,0.01c-0.561,0.05-1.121,0.1-1.67,0.04
		c-0.381-0.04-0.76-0.13-1.08-0.36c-0.201-0.14-0.381-0.35-0.42-0.609c-0.021-0.221,0.068-0.42,0.16-0.601l0.85-0.27
		c0.9-0.11,1.799-0.21,2.709-0.21c0.941,0,1.891,0.09,2.83,0.25c0.91,0.16,1.82,0.38,2.711,0.62c0.799,0.199,1.59,0.42,2.379,0.67
		c0.771,0.239,1.531,0.52,2.26,0.88c0.852,0.41,1.67,0.92,2.451,1.479c0.76,0.55,1.49,1.141,2.17,1.8
		c0.221,0.221,0.439,0.45,0.629,0.7C39.234,408.803,39.404,409.013,39.365,409.153z"/>
	<linearGradient id="SVGID_3_" gradientUnits="userSpaceOnUse" x1="34.2649" y1="417.2969" x2="73.9226" y2="417.2969">
		<stop  offset="0.1789" style="stop-color:#A2B442"/>
		<stop  offset="0.3168" style="stop-color:#9BAB40"/>
		<stop  offset="0.5137" style="stop-color:#8C963A"/>
		<stop  offset="0.7449" style="stop-color:#757831"/>
		<stop  offset="0.8449" style="stop-color:#6A692C"/>
		<stop  offset="1" style="stop-color:#706F37"/>
	</linearGradient>
	<path fill="url(#SVGID_3_)" d="M73.413,404.333c0.16,1.26-0.238,1.811-1.08,2.061c-0.84,0.26-1.818,0.81-0.869,1.93
		c0.949,1.13,1.23,1.3,1.529,1.59c0.301,0.29-1.148,0.34-1.91,0.89c-0.77,0.551-1.658-0.119-1.119,1.721
		c0.551,1.84,1.199,1.25,1.109,1.04s0.76,0.51-0.789,1.18c-1.561,0.68-0.91,0.55-1.27,2.1c-0.352,1.561,0.449,2.681-0.771,3.69
		c0,0-1.43-0.79-2.389-1.83c-0.961-1.04-1.621-1.42-2.82-1.33c-1.189,0.09-1.201,0.18-0.859,0.8c0.34,0.63,1.229,1.96,2.779,3.011
		c1.561,1.04,2.4,4.51,3.66,5.85c1.27,1.33,2.57,3.96,3.67,5.76s0.24,6.71-0.42,7.3c-0.66,0.58-0.951,1.931-2.301,3.061
		c-1.34,1.14-0.57,2.6-0.65,4.03c-0.039,0.569-0.158,0.989-0.289,1.279c-4.25-15.52-11.35-28.899-23.77-36.939
		c-0.221-0.431-0.451-0.99-0.521-1.65c-0.139-1.42-1.828-2.92-3.34-4.38c-1.51-1.46-1.609-1.5-2.16-1.83
		c-0.559-0.34-1.199-0.29-1.719-1.25c-0.531-0.97-2.85-0.33-2.85-0.33s0.68-0.84,1.299-1.47c0.631-0.63,0.07-0.96,2.811-2.021
		c2.75-1.06,0.6-1.06,0.18-2.35c-0.41-1.3-0.83-1.17,0.131-1.47c0.949-0.3,0.949-1.261,0.959-2.771
		c0.02-1.51,1.189-3.729,3.121-3.45c1.93,0.29,3.869-2.279,6-2.409c2.129-0.141,2.189,0.989,3.209,1.83c1.02,0.829,1.65,2.5,2,3.34
		c0.359,0.83,0.15,1.72,0.49,2.72c0.33,1,1.279,0.79,2.051,0.16c0.77-0.641-0.07-1.05,0.898-0.38c0.961,0.66,2.852-1.021,3.32-0.98
		c0.48,0.04,1.621,1.12,2.43,1.87c0.811,0.75,3.311,0.82,3.91,0.82c0.59,0,0.771,0.71,1.682,1.96c0.889,1.25,0,0.3,2.229,0.58
		c2.23,0.279,2.1,1.08,2.75,1.62c0.641,0.54-0.52,1.72-0.93,2.35C72.404,402.663,73.255,403.083,73.413,404.333z"/>
	<linearGradient id="SVGID_4_" gradientUnits="userSpaceOnUse" x1="23.8899" y1="428.8047" x2="68.6243" y2="428.8047">
		<stop  offset="0.1789" style="stop-color:#A2B442"/>
		<stop  offset="0.3168" style="stop-color:#9BAB40"/>
		<stop  offset="0.5137" style="stop-color:#8C963A"/>
		<stop  offset="0.7449" style="stop-color:#757831"/>
		<stop  offset="0.8449" style="stop-color:#6A692C"/>
		<stop  offset="1" style="stop-color:#706F37"/>
	</linearGradient>
	<path fill="url(#SVGID_4_)" d="M68.624,448.463c-0.199,0.42-0.439,0.54-0.48,0.311c-0.07-0.38-1.09-1.21-2.529-1.62
		c-1.43-0.41-2.041,0.72-2.32-0.41s-0.311-1.25-0.619-1.08c-0.32,0.16-0.961,1.93-1.971,2.43c-1.02,0.511-1.551,0.301-2.15-0.659
		s-0.879-0.08-1.92-1.12c-1.029-1.04-0.359-1.801,0.359-3.65c0.23-0.58,0.391-0.88,0.5-1.03c0.182,0.101,0.271,0.11,0.271,0.11
		s-0.021-0.44-0.271-0.11c-0.18-0.1-0.439-0.27-0.799-0.6c-0.75-0.67-0.189-0.63-0.121-2.34c0.08-1.73,0.711-6.54,0.811-8.521
		c0.109-1.97-1.82-3-3.1-2.83c-1.27,0.17-1,0.42-1.439,2.73c-0.432,2.31,1.789,3.34,3.1,4.56c1.311,1.21,0.439,0.74-0.27,1.091
		c-0.701,0.329,0.029,1.079-0.57,2.51c-0.6,1.43-0.021,1.6-1.021,2.6c-1,1.021-0.84,0.26-2.059-0.83
		c-1.211-1.08-0.791-0.54-2.1-0.109c-1.301,0.43-1.07,0.34-2.701-0.99c-1.629-1.34-0.9-0.29-1.67,0.05
		c-0.779,0.33-0.33,1-1.529,1.39c-1.18,0.381-1.83-0.83-3.531-1.199c-1.699-0.37-1.689,2.6-1.879,1.97
		c-0.189-0.62-0.301-0.37-1.91-1.87s0,0-1.77,0.6c-1.76,0.591-3.721,1.9-3.65,0.931c0.061-0.96-1.551-1.41-3.141-3.46
		c-1.6-2.051-1.049,0.09-2.061-0.83c-1.01-0.92-0.119-2.351-0.27-3.69c-0.15-1.33-3.059-1.16-1.43-1.83
		c1.631-0.68,2.09-0.47,2.35-1.189c0.26-0.71-1.16-0.25,0.5-1.55c1.66-1.311,0.16-1.131,2.391-2.57c2.23-1.43,2.57-7.97,2.57-7.97
		s0.139-2.971,0.699-5.11c0.57-2.15-2.84-3.76-1.129-3.85c1.709-0.101,11.629,3.38,11.629,3.38s2.07,0.659,2.031,0.409
		c-0.031-0.14-0.301-0.479-0.57-0.989C57.275,419.563,64.374,432.943,68.624,448.463z"/>
</g>
<linearGradient id="SVGID_5_" gradientUnits="userSpaceOnUse" x1="7.7317" y1="416.9805" x2="46.7649" y2="416.9805" gradientTransform="matrix(1 0 0 -1 0 664.2773)">
	<stop  offset="0.1789" style="stop-color:#A2B442"/>
	<stop  offset="0.3168" style="stop-color:#9BAB40"/>
	<stop  offset="0.5137" style="stop-color:#8C963A"/>
	<stop  offset="0.7449" style="stop-color:#757831"/>
	<stop  offset="0.8449" style="stop-color:#6A692C"/>
	<stop  offset="1" style="stop-color:#706F37"/>
</linearGradient>
<path fill="url(#SVGID_5_)" d="M38.829,244.99c-1.352,0.443-2.758,0.619-4.141,0.916c-0.15-0.436-0.303-0.876-0.451-1.314
	c1.611-3.315,5.967-5.368,3.398-10.75c-1.715-3.598-4.996-5.739-7.576-8.532c-0.082,0.56-0.162,1.12-0.244,1.675
	c-1.312,0.764-2.627,1.532-4.193,2.444c-0.279,3.475-1.91,4.209-4.559,2.954c-0.912-0.437-2.135-0.246-2.936,0.355
	c-1.205,0.901-2.164,2.415-2.693,3.047c-1.453,6.118-3.973,9.932-7.703,13.146c3.375,2.526,6.504,4.872,9.875,7.399
	c0,0.008-0.195,0.975-0.311,1.551c3.246,4.055,5.57,2.143,7.773-0.81c0.396-0.53,0.979-1.034,1.51-1.022
	c0.912,0.011,2.287,0.008,2.676,0.791c0.529,1.062,0.615,3.039,0.34,4.289c-0.334,1.512-1.242,2.67-2.27,4.716
	c2.07,0.678,4.227,0.468,5.42,1.956c2.945,3.688,3.195-0.483,4.471-1.897c0.395-0.437,1.045-0.521,1.6-0.532
	c2.83-0.07,3.223-3.313,3.625-6.316c0.398-2.973-0.451-5.286-2.574-6.824c-1.209-0.877-2.254-2.342-3.373-3.541
	c0.111-0.418,0.225-0.83,0.338-1.247c1.111-0.325,2.215-0.685,3.334-0.966c3.305-0.83,4.594,0.159,5.025,5.023
	c0.002,0.006,0.002,0.016,0.002,0.018c0.543-0.543,1.008-1.286,1.572-1.773C44.88,244.955,42.806,243.688,38.829,244.99z"/>
<linearGradient id="SVGID_6_" gradientUnits="userSpaceOnUse" x1="35.7136" y1="59.7202" x2="143.1047" y2="59.7202" gradientTransform="matrix(1 0 0 -1 0 664.2773)">
	<stop  offset="0.1789" style="stop-color:#A2B442"/>
	<stop  offset="0.3168" style="stop-color:#9BAB40"/>
	<stop  offset="0.5137" style="stop-color:#8C963A"/>
	<stop  offset="0.7449" style="stop-color:#757831"/>
	<stop  offset="0.8449" style="stop-color:#6A692C"/>
	<stop  offset="1" style="stop-color:#706F37"/>
</linearGradient>
<path fill="url(#SVGID_6_)" d="M142.095,614.102c-1.025-1.066-1.959-2.323-3.09-3.155c-2.677-1.962-5.34-1.348-7.306,1.411
	c-0.995,1.401-1.163,3.734-1.706,5.651c0.405,0.162,0.818,0.343,1.231,0.515c0.237-0.47,0.551-0.913,0.681-1.419
	c0.711-2.812,1.729-5.335,4.521-4.802c2.854,0.552,4.536,2.849,4.773,6.546c0.329,5.027-0.527,9.901-4.055,12.56
	c-4.666,3.499-9.599,6.683-14.71,8.925c-4.85,2.134-10.058,3.327-15.672,1.121c1.896-2.947,3.58-5.516,5.216-8.129
	c2.181-3.49,4.025-7.46,6.617-10.371c1.385-1.546,4.736-2.631,5.975-1.601c2.395,1.989,0.49,4.802-0.948,6.971
	c-0.191,0.29-0.238,0.742-0.658,2.126c3.114-1.447,4.651-3.391,4.575-6.8c-0.078-3.49-1.782-5.226-4.506-5.362
	c-3.832-0.172-5.867,3.129-7.917,6.456c-2.838,4.585-5.737,9.114-8.622,13.663c-1.491,2.351-3.327,2.54-5.109,0.741
	c-3.894-3.906-7.971-7.613-11.436-12.062c-3.886-4.992-8.353-8.093-13.746-8.662c-3.978-0.426-8.04-0.236-12.017,0.279
	c-2.312,0.299-3.351-0.678-4.766-2.794c-3.32-5-7.083-9.549-10.663-14.286c-0.566-0.759-1.079-1.601-1.615-2.405
	c0.215-0.416,0.436-0.823,0.651-1.229c1.889,0.949,3.778,1.898,5.835,2.93c0.1-0.805,0.252-1.384,0.245-1.962
	c-0.123-5.923,0.627-6.737,5.316-5.534c1.309,0.335,2.571,0.94,3.871,1.374c1.392,0.462,2.891,1.492,4.177,1.185
	c4.229-1.021,8.383-2.531,12.399-3.807c-1.025-2.079-2.219-4.358-3.297-6.728c-2.616-5.714-6.547-9.177-11.673-10
	c-5.539-0.887-7.145-4.421-4.008-11.348c-3.374-0.371-6.555-0.136-9.432-1.202c-2.631-0.985-4.995-1.167-7.465-0.046
	c-2.769,1.266-3.403,3.816-1.675,6.8c0.995,1.736,2.256,3.219,3.29,4.928c0.871,1.446,1.131,2.857-0.873,3.156
	c1.927,1.192,1.491,2.531,0.008,3.598c-0.934,0.679-2.05,0.949-3.099,1.356c-4.414,1.709-6.027,4.195-5.645,9.712l0.015-0.009v0.144
	c0.046,0.651,0.115,1.339,0.223,2.08c-0.046-0.019-0.092-0.036-0.139-0.055c0.252,1.583,0.919,3.012,1.782,4.133
	c1.485,0.597,2.969,1.356,4.445,2.278c5.752,3.599,11.322,9.747,15.59,19.07c-5.822,1.563-11.459,3.073-17.098,4.584
	c5.271-0.813,10.534-1.79,15.82-2.323c1.399-0.146,3.227,0.623,4.283,1.799c3.55,3.96,6.524,8.834,10.303,12.36
	c10.105,9.431,21.036,14.296,33.498,7.152c0.589-0.344,1.408-0.026,2.111-0.091c5.325-0.461,10.893,0.136,15.918-1.654
	c9.952-3.526,19.958-7.912,20.585-24.313C142.769,616.407,142.431,615.241,142.095,614.102z M62.533,621.001
	c9.179-2.369,17.395-1.049,24.63,5.868c5.019,4.783,9.753,10.027,14.603,15.064C94.225,649.918,72.645,640.902,62.533,621.001z"/>
<linearGradient id="SVGID_7_" gradientUnits="userSpaceOnUse" x1="21.9622" y1="584.0879" x2="48.7239" y2="584.0879">
	<stop  offset="0.1789" style="stop-color:#B5AB8C"/>
	<stop  offset="0.3033" style="stop-color:#ADA283"/>
	<stop  offset="0.481" style="stop-color:#9B8E6F"/>
	<stop  offset="0.6896" style="stop-color:#817251"/>
	<stop  offset="0.8449" style="stop-color:#6A5B39"/>
	<stop  offset="1" style="stop-color:#6F603E"/>
</linearGradient>
<path fill="url(#SVGID_7_)" d="M48.724,578.394c-1.891-0.221-3.891-0.99-5.67-0.58c-0.18,0.05-0.359,0.1-0.549,0.14
	c-1.49,0.39-2.941,0.91-4.361,1.57c-1.4,0.64-2.73,1.399-4.029,2.25c-0.82,0.54-1.631,1.09-2.42,1.7
	c-0.76,0.579-1.42,1.35-2.211,1.89c-0.51,0.35-1.09,0.45-1.65,0.66c-0.76,0.29-1.389,1-2.029,1.529c-0.4,0.32-0.84,0.61-1.199,1.011
	c-0.17,0.21-0.311,0.42-0.41,0.68c-0.111,0.27-0.33,0.38-0.531,0.56c-0.279,0.261-0.539,0.551-0.77,0.87
	c-0.199,0.271-0.41,0.65-0.699,0.801c-0.311,0.159-0.24-0.211-0.18-0.431c0.24-0.76,0.689-1.47,1.068-2.149
	c0.092-0.17,0.191-0.341,0.291-0.511c0.381-0.689,0.709-1.25,1.369-1.62c0.65-0.35,1.271-0.729,1.9-1.109
	c1.26-0.76,2.531-1.5,3.781-2.28c1.238-0.78,2.51-1.52,3.77-2.27c1.25-0.761,2.52-1.49,3.799-2.19c1.281-0.7,2.561-1.38,3.871-2.02
	C43.624,576.033,46.413,577.823,48.724,578.394z"/>
<linearGradient id="SVGID_8_" gradientUnits="userSpaceOnUse" x1="1.4612" y1="137.1792" x2="23.3474" y2="137.1792" gradientTransform="matrix(1 0 0 -1 0 664.2773)">
	<stop  offset="0.1789" style="stop-color:#B5AB8C"/>
	<stop  offset="0.3033" style="stop-color:#ADA283"/>
	<stop  offset="0.481" style="stop-color:#9B8E6F"/>
	<stop  offset="0.6896" style="stop-color:#817251"/>
	<stop  offset="0.8449" style="stop-color:#6A5B39"/>
	<stop  offset="1" style="stop-color:#6F603E"/>
</linearGradient>
<path fill="url(#SVGID_8_)" d="M12.163,493.023c1.99,3.25,3.521,6.62,5.811,9.109c0.93,1.011,3.49,0.101,5.32,0.051
	c-0.1-1.73,0.369-3.921-0.391-5.11c-1.6-2.521-3.84-4.51-6.459-7.44c0.879-1.199,1.859-2.54,2.789-3.81
	c0.16-0.22,0.311-0.44,0.471-0.65c-0.4-0.18-0.82-0.37-1.23-0.55c-0.09-0.04-0.17-0.08-0.26-0.12c-0.92,1.601-2.109,3.141-3.35,4.66
	c-0.66,0.82-1.52,1.63-2.43,1.97c-5.74,2.15-7.531,7.2-8.09,13.341c-0.211,2.31-0.531,4.699-1.25,6.859
	c-3.33,10.11-1.621,17.96,5.6,25.16c2.35,2.35,5.01,4.52,6.75,7.36c1.09,1.79,1.43,4.989,0.76,7c-0.371,1.12-3.449,1.17-5.34,1.55
	c-1.1,0.22-2.26,0.16-4.881,0.32c3.99,6.439,7.32,11.829,10.5,16.97c1.82-6.92-5.959-9.141-7.449-15.54
	c1.82-0.061,3.34-0.05,4.859-0.17c5.131-0.391,7.25-4.54,4.551-9.5c-1.301-2.37-3.551-4.05-5.16-6.24
	c-3.221-4.37-6.6-8.65-9.32-13.4c-2.18-3.81-1.689-8.1-0.01-10.819c1.629,0.18,3.141,0.359,4.59,0.52
	c-1.039-2.33-1.75-3.91-2.449-5.479c1.93-0.33,3.92-1.141,5.729-0.771c0.791,0.16,1.201,2.73,1.781,4.2
	c-1.43,0.6-2.871,1.19-4.98,2.05c2.051,0.22,3.971,0.391,5.881,0.37c0.26,0,1.18-4.77,0.648-5.12c-2.729-1.8-5.84-2.89-9.219-4.399
	C5.365,500.184,8.005,495.073,12.163,493.023z M16.804,491.913c1.57,1.97,3.32,3.79,4.609,5.97c0.441,0.761-0.029,2.58-0.59,3.53
	c-0.229,0.38-2.33,0.1-2.709-0.54c-1.35-2.28-2.33-4.85-3.451-7.31C15.384,493.013,16.083,492.463,16.804,491.913z"/>
<linearGradient id="SVGID_9_" gradientUnits="userSpaceOnUse" x1="8.696" y1="654.8242" x2="108.6995" y2="654.8242" gradientTransform="matrix(-0.9942 0.1076 0.1076 0.9942 55.7681 -615.3699)">
	<stop  offset="0.1789" style="stop-color:#B5AB8C"/>
	<stop  offset="0.3033" style="stop-color:#ADA283"/>
	<stop  offset="0.481" style="stop-color:#9B8E6F"/>
	<stop  offset="0.6896" style="stop-color:#817251"/>
	<stop  offset="0.8449" style="stop-color:#6A5B39"/>
	<stop  offset="1" style="stop-color:#6F603E"/>
</linearGradient>
<path fill="url(#SVGID_9_)" d="M19.644,60.773c2.391-1.527,4.676-3.182,7.324-3.428c1.584-0.142,3.305,0.226,5.266,1.439
	c-2.084,3.787-6.748,5.68-11.709,5.001c0.164,0.396,0.357,0.796,0.562,1.196c4.801,0.314,9.197-0.623,12.709-5.328
	c0.439-0.592,1.863-0.725,2.783-0.604c6.51,0.854,12.318-0.941,17.41-4.912c1.143-0.889,2.258-1.824,3.361-2.788
	c2.41-2.081,4.775-4.3,7.299-6.524c1.543,1.685,3.104,3.486,4.77,5.217c0.16,0.176,0.32,0.349,0.49,0.512
	c3.029,3.101,6.857,3.723,8.928,1.548c0.82-0.864,1.213-1.992,1.201-3.208c-0.045-1.986-1.162-4.22-3.238-6.017
	c-0.943-0.833-1.988-1.636-3.117-2.138c-1.393-0.604-2.92-0.871-4.602-1.342c3.65-5.395,8.684-7.035,14.408-6.278
	c5.705,0.751,11.357,2.041,17.012,3.178c5.893,1.202,11.264,0.542,15.617-4.114c0.27-0.582,0.527-1.164,0.795-1.746
	c-0.41-7.791-6.76-13.038-13.59-10.146c1.707,0.811,2.83,1.413,3.996,1.87c1.176,0.457,2.664,0.455,3.539,1.217
	c1.5,1.296,3.586,3.001,3.639,4.595c0.059,1.573-1.773,3.793-3.346,4.687c-2.01,1.134-4.635,1.799-6.906,1.614
	c-5.299-0.442-10.617-1.246-15.812-2.413c-8.031-1.806-14.939-0.586-20.475,6.078c-0.828,0.984-2.416,1.39-3.709,1.871
	c-1.412,0.525-2.543,0.215-3.586-0.406c-0.775-0.471-1.508-1.104-2.256-1.697c-0.67-0.531-1.338-1.012-1.973-1.426
	c-7.475-4.914-12.648-2.344-14.75,7.41c-0.008,0.031-0.014,0.052-0.012,0.082c-0.02,0.193,0.014,0.41-0.07,0.541
	c-0.453,0.643-0.828,1.468-1.451,1.848c-4.529,2.672-9.07,5.307-13.689,7.818c-0.92,0.501-2.205,0.711-3.23,0.531
	c-0.596-0.108-1.199-0.225-1.807-0.338c-0.102-0.02-0.215-0.037-0.328-0.055c-0.078,0.107-0.156,0.227-0.213,0.344
	c-0.191,0.293-0.359,0.592-0.498,0.89c0.523,0.185,1.076,0.456,1.658,0.815c-0.832,0.774-1.664,1.447-2.479,2.009
	C19.478,59.031,19.511,59.902,19.644,60.773z M74.282,42.285c2.361,1.082,4.357,4.386,4.186,6.78
	c-0.012,0.172-0.035,0.335-0.068,0.499c-0.5,2.338-2.293,2.975-4.051,2.139c-1.029-0.493-1.996-1.152-2.92-1.877
	c-0.881-0.689-1.727-1.443-2.568-2.167c-1.266-1.089-2.279-2.47-3.537-3.851C67.54,40.761,70.136,40.39,74.282,42.285z
	 M48.228,35.388c2.891-1.008,5.121-0.091,7.314,1.393c1.377,0.926,2.729,2.078,4.219,3.113c0.045,0.035,0.078,0.061,0.119,0.087
	c-0.186,0.05-0.359,0.101-0.535,0.149c-5.66,1.517-10.77,2.905-16.242,4.385c0.055-0.511,0.109-1.02,0.186-1.521
	C43.779,39.533,44.771,36.599,48.228,35.388z M41.341,47.662c-0.07,0.289-0.129,0.577-0.197,0.866
	c0.553,0.19,1.098,0.394,1.641,0.587c1.51,0.552,3.016,1.091,4.559,1.418c0.412,0.085,1.146-1.412,1.727-2.179l-0.701-0.619
	c-0.57,0.495-1.146,1.392-1.713,1.373c-0.797-0.024-1.596-0.44-2.389-0.788c-0.156-0.062-0.314-0.125-0.473-0.189
	c0.344-0.812,0.52-2.169,1.055-2.338c3.025-0.939,6.076-1.854,9.133-2.697c1.865-0.516,3.756-1.002,5.637-1.446
	c0.963-0.224,2.215,0.747,3.723,1.317c-2.887,3.239-5.777,6.258-8.895,8.698c-5.436,4.239-11.586,6.695-19.738,5.446
	c0.447-1.176,0.822-2.343,1.236-3.443c0.158-0.42,0.312-0.828,0.492-1.221C37.396,50.259,38.702,48.47,41.341,47.662z
	 M35.411,51.068c-0.229,0.859-0.428,1.607-0.631,2.242c-0.051,0.178-0.104,0.343-0.158,0.5c-0.994,3.086-1.863,3.311-5.072,2.209
	c-0.396-0.139-0.834-0.291-1.316-0.471c0.705-0.438,1.377-0.854,2.033-1.267C31.984,53.21,33.605,52.201,35.411,51.068z"/>
<linearGradient id="SVGID_10_" gradientUnits="userSpaceOnUse" x1="13.6467" y1="80.0532" x2="62.4792" y2="80.0532" gradientTransform="matrix(0.9214 -0.3885 0.3885 0.9214 -25.5785 28.9183)">
	<stop  offset="0.1789" style="stop-color:#A2B442"/>
	<stop  offset="0.3168" style="stop-color:#9BAB40"/>
	<stop  offset="0.5137" style="stop-color:#8C963A"/>
	<stop  offset="0.7449" style="stop-color:#757831"/>
	<stop  offset="0.8449" style="stop-color:#6A692C"/>
	<stop  offset="1" style="stop-color:#706F37"/>
</linearGradient>
<path fill="url(#SVGID_10_)" d="M57.118,64.265c0.611,2.195,0.994,4.465,1.561,7.146c-0.412,2.061-0.961,4.877-1.564,8.027
	c-0.096,0.03-0.201,0.064-0.312,0.11c-1.852,0.804-3.686,1.63-5.51,2.454c1.121,2.371,1.66,5.659,3.379,6.748
	c2.744,1.718,4.434,3.154,3.336,7.111c-0.314,1.109,0.59,2.455,1.039,3.6c0.596,1.518,1.297,2.947,2.043,4.664
	c-4.312,1.406-7.104-3.745-10.912-0.012c-3.133-2-6.248-3.596-8.381-7.342c-2.309-4.061-8.074-1.901-9.77,3.088
	c-0.295-0.189-0.588-0.391-0.885-0.58c-0.785,0.841-1.465,1.801-2.346,2.466c-1.141,0.893-2.422,1.54-3.322,2.106
	c-1.986-1.084-3.74-2.027-6.023-3.268c-0.777-4.035-2.064-8.962-0.139-14.105c2.566-6.854,7.656-4.258,12.191-3.229
	c0.562-3.97-0.854-7.921-3.244-10.55c-0.568-0.629-1.195-1.188-1.865-1.644c0.908-0.265,1.721-0.499,2.566-0.735
	c0.174,0.414,0.346,0.82,0.521,1.212c0.938,2.222,1.811,4.24,2.758,6.152c0.453,0.895,1.482,1.382,2.232,2.055
	c0.555-0.928,1.377-1.785,1.617-2.832c0.273-1.156,0.262-2.65-0.104-3.775c-1.572-4.753,0.664-7.171,3.709-9.346
	c5.365-3.826,10.711-2.65,15.947-0.994C56.243,62.984,56.925,63.576,57.118,64.265z"/>
<linearGradient id="SVGID_11_" gradientUnits="userSpaceOnUse" x1="10.9685" y1="520.2217" x2="33.6101" y2="520.2217" gradientTransform="matrix(0.997 0.0769 0.0769 -0.997 -40.0667 661.0021)">
	<stop  offset="0.1789" style="stop-color:#B5AB8C"/>
	<stop  offset="0.3033" style="stop-color:#ADA283"/>
	<stop  offset="0.481" style="stop-color:#9B8E6F"/>
	<stop  offset="0.6896" style="stop-color:#817251"/>
	<stop  offset="0.8449" style="stop-color:#6A5B39"/>
	<stop  offset="1" style="stop-color:#6F603E"/>
</linearGradient>
<path fill="url(#SVGID_11_)" d="M22.081,159.869c-0.732-1.309-0.627-3.502,0.277-4.79c1.432-2.044,3.742-3.691,5.775-5.443
	c6.213-5.374,7.309-10.815,3.609-17.446c-0.787-1.419-1.223-3.021-1.572-4.57c-0.891-4.131-2.844-7.442-8.273-8.505
	c-0.857-0.172-1.705-0.659-2.367-1.179c-0.6-0.467-1.201-0.935-1.762-1.411c-0.584-0.502-1.131-1.013-1.611-1.53
	c-0.443,0.188-0.9,0.376-1.342,0.553c0.742,0.643,1.549,1.325,2.303,1.98c0.344,0.284,0.658,0.565,0.977,0.836
	c-1.953,1.898-3.684,3.274-4.973,4.804c0,0.011-0.014,0.01-0.014,0.01c-0.172,0.221-0.346,0.442-0.506,0.663
	c-0.16,0.223-0.244,0.473-0.279,0.763c-0.09,0.824,0.221,1.855,0.244,2.736c1.684-0.093,4.094,0.351,4.891-0.396
	c1.963-1.839,3.174-4.227,4.797-6.572c3.969,1.114,6.719,4.406,6.521,7.973c-3.035,1.265-5.838,2.207-8.246,3.614
	c-0.463,0.268,0.67,3.435,0.918,3.419c1.764-0.11,3.523-0.349,5.404-0.637c-2.006-0.447-3.359-0.751-4.729-1.056
	c0.445-1.043,0.672-2.805,1.387-2.973c1.643-0.376,3.533,0.039,5.332,0.143c-0.553,1.104-1.094,2.222-1.91,3.88
	c1.314-0.203,2.697-0.436,4.184-0.661c1.727,1.726,2.439,4.603,0.67,7.335c-2.227,3.41-5.08,6.538-7.783,9.713
	c-1.357,1.593-3.33,2.893-4.371,4.592c-2.197,3.541,0.016,6.205,4.777,6.14c1.406-0.021,2.807-0.134,4.488-0.216
	c-0.979,4.443-8.023,6.464-5.908,11.041c2.613-3.697,5.355-7.583,8.639-12.211c-2.436,0.058-3.486,0.187-4.52,0.107
	C25.339,160.437,22.491,160.615,22.081,159.869z M17.251,126.096c-0.309,0.457-2.232,0.788-2.461,0.548
	c-0.576-0.606-1.121-1.807-0.766-2.354c1.055-1.558,2.564-2.917,3.885-4.36c0.688,0.335,1.379,0.657,2.068,0.979
	C19.103,122.656,18.353,124.46,17.251,126.096z"/>
<linearGradient id="SVGID_12_" gradientUnits="userSpaceOnUse" x1="344.4211" y1="-10.8232" x2="210.1142" y2="1235.4237">
	<stop  offset="0" style="stop-color:#6F603E"/>
	<stop  offset="0.1551" style="stop-color:#6A5B39"/>
	<stop  offset="0.3104" style="stop-color:#817251"/>
	<stop  offset="0.519" style="stop-color:#9B8E6F"/>
	<stop  offset="0.6967" style="stop-color:#ADA283"/>
	<stop  offset="0.8211" style="stop-color:#B5AB8C"/>
</linearGradient>
<path fill="url(#SVGID_12_)" d="M666.931,0.139v6c0,0-417.53-0.94-418.642-0.84c-4.85,0.41-104.614-1.025-117.575,0.075
	c-0.301,0.02-0.6,0.05-0.9,0.07c-7.869,0.67-15.17,2.28-19.52,2.65c-2.381,0.19-3.869,0.31-4.08,0.33
	c-1.391,0.11-3.34-0.91-5.93-0.61c-2.58,0.3-5.721,0.71-9.279,1.31c-1.25,0.21-2.561,0.44-3.91,0.71c-2.49,0.48-5.15,1.06-7.91,1.77
	c-2.131,0.54-4.32,1.18-6.521,1.97c-2.199,0.8-4.408,1.72-6.59,2.7c-1.119,0.46-2.148,1.06-3.33,1.38
	c-0.59,0.17-1.18,0.35-1.77,0.56c-0.57,0.23-1.199,0.6-1.73,0.97c-2.18,1.41-4.398,3-6.51,4.74c-4.26,3.45-8.289,7.44-12.189,11.63
	c-0.48,0.53-1.039,0.99-1.619,1.44s-1.16,0.91-1.621,1.47c-0.93,1.11-1.811,2.27-2.65,3.46c-1.67,2.39-3.17,4.89-4.619,7.41
	c-2.98,4.99-5.68,10.14-7.84,15.44c-1.121,2.64-2.051,5.33-2.861,8.02c-0.85,2.7-1.439,5.36-2.059,8.15
	c-0.65,2.76-1.16,5.41-1.711,8.04c-0.48,2.64-0.99,5.22-1.389,7.739c-0.842,5.041-1.5,9.82-1.951,14.25
	c-0.391,3.561-0.65,6.891-0.83,9.94c-0.27,4.53-0.359,8.44-0.4,11.56c-0.02,3.051,0.15,5.891,0.291,7.73
	c0,0.03-0.01,0.061-0.01,0.09c-0.111,0.631-0.201,1.26-0.291,1.9c-0.08,0.51-0.15,1.02-0.209,1.529
	c-0.031,0.211-0.061,0.42-0.09,0.631c-0.102,0.81-0.211,1.619-0.32,2.43c-0.07,0.51-0.141,1.02-0.221,1.529
	c-0.139,0.921-0.18,1.871-0.199,2.801c-0.051,2.13,0.01,4.279,0.209,6.4c0.09,0.939,0.131,1.939,0.521,2.799
	c0.43,0.971,0.559,2.011,0.609,3.101c0.029,0.72-0.01,1.33,0.17,2.04c0.551,2.17,0.779,4.42,1.32,6.59
	c0.559,2.27,1.23,4.58,2.309,6.6c0.922,1.74,1.852,3.541,2.621,5.36c1.789,4.2,4.09,8.22,6.98,11.53
	c1.779,2.029,3.279,4.27,4.83,6.529c1.289,1.881,2.41,3.9,3.879,5.621c0.631,0.74,1.34,1.399,1.871,2.229
	c0.5,0.78,0.84,1.681,1.379,2.431c0.41,0.569,0.961,0.959,1.43,1.469c0.42,0.461,0.73,1.031,1.191,1.451
	c0.879,0.799,0.979,2.399,1.41,3.539c0.51,1.371,1.398,2.271,1.908,3.65c0.551,1.54,1.131,3,1.811,4.4
	c1.311,2.72,2.83,5.029,3.541,8.38c0.35,1.62,0.879,3.079,1.119,4.81c0.221,1.65,0.32,3.42,0.529,5.09
	c0.432,3.381,1.051,6.711,1.83,9.78c2.102,8.181,3.66,16.83,3.49,26.87c-0.08,4.82,0.111,9.47,0.041,14.279
	c-0.031,1.9-0.201,3.881-0.48,5.9c-0.99,7.26-3.51,15.1-6.32,22.76c-1.15,3.141-2.299,6.34-3.68,9.45
	c-1.689,3.811-3.82,7.15-5.77,10.801c-2.16,4.029-4.861,7.699-6.781,11.84c-1.309,2.8-2.35,5.489-3.529,8.31
	c-1,2.39-2.199,4.69-3.07,7.09c-1.629,4.49-3.51,9.09-4.6,13.511c-0.75,3.06-1.15,6.01-1.381,8.84
	c-0.119,1.43-0.18,2.819-0.229,4.21c-0.041,1.18-0.42,2.189-0.721,3.479c-0.949,4.01-1.619,8.021-1.561,11.53
	c0.07,3.64,0,7.37,0,11.04c0.01,3.7,0.08,7.37-0.01,11.13c-0.09,3.69,0.9,6.64,0.631,10.42c-0.25,3.48,0.08,6.58,0.76,9.37
	c0.26,1.07,0.471,2.14,0.82,3.16c0.5,1.479,0.879,3.05,1.48,4.43c0.359,0.82,0.459,1.96,0.818,2.86c0.361,0.899,0.861,1.63,1.25,2.5
	c0.352,0.8,0.701,1.6,1.021,2.46c0.289,0.8,0.449,1.83,0.719,2.68c0.32,0.97,0.881,1.75,1.281,2.601
	c0.42,0.88,0.779,1.819,1.229,2.659c0.76,1.42,1.291,3.101,1.971,4.681c0.34,0.79,0.82,1.6,1.02,2.46
	c0.111,0.49-0.059,1.2,0.07,1.71c0.121,0.5,0.25,0.979,0.371,1.49c0.5,2.109,1.42,3.75,2.148,5.59c0.451,1.13,0.75,2.55,1,3.899
	c0.26,1.431,0.631,2.79,0.791,4.301c0.73,6.88,0.869,14.329,0.52,21.97c-0.41,8.83-1.75,17.979-3.789,27.56
	c-1.281,6.021-2.682,12.07-4.041,18.101c-0.65,2.909-1.279,5.81-1.77,8.63c-0.49,2.83-1.75,6.22-2.68,9.17
	c-2.961,9.46-5.951,18.72-5.83,27.09c0.02,1.67,0.539,3.15,0.91,4.76c0.289,1.28,0.58,2.55,0.869,3.82
	c0.279,1.189,0.561,2.39,0.85,3.58c0.291,1.2,0.58,2.39,0.881,3.58c0.469,1.85,0.959,3.689,1.459,5.52
	c0.602,2.21,1.221,4.41,1.83,6.61c0.102,0.35,0.191,0.689,0.291,1.04c0.99,3.6,1.9,7.21,2.629,10.87
	c0.971,4.939,1.65,9.93,2.111,14.95c0.07,0.699,0.129,1.399,0.18,2.1c0.061,0.71,0.109,1.41,0.16,2.11
	c0.039,0.46,0.07,0.93,0.09,1.39c0.029,0.59,0.07,1.18,0.1,1.78c0.029,0.6,0.061,1.199,0.08,1.81v0.13
	c0.051,1.01,0.09,2.03,0.109,3.04c0.021,0.32,0.031,0.63,0.031,0.95c0.039,1.19,0.059,2.38,0.07,3.57
	c0.02,5.59-0.182,11.17-0.592,16.739c-0.129,1.79-0.289,3.591-0.469,5.381c-0.371,3.85-0.83,7.689-1.361,11.52
	c-0.799,5.8-1.77,11.58-2.859,17.33c-0.08,0.4-0.15,0.81-0.23,1.21c-0.02,0.1-0.039,0.2-0.059,0.29
	c-0.99,5.14-2.09,10.25-3.18,15.36c-0.811,3.819-1.621,7.649-2.381,11.479c-0.34,1.72-0.68,3.44-1,5.17
	c-1.08,5.771-2.041,11.57-2.881,17.38c-0.34,2.311-0.66,4.63-0.939,6.94c-0.471,3.53-0.869,7.05-1.23,10.59
	c-0.559,5.66-0.969,11.34-1.18,17.02c-0.029,0.79-0.061,1.57-0.08,2.36s-0.039,1.58-0.049,2.37c-0.021,0.7-0.031,1.41-0.041,2.12
	c-0.029,3.5,0.01,7,0.109,10.5c0.172,5.95,0.531,11.89,1.111,17.82c0.1,0.989,0.199,1.979,0.32,2.97c0.08,0.81,0.17,1.609,0.27,2.41
	c0.459,3.97,1.029,7.92,1.67,11.859c0.619,3.86,1.311,7.71,1.971,11.561c0.309,1.76,0.609,3.52,0.898,5.29
	c0.621,3.72,1.182,7.45,1.66,11.189c0.281,2.07,0.531,4.15,0.75,6.23c0.621,5.76,1.08,11.53,1.461,17.31
	c0.01,0.08,0.01,0.16,0.02,0.24c0.381,5.72,0.711,11.46,1.041,17.19c0.158,2.689,0.309,5.38,0.449,8.069
	c0.16,3.2,0.311,6.41,0.439,9.62c0.25,6.021,0.4,12.04,0.461,18.061c0.01,0.609,0.01,1.22,0.01,1.829
	c0.049,5.16,0.029,10.33-0.01,15.49c-0.031,4.19-0.07,8.37-0.15,12.55c-0.01,0.37-0.02,0.74-0.029,1.11
	c-0.021,1.21-0.051,2.42-0.08,3.63c-0.17,6.04-0.441,12.08-0.941,18.11c-0.25,2.88-0.549,5.76-0.91,8.63
	c-0.01,0.06-0.01,0.12-0.02,0.19c-0.359,2.8-0.779,5.6-1.26,8.39c-0.82,4.67-1.84,9.32-2.84,13.96c-0.1,0.439-0.189,0.89-0.291,1.33
	c-1.068,4.89-2.068,9.8-2.809,14.76c-0.041,0.22-0.07,0.44-0.1,0.66c-0.811,5.54-1.32,11.12-1.521,16.71
	c-0.07,1.96-0.109,3.91-0.109,5.87v0.06c0,3.73,0.131,7.46,0.33,11.181c0.24,4.359,0.561,8.72,0.91,13.08
	c0.119,1.569,0.25,3.13,0.369,4.699c0.471,5.971,0.92,11.95,1.281,17.931c0.049,0.8,0.1,1.609,0.148,2.409
	c0.23,4,0.432,8.011,0.49,12.021c0.021,1.65,0.01,3.3-0.059,4.94c0,0.17,0,0.34-0.021,0.5c-0.068,1.739-0.199,3.479-0.389,5.21
	c-0.281,2.449-0.641,4.88-1.051,7.3c-0.029,0.21-0.07,0.41-0.1,0.609c-0.27,1.58-0.551,3.16-0.83,4.73
	c-1.01,5.689-2.07,11.36-3.15,17.04c-0.219,1.18-0.449,2.35-0.68,3.53c-0.01,0.069-0.02,0.13-0.039,0.199
	c-0.852,4.44-1.73,8.87-2.641,13.29c-0.689,3.4-1.41,6.79-2.141,10.181c-0.07,0.319-0.141,0.64-0.209,0.97
	c-0.271,1.24-0.531,2.47-0.801,3.71c-1.061,4.9-2.119,9.8-3.16,14.71c-0.35,1.66-0.699,3.33-1.049,4.99
	c-0.281,1.33-0.57,2.649-0.861,3.97c-0.09,0.41-0.17,0.82-0.27,1.23c-0.25,1.21-0.51,2.409-0.77,3.609
	c-0.771,3.57-1.58,7.13-2.391,10.69c-1.301-0.3-2.6-0.601-3.9-0.9c0.051-0.18,0.1-0.37,0.141-0.55
	c1.891-7.3,3.379-14.69,4.859-22.08c1.85-9.21,4.051-18.35,5.91-27.55c2.18-10.76,3.711-21.64,5.58-32.45
	c1.35-7.76,3.391-15.67,2.951-23.6c-0.23-4.011-0.891-7.99-1.441-11.971c-0.74-5.229-1.379-10.479-1.779-15.76
	c-0.82-10.97-0.529-21.96-0.17-32.939c0.35-10.551,0.65-21.15,2.311-31.591c1.529-9.63,4.289-19,5.84-28.609
	c1.77-10.931,2.26-22,2.49-33.05c0.229-10.891,0.279-21.78,0.078-32.66c-0.199-11.13-0.719-22.24-1.328-33.351
	c-0.611-11.04-1.201-22.09-2.16-33.1c-0.932-10.75-2.461-21.4-4.141-32.06c-1.711-10.841-3.25-21.711-3.92-32.681
	c-0.66-10.91-0.66-21.87-0.451-32.8c0.211-10.87,0.691-21.74,1.871-32.56c1.189-10.91,3.07-21.73,5.369-32.46
	c2.24-10.391,4.811-20.7,6.471-31.2c1.689-10.681,2.609-21.48,3.15-32.271c0.48-9.59,0.34-19.12-0.84-28.66
	c-0.35-2.84-0.68-5.67-1.1-8.5c-0.311-2.149-0.932-4.25-1.191-6.409c-0.23-1.98-0.369-3.94-1.049-5.841
	c-0.602-1.699-1.5-3.26-2.07-4.979c-0.611-1.8-1.201-3.62-1.701-5.46c-0.469-1.71-0.119-3.49-0.609-5.15
	c-0.359-1.2-1.109-2.21-1.65-3.33c-0.609-1.279-0.539-2.399-0.65-3.779c-0.1-1.221-0.359-2.41-0.408-3.631
	c-0.012-0.25-0.092-0.47-0.07-0.729c0.07-0.771,0.18-1.53,0.289-2.3c0.061-0.431,0.121-0.86,0.189-1.29
	c1.561-10.03,4.771-21.16,8.061-31.641c0.4-1.26,0.451-2.399,0.641-3.6c0.289-1.75,0.971-3.76,1.439-5.61
	c0.42-1.659,0.73-3.27,1.189-4.939c1.07-3.95,1.592-7.92,2.311-11.771c0.301-1.59,0.68-3.42,0.701-4.89
	c0.01-1.47,0.289-2.96,0.369-4.43c0.039-0.69-0.09-1.261-0.01-1.971c0.09-0.71,0.35-1.489,0.4-2.189c0.1-1.66-0.111-3.18-0.051-4.83
	c0.061-1.44,0.381-2.98,0.391-4.41v-4.729c0.01-2.671,0.01-5.33,0.01-7.99c0-3.08-0.141-5.9-0.811-8.44
	c-0.709-2.729-1.799-4.97-1.619-8.45c0.17-3.359-1.031-5.229-1.93-7.619c-0.791-2.091-1.25-5.25-2.842-6.301
	c-0.43-0.29-0.799-0.649-1.1-1.06c-0.289-0.36-0.539-0.771-0.76-1.2c-0.379-0.729-0.699-1.54-1.039-2.39
	c-0.68-1.67-1.9-2.75-2.48-4.48c-0.5-1.5-0.91-3.149-1.42-4.67c-0.52-1.55-0.561-3.35-0.939-5.02c-0.221-1.04-0.131-2.32-0.42-3.28
	c-0.291-0.9-0.471-1.82-0.65-2.83c-0.201-1.13-0.68-2.02-0.721-3.29c-0.029-1.15-0.279-1.95-0.359-3.06
	c-0.09-1.23-0.35-2.25-0.551-3.391c-0.59-3.26-0.16-7.569-0.17-11.26c0-2.46-0.141-4.8-0.219-7.2
	c-0.211-6.319,0.408-13.31,1.299-20.27c0.26-2.021,0.76-4.271,0.779-6.16c0.012-1.69-0.148-3.33,0.131-5.17
	c0.279-1.8,0.641-3.601,0.961-5.41c0.318-1.77,0.449-3.49,0.809-5.28c0.371-1.84,0.971-3.689,1.291-5.54
	c0.559-3.25,1.639-6.66,2.619-10.02c0.42-1.45,0.711-2.9,1.221-4.36c0.68-1.939,1.83-4.149,2.74-6.06
	c0.689-1.45,1.6-2.79,2.32-4.221c0.84-1.659,1.648-3.34,2.51-4.979c1.459-2.81,2.939-5.87,4.619-8.56c1.871-3,3.84-6.091,5.32-9.271
	c0.779-1.7,1.209-3.36,1.939-5.06c0.791-1.82,1.75-3.71,2.41-5.54c1.5-4.15,2.541-8.26,4.07-12.41c0.83-2.25,1.811-4.301,2.34-6.551
	c0.49-2.08,0.66-4.02,0.881-5.979c0.148-1.31,0.318-2.13,0.939-3.44c0.439-0.939,0.641-1.81,0.73-2.68
	c0.209-1.859-0.102-3.38-0.09-5.109c0.01-1.711,0.09-3.521-0.102-5.101c-0.229-1.979-0.639-3.729-0.639-5.899
	c0-3.851-1.051-6.82-1.391-10.4c-0.18-1.88-0.109-3.859-0.449-5.609c-0.391-2-0.291-4.211-0.432-6.391
	c-0.17-2.439-0.469-4.8-0.809-7.13c-0.25-1.69-0.51-3.37-0.75-5.04c-0.051-0.35-0.1-0.689-0.15-1.04
	c-0.52-3.7-1.859-6.83-2.779-10.149c-1.07-3.891-2.141-7.621-3.83-10.851c-1.541-2.92-3.301-5.55-4.861-8.44
	c-2.42-4.5-8.459-7.189-10.459-11.18c-0.75-1.49-1.961-1.87-2.58-3.55c-0.76-2.05-1.76-3.65-2.51-5.71
	c-0.791-2.2-2.121-3.42-3.051-5.37c-0.799-1.7-1.67-3.46-2.66-4.761c-1.23-1.609-1.66-4.449-2.459-6.819
	c-0.67-1.99-1.49-3.89-1.84-6.38c-0.391-2.82-1.15-4.99-1.65-7.63c-0.43-2.28-0.111-6.2-0.111-9.021
	c0.012-2.97-0.109-11.85-0.109-13.38c0-2,0.09-4.069,0.291-6.13c0-0.96,0-2.061-0.01-3.27c0.01-5.291,0.148-12.9,1.029-21.98
	c0.42-4.54,1.039-9.43,1.85-14.58c0.381-2.58,0.871-5.21,1.33-7.91c0.541-2.689,1.041-5.479,1.65-8.21
	c0.59-2.71,1.199-5.66,1.99-8.52c0.789-2.87,1.66-5.77,2.719-8.63c2.08-5.73,4.791-11.38,8.182-16.57
	c1.719-2.58,3.639-5.02,5.619-7.38c0.98-1.18,1.959-2.36,2.939-3.53c0.99-1.16,1.561-2.69,2.631-3.79
	c4.09-4.53,8.689-8.41,13.311-11.87c2.34-1.72,4.619-3.37,6.969-4.94c0.59-0.38,1.1-0.73,1.66-1.23c0.57-0.45,1.109-0.99,1.689-1.44
	c1.141-0.94,2.471-1.48,3.73-2.03c2.561-1.05,5.121-1.75,7.58-2.32c2.461-0.58,4.83-1.04,7.109-1.44
	c4.551-0.8,8.721-1.26,12.42-1.58c3.701-0.32,6.932-0.48,9.58-0.58c0.961-0.03,1.84-0.06,2.65-0.07c1.43-0.03,2.611-0.04,3.52-0.04
	c1,0.01,29.32-2.27,46.111-3.63C159.413-0.417,666.931,0.139,666.931,0.139z"/>
<path fill="#B5AB8C" d="M21.323,633.963c-0.068-0.22-0.139-0.43-0.209-0.64l0.15-0.33C21.265,632.993,21.294,633.383,21.323,633.963
	z"/>
<linearGradient id="SVGID_13_" gradientUnits="userSpaceOnUse" x1="10.9788" y1="141.2734" x2="11.4839" y2="141.2734">
	<stop  offset="0" style="stop-color:#6F603E"/>
	<stop  offset="0.1551" style="stop-color:#6A5B39"/>
	<stop  offset="0.3104" style="stop-color:#817251"/>
	<stop  offset="0.519" style="stop-color:#9B8E6F"/>
	<stop  offset="0.6967" style="stop-color:#ADA283"/>
	<stop  offset="0.8211" style="stop-color:#B5AB8C"/>
</linearGradient>
<path fill="url(#SVGID_13_)" d="M11.484,142.344l-0.5-0.15c0.09-0.641,0.18-1.27,0.291-1.9c0-0.029,0.01-0.06,0.01-0.09
	C11.394,141.533,11.484,142.344,11.484,142.344z"/>
</svg>
