<?xml version="1.0" encoding="utf-8"?>
<!-- Generator: Adobe Illustrator 16.0.0, SVG Export Plug-In . SVG Version: 6.00 Build 0)  -->
<!DOCTYPE svg PUBLIC "-//W3C//DTD SVG 1.1//EN" "http://www.w3.org/Graphics/SVG/1.1/DTD/svg11.dtd">
<svg version="1.1" id="Layer_1" xmlns="http://www.w3.org/2000/svg" xmlns:xlink="http://www.w3.org/1999/xlink" x="0px" y="0px"
	 width="1218.055px" height="524px" viewBox="0 0 1218.055 524" enable-background="new 0 0 1218.055 524" xml:space="preserve">
<radialGradient id="SVGID_1_" cx="194.1489" cy="374.2993" r="754.2675" gradientTransform="matrix(1 0 0 -0.5772 0 339.7504)" gradientUnits="userSpaceOnUse">
	<stop  offset="0.0839" style="stop-color:#F3F4C6"/>
	<stop  offset="0.7692" style="stop-color:#D4D2B4"/>
</radialGradient>
<path fill="url(#SVGID_1_)" d="M1032.494,355c-14,0-30-3-45-8c-3-1-8-5-11-6c-24-10-48-19-72-28c-14-5-28-6-43-9
	c-52-10-96-28-139-60c-24-18-49-31-75-45c-33-18-67-31-101-47c-8-4,1-10.331-7-13.331c-2.93-1.465-33.162-5.202-36.666-6.667
	c-18.207,1.151-31.87,1.472-47.638-1.985c-4.558-0.999,2.041-28.313-3.03-30.015c-14.672-4.916-39.184-21.091-56-20
	c-1.114,0.072,1.08-10.153,0-10c-2.008,0.287-23.375-17.36-25.333-16.666c-13.243,4.7-59.333,6.666-59.333,6.666l-19.333,14.667
	c0,0-0.808,3.807-4.667,4c-3.185,0.159-7.078-0.562-10.07,0.622c-2.487,0.984-5.888,3.705-8.403,1.069
	c-1.429-1.497-1.218-4.966-1.755-6.894c-1.353-4.859-2.801-9.466-4.719-14.129c-1.329-3.229-2.051-6.728-2.601-10.168
	c-0.492-3.081,0.131-6.14-0.296-9.146c-0.417-2.928-1.838-4.282-4.416-2.379c-4.633,3.422-9.226,9.526-12.179,14.398
	c-3.618,5.97,0.155,8.683,2.591,14.053c0.628,1.385,1.875,3.224,2.13,4.683c0.451,2.581-2.16,7.938-4.559,9.074
	c-1.164,0.552-2.929,0.051-4.149,0.06c-2.931,0.021-5.811,0.704-8.702,1.094c-4.324,0.582-5.92,0.483-5.826-3.757
	c0.139-6.218-0.943-12.938,0.125-19.078c0.553-0.114,1.105-0.228,1.658-0.342c0.036-2.654-0.825-5.597,0.106-8.162
	c0.63-1.736,1.85-2.768,3.424-3.641c1.04-0.576,3.545-0.884,3.695-2.325c0.158-1.518-3.547-3.87-4.45-4.637
	c-2.771-2.354-5.613-4.633-8.184-7.21c-2.33-2.336-3.782-5.541-6.234-7.628c-2.761-2.352-6.536-3.805-8.572-6.98
	c-1.562-2.436-0.27-4.277-0.158-6.935c0.114-2.707-0.325-8.026-2.807-9.769c-2.647-1.857-5.608,1.481-6.869,3.593
	c-1.646,2.757-1.638,5.858-1.662,8.97c-0.028,3.657-0.281,7.3-0.341,10.953c-0.056,3.348,0.442,6.496,1.988,9.498
	c1.459,2.835,3.636,5.083,4.193,8.322c1.051,6.106-1.081,12.058-0.916,18.123c0.097,3.591,1.118,8.088-1.759,10.883
	c-1.371,1.332-3.432,1.977-5.138,2.737c-1.965,0.876-4.053,2.34-6.144,2.853c-2.356,0.578-3.729-0.466-5.426-2.066
	c-3.274-3.091-6.007-6.807-9.057-10.115c-2.896-3.143-5.94-6.113-9.19-8.888c-1.29-1.102-2.708-2.006-3.255-3.665
	c-0.564-1.709-0.07-4.191-0.074-5.956c-0.007-2.975-0.108-5.948-0.087-8.923c0.03-4.274,0.335-8.494-0.064-12.762
	c-3.603-0.188-6.14-0.104-8.974,2.397c-3.454,3.049-2.902,7.827-2.897,12.101c0.005,4.331-0.134,8.062,2.605,11.609
	c1.492,1.934,3.648,3.474,4.769,5.686c0.935,1.847,1.266,4.438,1.545,6.483c0.216,1.578,0.511,3.98,0.166,5.56
	c-0.576,2.631-2.274,2.257-4.084,3.529c-2.05,1.441-2.707,4.24-4.769,5.83c-1.727,1.332-3.743,2.962-5.684,3.979
	c-0.907,0.476-2.061,0.774-2.861,1.411c-1.072,0.854-1.536,1.887-2.873,2.424C134.6,85.787,1.791,85.822,0,86.15V524h1218.053
	V352.85C1198.72,354.274,1051.827,355.553,1032.494,355z"/>
<radialGradient id="SVGID_2_" cx="1017.9209" cy="263.8481" r="254.8786" gradientTransform="matrix(1 0 0 -0.3914 0 310.2825)" gradientUnits="userSpaceOnUse">
	<stop  offset="0.0839" style="stop-color:#FEFBEA"/>
	<stop  offset="0.7692" style="stop-color:#D5D5C9"/>
</radialGradient>
<path fill="url(#SVGID_2_)" d="M1086.562,109.32c-0.521,0.13-1.125,0.247-1.842,0.358c-5.933,0.92-12.072-1.316-17.854-2.44
	c-2.557-0.497-5.14-0.519-7.706-0.967c-5-0.875-9.991-1.832-14.979-2.82c-17.846-3.532-35.658-7.454-53.735-9.394
	c-18.01-1.932-36.581-1.102-54.662-0.616c-17.544,0.471-35.057,0.342-52.521,2.203c-3.081,0.329-5.915,0.44-8.864,1.5
	c-13.806,4.958-29.849,4.624-42.9,11.525c-8.043,4.253-17.779,5.917-26.667,8c-18.125,4.248-32.997,12.674-50.637,18.665
	c-8.77,2.979-17.41,6.329-25.812,10.228c-7.41,3.438-17.391,7.007-23.169,12.961c-6.093,6.283-12.738,9.381-20.692,12.9
	c-9.6,4.246-18.458,10.398-28.962,12.204c-4.271,0.734-8.136,2.54-12.061,4.372c-3.216,1.501-6.527,2.713-9.896,3.73
	c4.648,2.343,9.282,4.753,13.896,7.27c26,14,51,27,75,45c43,32,87,50,139,60c15,3,29,4,43,9c24,9,48,18,72,28c3,1,8,5,11,6
	c15,5,31,8,45,8c19.333,0.553,166.226-0.728,185.559-2.15V110.016C1216.742,109.774,1087.873,109.543,1086.562,109.32z"/>
</svg>
