<?xml version="1.0" encoding="utf-8"?>
<!-- Generator: Adobe Illustrator 16.0.0, SVG Export Plug-In . SVG Version: 6.00 Build 0)  -->
<!DOCTYPE svg PUBLIC "-//W3C//DTD SVG 1.1//EN" "http://www.w3.org/Graphics/SVG/1.1/DTD/svg11.dtd">
<svg version="1.1" id="Layer_1" xmlns="http://www.w3.org/2000/svg" xmlns:xlink="http://www.w3.org/1999/xlink" x="0px" y="0px"
	 width="1062.227px" height="847.098px" viewBox="351.227 438.097 1062.227 847.098"
	 enable-background="new 351.227 438.097 1062.227 847.098" xml:space="preserve">
<rect x="351.227" y="364.097" fill="#FFFFFF" stroke="#000000" stroke-width="0.974" stroke-miterlimit="10" width="1065" height="459"/>
<defs>
	<filter id="Adobe_OpacityMaskFilter" filterUnits="userSpaceOnUse" x="106" y="-16" width="1307.453" height="1301.195">
		<feColorMatrix  type="matrix" values="1 0 0 0 0  0 1 0 0 0  0 0 1 0 0  0 0 0 1 0"/>
	</filter>
</defs>
<mask maskUnits="userSpaceOnUse" x="106" y="-16" width="1307.453" height="1301.195" id="SVGID_1_">
	<g filter="url(#Adobe_OpacityMaskFilter)">
		
			<radialGradient id="SVGID_2_" cx="820.4414" cy="751.8843" r="365.5112" gradientTransform="matrix(0.9973 -0.0739 -0.0739 -0.9973 -9.6827 1449.5623)" gradientUnits="userSpaceOnUse">
			<stop  offset="0" style="stop-color:#FFFFFF"/>
			<stop  offset="1" style="stop-color:#FFFFFF;stop-opacity:0"/>
		</radialGradient>
		<path fill="url(#SVGID_2_)" d="M1117.505,612.083c14.911,201.323-136.205,376.612-337.526,391.52
			C578.653,1018.517,403.363,867.4,388.454,666.078c-14.911-201.325,136.205-376.614,337.529-391.524
			C927.306,259.644,1102.596,410.759,1117.505,612.083z"/>
	</g>
</mask>
<g mask="url(#SVGID_1_)">
	<g>
		<path fill="#FFE299" d="M846.364,649.896l567.089,55.799l-16.819-158.703l-550.788,81.521c-0.746-5.084-1.929-10.025-3.51-14.789
			l540.741-179.676l-79.915-138.142l-470.013,298.5c-2.73-4.291-5.823-8.327-9.237-12.066l420.928-384.099l-129.193-93.692
			L807.676,568.416c-4.204-2.797-8.664-5.239-13.338-7.285l228.305-522.077L866.506,6.009l-92.671,549.02
			c-4.737-0.794-9.603-1.214-14.566-1.214c-0.193,0-0.387,0.006-0.581,0.007L754.907-16L598.829,17.317L737.472,556.55
			c-4.962,1.272-9.754,2.969-14.336,5.048L487.926,42.604l-129.033,93.919l345.995,436.24c-3.975,3.157-7.667,6.653-11.037,10.443
			L267.862,204.73l-79.675,138.282L681.69,600.803c-2.337,4.463-4.301,9.153-5.848,14.029L132.768,442.349l-16.545,158.734
			l555.707,34.778c-0.11,1.809-0.175,3.631-0.175,5.467c0,3.287,0.188,6.531,0.541,9.725L106,714.373l49.449,151.74l521.787-194.248
			c1.782,4.789,3.974,9.377,6.528,13.725L192.19,973.767l106.892,118.51l397.686-389.703c3.548,3.621,7.404,6.934,11.531,9.896
			l-331.865,463.209l145.851,64.785l204.788-517.738c4.672,1.852,9.541,3.311,14.566,4.34l-114.766,558.129l159.591-0.137
			l-23.502-556.301c5.152-0.213,10.188-0.873,15.072-1.939l122.17,556.562l145.738-65.039l-247.73-498.629
			c4.562-2.27,8.898-4.926,12.966-7.928l337.989,458.764l106.686-118.691l-429.135-354.77c3.227-3.896,6.118-8.08,8.639-12.502
			l495.356,281.625l49.187-151.824L843.583,664.837C844.926,660.013,845.866,655.019,846.364,649.896z"/>
	</g>
</g>
</svg>
