<?xml version="1.0" encoding="utf-8"?>
<!-- Generator: Adobe Illustrator 16.0.0, SVG Export Plug-In . SVG Version: 6.00 Build 0)  -->
<!DOCTYPE svg PUBLIC "-//W3C//DTD SVG 1.1//EN" "http://www.w3.org/Graphics/SVG/1.1/DTD/svg11.dtd">
<svg version="1.1" id="Layer_1" xmlns="http://www.w3.org/2000/svg" xmlns:xlink="http://www.w3.org/1999/xlink" x="0px" y="0px"
	 width="15.015px" height="22.042px" viewBox="0 0 15.015 22.042" enable-background="new 0 0 15.015 22.042" xml:space="preserve">
<g>
	<g>
		<path fill-rule="evenodd" clip-rule="evenodd" fill="#9E1B36" d="M14.918,4.477c-0.212-1.113-0.716-2.066-1.503-2.862
			c-0.635-0.425-1.967-1.275-2.084-1.315c-0.703-0.236-1.424-0.34-2.165-0.285c-1.214,0.09-2.283,0.53-3.208,1.32
			C5.535,1.696,5.179,2.119,4.89,2.594C4.831,2.691,4.776,2.79,4.722,2.889C4.721,2.89,4.721,2.89,4.721,2.89
			C4.704,2.901,4.688,2.92,4.672,2.95C4.265,3.66,4.025,4.422,3.954,5.237C3.901,5.833,3.952,6.42,4.096,7
			C4.388,8.174,5.004,9.148,5.93,9.925c0.074,0.062,0.081,0.109,0.037,0.19c-0.257,0.484-0.508,0.97-0.763,1.455
			c-0.375,0.714-0.75,1.427-1.126,2.14c-0.026,0.049-0.045,0.095-0.119,0.099c-0.405,0.027-0.705,0.223-0.895,0.584
			c-0.976,1.862-1.954,3.726-2.929,5.589c-0.289,0.552-0.102,1.151,0.449,1.443c0.31,0.164,0.62,0.328,0.932,0.489
			c0.535,0.277,1.139,0.092,1.419-0.442c0.984-1.875,1.964-3.752,2.945-5.629c0.181-0.347,0.165-0.692-0.031-1.029
			c-0.035-0.06-0.033-0.103-0.002-0.16c0.219-0.415,0.434-0.833,0.651-1.248c0.411-0.786,0.823-1.572,1.235-2.358
			c0.059-0.112,0.062-0.112,0.181-0.079c0.715,0.196,1.44,0.259,2.178,0.162c1.205-0.157,2.249-0.657,3.127-1.498
			c0.368-0.353,0.678-0.752,0.928-1.194c0.429-0.673,0.699-1.404,0.814-2.192C15.046,5.655,15.029,5.064,14.918,4.477z
			 M6.617,11.449c-0.19,0.381-0.383,0.761-0.589,1.134c-0.107,0.192-0.238,0.372-0.364,0.555c-0.025,0.035-0.077,0.053-0.117,0.078
			c-0.002-0.047-0.021-0.1-0.006-0.139c0.105-0.262,0.207-0.527,0.329-0.781c0.146-0.303,0.305-0.6,0.473-0.891
			c0.073-0.126,0.183-0.23,0.279-0.343c0.011-0.014,0.045-0.022,0.059-0.015c0.018,0.011,0.025,0.038,0.044,0.07
			C6.69,11.227,6.668,11.345,6.617,11.449z M13.776,7.375c-0.105,0.231-0.229,0.459-0.373,0.685
			c-0.021,0.038-0.043,0.075-0.066,0.111c-0.517,0.835-1.252,1.464-2.229,1.849c-1.27,0.502-2.534,0.449-3.758-0.155
			C6.211,9.303,5.426,8.409,5.02,7.208C4.591,5.94,4.698,4.725,5.285,3.563C5.291,3.567,5.297,3.57,5.303,3.574
			C5.875,2.36,6.789,1.495,8.086,1.067c1.297-0.43,2.556-0.307,3.745,0.366c1.104,0.625,1.838,1.562,2.176,2.785
			C14.315,5.331,14.226,6.383,13.776,7.375z"/>
	</g>
</g>
</svg>
