<?xml version="1.0" encoding="utf-8"?>
<!-- Generator: Adobe Illustrator 22.0.1, SVG Export Plug-In . SVG Version: 6.00 Build 0)  -->
<svg version="1.1" id="Layer_1" xmlns="http://www.w3.org/2000/svg" xmlns:xlink="http://www.w3.org/1999/xlink" x="0px" y="0px"
	 viewBox="0 0 109.1 26.8" style="enable-background:new 0 0 109.1 26.8;" xml:space="preserve">
<style type="text/css">
	.st0{fill:#5D4937;}
	.st1{fill:#5D4937;fill-opacity:0;}
	.st2{fill:#9E1B36;}
</style>
<g>
	<g>
		<g>
			<g>
				<path class="st0" d="M1.4,12.8c1.8-0.4,4.1-1.3,4.1-2.7c0-0.9-0.6-1.4-1.9-2.1C2,7.2,0.9,6.5,0.9,5.2c0-1.9,2.7-3.7,5.3-4.2
					l0.4,1.4c-1.1,0.2-3.9,1-3.9,2.6c0,0.9,1.3,1.5,2.1,2c1.4,0.8,2.5,1.4,2.5,2.8c0,1.8-1.9,3.7-5.5,4.5L1.4,12.8z"/>
				<path class="st1" d="M12.6,5.5c0,2.9,0.1,4.2,0.9,5.5c0.7,1.2,1.9,1.7,3.2,1.7c1.6,0,2.6-0.8,3.2-1.7c0.9-1.3,0.9-3.5,0.9-6.4V4
					c0-1.2-0.1-2.3-0.1-3h1.8c0,0.4,0,1.6,0,3v0.8c0,3.5-0.2,5.6-1.6,7.3c-1.1,1.3-2.5,1.9-4.4,1.9c-1,0-3-0.1-4.3-2.1
					c-0.9-1.3-1.2-2.8-1.2-7.1v-1c0-0.8,0-2.1,0-2.6h1.8c0,0.5-0.1,1.3-0.1,3L12.6,5.5L12.6,5.5L12.6,5.5z"/>
				<path class="st0" d="M26.4,13.8c0.1-1.3,0.6-11.5,0.7-13.3h0c0.5,0.6,9.4,9.6,10,10.2c0-0.5,0.1-9,0.1-9.6L39,1.3
					c-0.1,1.1-0.4,8.4-0.5,13h0C38,13.7,28.7,4.4,28.3,4h0c0,0.6-0.1,9.4-0.1,10L26.4,13.8z"/>
				<path class="st0" d="M43.9,5.9c0-0.4,0-4.2-0.1-4.7c1.1,0,3.1,0,4.7,0.2c6,0.7,6.7,3.3,6.7,4.6c0,5.6-7.3,7.9-11.5,7.9
					c0.1-0.8,0.1-5.3,0.1-5.8L43.9,5.9L43.9,5.9z M45.6,12.4c5-0.4,7.9-3.3,7.9-5.8c0-2.7-3.1-4-7.9-3.9V12.4z"/>
				<path class="st0" d="M55.6,13.3c1-1.7,6.3-11.9,6.8-12.6h0c1.6,2.6,6,10.7,7.2,12.5l-1.6,1c-0.4-0.7-2.3-4.4-2.5-4.7l-6.4,0.3
					c-0.2,0.3-1.7,3.8-2,4.4L55.6,13.3z M65,8.4c-0.2-0.4-2.5-4.6-2.7-4.9c-0.3,0.4-2.4,4.8-2.6,5.1L65,8.4z"/>
				<path class="st0" d="M72.2,13.8c0.1-1.3,0.6-11.5,0.7-13.3h0c0.5,0.6,9.4,9.6,10,10.2c0-0.5,0.1-9,0.1-9.6l1.7,0.1
					c-0.1,1.1-0.4,8.4-0.5,13h0C83.7,13.7,74.4,4.4,74.1,4h0c0,0.6-0.1,9.4-0.1,10L72.2,13.8z"/>
				<path class="st0" d="M98.2,14c-0.6,0.1-1.4,0.2-2.5,0.2c-6.3,0-7.9-3.7-7.9-5.3c0-3,2.8-6.7,9.3-7.8l0.3,1.5
					c-4.2,0.5-7.7,2.9-7.7,6c0,2.2,1.8,4.3,6.2,4.3c0.7,0,1.5-0.1,2.1-0.3L98.2,14z"/>
				<path class="st0" d="M107.8,14c-0.3,0-5.8-0.2-6.2-0.2c0.1-1,0.1-4.8,0.1-5.2V6.2c0-0.3,0-4.6-0.1-5c0.4,0,5.3-0.3,5.8-0.3
					l0.1,1.4c-0.6,0-3.9,0.1-4.2,0.1V7c0.3,0,2.7-0.1,3.6-0.2l0.1,1.4c-0.4,0-3.3-0.1-3.6-0.1v4.4c0.4,0,2.9,0.1,4.4-0.1L107.8,14z"
					/>
			</g>
			<g>
				<path class="st0" d="M14.5,16.6c-0.2,0.3-3.6,7.1-4,7.8h0c-0.5-0.8-3-4.3-3.4-4.9c-0.6,0.9-2.9,4.4-3.5,5.3h0
					c-0.4-0.9-2.9-7-3.5-8.3L1.2,16c0.5,1.4,2.4,5.9,2.6,6.6c0.4-0.6,2.3-3.5,3.3-5h0c0.8,1.2,2.5,3.6,3.3,4.7
					c0.2-0.6,2.6-5.5,2.9-6.2L14.5,16.6z"/>
				<path class="st1" d="M18.1,20.8c0,1.2,0,3.3,0.1,3.5h-1.4c0-0.5,0-3.3,0-3.6v-1.3c0-0.2,0-3.1-0.1-3.4h1.4c0,0.2-0.1,2-0.1,3.4
					L18.1,20.8L18.1,20.8z"/>
				<path class="st0" d="M21.9,24.4c0.1-0.9,0.5-7.5,0.5-8.7h0c0.4,0.4,7.3,6.3,7.8,6.7c0-0.3,0.1-5.9,0.1-6.2l1.3,0.1
					c-0.1,0.7-0.3,5.5-0.4,8.5h0c-0.4-0.3-7.6-6.4-7.9-6.7h0c0,0.4-0.1,6.1-0.1,6.5L21.9,24.4z"/>
				<path class="st0" d="M40.1,24.5c-0.2,0-4.5-0.1-4.8-0.1c0-0.6,0-3.1,0-3.4v-1.6c0-0.2,0-3,0-3.2c0.3,0,4.1-0.2,4.5-0.2l0.1,0.9
					c-0.5,0-3,0.1-3.2,0.1v3c0.3,0,2.1-0.1,2.8-0.1l0,0.9c-0.3,0-2.5,0-2.8,0v2.9c0.3,0,2.3,0,3.4,0L40.1,24.5z"/>
				<path class="st0" d="M54.6,24.4c-0.4,0.1-1.1,0.1-1.9,0.1c-4.9,0-6.1-2.4-6.1-3.5c0-1.9,2.2-4.4,7.2-5.1l0.2,1
					c-3.3,0.3-6,1.9-6,3.9c0,1.4,1.4,2.8,4.8,2.8c0.6,0,1.2-0.1,1.7-0.2L54.6,24.4z"/>
				<path class="st0" d="M62.4,24.5c-0.2,0-4.5-0.1-4.8-0.1c0-0.6,0-3.1,0-3.4v-1.6c0-0.2,0-3,0-3.2c0.3,0,4.1-0.2,4.5-0.2l0.1,0.9
					c-0.5,0-3,0.1-3.2,0.1v3c0.3,0,2.1-0.1,2.8-0.1l0,0.9c-0.3,0-2.5,0-2.8,0v2.9c0.3,0,2.3,0,3.4,0L62.4,24.5z"/>
				<path class="st0" d="M67.6,16.2c-0.1,0.3-0.1,2.6-0.1,4v3.3c0.3,0,2,0,3.4,0v1c-0.2,0-4.4-0.1-4.8-0.1c0.1-0.6,0.1-3.1,0.1-3.4
					v-1.6c0-0.2,0-3-0.1-3.2L67.6,16.2L67.6,16.2z"/>
				<path class="st0" d="M75.6,16.2c-0.1,0.3-0.1,2.6-0.1,4v3.3c0.3,0,2,0,3.4,0v1c-0.2,0-4.4-0.1-4.8-0.1c0.1-0.6,0.1-3.1,0.1-3.4
					v-1.6c0-0.2,0-3-0.1-3.2L75.6,16.2L75.6,16.2z"/>
				<path class="st0" d="M80.4,24c0.8-1.1,4.9-7.8,5.2-8.2h0c1.3,1.7,4.6,7,5.6,8.2l-1.2,0.7c-0.3-0.4-1.8-2.9-2-3l-4.9,0.2
					c-0.2,0.2-1.3,2.5-1.6,2.9L80.4,24z M87.7,20.8c-0.2-0.3-1.9-3-2.1-3.2c-0.2,0.3-1.9,3.1-2,3.3L87.7,20.8z"/>
				<path class="st0" d="M95.4,20.8c0,0.4,0,3.4,0.1,3.6H94c0.1-0.3,0-4,0-4.2v-1c0-0.4,0-2.8-0.1-3c0.7,0,1.9,0,3,0.1
					c1.9,0.2,2.9,0.8,2.9,1.8s-0.8,1.8-2,2.4c0.4,0.4,2.9,3,3.3,3.4l-1.1,0.7c-0.2-0.2-3.4-3.6-3.8-4.1c0.7-0.3,2.1-1,2.1-2.2
					c0-0.5-0.5-1.3-3.2-1.3L95.4,20.8L95.4,20.8L95.4,20.8z"/>
				<path class="st0" d="M103.9,23.7c1.4-0.2,3.2-0.8,3.2-1.8c0-0.6-0.5-0.9-1.5-1.3c-1.2-0.5-2.1-1-2.1-1.9c0-1.2,2.1-2.4,4.1-2.8
					l0.3,0.9c-0.9,0.1-3,0.7-3,1.7c0,0.6,1,1,1.6,1.3c1.1,0.5,2,0.9,2,1.9c0,1.1-1.5,2.4-4.2,2.9L103.9,23.7z"/>
			</g>
			<path class="st2" d="M24.2,7.9c0,1.3-0.2,2.6-0.8,3.8c-1.8,3.8-7,4.8-10.4,1.9c-1.7-1.4-2.5-3.2-2.8-5.2C9.9,6.2,10.4,4.1,11.1,2
				c0.1-0.3,0.2-0.4,0.6-0.3c0.9,0.2,0.9,0.2,0.8,1c-0.5,2.5-0.6,4.9,0.4,7.4c0.4,1.1,1.1,2,2.2,2.8c1.8,1.3,4.1,1,5.6-0.5
				c1-1.1,1.4-2.4,1.6-3.7c0.3-2.1-0.1-4.2-0.7-6.2C21.4,2,21.5,1.8,22,1.8c0.2,0,0.3-0.1,0.5-0.1c0.3-0.1,0.3,0,0.4,0.2
				C23.6,3.3,24.2,6.2,24.2,7.9z"/>
			<path class="st2" d="M24.9,25.8c-0.5,0.5-1.2,0.7-2,0.7c-3.9,0.4-7.8,0.4-11.6,0c-0.5,0-0.9-0.1-1.3-0.4
				c-0.3-0.1-0.3-0.2,0.1-0.3c0.9-0.2,1.9-0.3,2.9-0.4c0.6-0.1,1.3-0.2,1.9-0.4c1-0.3,1.6-0.9,1.7-1.6c0.1-1.5,0.3-3,0.2-4.5
				c0-0.6-0.1-1.1-0.3-1.7c-0.2-0.4-0.4-0.9-0.9-1.2c-0.2-0.1-0.1-0.2,0-0.3c0.1-0.1,0.2-0.1,0.4-0.1c0.9,0.2,1.8,0.2,2.8,0
				c0.2,0,0.4-0.1,0.5,0.1c0.1,0.2,0,0.3-0.2,0.4c-0.8,0.4-0.9,0.9-1,1.5c-0.2,1.9-0.1,3.8,0,5.7c0,1,1,1.7,2.3,2.1
				c1.1,0.3,2.3,0.4,3.5,0.5C24.1,25.8,24.5,25.8,24.9,25.8z"/>
		</g>
	</g>
</g>
</svg>
