<?xml version="1.0" encoding="utf-8"?>
<!-- Generator: Adobe Illustrator 16.0.0, SVG Export Plug-In . SVG Version: 6.00 Build 0)  -->
<!DOCTYPE svg PUBLIC "-//W3C//DTD SVG 1.1//EN" "http://www.w3.org/Graphics/SVG/1.1/DTD/svg11.dtd">
<svg version="1.1" id="Layer_1" xmlns="http://www.w3.org/2000/svg" xmlns:xlink="http://www.w3.org/1999/xlink" x="0px" y="0px"
	 width="109.073px" height="40.1px" viewBox="0 -0.001 109.073 40.1" enable-background="new 0 -0.001 109.073 40.1"
	 xml:space="preserve">
<g>
	<text transform="matrix(1.0194 0 0 1 0.5706 12.3943)" fill="#5D4937" font-family="'LithosPro-Regular'" font-size="14.5821">A Division Of</text>
	<g>
		<g>
			<g>
				<path fill="#5D4937" d="M1.41,26.087c1.807-0.357,4.11-1.258,4.11-2.716c0-0.897-0.59-1.367-1.918-2.069
					c-1.565-0.825-2.653-1.583-2.653-2.858c0-1.908,2.729-3.688,5.254-4.247l0.388,1.387c-1.124,0.182-3.854,1.044-3.854,2.557
					c0,0.935,1.312,1.509,2.084,1.96c1.401,0.809,2.525,1.385,2.525,2.843c0,1.762-1.915,3.686-5.457,4.497L1.41,26.087z"/>
				<path fill="#5D4937" fill-opacity="0" d="M12.619,18.784c0,2.914,0.127,4.244,0.85,5.488c0.719,1.221,1.861,1.742,3.188,1.742
					c1.586,0,2.601-0.773,3.208-1.709c0.885-1.349,0.902-3.545,0.902-6.367v-0.63c0-1.239-0.072-2.303-0.108-2.968h1.751
					c0,0.395,0.018,1.585,0.018,3.003v0.827c0,3.456-0.203,5.648-1.586,7.321c-1.089,1.295-2.472,1.906-4.426,1.906
					c-0.996,0-3.005-0.144-4.297-2.141c-0.866-1.349-1.181-2.753-1.181-7.125v-0.97c0-0.826,0.021-2.14,0.021-2.555h1.75
					c-0.037,0.469-0.092,1.315-0.092,2.951v1.223h0.002V18.784z"/>
				<path fill="#5D4937" d="M26.428,27.113c0.094-1.349,0.59-11.459,0.684-13.312h0.037c0.517,0.574,9.439,9.624,10.03,10.199
					c0-0.504,0.111-8.976,0.127-9.57l1.717,0.091c-0.074,1.079-0.425,8.438-0.499,12.971h-0.037
					c-0.496-0.485-9.826-9.822-10.158-10.272H28.29c0,0.631-0.148,9.426-0.128,10.021L26.428,27.113z"/>
				<path fill="#5D4937" d="M43.906,19.198c0-0.377-0.019-4.173-0.094-4.677c1.051,0,3.1-0.02,4.704,0.179
					c6.011,0.738,6.747,3.346,6.747,4.605c0,5.575-7.264,7.896-11.469,7.896c0.074-0.826,0.111-5.287,0.111-5.774V19.198
					L43.906,19.198z M45.566,25.619c5.032-0.431,7.891-3.327,7.891-5.846c0-2.733-3.115-3.956-7.891-3.902V25.619z"/>
				<path fill="#5D4937" d="M55.631,26.521c1.016-1.728,6.326-11.944,6.767-12.629h0.038c1.622,2.555,5.992,10.667,7.246,12.539
					l-1.565,1.006c-0.37-0.685-2.323-4.372-2.527-4.659l-6.397,0.251c-0.223,0.343-1.731,3.813-2.048,4.427L55.631,26.521z
					 M65.035,21.628c-0.203-0.396-2.471-4.588-2.656-4.877c-0.275,0.396-2.396,4.804-2.562,5.092L65.035,21.628z"/>
				<path fill="#5D4937" d="M72.17,27.113c0.093-1.349,0.588-11.459,0.682-13.312h0.038c0.516,0.576,9.439,9.624,10.03,10.201
					c0-0.504,0.109-8.977,0.129-9.572l1.714,0.092c-0.074,1.078-0.423,8.437-0.498,12.971h-0.037
					c-0.498-0.486-9.827-9.823-10.159-10.273h-0.036c0,0.631-0.149,9.426-0.13,10.021L72.17,27.113z"/>
				<path fill="#5D4937" d="M98.166,27.219c-0.555,0.108-1.4,0.181-2.507,0.181c-6.286,0-7.854-3.669-7.854-5.323
					c0-2.951,2.784-6.71,9.291-7.845l0.277,1.512c-4.223,0.469-7.706,2.934-7.706,6.027c0,2.191,1.77,4.264,6.176,4.264
					c0.739,0,1.51-0.107,2.138-0.251L98.166,27.219z"/>
				<path fill="#5D4937" d="M107.789,27.292c-0.295,0-5.845-0.179-6.213-0.179c0.056-0.952,0.056-4.802,0.056-5.216v-2.41
					c0-0.289-0.036-4.623-0.056-4.966c0.44,0,5.255-0.271,5.844-0.344l0.072,1.422c-0.589,0-3.906,0.092-4.202,0.092v4.566
					c0.332,0,2.692-0.089,3.596-0.197l0.054,1.422c-0.403,0-3.281-0.071-3.648-0.071V25.8c0.443,0,2.915,0.056,4.424-0.055
					L107.789,27.292z"/>
			</g>
			<g>
				<path fill="#5D4937" d="M14.506,29.833c-0.155,0.307-3.604,7.146-3.99,7.816h-0.027c-0.515-0.821-3.036-4.271-3.405-4.859
					c-0.57,0.869-2.949,4.387-3.534,5.258H3.52C3.077,37.109,0.583,31.078,0,29.74l1.238-0.436c0.47,1.351,2.381,5.937,2.608,6.569
					c0.356-0.643,2.294-3.472,3.276-4.95h0.027c0.843,1.232,2.51,3.593,3.293,4.703c0.229-0.571,2.58-5.549,2.863-6.207
					L14.506,29.833z"/>
				<path fill="#5D4937" fill-opacity="0" d="M18.055,34.094c0,1.175,0.043,3.273,0.058,3.543H16.73
					c0.029-0.517,0.043-3.262,0.043-3.566v-1.269c0-0.197-0.043-3.098-0.071-3.38h1.425c-0.028,0.212-0.071,1.996-0.071,3.404
					V34.094z"/>
				<path fill="#5D4937" d="M21.861,37.637c0.07-0.881,0.454-7.476,0.527-8.685h0.029c0.397,0.376,7.295,6.279,7.751,6.654
					c0-0.329,0.086-5.855,0.1-6.244l1.324,0.06c-0.057,0.703-0.327,5.503-0.384,8.458H31.18c-0.386-0.314-7.596-6.405-7.85-6.696
					H23.3c0,0.407-0.113,6.146-0.099,6.536L21.861,37.637z"/>
				<path fill="#5D4937" d="M40.131,37.753c-0.229,0-4.518-0.115-4.803-0.115c0.042-0.622,0.042-3.134,0.042-3.402v-1.573
					c0-0.188-0.028-3.016-0.042-3.238c0.341,0,4.062-0.177,4.517-0.223l0.057,0.927c-0.456,0-3.021,0.061-3.248,0.061v2.98
					c0.258,0,2.081-0.06,2.779-0.13l0.042,0.928c-0.312,0-2.536-0.047-2.821-0.047v2.863c0.343,0,2.251,0.035,3.42-0.037
					L40.131,37.753z"/>
				<path fill="#5D4937" d="M54.552,37.708c-0.426,0.069-1.082,0.116-1.938,0.116c-4.857,0-6.069-2.394-6.069-3.474
					c0-1.925,2.151-4.378,7.182-5.115l0.215,0.983c-3.265,0.307-5.956,1.914-5.956,3.933c0,1.431,1.368,2.781,4.773,2.781
					c0.57,0,1.169-0.072,1.653-0.166L54.552,37.708z"/>
				<path fill="#5D4937" d="M62.405,37.753c-0.228,0-4.516-0.115-4.802-0.115c0.042-0.622,0.042-3.134,0.042-3.402v-1.573
					c0-0.188-0.028-3.016-0.042-3.238c0.34,0,4.062-0.177,4.518-0.223l0.058,0.927c-0.457,0-3.022,0.061-3.25,0.061v2.98
					c0.256,0,2.081-0.06,2.779-0.13l0.041,0.928c-0.312,0-2.536-0.047-2.821-0.047v2.863c0.341,0,2.253,0.035,3.42-0.037
					L62.405,37.753z"/>
				<path fill="#5D4937" d="M67.635,29.423c-0.057,0.26-0.113,2.57-0.113,4.05v3.319c0.34,0,2.023,0,3.393-0.049v1.012
					c-0.2,0-4.434-0.117-4.787-0.117c0.114-0.622,0.114-3.134,0.114-3.413v-1.562c0-0.186-0.027-3.016-0.06-3.238L67.635,29.423
					L67.635,29.423z"/>
				<path fill="#5D4937" d="M75.644,29.423c-0.058,0.26-0.111,2.57-0.111,4.05v3.319c0.341,0,2.021,0,3.391-0.049v1.012
					c-0.201,0-4.433-0.117-4.787-0.117c0.113-0.622,0.113-3.134,0.113-3.413v-1.562c0-0.186-0.028-3.016-0.058-3.238L75.644,29.423
					L75.644,29.423z"/>
				<path fill="#5D4937" d="M80.404,37.25c0.783-1.127,4.889-7.792,5.229-8.239h0.03c1.254,1.667,4.63,6.959,5.6,8.18l-1.211,0.658
					c-0.286-0.446-1.796-2.852-1.954-3.039l-4.942,0.165c-0.174,0.222-1.343,2.485-1.584,2.885L80.404,37.25z M87.672,34.059
					c-0.156-0.259-1.909-2.993-2.05-3.183c-0.214,0.261-1.854,3.134-1.981,3.322L87.672,34.059z"/>
				<path fill="#5D4937" d="M95.354,34.046c0,0.444,0.042,3.414,0.071,3.592h-1.382c0.057-0.282,0.027-4.002,0.027-4.247v-0.964
					c0-0.352-0.027-2.78-0.069-3.004c0.667,0,1.865,0.013,2.964,0.117c1.881,0.188,2.949,0.845,2.949,1.842s-0.812,1.772-1.98,2.384
					c0.357,0.398,2.92,3.016,3.32,3.367l-1.082,0.718c-0.158-0.167-3.363-3.626-3.792-4.119c0.714-0.318,2.138-1.033,2.138-2.185
					c0-0.527-0.47-1.312-3.162-1.337v3.836H95.354L95.354,34.046z"/>
				<path fill="#5D4937" d="M103.919,36.969c1.396-0.234,3.179-0.822,3.179-1.773c0-0.585-0.457-0.89-1.481-1.348
					c-1.212-0.538-2.053-1.032-2.053-1.867c0-1.241,2.108-2.405,4.062-2.77l0.299,0.903c-0.87,0.118-2.979,0.683-2.979,1.667
					c0,0.609,1.015,0.984,1.611,1.279c1.084,0.526,1.952,0.903,1.952,1.854c0,1.147-1.481,2.405-4.218,2.935L103.919,36.969z"/>
			</g>
			<path fill="#9E1B36" d="M24.206,21.196c0.001,1.297-0.201,2.561-0.78,3.769c-1.847,3.846-6.971,4.787-10.438,1.913
				c-1.695-1.408-2.508-3.188-2.779-5.177c-0.303-2.211,0.147-4.345,0.893-6.449c0.119-0.339,0.244-0.412,0.636-0.312
				c0.932,0.237,0.921,0.215,0.764,1.048c-0.47,2.479-0.597,4.949,0.387,7.37c0.442,1.086,1.104,2.049,2.153,2.781
				c1.812,1.263,4.111,1.046,5.57-0.533c0.998-1.078,1.422-2.353,1.606-3.699c0.286-2.102-0.081-4.152-0.707-6.173
				c-0.131-0.425-0.06-0.628,0.448-0.691c0.17-0.018,0.344-0.065,0.497-0.134c0.257-0.109,0.323,0,0.413,0.185
				C23.562,16.567,24.197,19.431,24.206,21.196z"/>
			<path fill="#9E1B36" d="M24.918,39.038c-0.474,0.521-1.203,0.666-1.95,0.742c-3.88,0.402-7.765,0.438-11.649,0.033
				c-0.478-0.049-0.941-0.146-1.332-0.356c-0.255-0.138-0.276-0.21,0.068-0.298c0.932-0.246,1.926-0.285,2.891-0.42
				c0.646-0.091,1.28-0.204,1.873-0.402c1.021-0.34,1.603-0.897,1.674-1.643c0.146-1.496,0.307-2.995,0.226-4.496
				c-0.029-0.562-0.111-1.124-0.316-1.676c-0.166-0.438-0.374-0.868-0.895-1.184c-0.213-0.13-0.092-0.217-0.012-0.329
				c0.094-0.131,0.217-0.141,0.42-0.096c0.915,0.205,1.835,0.152,2.753-0.002c0.2-0.035,0.393-0.101,0.532,0.094
				c0.129,0.187,0.042,0.269-0.18,0.372c-0.755,0.354-0.917,0.901-0.987,1.458c-0.233,1.883-0.11,3.769-0.035,5.653
				c0.042,1.021,0.975,1.668,2.303,2.087c1.086,0.347,2.259,0.444,3.451,0.461C24.119,39.042,24.486,39.038,24.918,39.038z"/>
		</g>
	</g>
</g>
</svg>
